<?xml version="1.0" encoding="utf-8"?>
<!-- Generator: Adobe Illustrator 16.0.0, SVG Export Plug-In . SVG Version: 6.00 Build 0)  -->
<!DOCTYPE svg PUBLIC "-//W3C//DTD SVG 1.1//EN" "http://www.w3.org/Graphics/SVG/1.1/DTD/svg11.dtd">
<svg version="1.1" id="calendar" xmlns="http://www.w3.org/2000/svg" xmlns:xlink="http://www.w3.org/1999/xlink" x="0px" y="0px"
	 viewBox="0 0 841.889 1190.549" enable-background="new 0 0 841.889 1190.549"
	 xml:space="preserve">
<g id="bottom-page">
	<path id="bottom-paper" fill="#FFFFFF" d="M9.723,232.814v717.447h822.434V232.814H9.723z M107.771,314.856
		c-11.952,0-21.657-9.686-21.657-21.648c0-11.962,9.695-21.667,21.657-21.667c11.963,0,21.658,9.696,21.658,21.667
		C129.429,305.17,119.734,314.856,107.771,314.856z M212.757,314.856c-11.952,0-21.648-9.686-21.648-21.648
		c0-11.962,9.696-21.667,21.648-21.667c11.963,0,21.668,9.696,21.668,21.667C234.425,305.17,224.72,314.856,212.757,314.856z
		 M317.762,314.856c-11.962,0-21.667-9.686-21.667-21.648c0-11.962,9.705-21.667,21.667-21.667c11.963,0,21.658,9.696,21.658,21.667
		C339.42,305.17,329.725,314.856,317.762,314.856z M422.74,314.856c-11.953,0-21.648-9.686-21.648-21.648
		c0-11.962,9.695-21.667,21.648-21.667c11.962,0,21.657,9.696,21.657,21.667C444.397,305.17,434.701,314.856,422.74,314.856z
		 M527.744,314.856c-11.962,0-21.658-9.686-21.658-21.648c0-11.962,9.696-21.667,21.658-21.667c11.953,0,21.648,9.696,21.648,21.667
		C549.393,305.17,539.698,314.856,527.744,314.856z M632.74,314.856c-11.962,0-21.657-9.686-21.657-21.648
		c0-11.962,9.695-21.667,21.657-21.667c11.953,0,21.649,9.696,21.649,21.667C654.379,305.17,644.693,314.856,632.74,314.856z
		 M737.727,314.856c-11.963,0-21.658-9.686-21.658-21.648c0-11.962,9.695-21.667,21.658-21.667c11.952,0,21.648,9.696,21.648,21.667
		C759.375,305.17,749.679,314.856,737.727,314.856z"/>
	<text id="bottom-month" transform="matrix(1 0 0 1 0 918.0823)" font-family="'Passion One'" font-size="322">JUN</text>
	<text id="bottom-day" transform="matrix(1 0 0 1 0 668.176)" font-family="'Passion One'" font-size="504">03</text>
</g>
<g id="top-page">
	<path id="top-paper" fill="#FFFFFF" d="M9.723,232.814v717.447h822.434V232.814H9.723z M107.771,314.856
		c-11.952,0-21.657-9.686-21.657-21.648c0-11.962,9.695-21.667,21.657-21.667c11.963,0,21.658,9.696,21.658,21.667
		C129.429,305.17,119.734,314.856,107.771,314.856z M212.757,314.856c-11.952,0-21.648-9.686-21.648-21.648
		c0-11.962,9.696-21.667,21.648-21.667c11.963,0,21.668,9.696,21.668,21.667C234.425,305.17,224.72,314.856,212.757,314.856z
		 M317.762,314.856c-11.962,0-21.667-9.686-21.667-21.648c0-11.962,9.705-21.667,21.667-21.667c11.963,0,21.658,9.696,21.658,21.667
		C339.42,305.17,329.725,314.856,317.762,314.856z M422.74,314.856c-11.953,0-21.648-9.686-21.648-21.648
		c0-11.962,9.695-21.667,21.648-21.667c11.962,0,21.657,9.696,21.657,21.667C444.397,305.17,434.701,314.856,422.74,314.856z
		 M527.744,314.856c-11.962,0-21.658-9.686-21.658-21.648c0-11.962,9.696-21.667,21.658-21.667c11.953,0,21.648,9.696,21.648,21.667
		C549.393,305.17,539.698,314.856,527.744,314.856z M632.74,314.856c-11.962,0-21.657-9.686-21.657-21.648
		c0-11.962,9.695-21.667,21.657-21.667c11.953,0,21.649,9.696,21.649,21.667C654.379,305.17,644.693,314.856,632.74,314.856z
		 M737.727,314.856c-11.963,0-21.658-9.686-21.658-21.648c0-11.962,9.695-21.667,21.658-21.667c11.952,0,21.648,9.696,21.648,21.667
		C759.375,305.17,749.679,314.856,737.727,314.856z"/>
	<text id="top-month" transform="matrix(1 0 0 1 0 918.0823)" font-family="'Passion One'" font-size="322">JUN</text>
	<text id="top-day" transform="matrix(1 0 0 1 0 668.176)" font-family="'Passion One'" font-size="504">02</text>
</g>
<g id="spirals">
	<line fill="none" stroke="#DDDDDD" stroke-width="28" stroke-miterlimit="10" x1="422.74" y1="293.207" x2="422.74" y2="171.346"/>
	
		<line fill="none" stroke="#DDDDDD" stroke-width="28" stroke-miterlimit="10" x1="317.762" y1="293.207" x2="317.762" y2="171.346"/>
	
		<line fill="none" stroke="#DDDDDD" stroke-width="28" stroke-miterlimit="10" x1="212.757" y1="293.207" x2="212.757" y2="171.346"/>
	
		<line fill="none" stroke="#DDDDDD" stroke-width="28" stroke-miterlimit="10" x1="107.771" y1="293.207" x2="107.771" y2="171.346"/>
	
		<line fill="none" stroke="#DDDDDD" stroke-width="28" stroke-miterlimit="10" x1="527.744" y1="293.207" x2="527.744" y2="171.346"/>
	<line fill="none" stroke="#DDDDDD" stroke-width="28" stroke-miterlimit="10" x1="632.74" y1="293.207" x2="632.74" y2="171.346"/>
	
		<line fill="none" stroke="#DDDDDD" stroke-width="28" stroke-miterlimit="10" x1="737.727" y1="293.207" x2="737.727" y2="171.346"/>
</g>
</svg>
