<?xml version="1.0" encoding="utf-8"?>
<!-- Generator: Adobe Illustrator 16.0.0, SVG Export Plug-In . SVG Version: 6.00 Build 0)  -->
<!DOCTYPE svg PUBLIC "-//W3C//DTD SVG 1.1//EN" "http://www.w3.org/Graphics/SVG/1.1/DTD/svg11.dtd">
<svg version="1.1" xmlns="http://www.w3.org/2000/svg" xmlns:xlink="http://www.w3.org/1999/xlink" x="0px" y="0px" viewBox="0 0 91 118.443" enable-background="new 0 0 91 118.443" xml:space="preserve">
<g id="Layer_25" display="none">
	<rect x="-239" y="-255.5" display="inline" fill="#FDBA54" width="595.28" height="841.89"/>
</g>
<g id="Head" display="none">
	<g id="Ears" display="inline">
		<path id="Right_Ear_1_" fill="#F4D9C3" d="M19.601,67.375c0,0-0.051-0.217-0.148-0.586c-0.577-2.201-2.758-9.828-5.107-9.292
			c-2.742,0.625-3.428,4.5-3.428,6.25s2.856,9.5,3.2,12.5c0.343,3,1.028,7,2.285,8c1.256,1,3.046,1.127,3.907-0.125
			C22.796,80.502,19.601,67.375,19.601,67.375z"/>
		<path id="Left_Ear_1_" fill="#F4D9C3" d="M72.294,67.375c0,0,0.052-0.217,0.147-0.586c0.58-2.201,2.761-9.828,5.108-9.292
			c2.742,0.625,3.429,4.5,3.429,6.25s-2.857,9.5-3.199,12.5c-0.344,3-1.029,7-2.286,8s-3.046,1.127-3.906-0.125
			C69.099,80.502,72.294,67.375,72.294,67.375z"/>
	</g>
	<g id="Face_1_" display="inline">
		<path id="Face" fill="#F4D9C3" d="M47.931,14.154c-0.702-0.025-1.409,0.029-2.121,0.165c-0.712-0.136-1.418-0.19-2.121-0.165
			C30.2,14.543,18.687,43.615,18.336,58.948c-0.026,1.157,0.008,2.238,0.113,3.22c0.816,7.671,1.364,24.216,4.262,30.667
			c0.524,1.167,1.24,2.421,2.09,3.714c3.335,5.229,9.632,11.814,10.921,13.577c1.829,2.5,4.914,4.043,10.055,4.043
			c0.011,0,0.022-0.002,0.033-0.002s0.022,0.002,0.033,0.002c5.142,0,8.227-1.543,10.056-4.043c1.288-1.762,7.58-8.342,10.916-13.57
			c0.853-1.295,1.57-2.551,2.095-3.721c2.898-6.45,3.445-22.996,4.262-30.667c0.104-0.982,0.14-2.063,0.113-3.22
			C72.935,43.615,61.422,14.543,47.931,14.154z"/>
	</g>
	<g id="Eyebrows" display="inline">
		<g id="Right_Eyebrow_1_">
			<path fill="#A97C50" d="M40.313,56.039c-0.24-0.283-0.49-0.525-0.674-0.67c-0.715-0.565-1.621-0.844-2.513-0.923
				c-1.833-0.161-3.68,0.101-5.501,0.319c-1.991,0.239-4.169,0.132-6.095,0.759c-0.695,0.226-3.211,1.743-3.033,2.664
				c0.188,0.971,3.715-0.28,4.383-0.417c1.924-0.393,3.892-0.404,5.835-0.637c1.206-0.144,2.419-0.233,3.632-0.257
				c0.82-0.016,4.7,2.081,4.738,0.672C41.097,57.109,40.719,56.516,40.313,56.039z"/>
		</g>
		<g id="Left_Eyebrow_1_">
			<path fill="#A97C50" d="M50.976,56.039c0.239-0.283,0.489-0.525,0.673-0.67c0.715-0.565,1.622-0.844,2.513-0.923
				c1.833-0.161,3.681,0.101,5.501,0.319c1.991,0.239,4.17,0.132,6.095,0.759c0.694,0.226,3.211,1.743,3.032,2.664
				c-0.188,0.971-3.715-0.28-4.382-0.417c-1.926-0.393-3.893-0.404-5.835-0.637c-1.206-0.144-2.419-0.233-3.632-0.257
				c-0.819-0.016-4.7,2.081-4.738,0.672C50.192,57.109,50.571,56.516,50.976,56.039z"/>
		</g>
	</g>
	<g id="Hair" display="inline">
		<path id="Hair_1_" fill="#A97C50" d="M18.899,75.008C18.191,52.5,12.6,58.554,13.581,31.079c0.078-2.179,1.823-2.829,1.691-5.579
			c-0.272-5.701,3.94-7.37,8.366-11.352c6.619-5.954,9.293-6.982,9.293-6.982s7.545-3.855,13.45-3
			c6.34,0.918,18.7,2.083,21.69,7.967c1.862,3.663,3.279,3.216,5.982,8.533c1.779,3.5,3.322,6.315,3.508,7.833
			c3.416,27.975-4.917,26.154-4.917,46.787c0,0.388-0.85,0.103-0.909-0.279c-0.983-6.347,3.321-25.758-2.697-30.508
			c-3.117-2.46-3.762-9.129-6.741-9.796c-3.261-0.729-6.264-2.05-11.313-1.704c-5.479,0.375-8.684-0.25-12.112-0.25
			c-2.641,0-7.427,1.954-7.427,1.954s-7.982,3.047-8.417,7.629c-0.507,5.338-4.377,10.333-4.266,12.5
			c0.112,2.167,1.478,16.063,1.33,20.195C20.056,76.051,18.907,75.284,18.899,75.008z"/>
	</g>
	<g id="Eyes" display="inline">
		<path id="Left_Eye" fill="#FFFFFF" d="M39.609,63.68c0.533,0.907-0.182,1.244-0.948,1.439c-1.481,0.376-1.895,0.607-5.037,0.7
			c-4.183,0.124-8.125-0.338-8.125-1.568c0-0.863,3.948-3.813,8.185-3.813C37.285,60.438,38.261,61.387,39.609,63.68z"/>
		<path id="Right_Eye" fill="#FFFFFF" d="M52.192,63.68c-0.534,0.907,0.182,1.244,0.948,1.439c1.482,0.376,1.895,0.607,5.037,0.7
			c4.183,0.124,8.125-0.338,8.125-1.568c0-0.863-3.947-3.813-8.184-3.813C54.516,60.438,53.541,61.387,52.192,63.68z"/>
		<g id="Pupils">
			<ellipse cx="33.091" cy="63.346" rx="1.541" ry="1.686"/>
			<ellipse cx="58.711" cy="63.346" rx="1.541" ry="1.686"/>
		</g>
	</g>
	<g id="Glasses" display="inline">
		<path d="M43.043,60.769c-1.428-1.516-4.041-1.516-6.808-1.516H22.753c-1.565,0-2.779,0.432-3.609,1.283
			c-0.35,0.358-0.62,0.788-0.824,1.281l-1.44,0.031c-0.363,0.028-0.609,0.604-0.549,1.284l0.362,4.092
			c0.06,0.68,0.404,1.21,0.767,1.182l0.846-0.021l0.133,1.056c1.015,4.204,3.873,4.204,7.184,4.204h10.041
			c5.407,0,7.068-2.517,7.515-4.662l0.736-4.679C44.119,62.765,43.834,61.608,43.043,60.769z M42.328,64.103l-0.727,4.629
			c-0.48,2.299-2.422,3.417-5.939,3.417H25.622c-3.256,0-4.89,0-5.609-2.958l-0.478-3.835c-0.175-1.811,0.091-3.091,0.79-3.808
			c0.522-0.536,1.316-0.796,2.429-0.796h13.482c2.29,0,4.658,0,5.609,1.009C42.314,62.259,42.472,63.03,42.328,64.103z"/>
		<path d="M47.466,64.305l0.735,4.679c0.448,2.146,2.108,4.662,7.516,4.662h10.041c3.31,0,6.169,0,7.184-4.204l0.133-1.056
			l0.846,0.021c0.363,0.028,0.705-0.502,0.767-1.182l0.362-4.092c0.061-0.681-0.187-1.256-0.549-1.284l-1.441-0.031
			c-0.203-0.493-0.474-0.923-0.823-1.281c-0.831-0.851-2.045-1.283-3.609-1.283H55.144c-2.767,0-5.38,0-6.809,1.516
			C47.545,61.608,47.26,62.765,47.466,64.305z M49.535,61.761c0.951-1.009,3.318-1.009,5.608-1.009h13.482
			c1.112,0,1.907,0.26,2.43,0.796c0.698,0.716,0.964,1.997,0.79,3.808l-0.479,3.835c-0.719,2.958-2.353,2.958-5.608,2.958H55.717
			c-3.516,0-5.458-1.118-5.938-3.417l-0.728-4.629C48.908,63.03,49.065,62.259,49.535,61.761z"/>
		<path fill="none" stroke="#000000" stroke-width="1.25" stroke-miterlimit="10" d="M42.941,65.153c0,0,0.923-1.758,2.832-1.771
			c1.875-0.013,2.831,1.771,2.831,1.771"/>
	</g>
	<g id="Mouth" display="inline">
		<path id="Teeth" fill="#FFFFFF" d="M34.446,92.489c0.126-0.273,0.711,0.082,0.917,0.095c0.264,0.018,0.529-0.083,0.792-0.095
			c1.477-0.063,3.028,0.279,4.49,0.467c0.437,0.056,0.857,0.122,1.285,0.188c0.647,0.1,1.309,0.168,1.959,0.258
			c1.542,0.213,3.151,0.01,4.715-0.095c0.636-0.043,1.26-0.203,1.885-0.274c0.424-0.048,0.887-0.068,1.308-0.168
			c0.793-0.19,1.564-0.416,2.329-0.689c0.626-0.225,1.4-0.2,2.063-0.27c0.632-0.066,1.264-0.132,1.896-0.199
			c0.16-0.017,0.659,0.023,0.789-0.083c0,0-6.077,4.913-8.646,5.87c-1.844,0.687-5.578,0.569-7.441-0.058
			c-1.574-0.53-3.146-0.817-4.553-1.815c-0.832-0.589-1.857-0.884-2.643-1.498c-0.377-0.295-1.182-0.944-1.172-1.486
			C34.419,92.575,34.429,92.526,34.446,92.489z"/>
		<path id="Bottom_Lip" fill="#BC7362" d="M34.492,93.759c0.564,0.603,1.291,0.995,1.933,1.5c0.636,0.5,1.286,0.822,1.959,1.272
			c0.456,0.305,0.897,0.656,1.369,0.942c0.639,0.389,1.242,0.856,1.979,1.036c0.407,0.1,0.82,0.198,1.229,0.285
			c2.094,0.447,4.134-0.07,6.239-0.065c1.392,0.003,2.298-0.482,3.405-1.302c0.784-0.581,1.672-1.001,2.445-1.599
			c0.889-0.687,1.719-1.45,2.496-2.267c0.392-0.412,0.9-0.767,1.207-1.253c0.105-0.166,0.71-0.745,0.555-0.843
			c-0.134-0.085-0.462,0.111-0.592,0.157c-0.25,0.089-0.526,0.082-0.773,0.165c-0.228,0.076-0.392,0.242-0.589,0.394
			c-0.463,0.358-0.935,0.707-1.399,1.063c-0.867,0.666-1.804,1.229-2.684,1.876c-0.741,0.544-1.622,1.02-2.461,1.386
			c-0.954,0.415-2.18,0.5-3.204,0.531c-1.301,0.038-2.609,0.096-3.902-0.092c-1.673-0.244-3.31-0.765-4.844-1.486
			c-0.724-0.339-1.222-0.715-1.85-1.166c-0.466-0.333-1.002-0.536-1.485-0.838c-0.249-0.156-0.434-0.366-0.662-0.541
			c-0.187-0.144-0.41-0.209-0.625-0.316c-0.207-0.103-0.356-0.318-0.578-0.378C33.546,92.784,34.148,93.393,34.492,93.759z"/>
		<path id="Top_Lip_1_" fill="#CE9975" d="M59.362,91.413c-0.41-0.116-0.919,0.023-1.329,0.107
			c-0.403,0.083-0.786,0.216-1.202,0.226c-1.209,0.029-2.4,0.103-3.602,0.25c-0.521,0.063-1.048,0.087-1.562,0.208
			c-0.818,0.192-1.617,0.342-2.45,0.475c-0.531,0.083-1.064,0.15-1.598,0.217c-1.882,0.234-3.552,0.126-5.405-0.155
			c-1.616-0.247-3.247-0.386-4.88-0.431c-0.953-0.026-1.888-0.049-2.838-0.038c-0.287,0.003-0.57-0.151-0.849-0.022
			c-0.148,0.068,0.904,0.497,0.945,0.513c0.048,0.02,0.093,0.038,0.137,0.055c0.386,0.152,0.652,0.226,1.109,0.237
			c0.641,0.016,1.264,0.204,1.891,0.233c0.41,0.02,0.802,0.094,1.206,0.111c0.557,0.024,1.156,0.119,1.729,0.164
			c0.539,0.042,1.023,0.223,1.563,0.275c1.205,0.117,2.416,0.028,3.623,0.03c1.779,0.002,3.583-0.008,5.323-0.43
			c0.68-0.165,1.342-0.393,2.019-0.568c0.673-0.173,1.289-0.196,1.979-0.208c0.456-0.008,0.898-0.119,1.354-0.164
			c0.587-0.057,1.157-0.27,1.685-0.53c0.254-0.125,0.445-0.212,0.715-0.268C59.125,91.658,59.312,91.682,59.362,91.413z"/>
	</g>
	<g id="Nose" display="inline">
		<g>
			<path fill="#DDB690" d="M40.421,78.121c-1.368,1.448-2.166,4.483-0.761,6.211c0.688,0.847,1.398,1.06,2.449,1.241
				c1.506,0.261,2.435,1.613,4.094,1.809c1.063,0.125,2.114-0.373,2.861-1.09c1.149-1.104,2.569-1.175,3.527-2.456
				c0.804-1.076,0.758-2.5,0.309-3.716c-0.323-0.872-0.881-2.378-1.946-2.467c-0.074,0.514,0.509,1.338,0.648,1.909
				c0.159,0.651,0.244,1.331,0.269,2.001c0.046,1.218-0.908,1.822-1.925,2.187c-1.1,0.394-1.588,1.591-2.651,2.071
				c-1.146,0.518-2.315,0.109-3.26-0.653c-0.929-0.749-1.917-1.272-3.025-1.772c-1.599-0.721-1.227-2.251-0.542-3.535
				C40.674,79.473,41.444,77.039,40.421,78.121z"/>
		</g>
	</g>
</g>
<g id="Envelope">
	<rect id="Inside" x="2.686" y="31.854" fill="#F1F2F2" width="85.627" height="58.499"/>
	<path id="Front" fill="#FFFFFF" d="M86.55,31.854L47.038,71.365c-0.85,0.85-2.226,0.851-3.075,0.001L4.45,31.854H2.686v58.499
		h85.627V31.854H86.55z"/>
	<path fill="#D1D3D4" d="M45.5,73.001c-0.813,0-1.625-0.309-2.244-0.928L3.031,31.854h2.833L44.67,70.659
		c0.222,0.222,0.517,0.344,0.83,0.344h0c0.313,0,0.609-0.123,0.831-0.345l38.805-38.805h2.833L47.745,72.072
		C47.126,72.691,46.313,73.001,45.5,73.001z"/>
	<polygon id="Flap" fill="#FFFFFF" points="45.327,76.875 45.327,76.875 2.686,31.854 87.969,31.854 	"/>
</g>
</svg>
