<?xml version="1.0" encoding="utf-8"?>
<!-- Generator: Adobe Illustrator 16.0.0, SVG Export Plug-In . SVG Version: 6.00 Build 0)  -->
<!DOCTYPE svg PUBLIC "-//W3C//DTD SVG 1.1//EN" "http://www.w3.org/Graphics/SVG/1.1/DTD/svg11.dtd">
<svg version="1.1" id="jack-caricature-and-scenery"
	 xmlns="http://www.w3.org/2000/svg" xmlns:xlink="http://www.w3.org/1999/xlink" x="0px" y="0px"
	 viewBox="0 0 612 792" enable-background="new 0 0 612 792" xml:space="preserve">
<g id="contact-background">
	<g id="phone-booth">
		<rect x="78.996" y="160.78" fill="#72181D" width="243.409" height="515.122"/>
		<path fill="#BC353E" d="M340.986,81.453c-17.521-34.621-72.678-59.899-138.007-59.899c-65.327,0-120.483,25.278-138.003,59.896
			v8.104h276.01V81.453L340.986,81.453z"/>
		<rect x="68.538" y="83.746" fill="#BC353E" width="268.882" height="70.153"/>
		<path fill="#FFFFFF" d="M297.702,137.079c0,0.102-0.925,0.184-2.063,0.184H110.241c-1.14,0-2.063-0.082-2.063-0.184v-36.514
			c0-0.101,0.925-0.183,2.063-0.183h185.399c1.138,0,2.064,0.082,2.064,0.183L297.702,137.079L297.702,137.079z"/>
		<path fill="#BC353E" d="M337.862,149.465H67.937c-1.658,0-3.003,1.345-3.003,3.007v594.712c0,1.659,1.345,3.008,3.003,3.008
			h269.926c1.656,0,3.007-1.345,3.007-3.008V152.469C340.865,150.811,339.519,149.465,337.862,149.465z M240.523,191.459h52.137
			v80.439h-52.137V191.459L240.523,191.459z M240.523,284.947h52.137v80.435h-52.137V284.947L240.523,284.947z M176.861,191.459H229
			v80.439h-52.139V191.459z M176.861,284.947H229v80.435h-52.139V284.947z M113.198,191.459h52.137v80.439h-52.137V191.459z
			 M113.198,284.947h52.137v80.435h-52.137V284.947z M113.179,471.919h52.136v80.433h-52.136V471.919L113.179,471.919z
			 M165.355,645.841h-52.136v-80.438h52.136V645.841z M165.375,458.869h-52.138v-80.438h52.138V458.869L165.375,458.869z
			 M176.842,471.919h52.137v80.433h-52.137V471.919L176.842,471.919z M229.018,645.841h-52.137v-80.438h52.137V645.841z
			 M229.038,458.869h-52.137v-80.438h52.137V458.869z M240.503,471.919h52.138v80.433h-52.138V471.919z M292.682,645.841h-52.14
			v-80.438h52.14V645.841z M292.7,458.869h-52.138v-80.438H292.7V458.869z"/>
		<rect x="61.538" y="744.857" width="282.806" height="29.866"/>
	</g>
	<g id="post-box">
		<rect x="420.248" y="342.401" fill="#BC353E" width="120.882" height="342.557"/>
		<path d="M417.519,774.414v-87.93c0-1.877,0.955-3.398,2.132-3.398h122.079c1.177,0,2.128,1.521,2.128,3.398v87.93"/>
		<path fill="#BC353E" d="M555.33,333.765c-9.479-12.863-39.307-22.254-74.64-22.254c-35.335,0-65.164,9.391-74.643,22.254v10.814
			l74.643,26.606l74.64-26.606V333.765L555.33,333.765z"/>
		<rect x="440.822" y="383.763" width="79.736" height="15.161"/>
		<rect x="456.677" y="417.967" fill="#FFFFFF" width="48.029" height="68.444"/>
		<path fill="#BC353E" d="M543.729,362.264c0,1.475-1.197,2.667-2.669,2.667H419.733c-1.474,0-2.666-1.195-2.666-2.667v-0.034
			c0-1.474,1.196-2.669,2.666-2.669h121.324c1.476,0,2.671,1.199,2.671,2.669V362.264L543.729,362.264z"/>
	</g>
</g>
<g id="comedy-club-background">
	<g id="brick-wall">
		<path fill="#AD3D24" d="M161.861,244.331c0,2.759-2.235,4.991-4.991,4.991H87.036c-2.76,0-4.992-2.231-4.992-4.991v-21.075
			c0-2.755,2.231-4.991,4.992-4.991h69.834c2.755,0,4.991,2.235,4.991,4.991V244.331z"/>
		<path fill="#84271A" d="M244.025,244.331c0,2.759-2.235,4.991-4.991,4.991H169.2c-2.758,0-4.991-2.231-4.991-4.991v-21.075
			c0-2.755,2.231-4.991,4.991-4.991h69.835c2.756,0,4.991,2.235,4.991,4.991L244.025,244.331L244.025,244.331z"/>
		<path fill="#AD3D24" d="M326.188,244.331c0,2.759-2.234,4.991-4.991,4.991h-69.833c-2.76,0-4.991-2.231-4.991-4.991v-21.075
			c0-2.755,2.23-4.991,4.991-4.991h69.833c2.755,0,4.991,2.235,4.991,4.991V244.331z"/>
		<path fill="#AD3D24" d="M408.354,244.331c0,2.759-2.235,4.991-4.995,4.991h-69.832c-2.758,0-4.99-2.231-4.99-4.991v-21.075
			c0-2.755,2.231-4.991,4.99-4.991h69.832c2.759,0,4.995,2.235,4.995,4.991V244.331L408.354,244.331z"/>
		<path fill="#AD3D24" d="M490.518,244.331c0,2.759-2.235,4.991-4.996,4.991H415.69c-2.759,0-4.995-2.231-4.995-4.991v-21.075
			c0-2.755,2.235-4.991,4.995-4.991h69.831c2.76,0,4.996,2.235,4.996,4.991V244.331L490.518,244.331z"/>
		<path fill="#AD3D24" d="M572.68,244.331c0,2.759-2.233,4.991-4.994,4.991h-69.831c-2.759,0-4.992-2.231-4.992-4.991v-21.075
			c0-2.755,2.231-4.991,4.992-4.991h69.832c2.758,0,4.994,2.235,4.994,4.991L572.68,244.331L572.68,244.331z"/>
		<path fill="#AD3D24" d="M121.953,277.197c0,2.759-2.235,4.991-4.991,4.991H47.128c-2.76,0-4.991-2.231-4.991-4.991v-21.074
			c0-2.755,2.23-4.991,4.991-4.991h69.834c2.755,0,4.991,2.235,4.991,4.991L121.953,277.197L121.953,277.197z"/>
		<path fill="#AD3D24" d="M204.118,277.197c0,2.759-2.235,4.991-4.991,4.991h-69.835c-2.759,0-4.99-2.231-4.99-4.991v-21.074
			c0-2.755,2.231-4.991,4.99-4.991h69.835c2.755,0,4.991,2.235,4.991,4.991L204.118,277.197L204.118,277.197z"/>
		<path fill="#AD3D24" d="M286.28,277.197c0,2.759-2.234,4.991-4.99,4.991h-69.834c-2.759,0-4.991-2.231-4.991-4.991v-21.074
			c0-2.755,2.231-4.991,4.991-4.991h69.835c2.756,0,4.991,2.235,4.991,4.991L286.28,277.197L286.28,277.197z"/>
		<path fill="#AD3D24" d="M368.444,277.197c0,2.759-2.234,4.991-4.99,4.991h-69.835c-2.76,0-4.993-2.231-4.993-4.991v-21.074
			c0-2.755,2.231-4.991,4.993-4.991h69.835c2.754,0,4.99,2.235,4.99,4.991V277.197z"/>
		<path fill="#AD3D24" d="M450.608,277.197c0,2.759-2.235,4.991-4.996,4.991h-69.83c-2.759,0-4.995-2.231-4.995-4.991v-21.074
			c0-2.755,2.235-4.991,4.995-4.991h69.831c2.76,0,4.996,2.235,4.996,4.991L450.608,277.197L450.608,277.197z"/>
		<path fill="#AD3D24" d="M532.771,277.197c0,2.759-2.232,4.991-4.994,4.991h-69.83c-2.759,0-4.995-2.231-4.995-4.991v-21.074
			c0-2.755,2.234-4.991,4.995-4.991h69.83c2.761,0,4.995,2.235,4.995,4.991L532.771,277.197L532.771,277.197z"/>
		<path fill="#AD3D24" d="M161.861,178.6c0,2.759-2.235,4.991-4.991,4.991H87.036c-2.76,0-4.992-2.231-4.992-4.991v-21.074
			c0-2.756,2.235-4.991,4.992-4.991h69.834c2.755,0,4.991,2.235,4.991,4.991V178.6z"/>
		<path fill="#AD3D24" d="M244.025,178.6c0,2.759-2.235,4.991-4.991,4.991H169.2c-2.758,0-4.991-2.231-4.991-4.991v-21.074
			c0-2.756,2.231-4.991,4.991-4.991h69.835c2.756,0,4.991,2.235,4.991,4.991L244.025,178.6L244.025,178.6z"/>
		<path fill="#AD3D24" d="M326.188,178.6c0,2.759-2.234,4.991-4.991,4.991h-69.833c-2.76,0-4.991-2.231-4.991-4.991v-21.074
			c0-2.756,2.23-4.991,4.991-4.991h69.833c2.755,0,4.991,2.235,4.991,4.991V178.6z"/>
		<path fill="#AD3D24" d="M408.354,178.6c0,2.759-2.235,4.991-4.995,4.991h-69.832c-2.758,0-4.99-2.231-4.99-4.991v-21.074
			c0-2.756,2.231-4.991,4.99-4.991h69.832c2.759,0,4.995,2.235,4.995,4.991V178.6L408.354,178.6z"/>
		<path fill="#AD3D24" d="M490.518,178.6c0,2.759-2.235,4.991-4.996,4.991H415.69c-2.759,0-4.995-2.231-4.995-4.991v-21.074
			c0-2.756,2.235-4.991,4.995-4.991h69.831c2.76,0,4.996,2.235,4.996,4.991V178.6L490.518,178.6z"/>
		<path fill="#AD3D24" d="M572.68,178.6c0,2.759-2.233,4.991-4.994,4.991h-69.831c-2.759,0-4.992-2.231-4.992-4.991v-21.074
			c0-2.756,2.231-4.991,4.992-4.991h69.832c2.758,0,4.994,2.235,4.994,4.991L572.68,178.6L572.68,178.6z"/>
		<path fill="#AD3D24" d="M121.953,211.465c0,2.76-2.235,4.991-4.991,4.991H47.128c-2.76,0-4.991-2.231-4.991-4.991v-21.073
			c0-2.755,2.233-4.991,4.991-4.991h69.834c2.755,0,4.991,2.234,4.991,4.991L121.953,211.465L121.953,211.465z"/>
		<path fill="#AD3D24" d="M204.118,211.465c0,2.76-2.235,4.991-4.991,4.991h-69.835c-2.759,0-4.99-2.231-4.99-4.991v-21.073
			c0-2.755,2.234-4.991,4.99-4.991h69.835c2.755,0,4.991,2.234,4.991,4.991L204.118,211.465L204.118,211.465z"/>
		<path fill="#AD3D24" d="M286.28,211.465c0,2.76-2.234,4.991-4.99,4.991h-69.834c-2.759,0-4.991-2.231-4.991-4.991v-21.073
			c0-2.755,2.231-4.991,4.991-4.991h69.835c2.756,0,4.991,2.234,4.991,4.991L286.28,211.465L286.28,211.465z"/>
		<path fill="#AD3D24" d="M368.444,211.465c0,2.76-2.234,4.991-4.99,4.991h-69.835c-2.76,0-4.993-2.231-4.993-4.991v-21.073
			c0-2.755,2.231-4.991,4.993-4.991h69.835c2.754,0,4.99,2.234,4.99,4.991V211.465z"/>
		<path fill="#84271A" d="M450.608,211.465c0,2.76-2.235,4.991-4.996,4.991h-69.83c-2.759,0-4.995-2.231-4.995-4.991v-21.073
			c0-2.755,2.235-4.991,4.995-4.991h69.831c2.76,0,4.996,2.234,4.996,4.991L450.608,211.465L450.608,211.465z"/>
		<path fill="#AD3D24" d="M532.771,211.465c0,2.76-2.232,4.991-4.994,4.991h-69.83c-2.759,0-4.995-2.231-4.995-4.991v-21.073
			c0-2.755,2.234-4.991,4.995-4.991h69.83c2.761,0,4.995,2.234,4.995,4.991L532.771,211.465L532.771,211.465z"/>
		<path fill="#AD3D24" d="M161.861,310.063c0,2.758-2.235,4.991-4.991,4.991H87.036c-2.76,0-4.992-2.231-4.992-4.991v-21.075
			c0-2.755,2.231-4.992,4.992-4.992h69.834c2.755,0,4.991,2.235,4.991,4.992V310.063z"/>
		<path fill="#AD3D24" d="M244.025,310.063c0,2.758-2.235,4.991-4.991,4.991H169.2c-2.758,0-4.991-2.231-4.991-4.991v-21.075
			c0-2.755,2.231-4.992,4.991-4.992h69.835c2.756,0,4.991,2.235,4.991,4.992L244.025,310.063L244.025,310.063z"/>
		<path fill="#AD3D24" d="M326.188,310.063c0,2.758-2.234,4.991-4.991,4.991h-69.833c-2.76,0-4.991-2.231-4.991-4.991v-21.075
			c0-2.755,2.23-4.992,4.991-4.992h69.833c2.755,0,4.991,2.235,4.991,4.992V310.063z"/>
		<path fill="#AD3D24" d="M408.354,310.063c0,2.758-2.235,4.991-4.995,4.991h-69.832c-2.758,0-4.99-2.231-4.99-4.991v-21.075
			c0-2.755,2.231-4.992,4.99-4.992h69.832c2.759,0,4.995,2.235,4.995,4.992V310.063L408.354,310.063z"/>
		<path fill="#AD3D24" d="M490.518,310.063c0,2.758-2.235,4.991-4.996,4.991H415.69c-2.759,0-4.995-2.231-4.995-4.991v-21.075
			c0-2.755,2.235-4.992,4.995-4.992h69.831c2.76,0,4.996,2.235,4.996,4.992V310.063L490.518,310.063z"/>
		<path fill="#84271A" d="M572.68,310.063c0,2.758-2.233,4.991-4.994,4.991h-69.831c-2.759,0-4.992-2.231-4.992-4.991v-21.075
			c0-2.755,2.231-4.992,4.992-4.992h69.832c2.758,0,4.994,2.235,4.994,4.992L572.68,310.063L572.68,310.063z"/>
		<path fill="#AD3D24" d="M121.953,342.928c0,2.759-2.235,4.99-4.991,4.99H47.128c-2.76,0-4.991-2.231-4.991-4.99v-21.074
			c0-2.755,2.23-4.991,4.991-4.991h69.834c2.755,0,4.991,2.234,4.991,4.991L121.953,342.928L121.953,342.928z"/>
		<path fill="#AD3D24" d="M204.118,342.928c0,2.759-2.235,4.99-4.991,4.99h-69.835c-2.759,0-4.99-2.231-4.99-4.99v-21.074
			c0-2.755,2.231-4.991,4.99-4.991h69.835c2.755,0,4.991,2.234,4.991,4.991L204.118,342.928L204.118,342.928z"/>
		<path fill="#AD3D24" d="M286.28,342.928c0,2.759-2.234,4.99-4.99,4.99h-69.834c-2.759,0-4.991-2.231-4.991-4.99v-21.074
			c0-2.755,2.231-4.991,4.991-4.991h69.835c2.756,0,4.991,2.234,4.991,4.991L286.28,342.928L286.28,342.928z"/>
		<path fill="#AD3D24" d="M368.444,342.928c0,2.759-2.234,4.99-4.99,4.99h-69.835c-2.76,0-4.993-2.231-4.993-4.99v-21.074
			c0-2.755,2.231-4.991,4.993-4.991h69.835c2.754,0,4.99,2.234,4.99,4.991V342.928z"/>
		<path fill="#AD3D24" d="M450.608,342.928c0,2.759-2.235,4.99-4.996,4.99h-69.83c-2.759,0-4.995-2.231-4.995-4.99v-21.074
			c0-2.755,2.235-4.991,4.995-4.991h69.831c2.76,0,4.996,2.234,4.996,4.991L450.608,342.928L450.608,342.928z"/>
		<path fill="#AD3D24" d="M532.771,342.928c0,2.759-2.232,4.99-4.994,4.99h-69.83c-2.759,0-4.995-2.231-4.995-4.99v-21.074
			c0-2.755,2.234-4.991,4.995-4.991h69.83c2.761,0,4.995,2.234,4.995,4.991L532.771,342.928L532.771,342.928z"/>
		<path fill="#AD3D24" d="M161.861,375.792c0,2.76-2.235,4.991-4.991,4.991H87.036c-2.76,0-4.992-2.23-4.992-4.991v-21.074
			c0-2.755,2.231-4.991,4.992-4.991h69.834c2.755,0,4.991,2.234,4.991,4.991V375.792z"/>
		<path fill="#AD3D24" d="M244.025,375.792c0,2.76-2.235,4.991-4.991,4.991H169.2c-2.758,0-4.991-2.23-4.991-4.991v-21.074
			c0-2.755,2.231-4.991,4.991-4.991h69.835c2.756,0,4.991,2.234,4.991,4.991L244.025,375.792L244.025,375.792z"/>
		<path fill="#84271A" d="M326.188,375.792c0,2.76-2.234,4.991-4.991,4.991h-69.833c-2.76,0-4.991-2.23-4.991-4.991v-21.074
			c0-2.755,2.23-4.991,4.991-4.991h69.833c2.755,0,4.991,2.234,4.991,4.991V375.792z"/>
		<path fill="#AD3D24" d="M408.354,375.792c0,2.76-2.235,4.991-4.995,4.991h-69.832c-2.758,0-4.99-2.23-4.99-4.991v-21.074
			c0-2.755,2.231-4.991,4.99-4.991h69.832c2.759,0,4.995,2.234,4.995,4.991V375.792L408.354,375.792z"/>
		<path fill="#AD3D24" d="M490.518,375.792c0,2.76-2.235,4.991-4.996,4.991H415.69c-2.759,0-4.995-2.23-4.995-4.991v-21.074
			c0-2.755,2.235-4.991,4.995-4.991h69.831c2.76,0,4.996,2.234,4.996,4.991V375.792L490.518,375.792z"/>
		<path fill="#AD3D24" d="M572.68,375.792c0,2.76-2.233,4.991-4.994,4.991h-69.831c-2.759,0-4.992-2.23-4.992-4.991v-21.074
			c0-2.755,2.231-4.991,4.992-4.991h69.832c2.758,0,4.994,2.234,4.994,4.991L572.68,375.792L572.68,375.792z"/>
		<path fill="#AD3D24" d="M121.953,408.658c0,2.759-2.235,4.99-4.991,4.99H47.128c-2.76,0-4.991-2.23-4.991-4.99v-21.074
			c0-2.755,2.23-4.991,4.991-4.991h69.834c2.755,0,4.991,2.235,4.991,4.991L121.953,408.658L121.953,408.658z"/>
		<path fill="#AD3D24" d="M204.118,408.658c0,2.759-2.235,4.99-4.991,4.99h-69.835c-2.759,0-4.99-2.23-4.99-4.99v-21.074
			c0-2.755,2.231-4.991,4.99-4.991h69.835c2.755,0,4.991,2.235,4.991,4.991L204.118,408.658L204.118,408.658z"/>
		<path fill="#AD3D24" d="M286.28,408.658c0,2.759-2.234,4.99-4.99,4.99h-69.834c-2.759,0-4.991-2.23-4.991-4.99v-21.074
			c0-2.755,2.231-4.991,4.991-4.991h69.835c2.756,0,4.991,2.235,4.991,4.991L286.28,408.658L286.28,408.658z"/>
		<path fill="#AD3D24" d="M368.444,408.658c0,2.759-2.234,4.99-4.99,4.99h-69.835c-2.76,0-4.993-2.23-4.993-4.99v-21.074
			c0-2.755,2.231-4.991,4.993-4.991h69.835c2.754,0,4.99,2.235,4.99,4.991V408.658z"/>
		<path fill="#AD3D24" d="M450.608,408.658c0,2.759-2.235,4.99-4.996,4.99h-69.83c-2.759,0-4.995-2.23-4.995-4.99v-21.074
			c0-2.755,2.235-4.991,4.995-4.991h69.831c2.76,0,4.996,2.235,4.996,4.991L450.608,408.658L450.608,408.658z"/>
		<path fill="#84271A" d="M532.771,408.658c0,2.759-2.232,4.99-4.994,4.99h-69.83c-2.759,0-4.995-2.23-4.995-4.99v-21.074
			c0-2.755,2.234-4.991,4.995-4.991h69.83c2.761,0,4.995,2.235,4.995,4.991L532.771,408.658L532.771,408.658z"/>
		<path fill="#84271A" d="M161.861,441.523c0,2.76-2.235,4.99-4.991,4.99H87.036c-2.76,0-4.992-2.229-4.992-4.99v-21.074
			c0-2.756,2.231-4.99,4.992-4.99h69.834c2.755,0,4.991,2.234,4.991,4.99V441.523z"/>
		<path fill="#AD3D24" d="M244.025,441.523c0,2.76-2.235,4.99-4.991,4.99H169.2c-2.758,0-4.991-2.229-4.991-4.99v-21.074
			c0-2.756,2.231-4.99,4.991-4.99h69.835c2.756,0,4.991,2.234,4.991,4.99L244.025,441.523L244.025,441.523z"/>
		<path fill="#AD3D24" d="M326.188,441.523c0,2.76-2.234,4.99-4.991,4.99h-69.833c-2.76,0-4.991-2.229-4.991-4.99v-21.074
			c0-2.756,2.23-4.99,4.991-4.99h69.833c2.755,0,4.991,2.234,4.991,4.99V441.523z"/>
		<path fill="#AD3D24" d="M408.354,441.523c0,2.76-2.235,4.99-4.995,4.99h-69.832c-2.758,0-4.99-2.229-4.99-4.99v-21.074
			c0-2.756,2.231-4.99,4.99-4.99h69.832c2.759,0,4.995,2.234,4.995,4.99V441.523L408.354,441.523z"/>
		<path fill="#AD3D24" d="M490.518,441.523c0,2.76-2.235,4.99-4.996,4.99H415.69c-2.759,0-4.995-2.229-4.995-4.99v-21.074
			c0-2.756,2.235-4.99,4.995-4.99h69.831c2.76,0,4.996,2.234,4.996,4.99V441.523L490.518,441.523z"/>
		<path fill="#AD3D24" d="M572.68,441.523c0,2.76-2.233,4.99-4.994,4.99h-69.831c-2.759,0-4.992-2.229-4.992-4.99v-21.074
			c0-2.756,2.231-4.99,4.992-4.99h69.832c2.758,0,4.994,2.234,4.994,4.99L572.68,441.523L572.68,441.523z"/>
		<path fill="#AD3D24" d="M121.953,474.389c0,2.76-2.235,4.991-4.991,4.991H47.128c-2.76,0-4.991-2.23-4.991-4.991v-21.072
			c0-2.757,2.23-4.991,4.991-4.991h69.834c2.755,0,4.991,2.234,4.991,4.991L121.953,474.389L121.953,474.389z"/>
		<path fill="#AD3D24" d="M204.118,474.389c0,2.76-2.235,4.991-4.991,4.991h-69.835c-2.759,0-4.99-2.23-4.99-4.991v-21.072
			c0-2.757,2.231-4.991,4.99-4.991h69.835c2.755,0,4.991,2.234,4.991,4.991L204.118,474.389L204.118,474.389z"/>
		<path fill="#AD3D24" d="M286.28,474.389c0,2.76-2.234,4.991-4.99,4.991h-69.834c-2.759,0-4.991-2.23-4.991-4.991v-21.072
			c0-2.757,2.231-4.991,4.991-4.991h69.835c2.756,0,4.991,2.234,4.991,4.991L286.28,474.389L286.28,474.389z"/>
		<path fill="#AD3D24" d="M368.444,474.389c0,2.76-2.234,4.991-4.99,4.991h-69.835c-2.76,0-4.993-2.23-4.993-4.991v-21.072
			c0-2.757,2.231-4.991,4.993-4.991h69.835c2.754,0,4.99,2.234,4.99,4.991V474.389z"/>
		<path fill="#AD3D24" d="M450.608,474.389c0,2.76-2.235,4.991-4.996,4.991h-69.83c-2.759,0-4.995-2.23-4.995-4.991v-21.072
			c0-2.757,2.235-4.991,4.995-4.991h69.831c2.76,0,4.996,2.234,4.996,4.991L450.608,474.389L450.608,474.389z"/>
		<path fill="#AD3D24" d="M532.771,474.389c0,2.76-2.232,4.991-4.994,4.991h-69.83c-2.759,0-4.995-2.23-4.995-4.991v-21.072
			c0-2.757,2.234-4.991,4.995-4.991h69.83c2.761,0,4.995,2.234,4.995,4.991L532.771,474.389L532.771,474.389z"/>
		<path fill="#AD3D24" d="M161.861,507.255c0,2.76-2.235,4.99-4.991,4.99H87.036c-2.76,0-4.992-2.229-4.992-4.99v-21.074
			c0-2.755,2.231-4.99,4.992-4.99h69.834c2.755,0,4.991,2.234,4.991,4.99V507.255z"/>
		<path fill="#AD3D24" d="M244.025,507.255c0,2.76-2.235,4.99-4.991,4.99H169.2c-2.758,0-4.991-2.229-4.991-4.99v-21.074
			c0-2.755,2.231-4.99,4.991-4.99h69.835c2.756,0,4.991,2.234,4.991,4.99L244.025,507.255L244.025,507.255z"/>
		<path fill="#AD3D24" d="M326.188,507.255c0,2.76-2.234,4.99-4.991,4.99h-69.833c-2.76,0-4.991-2.229-4.991-4.99v-21.074
			c0-2.755,2.23-4.99,4.991-4.99h69.833c2.755,0,4.991,2.234,4.991,4.99V507.255z"/>
		<path fill="#84271A" d="M408.354,507.255c0,2.76-2.235,4.99-4.995,4.99h-69.832c-2.758,0-4.99-2.229-4.99-4.99v-21.074
			c0-2.755,2.231-4.99,4.99-4.99h69.832c2.759,0,4.995,2.234,4.995,4.99V507.255L408.354,507.255z"/>
		<path fill="#AD3D24" d="M490.518,507.255c0,2.76-2.235,4.99-4.996,4.99H415.69c-2.759,0-4.995-2.229-4.995-4.99v-21.074
			c0-2.755,2.235-4.99,4.995-4.99h69.831c2.76,0,4.996,2.234,4.996,4.99V507.255L490.518,507.255z"/>
		<path fill="#AD3D24" d="M572.68,507.255c0,2.76-2.233,4.99-4.994,4.99h-69.831c-2.759,0-4.992-2.229-4.992-4.99v-21.074
			c0-2.755,2.231-4.99,4.992-4.99h69.832c2.758,0,4.994,2.234,4.994,4.99L572.68,507.255L572.68,507.255z"/>
		<path fill="#AD3D24" d="M121.953,540.12c0,2.76-2.235,4.991-4.991,4.991H47.128c-2.76,0-4.991-2.23-4.991-4.991v-21.072
			c0-2.756,2.23-4.992,4.991-4.992h69.834c2.755,0,4.991,2.234,4.991,4.992L121.953,540.12L121.953,540.12z"/>
		<path fill="#AD3D24" d="M204.118,540.12c0,2.76-2.235,4.991-4.991,4.991h-69.835c-2.759,0-4.99-2.23-4.99-4.991v-21.072
			c0-2.756,2.231-4.992,4.99-4.992h69.835c2.755,0,4.991,2.234,4.991,4.992L204.118,540.12L204.118,540.12z"/>
		<path fill="#AD3D24" d="M286.28,540.12c0,2.76-2.234,4.991-4.99,4.991h-69.834c-2.759,0-4.991-2.23-4.991-4.991v-21.072
			c0-2.756,2.231-4.992,4.991-4.992h69.835c2.756,0,4.991,2.234,4.991,4.992L286.28,540.12L286.28,540.12z"/>
		<path fill="#AD3D24" d="M368.444,540.12c0,2.76-2.234,4.991-4.99,4.991h-69.835c-2.76,0-4.993-2.23-4.993-4.991v-21.072
			c0-2.756,2.231-4.992,4.993-4.992h69.835c2.754,0,4.99,2.234,4.99,4.992V540.12z"/>
		<path fill="#AD3D24" d="M450.608,540.12c0,2.76-2.235,4.991-4.996,4.991h-69.83c-2.759,0-4.995-2.23-4.995-4.991v-21.072
			c0-2.756,2.235-4.992,4.995-4.992h69.831c2.76,0,4.996,2.234,4.996,4.992L450.608,540.12L450.608,540.12z"/>
		<path fill="#AD3D24" d="M532.771,540.12c0,2.76-2.232,4.991-4.994,4.991h-69.83c-2.759,0-4.995-2.23-4.995-4.991v-21.072
			c0-2.756,2.234-4.992,4.995-4.992h69.83c2.761,0,4.995,2.234,4.995,4.992L532.771,540.12L532.771,540.12z"/>
		<path fill="#AD3D24" d="M161.861,572.986c0,2.76-2.235,4.99-4.991,4.99H87.036c-2.76,0-4.992-2.229-4.992-4.99v-21.074
			c0-2.756,2.231-4.991,4.992-4.991h69.834c2.755,0,4.991,2.234,4.991,4.991V572.986z"/>
		<path fill="#AD3D24" d="M244.025,572.986c0,2.76-2.235,4.99-4.991,4.99H169.2c-2.758,0-4.991-2.229-4.991-4.99v-21.074
			c0-2.756,2.231-4.991,4.991-4.991h69.835c2.756,0,4.991,2.234,4.991,4.991L244.025,572.986L244.025,572.986z"/>
		<path fill="#AD3D24" d="M326.188,572.986c0,2.76-2.234,4.99-4.991,4.99h-69.833c-2.76,0-4.991-2.229-4.991-4.99v-21.074
			c0-2.756,2.23-4.991,4.991-4.991h69.833c2.755,0,4.991,2.234,4.991,4.991V572.986z"/>
		<path fill="#AD3D24" d="M408.354,572.986c0,2.76-2.235,4.99-4.995,4.99h-69.832c-2.758,0-4.99-2.229-4.99-4.99v-21.074
			c0-2.756,2.231-4.991,4.99-4.991h69.832c2.759,0,4.995,2.234,4.995,4.991V572.986L408.354,572.986z"/>
		<path fill="#84271A" d="M490.518,572.986c0,2.76-2.235,4.99-4.996,4.99H415.69c-2.759,0-4.995-2.229-4.995-4.99v-21.074
			c0-2.756,2.235-4.991,4.995-4.991h69.831c2.76,0,4.996,2.234,4.996,4.991V572.986L490.518,572.986z"/>
		<path fill="#AD3D24" d="M572.68,572.986c0,2.76-2.233,4.99-4.994,4.99h-69.831c-2.759,0-4.992-2.229-4.992-4.99v-21.074
			c0-2.756,2.231-4.991,4.992-4.991h69.832c2.758,0,4.994,2.234,4.994,4.991L572.68,572.986L572.68,572.986z"/>
		<path fill="#AD3D24" d="M121.953,605.852c0,2.76-2.235,4.992-4.991,4.992H47.128c-2.76,0-4.991-2.23-4.991-4.992v-21.072
			c0-2.757,2.23-4.992,4.991-4.992h69.834c2.755,0,4.991,2.234,4.991,4.992L121.953,605.852L121.953,605.852z"/>
		<path fill="#84271A" d="M204.118,605.852c0,2.76-2.235,4.992-4.991,4.992h-69.835c-2.759,0-4.99-2.23-4.99-4.992v-21.072
			c0-2.757,2.231-4.992,4.99-4.992h69.835c2.755,0,4.991,2.234,4.991,4.992L204.118,605.852L204.118,605.852z"/>
		<path fill="#AD3D24" d="M286.28,605.852c0,2.76-2.234,4.992-4.99,4.992h-69.834c-2.759,0-4.991-2.23-4.991-4.992v-21.072
			c0-2.757,2.231-4.992,4.991-4.992h69.835c2.756,0,4.991,2.234,4.991,4.992L286.28,605.852L286.28,605.852z"/>
		<path fill="#AD3D24" d="M368.444,605.852c0,2.76-2.234,4.992-4.99,4.992h-69.835c-2.76,0-4.993-2.23-4.993-4.992v-21.072
			c0-2.757,2.231-4.992,4.993-4.992h69.835c2.754,0,4.99,2.234,4.99,4.992V605.852z"/>
		<path fill="#AD3D24" d="M450.608,605.852c0,2.76-2.235,4.992-4.996,4.992h-69.83c-2.759,0-4.995-2.23-4.995-4.992v-21.072
			c0-2.757,2.235-4.992,4.995-4.992h69.831c2.76,0,4.996,2.234,4.996,4.992L450.608,605.852L450.608,605.852z"/>
		<path fill="#AD3D24" d="M532.771,605.852c0,2.76-2.232,4.992-4.994,4.992h-69.83c-2.759,0-4.995-2.23-4.995-4.992v-21.072
			c0-2.757,2.234-4.992,4.995-4.992h69.83c2.761,0,4.995,2.234,4.995,4.992L532.771,605.852L532.771,605.852z"/>
		<path fill="#AD3D24" d="M161.861,638.717c0,2.76-2.235,4.992-4.991,4.992H87.036c-2.76,0-4.992-2.231-4.992-4.992v-21.069
			c0-2.76,2.231-4.993,4.992-4.993h69.834c2.755,0,4.991,2.232,4.991,4.993V638.717z"/>
		<path fill="#AD3D24" d="M244.025,638.717c0,2.76-2.235,4.992-4.991,4.992H169.2c-2.758,0-4.991-2.231-4.991-4.992v-21.069
			c0-2.76,2.231-4.993,4.991-4.993h69.835c2.756,0,4.991,2.232,4.991,4.993L244.025,638.717L244.025,638.717z"/>
		<path fill="#AD3D24" d="M326.188,638.717c0,2.76-2.234,4.992-4.991,4.992h-69.833c-2.76,0-4.991-2.231-4.991-4.992v-21.069
			c0-2.76,2.23-4.993,4.991-4.993h69.833c2.755,0,4.991,2.232,4.991,4.993V638.717z"/>
		<path fill="#AD3D24" d="M408.354,638.717c0,2.76-2.235,4.992-4.995,4.992h-69.832c-2.758,0-4.99-2.231-4.99-4.992v-21.069
			c0-2.76,2.231-4.993,4.99-4.993h69.832c2.759,0,4.995,2.232,4.995,4.993V638.717L408.354,638.717z"/>
		<path fill="#AD3D24" d="M490.518,638.717c0,2.76-2.235,4.992-4.996,4.992H415.69c-2.759,0-4.995-2.231-4.995-4.992v-21.069
			c0-2.76,2.235-4.993,4.995-4.993h69.831c2.76,0,4.996,2.232,4.996,4.993V638.717L490.518,638.717z"/>
		<path fill="#AD3D24" d="M572.68,638.717c0,2.76-2.233,4.992-4.994,4.992h-69.831c-2.759,0-4.992-2.231-4.992-4.992v-21.069
			c0-2.76,2.231-4.993,4.992-4.993h69.832c2.758,0,4.994,2.232,4.994,4.993L572.68,638.717L572.68,638.717z"/>
		<path fill="#84271A" d="M121.953,671.582c0,2.761-2.235,4.992-4.991,4.992H47.128c-2.76,0-4.991-2.231-4.991-4.992v-21.069
			c0-2.76,2.23-4.994,4.991-4.994h69.834c2.755,0,4.991,2.233,4.991,4.994L121.953,671.582L121.953,671.582z"/>
		<path fill="#AD3D24" d="M204.118,671.582c0,2.761-2.235,4.992-4.991,4.992h-69.835c-2.759,0-4.99-2.231-4.99-4.992v-21.069
			c0-2.76,2.231-4.994,4.99-4.994h69.835c2.755,0,4.991,2.233,4.991,4.994L204.118,671.582L204.118,671.582z"/>
		<path fill="#AD3D24" d="M286.28,671.582c0,2.761-2.234,4.992-4.99,4.992h-69.834c-2.759,0-4.991-2.231-4.991-4.992v-21.069
			c0-2.76,2.231-4.994,4.991-4.994h69.835c2.756,0,4.991,2.233,4.991,4.994L286.28,671.582L286.28,671.582z"/>
		<path fill="#84271A" d="M368.444,671.582c0,2.761-2.234,4.992-4.99,4.992h-69.835c-2.76,0-4.993-2.231-4.993-4.992v-21.069
			c0-2.76,2.231-4.994,4.993-4.994h69.835c2.754,0,4.99,2.233,4.99,4.994V671.582z"/>
		<path fill="#AD3D24" d="M450.608,671.582c0,2.761-2.235,4.992-4.996,4.992h-69.83c-2.759,0-4.995-2.231-4.995-4.992v-21.069
			c0-2.76,2.235-4.994,4.995-4.994h69.831c2.76,0,4.996,2.233,4.996,4.994L450.608,671.582L450.608,671.582z"/>
		<path fill="#AD3D24" d="M532.771,671.582c0,2.761-2.232,4.992-4.994,4.992h-69.83c-2.759,0-4.995-2.231-4.995-4.992v-21.069
			c0-2.76,2.234-4.994,4.995-4.994h69.83c2.761,0,4.995,2.233,4.995,4.994L532.771,671.582L532.771,671.582z"/>
		<path fill="#AD3D24" d="M161.861,704.448c0,2.761-2.235,4.991-4.991,4.991H87.036c-2.76,0-4.992-2.229-4.992-4.991v-21.069
			c0-2.759,2.231-4.992,4.992-4.992h69.834c2.755,0,4.991,2.231,4.991,4.992V704.448z"/>
		<path fill="#AD3D24" d="M244.025,704.448c0,2.761-2.235,4.991-4.991,4.991H169.2c-2.758,0-4.991-2.229-4.991-4.991v-21.069
			c0-2.759,2.231-4.992,4.991-4.992h69.835c2.756,0,4.991,2.231,4.991,4.992L244.025,704.448L244.025,704.448z"/>
		<path fill="#AD3D24" d="M326.188,704.448c0,2.761-2.234,4.991-4.991,4.991h-69.833c-2.76,0-4.991-2.229-4.991-4.991v-21.069
			c0-2.759,2.23-4.992,4.991-4.992h69.833c2.755,0,4.991,2.231,4.991,4.992V704.448z"/>
		<path fill="#AD3D24" d="M408.354,704.448c0,2.761-2.235,4.991-4.995,4.991h-69.832c-2.758,0-4.99-2.229-4.99-4.991v-21.069
			c0-2.759,2.231-4.992,4.99-4.992h69.832c2.759,0,4.995,2.231,4.995,4.992V704.448L408.354,704.448z"/>
		<path fill="#AD3D24" d="M490.518,704.448c0,2.761-2.235,4.991-4.996,4.991H415.69c-2.759,0-4.995-2.229-4.995-4.991v-21.069
			c0-2.759,2.235-4.992,4.995-4.992h69.831c2.76,0,4.996,2.231,4.996,4.992V704.448L490.518,704.448z"/>
		<path fill="#84271A" d="M572.68,704.448c0,2.761-2.233,4.991-4.994,4.991h-69.831c-2.759,0-4.992-2.229-4.992-4.991v-21.069
			c0-2.759,2.231-4.992,4.992-4.992h69.832c2.758,0,4.994,2.231,4.994,4.992L572.68,704.448L572.68,704.448z"/>
		<path fill="#AD3D24" d="M161.861,770.18c0,2.761-2.235,4.992-4.991,4.992H87.036c-2.76,0-4.992-2.23-4.992-4.992V749.11
			c0-2.759,2.231-4.993,4.992-4.993h69.834c2.755,0,4.991,2.232,4.991,4.993V770.18z"/>
		<path fill="#AD3D24" d="M244.025,770.18c0,2.761-2.235,4.992-4.991,4.992H169.2c-2.758,0-4.991-2.23-4.991-4.992V749.11
			c0-2.759,2.231-4.993,4.991-4.993h69.835c2.756,0,4.991,2.232,4.991,4.993L244.025,770.18L244.025,770.18z"/>
		<path fill="#AD3D24" d="M326.188,770.18c0,2.761-2.234,4.992-4.991,4.992h-69.833c-2.76,0-4.991-2.23-4.991-4.992V749.11
			c0-2.759,2.23-4.993,4.991-4.993h69.833c2.755,0,4.991,2.232,4.991,4.993V770.18z"/>
		<path fill="#AD3D24" d="M408.354,770.18c0,2.761-2.235,4.992-4.995,4.992h-69.832c-2.758,0-4.99-2.23-4.99-4.992V749.11
			c0-2.759,2.231-4.993,4.99-4.993h69.832c2.759,0,4.995,2.232,4.995,4.993V770.18L408.354,770.18z"/>
		<path fill="#AD3D24" d="M490.518,770.18c0,2.761-2.235,4.992-4.996,4.992H415.69c-2.759,0-4.995-2.23-4.995-4.992V749.11
			c0-2.759,2.235-4.993,4.995-4.993h69.831c2.76,0,4.996,2.232,4.996,4.993V770.18L490.518,770.18z"/>
		<path fill="#84271A" d="M572.68,770.18c0,2.761-2.233,4.992-4.994,4.992h-69.831c-2.759,0-4.992-2.23-4.992-4.992V749.11
			c0-2.759,2.231-4.993,4.992-4.993h69.832c2.758,0,4.994,2.232,4.994,4.993L572.68,770.18L572.68,770.18z"/>
		<path fill="#AD3D24" d="M121.953,737.313c0,2.761-2.235,4.993-4.991,4.993H47.128c-2.76,0-4.991-2.231-4.991-4.993v-21.069
			c0-2.76,2.23-4.991,4.991-4.991h69.834c2.755,0,4.991,2.23,4.991,4.991L121.953,737.313L121.953,737.313z"/>
		<path fill="#AD3D24" d="M204.118,737.313c0,2.761-2.235,4.993-4.991,4.993h-69.835c-2.759,0-4.99-2.231-4.99-4.993v-21.069
			c0-2.76,2.231-4.991,4.99-4.991h69.835c2.755,0,4.991,2.23,4.991,4.991L204.118,737.313L204.118,737.313z"/>
		<path fill="#AD3D24" d="M286.28,737.313c0,2.761-2.234,4.993-4.99,4.993h-69.834c-2.759,0-4.991-2.231-4.991-4.993v-21.069
			c0-2.76,2.231-4.991,4.991-4.991h69.835c2.756,0,4.991,2.23,4.991,4.991L286.28,737.313L286.28,737.313z"/>
		<path fill="#AD3D24" d="M368.444,737.313c0,2.761-2.234,4.993-4.99,4.993h-69.835c-2.76,0-4.993-2.231-4.993-4.993v-21.069
			c0-2.76,2.231-4.991,4.993-4.991h69.835c2.754,0,4.99,2.23,4.99,4.991V737.313z"/>
		<path fill="#AD3D24" d="M450.608,737.313c0,2.761-2.235,4.993-4.996,4.993h-69.83c-2.759,0-4.995-2.231-4.995-4.993v-21.069
			c0-2.76,2.235-4.991,4.995-4.991h69.831c2.76,0,4.996,2.23,4.996,4.991L450.608,737.313L450.608,737.313z"/>
		<path fill="#AD3D24" d="M532.771,737.313c0,2.761-2.232,4.993-4.994,4.993h-69.83c-2.759,0-4.995-2.231-4.995-4.993v-21.069
			c0-2.76,2.234-4.991,4.995-4.991h69.83c2.761,0,4.995,2.23,4.995,4.991L532.771,737.313L532.771,737.313z"/>
	</g>
</g>
<g id="media-background">
	<g id="media-tv">
		<path id="media-body" fill="#333333" d="M433.401,378.587c2.838,0,5.14-2.304,5.14-5.139v-146.98c0-2.841-2.304-5.142-5.14-5.142
			H189.874c-2.834,0-5.139,2.3-5.139,5.142v146.981c0,2.836,2.304,5.139,5.139,5.139L433.401,378.587L433.401,378.587z"/>
		<rect id="media-screen-off" x="191.577" y="228.068" width="240.118" height="135.067"/>
		<path id="media-television-led" fill="#8AA24C" d="M425.918,376.72c-0.561,0-1.016-0.455-1.016-1.016s0.456-1.014,1.016-1.014
			h3.655c0.562,0,1.015,0.454,1.015,1.014c0,0.562-0.454,1.016-1.015,1.016H425.918z"/>
		
			<line id="media-television-decoration" fill="none" stroke="#8D9092" stroke-width="8" stroke-miterlimit="10" x1="184.736" y1="370.857" x2="438.541" y2="370.857"/>
	</g>
	<g id="photo-frame-1">
		<polygon id="photo-frame-1-stand" fill="#6E7172" points="129.609,555.32 145.966,555.32 160.073,601.493 144.476,601.488 		"/>
		<polygon id="photo-frame-1-photo" fill="#FFFFFF" points="142.391,599.853 96.165,599.853 107.059,531.066 153.285,531.066 		"/>
		<path id="photo-frame-1-frame" fill="#0D0C17" d="M148.23,601.739H93.955l11.493-72.56h50.047l2.924,4.028L148.23,601.739z
			 M98.374,597.965h42.405l10.297-65.012h-42.405L98.374,597.965z"/>
	</g>
	<g id="photo-frame-2">
		<polygon id="photo-frame-1-stand_5_" fill="#6E7172" points="236.799,545.252 256.969,545.252 274.366,602.189 255.131,602.185 		
			"/>
		<polygon id="photo-frame-1-photo_5_" fill="#FFFFFF" points="252.561,600.167 195.558,600.167 208.992,515.346 265.995,515.346 		
			"/>
		<path id="photo-frame-1-frame_5_" fill="#0D0C17" d="M259.761,602.494h-66.928l14.172-89.476h61.715l3.606,4.968L259.761,602.494z
			 M198.282,597.841h52.291l12.698-80.168h-52.291L198.282,597.841z"/>
	</g>
	<g id="photo-frame-3">
		<polygon id="photo-frame-1-stand_2_" fill="#6E7172" points="381.763,561.148 396.064,561.148 408.402,601.523 394.762,601.52 		
			"/>
		<polygon id="photo-frame-1-photo_2_" fill="#FFFFFF" points="392.939,600.089 352.518,600.089 362.044,539.941 402.466,539.941 		
			"/>
		<path id="photo-frame-1-frame_2_" fill="#0D0C17" d="M398.045,601.739h-47.46l10.049-63.449h43.762l2.559,3.522L398.045,601.739z
			 M354.449,598.439h37.08l9.004-56.849h-37.081L354.449,598.439z"/>
	</g>
	<g id="photo-frame-4">
		<polygon id="photo-frame-1-stand_1_" fill="#6E7172" points="485.84,550.449 503.912,550.449 519.501,601.466 502.265,601.462 		
			"/>
		<polygon id="photo-frame-1-photo_1_" fill="#FFFFFF" points="499.962,599.653 448.887,599.653 460.924,523.651 512,523.651 		"/>
		<path id="photo-frame-1-frame_1_" fill="#0D0C17" d="M506.414,601.739h-59.971l12.7-80.173h55.297l3.231,4.45L506.414,601.739z
			 M451.328,597.569h46.854l11.377-71.832h-46.855L451.328,597.569z"/>
	</g>
	<g id="shelf">
		<rect x="76.776" y="601.493" fill="#563007" width="462.275" height="21.888"/>
		<rect x="126.188" y="618.933" fill="#563007" width="27.098" height="155.791"/>
		<rect x="464.232" y="618.933" fill="#563007" width="27.099" height="155.791"/>
	</g>
	<g id="left-speaker">
		<path id="left-base" fill="#0D1111" d="M147.858,151.505c0,1.435-1.164,2.599-2.599,2.599H71.156
			c-1.436,0-2.599-1.164-2.599-2.599V35.554c0-1.435,1.164-2.599,2.599-2.599h74.104c1.435,0,2.599,1.164,2.599,2.599V151.505z"/>
		<circle id="left-ring" fill="#545858" cx="108.208" cy="109.732" r="31.432"/>
		<g id="left-cone">
			<circle fill="#333333" stroke="#231F20" stroke-width="5" stroke-miterlimit="10" cx="108.208" cy="109.732" r="25.789"/>
			<circle fill="#0D1111" cx="108.208" cy="109.732" r="11.315"/>
		</g>
		<g id="left-top">
			<ellipse id="left-ring_5_" fill="#545858" cx="108.208" cy="54.582" rx="16.375" ry="13.227"/>
			
				<ellipse fill="#333333" stroke="#231F20" stroke-width="5" stroke-miterlimit="10" cx="108.208" cy="54.582" rx="13.436" ry="10.335"/>
			<circle fill="#0D1111" cx="108.208" cy="54.582" r="6.576"/>
		</g>
	</g>
	<g id="right-speaker">
		<path id="right-base_1_" fill="#0D1111" d="M547.27,151.505c0,1.435-1.164,2.599-2.598,2.599h-74.104
			c-1.435,0-2.599-1.164-2.599-2.599V35.554c0-1.435,1.164-2.599,2.599-2.599h74.104c1.434,0,2.598,1.164,2.598,2.599V151.505z"/>
		<circle id="right-ring_1_" fill="#545858" cx="507.62" cy="109.732" r="31.432"/>
		<g id="right-cone">
			<circle fill="#333333" stroke="#231F20" stroke-width="5" stroke-miterlimit="10" cx="507.62" cy="109.732" r="25.789"/>
			<circle fill="#0D1111" cx="507.62" cy="109.732" r="11.315"/>
		</g>
		<g id="right-top">
			<ellipse id="left-ring_1_" fill="#545858" cx="507.62" cy="54.582" rx="16.376" ry="13.227"/>
			
				<ellipse fill="#333333" stroke="#231F20" stroke-width="5" stroke-miterlimit="10" cx="507.62" cy="54.582" rx="13.437" ry="10.335"/>
			<circle fill="#0D1111" cx="507.62" cy="54.582" r="6.576"/>
		</g>
	</g>
</g>
<g id="lab-background">
	<polygon id="table" fill="#6D6E71" points="572.68,485.078 42.137,485.078 42.137,514.644 79.697,514.644 79.697,774.724 
		107.868,774.724 107.868,514.644 506.95,514.644 506.95,774.724 535.121,774.724 535.121,514.644 572.68,514.644 	"/>
	<g id="monitor-group">
		<path id="monitor-body" fill="#58595B" d="M232.092,360.04H71.222c-1.872,0-3.396,1.52-3.396,3.399v95.082
			c0,1.872,1.522,3.396,3.396,3.396h58.077v15.03H107.58c-1.707,0-3.091,1.006-3.091,2.25v5.861h94.339v-5.861
			c0-1.244-1.388-2.25-3.095-2.25h-21.718v-15.03h58.077c1.874,0,3.396-1.522,3.396-3.396v-95.082
			C235.487,361.559,233.966,360.04,232.092,360.04z"/>
		<rect id="monitor-screen-off" x="77.46" y="369.238" fill="#231F20" width="148.396" height="83.474"/>
		<rect id="monitor-screen-on" x="77.46" y="369.238" fill="#FFFFFF" width="148.396" height="83.474"/>
		<circle id="monitor-led" fill="#39B54A" cx="228.417" cy="457.503" r="1.291"/>
	</g>
	<g id="mouse">
		<path id="mouse-wheel" fill="#6D6E71" d="M239.016,477.723c0,0.458-0.368,0.824-0.825,0.824h-1.026
			c-0.456,0-0.82-0.366-0.82-0.824v-3.521c0-0.455,0.368-0.82,0.82-0.82h1.026c0.459,0,0.825,0.368,0.825,0.82V477.723z"/>
		<path id="mouse-body" fill="#58595B" d="M237.68,475.028c-6.644,0-10.968,1.914-12.029,4.992c-0.541,1.576-0.97,4.233-0.97,4.233
			c0,0.455,0.369,0.822,0.826,0.822h24.347c0.456,0,0.824-0.367,0.824-0.822c0,0-0.458-2.655-0.969-4.233
			C248.574,476.546,244.322,475.028,237.68,475.028z"/>
	</g>
	<g id="test-tubes">
		<g id="test-tube-1">
			<path opacity="0.5" fill="#FFFFFF" stroke="#FFFFFF" stroke-width="0.5" stroke-miterlimit="10" enable-background="new    " d="
				M440.264,428.206h-9.14c-0.442,0-0.803,0.358-0.803,0.802v0.308c0,0.443,0.361,0.805,0.803,0.805h0.407v43.684
				c0,2.299,1.869,4.163,4.166,4.163c2.3,0,4.161-1.863,4.161-4.163V430.12h0.409c0.443,0,0.803-0.361,0.803-0.804v-0.308
				C441.062,428.564,440.706,428.206,440.264,428.206z"/>
			<path fill="#00AEEF" d="M439.439,442.938v30.826c0,2.069-1.677,3.745-3.743,3.745c-2.069,0-3.746-1.678-3.746-3.745v-30.826"/>
		</g>
		<g id="test-tube-2">
			<path opacity="0.5" fill="#FFFFFF" stroke="#FFFFFF" stroke-width="0.5" stroke-miterlimit="10" enable-background="new    " d="
				M461.355,428.206h-9.138c-0.445,0-0.804,0.358-0.804,0.802v0.308c0,0.443,0.359,0.805,0.804,0.805h0.411v43.684
				c0,2.299,1.863,4.163,4.162,4.163c2.298,0,4.162-1.863,4.162-4.163V430.12h0.408c0.441,0,0.805-0.361,0.805-0.804v-0.308
				C462.16,428.564,461.795,428.206,461.355,428.206z"/>
			<path fill="#A02B33" d="M460.531,437.943v35.822c0,2.07-1.677,3.744-3.742,3.744s-3.744-1.677-3.744-3.744v-35.822"/>
		</g>
		<g id="test-tube-3">
			<path opacity="0.5" fill="#FFFFFF" stroke="#FFFFFF" stroke-width="0.5" stroke-miterlimit="10" enable-background="new    " d="
				M482.452,428.206h-9.14c-0.443,0-0.807,0.358-0.807,0.802v0.308c0,0.443,0.363,0.805,0.807,0.805h0.408v43.684
				c0,2.299,1.863,4.163,4.161,4.163c2.3,0,4.162-1.863,4.162-4.163V430.12h0.414c0.441,0,0.802-0.361,0.802-0.804v-0.308
				C483.253,428.564,482.893,428.206,482.452,428.206z"/>
			<path fill="#7F3F98" d="M481.626,456.929v16.837c0,2.068-1.678,3.744-3.745,3.744s-3.742-1.677-3.742-3.744v-16.837"/>
		</g>
		<g id="test-tube-4">
			<path opacity="0.5" fill="#FFFFFF" stroke="#FFFFFF" stroke-width="0.5" stroke-miterlimit="10" enable-background="new    " d="
				M503.547,428.206h-9.14c-0.444,0-0.803,0.358-0.803,0.802v0.308c0,0.443,0.359,0.805,0.803,0.805h0.408v43.684
				c0,2.299,1.862,4.163,4.163,4.163c2.3,0,4.165-1.863,4.165-4.163V430.12h0.409c0.44,0,0.801-0.361,0.801-0.804v-0.308
				C504.345,428.564,503.988,428.206,503.547,428.206z"/>
			<path fill="#F9ED32" d="M502.722,443.357v30.404c0,2.07-1.676,3.744-3.744,3.744c-2.069,0-3.744-1.677-3.744-3.744v-30.404"/>
		</g>
		<path id="rack" fill="#A7A9AC" d="M514.579,449.842v-3.431H420.09v3.431h2.362v28.351h-2.362v6.863h94.489v-6.863h-2.364v-28.351
			H514.579z M509.311,478.191h-83.951V449.84h83.951V478.191L509.311,478.191z"/>
	</g>
</g>
<g id="jack-caricature">
	<g id="neck">
		<path id="Coat_Back" fill="#FFFFFF" d="M294.081,320.703c0,0,3.187-1.493,13.571-1.493c10.674,0,13.665,1.493,13.665,1.493
			l3.993,14.941l-35.334,2.201L294.081,320.703z"/>
		<path id="throat-skin" fill="#F4D9C3" d="M294.987,287.52h25.334c0,0-2.549,13.012-2.339,26.142c0.094,5.78,0.722,11.587,2.339,16.311
			c0,0-7.596,15.846-12.667,15.846c-5.069,0-12.667-15.846-12.667-15.846C299.674,312.756,294.987,287.519,294.987,287.52z"/>
		<path id="throat-skin-shadow" fill="#DDB690" d="M296.895,304.765c-0.503-9.675-1.907-17.246-1.907-17.246h25.332
			c0,0-3.241,16.554-2.11,31.15"/>
	</g>
	<g id="head">
		<g id="ears">
			<path id="right-ear-skin" fill="#F4D9C3" d="M277.595,248.638c0,0-0.061-0.255-0.172-0.688c-0.677-2.583-3.241-11.535-5.993-10.906
				c-3.219,0.734-4.024,5.282-4.024,7.335c0,2.054,3.35,11.15,3.756,14.673c0.403,3.52,1.205,8.217,2.68,9.39
				c1.478,1.173,3.578,1.322,4.586-0.147C281.345,264.045,277.595,248.638,277.595,248.638z"/>
			<path id="left-ear-skin" fill="#F4D9C3" d="M339.446,248.638c0,0,0.061-0.255,0.171-0.688c0.681-2.583,3.244-11.535,5.995-10.906
				c3.219,0.734,4.025,5.282,4.025,7.335c0,2.054-3.35,11.15-3.755,14.673c-0.404,3.52-1.206,8.217-2.68,9.39
				c-1.479,1.173-3.58,1.322-4.586-0.147C335.695,264.045,339.446,248.638,339.446,248.638z"/>
		</g>
		<path id="face-skin" fill="#F4D9C3" d="M310.849,186.169c-0.823-0.028-1.652,0.035-2.488,0.194c-0.837-0.159-1.665-0.222-2.489-0.194
			c-15.831,0.456-29.348,34.58-29.761,52.577c-0.03,1.358,0.01,2.627,0.129,3.78c0.957,9.004,1.6,28.424,5.005,35.996
			c0.613,1.37,1.457,2.843,2.454,4.36c3.916,6.137,11.306,13.866,12.819,15.936c2.146,2.935,5.768,4.746,11.803,4.746
			c0.015,0,0.024-0.003,0.038-0.003c0.015,0,0.026,0.003,0.04,0.003c6.036,0,9.656-1.812,11.804-4.746
			c1.512-2.067,8.897-9.792,12.813-15.925c1.003-1.521,1.843-2.998,2.463-4.371c3.399-7.567,4.042-26.992,5.003-35.996
			c0.122-1.149,0.165-2.421,0.134-3.78C340.198,220.749,326.684,186.624,310.849,186.169z"/>
		<g id="eyebrows">
			<path id="right-eyebrow-hair" fill="#A97C50" d="M301.907,235.331c-0.281-0.331-0.575-0.613-0.791-0.786c-0.84-0.661-1.902-0.991-2.95-1.084
				c-2.15-0.189-4.322,0.119-6.457,0.375c-2.338,0.277-4.893,0.154-7.158,0.891c-0.812,0.265-3.768,2.046-3.556,3.127
				c0.221,1.14,4.36-0.329,5.145-0.488c2.258-0.465,4.568-0.475,6.849-0.748c1.415-0.171,2.84-0.273,4.262-0.305
				c0.962-0.018,5.517,2.442,5.561,0.788C302.827,236.588,302.384,235.892,301.907,235.331z"/>
			<path id="left-eyebrow-hair" fill="#A97C50" d="M314.423,235.331c0.28-0.331,0.573-0.613,0.79-0.786
				c0.839-0.661,1.903-0.991,2.952-1.084c2.152-0.189,4.321,0.119,6.457,0.375c2.334,0.277,4.895,0.154,7.155,0.891
				c0.814,0.265,3.769,2.046,3.559,3.127c-0.221,1.14-4.36-0.329-5.144-0.488c-2.263-0.465-4.572-0.475-6.848-0.748
				c-1.416-0.171-2.844-0.273-4.267-0.305c-0.958-0.018-5.514,2.442-5.558,0.788C313.502,236.588,313.947,235.892,314.423,235.331z"
				/>
		</g>
		<path id="hair" fill="#A97C50" d="M276.771,257.597c-0.832-26.419-7.393-19.31-6.24-51.563c0.092-2.559,2.136-3.32,1.981-6.55
			c-0.318-6.691,4.625-8.65,9.82-13.323c7.77-6.99,10.908-8.195,10.908-8.195s8.856-4.524,15.786-3.521
			c7.441,1.077,21.949,2.444,25.458,9.352c2.185,4.299,3.849,3.778,7.021,10.016c2.09,4.108,3.899,7.413,4.119,9.194
			c4.009,32.841-5.772,30.698-5.772,54.918c0,0.456-0.997,0.123-1.066-0.327c-1.149-7.45,3.897-30.234-3.162-35.809
			c-3.659-2.887-4.419-10.714-7.912-11.498c-3.828-0.855-7.356-2.406-13.279-2c-6.432,0.441-10.192-0.292-14.213-0.292
			c-3.103,0-8.721,2.293-8.721,2.293s-9.365,3.576-9.88,8.955c-0.596,6.266-5.138,12.128-5.008,14.672
			c0.131,2.544,1.735,18.855,1.561,23.705C278.129,258.823,276.78,257.921,276.771,257.597z"/>
		<g id="eyes">
			<path id="left-eyeball" fill="#FFFFFF" d="M301.081,244.3c0.625,1.062-0.214,1.457-1.109,1.688
				c-1.738,0.442-2.226,0.712-5.914,0.821c-4.914,0.146-9.537-0.396-9.537-1.84c0-1.01,4.631-4.476,9.607-4.476
				C298.353,240.496,299.499,241.609,301.081,244.3z"/>
			<path id="right-eyeball" fill="#FFFFFF" d="M315.85,244.3c-0.623,1.062,0.217,1.457,1.114,1.688
				c1.739,0.442,2.225,0.712,5.911,0.821c4.91,0.146,9.539-0.396,9.539-1.84c0-1.01-4.634-4.476-9.607-4.476
				C318.578,240.496,317.434,241.609,315.85,244.3z"/>
			<g id="pupils">
				<ellipse cx="293.429" cy="243.909" rx="1.81" ry="1.979"/>
				<ellipse cx="323.502" cy="243.909" rx="1.809" ry="1.979"/>
			</g>
		</g>
		<g id="Glasses">
			<path d="M305.111,240.884c-1.68-1.783-4.743-1.783-7.995-1.783h-15.821c-1.837,0-3.261,0.511-4.235,1.507
				c-0.411,0.419-0.728,0.924-0.968,1.502l-1.687,0.037c-0.427,0.03-0.715,0.708-0.645,1.504l0.421,4.806
				c0.075,0.799,0.475,1.42,0.904,1.388l0.993-0.024l0.155,1.241c1.195,4.934,4.546,4.934,8.437,4.934h11.786
				c6.344,0,8.294-2.958,8.822-5.472l0.863-5.492C306.374,243.227,306.04,241.869,305.111,240.884z M304.272,244.798l-0.855,5.433
				c-0.563,2.698-2.844,4.01-6.97,4.01h-11.786c-3.824,0-5.742,0-6.583-3.473l-0.561-4.501c-0.208-2.129,0.108-3.629,0.927-4.475
				c0.611-0.625,1.542-0.934,2.852-0.934h15.821c2.688,0,5.467,0,6.583,1.188C304.256,242.634,304.441,243.537,304.272,244.798z"/>
			<path d="M310.303,245.034l0.862,5.492c0.522,2.519,2.473,5.472,8.823,5.472h11.786c3.885,0,7.24,0,8.433-4.934l0.159-1.24
				l0.993,0.024c0.426,0.033,0.827-0.589,0.9-1.387l0.425-4.808c0.073-0.799-0.22-1.474-0.645-1.503l-1.691-0.037
				c-0.237-0.579-0.556-1.084-0.965-1.503c-0.975-0.999-2.401-1.506-4.232-1.506h-15.827c-3.248,0-6.314,0-7.992,1.783
				C310.396,241.869,310.061,243.227,310.303,245.034z M312.731,242.049c1.114-1.188,3.891-1.188,6.58-1.188h15.824
				c1.302,0,2.236,0.31,2.852,0.935c0.82,0.845,1.131,2.344,0.929,4.474l-0.563,4.501c-0.846,3.473-2.763,3.473-6.581,3.473h-11.787
				c-4.127,0-6.406-1.312-6.97-4.01l-0.854-5.433C311.995,243.537,312.181,242.634,312.731,242.049z"/>
			<path fill="none" stroke="#000000" stroke-width="1.25" stroke-miterlimit="10" d="M304.991,246.029c0,0,1.084-2.064,3.324-2.079
				c2.2-0.015,3.323,2.079,3.323,2.079"/>
		</g>
		<g id="Mouth">
			<path id="Teeth" fill="#FFFFFF" d="M295.021,278.117c0.148-0.321,0.834,0.096,1.077,0.111c0.314,0.024,0.62-0.098,0.929-0.111
				c1.736-0.075,3.554,0.327,5.27,0.548c0.514,0.069,1.006,0.142,1.508,0.221c0.76,0.117,1.537,0.198,2.3,0.302
				c1.81,0.25,3.699,0.014,5.534-0.111c0.751-0.05,1.479-0.237,2.213-0.322c0.501-0.056,1.044-0.079,1.539-0.197
				c0.931-0.223,1.835-0.488,2.733-0.807c0.734-0.268,1.64-0.235,2.422-0.318c0.741-0.077,1.487-0.154,2.226-0.234
				c0.188-0.02,0.773,0.026,0.927-0.097c0,0-7.133,5.768-10.148,6.891c-2.165,0.807-6.548,0.668-8.73-0.069
				c-1.848-0.622-3.692-0.959-5.347-2.13c-0.978-0.691-2.177-1.037-3.103-1.759c-0.442-0.346-1.388-1.104-1.375-1.74
				C294.989,278.217,295,278.16,295.021,278.117z"/>
			<path id="Bottom_Lip" fill="#BC7362" d="M295.074,279.607c0.662,0.708,1.516,1.166,2.269,1.762
				c0.746,0.586,1.51,0.96,2.299,1.492c0.536,0.357,1.053,0.77,1.607,1.104c0.751,0.457,1.459,1.003,2.322,1.214
				c0.479,0.12,0.962,0.232,1.443,0.333c2.457,0.525,4.853-0.078,7.323-0.074c1.634,0.004,2.696-0.566,3.993-1.527
				c0.92-0.682,1.962-1.178,2.87-1.88c1.043-0.807,2.018-1.703,2.93-2.661c0.459-0.483,1.054-0.904,1.417-1.471
				c0.122-0.195,0.833-0.874,0.651-0.992c-0.156-0.1-0.542,0.13-0.694,0.184c-0.294,0.105-0.617,0.097-0.907,0.195
				c-0.267,0.089-0.459,0.284-0.69,0.464c-0.545,0.417-1.099,0.83-1.64,1.247c-1.018,0.783-2.121,1.442-3.153,2.202
				c-0.87,0.639-1.903,1.199-2.89,1.626c-1.119,0.487-2.559,0.586-3.76,0.624c-1.526,0.044-3.06,0.112-4.576-0.109
				c-1.967-0.286-3.889-0.897-5.689-1.744c-0.85-0.397-1.434-0.839-2.172-1.368c-0.547-0.391-1.177-0.63-1.742-0.984
				c-0.292-0.182-0.511-0.43-0.778-0.635c-0.219-0.169-0.478-0.245-0.733-0.367c-0.242-0.122-0.417-0.374-0.676-0.444
				C293.964,278.461,294.67,279.177,295.074,279.607z"/>
			<path id="Top_Lip_1_" fill="#CE9975" d="M324.266,276.853c-0.478-0.136-1.078,0.027-1.556,0.125
				c-0.475,0.097-0.924,0.255-1.411,0.266c-1.42,0.035-2.816,0.123-4.229,0.293c-0.612,0.074-1.23,0.102-1.833,0.244
				c-0.96,0.225-1.899,0.401-2.876,0.561c-0.624,0.097-1.248,0.173-1.875,0.255c-2.213,0.271-4.173,0.148-6.345-0.182
				c-1.896-0.29-3.811-0.454-5.728-0.506c-1.119-0.03-2.22-0.058-3.332-0.045c-0.336,0.004-0.669-0.177-0.999-0.025
				c-0.172,0.079,1.06,0.583,1.109,0.606c0.057,0.023,0.11,0.043,0.161,0.064c0.453,0.178,0.766,0.265,1.302,0.278
				c0.753,0.018,1.484,0.237,2.22,0.269c0.481,0.025,0.94,0.11,1.415,0.131c0.658,0.024,1.357,0.14,2.029,0.192
				c0.633,0.049,1.199,0.262,1.836,0.321c1.414,0.137,2.836,0.033,4.252,0.035c2.089,0.003,4.205-0.01,6.249-0.505
				c0.799-0.194,1.575-0.465,2.37-0.667c0.792-0.203,1.513-0.231,2.322-0.244c0.535-0.01,1.052-0.14,1.589-0.192
				c0.688-0.068,1.357-0.318,1.981-0.619c0.298-0.147,0.519-0.252,0.84-0.319C323.988,277.14,324.207,277.168,324.266,276.853z"/>
		</g>
		<path id="nose-skin-shadow" fill="#DDB690" d="M302.034,261.251c-1.605,1.7-2.542,5.261-0.894,7.29c0.808,0.998,1.639,1.247,2.871,1.456
			c1.769,0.307,2.862,1.894,4.81,2.124c1.246,0.146,2.477-0.434,3.354-1.278c1.348-1.296,3.016-1.379,4.14-2.883
			c0.943-1.26,0.89-2.935,0.362-4.362c-0.375-1.022-1.034-2.79-2.281-2.896c-0.086,0.604,0.599,1.571,0.76,2.241
			c0.187,0.761,0.286,1.563,0.318,2.349c0.054,1.429-1.065,2.138-2.263,2.566c-1.291,0.463-1.864,1.867-3.108,2.431
			c-1.345,0.608-2.717,0.127-3.827-0.767c-1.094-0.878-2.249-1.492-3.551-2.079c-1.876-0.846-1.439-2.643-0.636-4.149
			C302.331,262.839,303.234,259.982,302.034,261.251z"/>
	</g>
	<g id="Trousers">
		<path id="Crotch" fill="#2F4550" d="M273.956,488.821c-0.407,0,67.689,0,67.689,0v22.302c0,0-17.758,15.845-33.526,15.845
			c-19.606,0-34.163-15.845-34.163-15.845v-7.041V488.821L273.956,488.821z"/>
		<g id="Left_Leg">
			<g id="Upper_Leg">
				<circle fill="#2F4550" cx="290.709" cy="518.158" r="13.496"/>
				<path fill="#2F4550" d="M302.657,628c-0.233,6.692-5.849,11.931-12.545,11.696c-6.694-0.231-11.932-5.847-11.697-12.544
					c0.17-4.881-1.199-109.47-1.199-109.47c1.542-11.061,11.678,0.412,13.488,0.471c1.734,0.061,12.003-9.866,13.49,0.472
					C304.198,518.63,302.832,623.036,302.657,628z"/>
			</g>
			<g id="Lower_Leg">
				<path id="left-shin" fill="#2F4550" d="M278.75,626.654c0.235-6.692,5.847-11.932,12.546-11.698
					c6.693,0.232,11.93,5.848,11.697,12.545c-0.171,4.88,1.998,121.9,1.998,121.9c-1.541,11.062-6.187,1.966-14.282,2.347
					c-8.136,0.38-8.219,5.644-9.708-4.695C281,747.051,278.579,631.618,278.75,626.654z"/>
				<path id="left-shoe" d="M268.867,774.724c-4.03-10.132,0.458-14.065,2.752-19.238c1.948-4.387,1.257-2.428,6.108-6.445
					c9.462-4.107,12.053-3.157,23.757,0.439c3.728,2.349,3.538,3.731,4.965,9.809c0.489,2.078,3.093,6.52,0,15.433L268.867,774.724
					L268.867,774.724z"/>
			</g>
		</g>
		<g id="Right_Leg">
			<g id="Upper_Leg_1_">
				<circle fill="#2F4550" cx="324.624" cy="518.158" r="13.499"/>
				<path fill="#2F4550" d="M312.674,628c0.234,6.692,5.851,11.931,12.545,11.696c6.692-0.231,11.931-5.847,11.697-12.544
					c-0.17-4.881,1.198-109.47,1.198-109.47c-1.542-11.061-11.677,0.412-13.488,0.471c-1.733,0.061-12.003-9.866-13.489,0.472
					C311.133,518.63,312.5,623.036,312.674,628z"/>
			</g>
			<g id="Lower_Leg_1_">
				<path id="Lower_Right_Leg" fill="#2F4550" d="M336.581,626.654c-0.233-6.692-5.846-11.932-12.544-11.698
					c-6.691,0.232-11.932,5.848-11.697,12.545c0.172,4.88-0.042,121.315-0.042,121.315c1.542,11.06,4.229,2.551,12.324,2.933
					c8.138,0.38,9.465,6.23,10.956-4.107C335.578,747.639,336.754,631.618,336.581,626.654z"/>
				<path id="right-shoe" d="M311.104,774.724c-2.59-8.917-0.487-13.357,0-15.432c1.432-6.081,1.243-7.462,4.967-9.809
					c11.706-3.598,14.296-4.548,23.757-0.44c4.852,4.018,4.159,2.061,6.107,6.446c2.29,5.17,6.777,9.105,2.752,19.237
					L311.104,774.724L311.104,774.724z"/>
			</g>
		</g>
	</g>
	<g id="Shirt">
		<path id="shirt" fill="#A02B33" d="M296.734,322.146c0,0,1.918,9.29,10.923,9.292c9.438,0.003,11.188-9.292,11.188-9.292
			s18.658,9.389,24.724,24.648v148.088c0,0-11.158,4.698-35.255,4.698c-20.469,0-34.846-4.698-34.846-4.698
			s-4.836-145.621-3.877-147.312C279.537,330.069,296.734,322.146,296.734,322.146z"/>
	</g>
	<g id="Coat">
		<path fill="#FFFFFF" d="M294.081,320.703c0.517-0.221,6.387,60.327,6.387,60.327l-3.623,237.723
			c-18.438,1.067-27.423-7.604-27.423-7.604s1.092-139.649,0.047-171.92c-0.729-22.473-4.902-89.892-4.902-89.892
			S263.393,333.883,294.081,320.703z"/>
		<path fill="#FFFFFF" d="M321.317,320.703c-0.514-0.221-6.384,60.327-6.384,60.327l3.435,237.814
			c18.235,1.062,27.522-7.7,27.522-7.7s-1.002-139.648,0.042-171.92c0.728-22.473,4.904-89.891,4.904-89.891
			S352.006,333.883,321.317,320.703z"/>
	</g>
	<g id="Right_Arm">
		<g id="Lower_Arm">
			<path id="right-hand-relaxed-skin" fill="#F4D9C3" d="M355.397,565.474c1.386-0.456,2.702-1.131,3.888-2.036c2.156-1.647,5.283-2.126,6.028-4.812
				c0.78-2.81,0.604-5.804,0.604-8.687c0-3.359,0.278-6.665,0.278-10.04c0-1.777-0.326-3.533-0.513-5.297
				c-0.095-0.892-0.181-1.79-0.169-2.688c0.019-1.449,0.6-6.021-1.289-6.56c-1.767-0.504-3.618-1.038-5.563-0.945
				c-2.264,0.106-5.038-0.12-7.037,0.922c-2.786,1.454-0.314,5.825-1.841,8.031c-0.688,0.996-1.841,1.555-2.581,2.55
				c-1.088,1.463-2.738,3.585-3.049,5.421c-0.339,2.016-0.547,4.282-1.236,6.305c-0.329,0.966-0.9,1.782-1.227,2.731
				c-0.395,1.149-0.303,2.411-0.648,3.575c-0.418,1.409-1.682,4.323-0.029,5.378c0.706,0.451,1.781,0.173,2.477-0.155
				c1.516-0.718,1.922-3.366,2.088-4.863c0.193-1.76,0.716-3.652,1.675-5.236c0.318-0.527,1.131-2.092,1.856-1.891
				c0.637,0.177,0.58,2.23,0.691,2.747c0.186,0.872,0.505,1.717,0.808,2.553c0.835,2.314,2.849,7.665-1.211,8.043
				c-1.564,0.145-2.848-0.528-4.332-0.694c-1.225-0.137-2.566-0.205-3.405,0.56c-1.74,1.586-0.67,2.34,0.834,3.323
				C346.286,566.188,351.165,566.861,355.397,565.474z"/>

			<path id="Right_Lower_Sleeve" fill="#FFFFFF" d="M349.46,527.844c0.011-2.64,1.044-86.021,1.044-86.021
				c2.226-4.275,12.232-0.641,14.215-0.745c0,0,1.465,81.261,1.478,85.89c0.005,2.689-6.181,3.154-8.438,3.306
				C355.604,530.419,349.448,530.795,349.46,527.844z"/>
			<circle id="Right_Lower_Elbow" fill="#FFFFFF" cx="357.758" cy="441.452" r="7.117"/>
		</g>
		<g id="right-upper-arm">
			<path id="Right_Upper_Sleeve" fill="#FFFFFF" d="M350.886,346.781c0.55,2.583,13.703,93.193,13.703,93.193
				c-1.531,4.571-11.98,2.545-13.925,2.958c0,0-15.207-88.141-16.166-92.667c-0.962-4.525,1.927-8.975,6.449-9.939
				C345.475,339.364,349.926,342.255,350.886,346.781z"/>
			<circle id="Right_Upper_Elbow" fill="#FFFFFF" cx="357.479" cy="441.454" r="7.117"/>
		</g>
	</g>
	<g id="left-arm">
		<path fill="#FFFFFF" d="M282.282,347.646c-0.827,2.507-30.098,89.256-30.098,89.256c-3.444,3.378-11.831-3.171-13.755-3.689
			c0,0,26.237-85.504,27.661-89.909c0.826-2.56,6.847-1.089,9.044-0.538C277.235,343.297,283.205,344.845,282.282,347.646z"/>
		<circle fill="#FFFFFF" cx="245.167" cy="435.014" r="7.117"/>
		<circle id="left-shoulder" fill="#FFFFFF" cx="274.167" cy="344.014" r="7.117"/>
		<g id="left-lower-arm">
			<path fill="#FFFFFF" d="M219.682,353.663c0.823,2.507,32.025,78.697,32.025,78.697c-0.379,4.806-11.008,5.369-12.793,6.235
				c0,0-33.208-73.09-34.294-77.59c-0.621-2.573,1.208-6.119,5.365-8.149C214.146,350.832,218.789,350.937,219.682,353.663z"/>
			<circle id="left-lower-elbow" fill="#FFFFFF" cx="245.167" cy="435.514" r="7.119"/>
			<circle id="left-wrist" fill="#F4D9C3" cx="209.051" cy="349.728" r="2.587"/>
			<path id="left-forearm-skin" fill="#F4D9C3" d="M210.179,337.544c1.054,3.226,2.536,6.362,3.811,9.51
				c0.76,1.878,3.732,6.671,3.122,8.514c-0.644,1.954-4.753,3.089-6.467,3.455c-3.805,0.821-4.139-0.564-5.573-3.821
				c-1.766-4.015-4.257-8.291-5.29-12.588c-0.429-1.779,0.833-4.227,3.703-5.625C206.357,335.591,209.561,335.664,210.179,337.544z"
				/>
			<path id="left-palm-open-skin" fill="#F4D9C3" d="M195.841,310.307c0.018,0.35,0.042,0.662,0.045,0.871
				c0.024,1.249,0.66,2.488,0.849,3.676c0.491,3.188,1.703,6.28,2.689,9.333c0.307,0.956,0.613,1.902,0.948,2.846
				c0.17,0.477,1.121,2.371,0.028,2.374c-0.807,0.005-1.914-3.899-2.188-4.523c-0.589-1.321-0.959-2.729-1.682-3.993
				c-0.381-0.67-0.625-1.371-0.848-2.106c-0.424-1.434-1.224-2.744-1.582-4.203c-0.233-0.959-0.415-2.64-1.806-2.382
				c-2.22,0.413-1.693,3.183-1.18,4.72c0.457,1.375,0.785,2.764,1.21,4.144c0.381,1.233,0.835,2.442,1.263,3.662
				c0.503,1.434,0.717,2.953,1.285,4.367c0.585,1.467,1.299,1.887,0.896,3.474c-1.481-0.463-2.274-3.55-2.771-4.853
				c-0.398-1.049-0.648-2.149-1.085-3.183c-0.559-1.321-0.88-2.784-1.492-4.02c-0.508-1.014-1.998-1.175-2.424-0.014
				c-0.5,1.348,0.708,2.696,0.974,3.977c0.15,0.722,0.319,1.436,0.545,2.123c0.266,0.78,0.333,1.566,0.662,2.318
				c0.382,0.862,0.846,1.707,1.092,2.621c0.663,2.478,1.483,4.947,2.06,7.458c0.389,1.688,1.058,3.289,1.806,4.847
				c1.292,2.686,2.575,5.302,4.846,7.312c0.488,0.432,0.987,0.514,1.583,0.708c0.461,0.147,0.877,0.384,1.351,0.548
				c1.118,0.391,2.359,0.34,3.525,0.382c0.861,0.028,1.589-0.496,2.41-0.658c1.002-0.196,1.664-0.541,2.61-0.98
				c1.587-0.734,3.561-0.848,4.589-2.439c0.695-1.076,0.985-1.786,1.303-2.973c0.401-1.467,1.32-2.839,1.542-4.345
				c0.386-2.674-0.108-5.077,1.031-7.64c0.506-1.14,0.842-2.306,0.912-3.546c0.096-1.712,0.346-3.35,0.702-5.028
				c0.208-0.978,0.864-2.662,0.473-3.645c-0.48-1.213-2.079-0.603-2.909-0.005c-1.285,0.914-1.41,2.72-1.81,4.144
				c-0.602,2.144-1.315,4.323-2.292,6.329c-1.215,2.492-1.687-0.242-2.302-1.575c-0.338-0.734-0.79-1.417-1.223-2.095
				c-0.989-1.549-1.866-3.313-2.424-5.07c-0.563-1.762-0.795-3.704-1.55-5.353c-1.118-2.432-0.982-5.339-1.972-7.858
				c-0.343-0.875-1.103-2.736-2.327-2.521c-1.726,0.306-0.901,3.06-0.718,4.09c0.189,1.064,0.627,2.204,0.764,3.318
				c0.182,1.483,0.717,2.762,1.047,4.2c0.377,1.637,0.481,3.338,1.102,4.914c0.541,1.373,0.698,2.491,0.56,3.95
				c-1.146-0.72-1.529-2.715-2.039-3.86c-0.655-1.456-1.354-2.889-1.915-4.384c-0.514-1.369-0.748-2.813-1.196-4.204
				c-0.417-1.294-0.643-2.517-0.981-3.82c-0.358-1.395-1.548-5.626-3.667-3.599C195.791,308.485,195.798,309.495,195.841,310.307z"
				/>
		</g>
	</g>
</g>
<g id="comedy-club-foreground" display="none">
	
		<circle id="spotlight" display="inline" opacity="0.3" fill="#F5CC56" enable-background="new    " cx="308.779" cy="368.509" r="205.106"/>
	<g id="microphone-stand" display="inline">
		<circle fill="#A7A9AC" cx="238.858" cy="305.55" r="10.949"/>
		<path fill="#414042" d="M252.712,769.175c0-7.029-22.281-12.731-49.769-12.731c-27.49,0-49.774,5.697-49.774,12.731v5.997h99.548
			L252.712,769.175L252.712,769.175z"/>
		<rect id="Cord" x="200" y="345.816" fill="#414042" width="5.876" height="417.203"/>
		<path fill="#414042" d="M208.616,351.55c0,0.507-0.415,0.913-0.916,0.913h-9.523c-0.507,0-0.913-0.412-0.913-0.913v-18.243
			c0-0.51,0.41-0.916,0.913-0.916h9.522c0.507,0,0.916,0.411,0.916,0.916L208.616,351.55L208.616,351.55z"/>
		<path fill="#414042" d="M208.616,497.098c0,0.507-0.415,0.911-0.916,0.911h-9.523c-0.507,0-0.913-0.41-0.913-0.911v-18.244
			c0-0.509,0.41-0.914,0.913-0.914h9.522c0.507,0,0.916,0.411,0.916,0.914L208.616,497.098L208.616,497.098z"/>
		<polygon fill="#414042" points="218.56,328.517 185.746,347.102 178.998,336.601 209.535,314.473 		"/>
		<path fill="#414042" d="M186.065,339.48c2.493,3.879,1.72,6.312-0.318,7.622c-2.038,1.306-4.573,0.999-7.064-2.878
			c-2.494-3.883-1.726-6.311,0.317-7.621C181.037,335.291,183.57,335.601,186.065,339.48z"/>
		
			<ellipse transform="matrix(0.5407 0.8412 -0.8412 0.5407 368.7419 -32.332)" fill="#414042" cx="213.98" cy="321.523" rx="8.345" ry="4.385"/>
		<polygon fill="#414042" points="170.596,346.5 228.54,302.486 237.357,316.209 173.252,350.633 		"/>
		<path fill="none" stroke="#414042" stroke-miterlimit="10" d="M171.828,348.415c-15.444,25.177,24.998,50.999,20.161,84.014
			c-7.659,52.26,19.377,85.394,22.058,125.058c1.395,20.61-39.298,66.979-16.786,111.899
			c20.448,103.334,70.144,105.34-150.43,105.34"/>
	</g>
	<g id="stool" display="inline">
		<rect x="398.785" y="608.807" fill="#552E11" width="131.914" height="13.21"/>
		<rect x="459.26" y="618.45" fill="#552E11" width="10.956" height="156.722"/>
		<polygon fill="#552E11" points="423.265,775.171 412.31,775.171 435.784,621.295 446.739,621.295 		"/>
		<polygon fill="#552E11" points="517.169,775.171 506.211,775.171 482.735,621.295 493.695,621.295 		"/>
	</g>
	<g id="glass-water" display="inline">
		<path id="glass" opacity="0.5" fill="#FFFFFF" enable-background="new    " d="M466.824,555.188h-28.509
			c-1.542,0-2.803,1.257-2.797,2.926l4.249,47.895c0,1.542,1.259,2.803,2.803,2.803h19.998c1.544,0,2.802-1.258,2.797-2.678
			l4.26-48.141C469.623,556.444,468.368,555.188,466.824,555.188z"/>
		<path id="water" fill="#52CAF5" d="M466.079,581.997l-2.127,24.012c0,0.76-0.617,1.384-1.384,1.384H442.57
			c-0.76,0-1.384-0.62-1.384-1.384l-2.128-24.012"/>
	</g>
</g>
</svg>
