<?xml version="1.0" encoding="utf-8"?>
<!-- Generator: Adobe Illustrator 16.0.0, SVG Export Plug-In . SVG Version: 6.00 Build 0)  -->
<!DOCTYPE svg PUBLIC "-//W3C//DTD SVG 1.1//EN" "http://www.w3.org/Graphics/SVG/1.1/DTD/svg11.dtd">
<svg version="1.1" id="jack-caricature-and-scenery"
	 xmlns="http://www.w3.org/2000/svg" xmlns:xlink="http://www.w3.org/1999/xlink" x="0px" y="0px" 
	 viewBox="0 -158.225 841.889 1218" enable-background="new 0 -158.225 841.889 1218" xml:space="preserve">
	 	
		<defs>
	 	<!-- The drop shadow filter for all SVGs on the page -->
        <filter id="dropshadow" height="130%">
            <feGaussianBlur in="SourceAlpha" stdDeviation="0"/> <!-- stdDeviation is how much to blur -->
            <feOffset dx="5" dy="5"/> <!-- how much to offset -->
                    <feComponentTransfer>
                        <feFuncA type="linear" slope="0.25"/>
                    </feComponentTransfer>
            <feMerge> 
                <feMergeNode/> <!-- this contains the offset blurred image -->
                <feMergeNode in="SourceGraphic"/> <!-- this contains the element that the filter is applied to -->
            </feMerge>
        </filter>
		</defs>




<g id="contact-background">
	<g id="phone-booth">
		<path fill="#A02B33" d="M465.661-23.163c-23.75-46.926-98.508-81.188-187.057-81.188c-88.544,0-163.304,34.263-187.05,81.183
			v10.985h374.107L465.661-23.163L465.661-23.163z"/>
		<rect x="96.38" y="-20.055" fill="#A02B33" width="364.446" height="95.088"/>
		<path fill="#FFFFFF" d="M406.993,52.233c0,0.137-1.253,0.249-2.797,0.249H152.905c-1.543,0-2.795-0.111-2.795-0.249V2.742
			c0-0.138,1.253-0.249,2.795-0.249h251.294c1.543,0,2.797,0.111,2.797,0.249L406.993,52.233L406.993,52.233z"/>
		<path fill="#A02B33" d="M461.426,69.022H95.566c-2.248,0-4.071,1.823-4.071,4.075v806.08c0,2.249,1.823,4.077,4.071,4.077h365.86
			c2.246,0,4.076-1.823,4.076-4.077V73.093C465.497,70.845,463.672,69.022,461.426,69.022z M329.492,125.942h70.668v109.027h-70.668
			V125.942z M329.492,252.655h70.668v109.022h-70.668V252.655z M243.204,125.942h70.67v109.027h-70.67V125.942z M243.204,252.655
			h70.67v109.022h-70.67V252.655z M156.915,125.942h70.668v109.027h-70.668V125.942z M156.915,252.655h70.668v109.022h-70.668
			V252.655z M156.888,506.078h70.667v109.02h-70.667V506.078z M227.609,741.815h-70.666V632.789h70.666V741.815z M227.636,488.391
			h-70.668V379.364h70.668V488.391L227.636,488.391z M243.178,506.078h70.668v109.02h-70.668V506.078z M313.898,741.815H243.23
			V632.789h70.668V741.815z M313.925,488.391h-70.668V379.364h70.668V488.391z M329.465,506.078h70.668v109.02h-70.668V506.078z
			 M400.188,741.815h-70.67V632.789h70.67V741.815z M400.213,488.391h-70.668V379.364h70.668V488.391z"/>
		<rect x="86.893" y="876.022" width="383.318" height="40.483"/>
	</g>
	<g id="post-box">
		<rect x="573.093" y="330.53" fill="#A02B33" width="163.845" height="464.305"/>
		<path d="M569.394,916.083V796.903c0-2.544,1.293-4.605,2.89-4.605h165.466c1.596,0,2.886,2.062,2.886,4.605v119.181"/>
		<path fill="#A02B33" d="M756.185,318.824c-12.847-17.435-53.277-30.164-101.167-30.164c-47.894,0-88.324,12.728-101.171,30.163
			v14.658l101.171,36.063l101.167-36.063V318.824L756.185,318.824z"/>
		<rect x="600.979" y="386.591" width="108.076" height="20.55"/>
		<rect x="622.468" y="432.952" fill="#FFFFFF" width="65.1" height="92.77"/>
		<path fill="#A02B33" d="M740.46,357.452c0,1.999-1.623,3.616-3.618,3.616H572.395c-1.997,0-3.613-1.621-3.613-3.616v-0.046
			c0-1.998,1.621-3.617,3.613-3.617H736.84c2,0,3.62,1.624,3.62,3.617V357.452L740.46,357.452z"/>
	</g>
</g>
<g id="comedy-club-background">
	<g id="brick-wall">
		<path fill="#AD3D24" d="M222.872,197.605c0,3.74-3.029,6.765-6.765,6.765h-94.654c-3.74,0-6.765-3.024-6.765-6.765V169.04
			c0-3.735,3.024-6.765,6.765-6.765h94.654c3.735,0,6.765,3.029,6.765,6.765V197.605z"/>
		<path fill="#84271A" d="M334.239,197.605c0,3.74-3.029,6.765-6.765,6.765h-94.655c-3.74,0-6.765-3.024-6.765-6.765V169.04
			c0-3.735,3.024-6.765,6.765-6.765h94.655c3.735,0,6.765,3.029,6.765,6.765V197.605z"/>
		<path fill="#AD3D24" d="M445.604,197.605c0,3.74-3.028,6.765-6.765,6.765h-94.654c-3.74,0-6.765-3.024-6.765-6.765V169.04
			c0-3.735,3.024-6.765,6.765-6.765h94.654c3.735,0,6.765,3.029,6.765,6.765V197.605z"/>
		<path fill="#AD3D24" d="M556.97,197.605c0,3.74-3.029,6.765-6.77,6.765h-94.649c-3.74,0-6.765-3.024-6.765-6.765V169.04
			c0-3.735,3.024-6.765,6.765-6.765H550.2c3.74,0,6.77,3.029,6.77,6.765V197.605z"/>
		<path fill="#AD3D24" d="M668.336,197.605c0,3.74-3.029,6.765-6.77,6.765h-94.65c-3.74,0-6.77-3.024-6.77-6.765V169.04
			c0-3.735,3.029-6.765,6.77-6.765h94.65c3.74,0,6.77,3.029,6.77,6.765V197.605z"/>
		<path fill="#AD3D24" d="M779.702,197.605c0,3.74-3.029,6.765-6.77,6.765h-94.65c-3.74,0-6.765-3.024-6.765-6.765V169.04
			c0-3.735,3.024-6.765,6.765-6.765h94.65c3.74,0,6.77,3.029,6.77,6.765V197.605z"/>
		<path fill="#AD3D24" d="M168.781,242.151c0,3.74-3.029,6.765-6.765,6.765H67.362c-3.741,0-6.766-3.024-6.766-6.765v-28.563
			c0-3.735,3.024-6.765,6.766-6.765h94.654c3.735,0,6.765,3.029,6.765,6.765V242.151z"/>
		<path fill="#AD3D24" d="M280.147,242.151c0,3.74-3.029,6.765-6.765,6.765h-94.655c-3.74,0-6.765-3.024-6.765-6.765v-28.563
			c0-3.735,3.024-6.765,6.765-6.765h94.655c3.735,0,6.765,3.029,6.765,6.765V242.151z"/>
		<path fill="#AD3D24" d="M391.512,242.151c0,3.74-3.029,6.765-6.765,6.765h-94.654c-3.74,0-6.765-3.024-6.765-6.765v-28.563
			c0-3.735,3.024-6.765,6.765-6.765h94.654c3.735,0,6.765,3.029,6.765,6.765V242.151z"/>
		<path fill="#AD3D24" d="M502.878,242.151c0,3.74-3.029,6.765-6.765,6.765h-94.654c-3.741,0-6.766-3.024-6.766-6.765v-28.563
			c0-3.735,3.024-6.765,6.766-6.765h94.654c3.735,0,6.765,3.029,6.765,6.765V242.151z"/>
		<path fill="#AD3D24" d="M614.244,242.151c0,3.74-3.029,6.765-6.77,6.765h-94.65c-3.74,0-6.77-3.024-6.77-6.765v-28.563
			c0-3.735,3.029-6.765,6.77-6.765h94.65c3.74,0,6.77,3.029,6.77,6.765V242.151z"/>
		<path fill="#AD3D24" d="M725.61,242.151c0,3.74-3.028,6.765-6.77,6.765h-94.649c-3.74,0-6.77-3.024-6.77-6.765v-28.563
			c0-3.735,3.029-6.765,6.77-6.765h94.649c3.741,0,6.77,3.029,6.77,6.765V242.151z"/>
		<path fill="#AD3D24" d="M222.872,108.512c0,3.74-3.029,6.765-6.765,6.765h-94.654c-3.74,0-6.765-3.024-6.765-6.765V79.948
			c0-3.735,3.029-6.765,6.765-6.765h94.654c3.735,0,6.765,3.029,6.765,6.765V108.512z"/>
		<path fill="#AD3D24" d="M334.239,108.512c0,3.74-3.029,6.765-6.765,6.765h-94.655c-3.74,0-6.765-3.024-6.765-6.765V79.948
			c0-3.735,3.024-6.765,6.765-6.765h94.655c3.735,0,6.765,3.029,6.765,6.765V108.512z"/>
		<path fill="#AD3D24" d="M445.604,108.512c0,3.74-3.028,6.765-6.765,6.765h-94.654c-3.74,0-6.765-3.024-6.765-6.765V79.948
			c0-3.735,3.024-6.765,6.765-6.765h94.654c3.735,0,6.765,3.029,6.765,6.765V108.512z"/>
		<path fill="#AD3D24" d="M556.97,108.512c0,3.74-3.029,6.765-6.77,6.765h-94.649c-3.74,0-6.765-3.024-6.765-6.765V79.948
			c0-3.735,3.024-6.765,6.765-6.765H550.2c3.74,0,6.77,3.029,6.77,6.765V108.512z"/>
		<path fill="#AD3D24" d="M668.336,108.512c0,3.74-3.029,6.765-6.77,6.765h-94.65c-3.74,0-6.77-3.024-6.77-6.765V79.948
			c0-3.735,3.029-6.765,6.77-6.765h94.65c3.74,0,6.77,3.029,6.77,6.765V108.512z"/>
		<path fill="#AD3D24" d="M779.702,108.512c0,3.74-3.029,6.765-6.77,6.765h-94.65c-3.74,0-6.765-3.024-6.765-6.765V79.948
			c0-3.735,3.024-6.765,6.765-6.765h94.65c3.74,0,6.77,3.029,6.77,6.765V108.512z"/>
		<path fill="#AD3D24" d="M168.781,153.058c0,3.74-3.029,6.765-6.765,6.765H67.362c-3.741,0-6.766-3.024-6.766-6.765v-28.563
			c0-3.735,3.029-6.765,6.766-6.765h94.654c3.735,0,6.765,3.029,6.765,6.765V153.058z"/>
		<path fill="#AD3D24" d="M280.147,153.058c0,3.74-3.029,6.765-6.765,6.765h-94.655c-3.74,0-6.765-3.024-6.765-6.765v-28.563
			c0-3.735,3.029-6.765,6.765-6.765h94.655c3.735,0,6.765,3.029,6.765,6.765V153.058z"/>
		<path fill="#AD3D24" d="M391.512,153.058c0,3.74-3.029,6.765-6.765,6.765h-94.654c-3.74,0-6.765-3.024-6.765-6.765v-28.563
			c0-3.735,3.024-6.765,6.765-6.765h94.654c3.735,0,6.765,3.029,6.765,6.765V153.058z"/>
		<path fill="#AD3D24" d="M502.878,153.058c0,3.74-3.029,6.765-6.765,6.765h-94.654c-3.741,0-6.766-3.024-6.766-6.765v-28.563
			c0-3.735,3.024-6.765,6.766-6.765h94.654c3.735,0,6.765,3.029,6.765,6.765V153.058z"/>
		<path fill="#84271A" d="M614.244,153.058c0,3.74-3.029,6.765-6.77,6.765h-94.65c-3.74,0-6.77-3.024-6.77-6.765v-28.563
			c0-3.735,3.029-6.765,6.77-6.765h94.65c3.74,0,6.77,3.029,6.77,6.765V153.058z"/>
		<path fill="#AD3D24" d="M725.61,153.058c0,3.74-3.028,6.765-6.77,6.765h-94.649c-3.74,0-6.77-3.024-6.77-6.765v-28.563
			c0-3.735,3.029-6.765,6.77-6.765h94.649c3.741,0,6.77,3.029,6.77,6.765V153.058z"/>
		<path fill="#AD3D24" d="M222.872,286.698c0,3.74-3.029,6.765-6.765,6.765h-94.654c-3.74,0-6.765-3.024-6.765-6.765v-28.564
			c0-3.735,3.024-6.765,6.765-6.765h94.654c3.735,0,6.765,3.029,6.765,6.765V286.698z"/>
		<path fill="#AD3D24" d="M334.239,286.698c0,3.74-3.029,6.765-6.765,6.765h-94.655c-3.74,0-6.765-3.024-6.765-6.765v-28.564
			c0-3.735,3.024-6.765,6.765-6.765h94.655c3.735,0,6.765,3.029,6.765,6.765V286.698z"/>
		<path fill="#AD3D24" d="M445.604,286.698c0,3.74-3.028,6.765-6.765,6.765h-94.654c-3.74,0-6.765-3.024-6.765-6.765v-28.564
			c0-3.735,3.024-6.765,6.765-6.765h94.654c3.735,0,6.765,3.029,6.765,6.765V286.698z"/>
		<path fill="#AD3D24" d="M556.97,286.698c0,3.74-3.029,6.765-6.77,6.765h-94.649c-3.74,0-6.765-3.024-6.765-6.765v-28.564
			c0-3.735,3.024-6.765,6.765-6.765H550.2c3.74,0,6.77,3.029,6.77,6.765V286.698z"/>
		<path fill="#AD3D24" d="M668.336,286.698c0,3.74-3.029,6.765-6.77,6.765h-94.65c-3.74,0-6.77-3.024-6.77-6.765v-28.564
			c0-3.735,3.029-6.765,6.77-6.765h94.65c3.74,0,6.77,3.029,6.77,6.765V286.698z"/>
		<path fill="#84271A" d="M779.702,286.698c0,3.74-3.029,6.765-6.77,6.765h-94.65c-3.74,0-6.765-3.024-6.765-6.765v-28.564
			c0-3.735,3.024-6.765,6.765-6.765h94.65c3.74,0,6.77,3.029,6.77,6.765V286.698z"/>
		<path fill="#AD3D24" d="M168.781,331.243c0,3.74-3.029,6.765-6.765,6.765H67.362c-3.741,0-6.766-3.024-6.766-6.765V302.68
			c0-3.735,3.024-6.765,6.766-6.765h94.654c3.735,0,6.765,3.029,6.765,6.765V331.243z"/>
		<path fill="#AD3D24" d="M280.147,331.243c0,3.74-3.029,6.765-6.765,6.765h-94.655c-3.74,0-6.765-3.024-6.765-6.765V302.68
			c0-3.735,3.024-6.765,6.765-6.765h94.655c3.735,0,6.765,3.029,6.765,6.765V331.243z"/>
		<path fill="#AD3D24" d="M391.512,331.243c0,3.74-3.029,6.765-6.765,6.765h-94.654c-3.74,0-6.765-3.024-6.765-6.765V302.68
			c0-3.735,3.024-6.765,6.765-6.765h94.654c3.735,0,6.765,3.029,6.765,6.765V331.243z"/>
		<path fill="#AD3D24" d="M502.878,331.243c0,3.74-3.029,6.765-6.765,6.765h-94.654c-3.741,0-6.766-3.024-6.766-6.765V302.68
			c0-3.735,3.024-6.765,6.766-6.765h94.654c3.735,0,6.765,3.029,6.765,6.765V331.243z"/>
		<path fill="#AD3D24" d="M614.244,331.243c0,3.74-3.029,6.765-6.77,6.765h-94.65c-3.74,0-6.77-3.024-6.77-6.765V302.68
			c0-3.735,3.029-6.765,6.77-6.765h94.65c3.74,0,6.77,3.029,6.77,6.765V331.243z"/>
		<path fill="#AD3D24" d="M725.61,331.243c0,3.74-3.028,6.765-6.77,6.765h-94.649c-3.74,0-6.77-3.024-6.77-6.765V302.68
			c0-3.735,3.029-6.765,6.77-6.765h94.649c3.741,0,6.77,3.029,6.77,6.765V331.243z"/>
		<path fill="#AD3D24" d="M222.872,375.788c0,3.742-3.029,6.765-6.765,6.765h-94.654c-3.74,0-6.765-3.022-6.765-6.765v-28.563
			c0-3.735,3.024-6.765,6.765-6.765h94.654c3.735,0,6.765,3.029,6.765,6.765V375.788z"/>
		<path fill="#AD3D24" d="M334.239,375.788c0,3.742-3.029,6.765-6.765,6.765h-94.655c-3.74,0-6.765-3.022-6.765-6.765v-28.563
			c0-3.735,3.024-6.765,6.765-6.765h94.655c3.735,0,6.765,3.029,6.765,6.765V375.788z"/>
		<path fill="#84271A" d="M445.604,375.788c0,3.742-3.028,6.765-6.765,6.765h-94.654c-3.74,0-6.765-3.022-6.765-6.765v-28.563
			c0-3.735,3.024-6.765,6.765-6.765h94.654c3.735,0,6.765,3.029,6.765,6.765V375.788z"/>
		<path fill="#AD3D24" d="M556.97,375.788c0,3.742-3.029,6.765-6.77,6.765h-94.649c-3.74,0-6.765-3.022-6.765-6.765v-28.563
			c0-3.735,3.024-6.765,6.765-6.765H550.2c3.74,0,6.77,3.029,6.77,6.765V375.788z"/>
		<path fill="#AD3D24" d="M668.336,375.788c0,3.742-3.029,6.765-6.77,6.765h-94.65c-3.74,0-6.77-3.022-6.77-6.765v-28.563
			c0-3.735,3.029-6.765,6.77-6.765h94.65c3.74,0,6.77,3.029,6.77,6.765V375.788z"/>
		<path fill="#AD3D24" d="M779.702,375.788c0,3.742-3.029,6.765-6.77,6.765h-94.65c-3.74,0-6.765-3.022-6.765-6.765v-28.563
			c0-3.735,3.024-6.765,6.765-6.765h94.65c3.74,0,6.77,3.029,6.77,6.765V375.788z"/>
		<path fill="#AD3D24" d="M168.781,420.335c0,3.741-3.029,6.764-6.765,6.764H67.362c-3.741,0-6.766-3.022-6.766-6.764v-28.563
			c0-3.735,3.024-6.765,6.766-6.765h94.654c3.735,0,6.765,3.029,6.765,6.765V420.335z"/>
		<path fill="#AD3D24" d="M280.147,420.335c0,3.741-3.029,6.764-6.765,6.764h-94.655c-3.74,0-6.765-3.022-6.765-6.764v-28.563
			c0-3.735,3.024-6.765,6.765-6.765h94.655c3.735,0,6.765,3.029,6.765,6.765V420.335z"/>
		<path fill="#AD3D24" d="M391.512,420.335c0,3.741-3.029,6.764-6.765,6.764h-94.654c-3.74,0-6.765-3.022-6.765-6.764v-28.563
			c0-3.735,3.024-6.765,6.765-6.765h94.654c3.735,0,6.765,3.029,6.765,6.765V420.335z"/>
		<path fill="#AD3D24" d="M502.878,420.335c0,3.741-3.029,6.764-6.765,6.764h-94.654c-3.741,0-6.766-3.022-6.766-6.764v-28.563
			c0-3.735,3.024-6.765,6.766-6.765h94.654c3.735,0,6.765,3.029,6.765,6.765V420.335z"/>
		<path fill="#AD3D24" d="M614.244,420.335c0,3.741-3.029,6.764-6.77,6.764h-94.65c-3.74,0-6.77-3.022-6.77-6.764v-28.563
			c0-3.735,3.029-6.765,6.77-6.765h94.65c3.74,0,6.77,3.029,6.77,6.765V420.335z"/>
		<path fill="#84271A" d="M725.61,420.335c0,3.741-3.028,6.764-6.77,6.764h-94.649c-3.74,0-6.77-3.022-6.77-6.764v-28.563
			c0-3.735,3.029-6.765,6.77-6.765h94.649c3.741,0,6.77,3.029,6.77,6.765V420.335z"/>
		<path fill="#84271A" d="M222.872,464.881c0,3.742-3.029,6.765-6.765,6.765h-94.654c-3.74,0-6.765-3.022-6.765-6.765v-28.563
			c0-3.735,3.024-6.765,6.765-6.765h94.654c3.735,0,6.765,3.029,6.765,6.765V464.881z"/>
		<path fill="#AD3D24" d="M334.239,464.881c0,3.742-3.029,6.765-6.765,6.765h-94.655c-3.74,0-6.765-3.022-6.765-6.765v-28.563
			c0-3.735,3.024-6.765,6.765-6.765h94.655c3.735,0,6.765,3.029,6.765,6.765V464.881z"/>
		<path fill="#AD3D24" d="M445.604,464.881c0,3.742-3.028,6.765-6.765,6.765h-94.654c-3.74,0-6.765-3.022-6.765-6.765v-28.563
			c0-3.735,3.024-6.765,6.765-6.765h94.654c3.735,0,6.765,3.029,6.765,6.765V464.881z"/>
		<path fill="#AD3D24" d="M556.97,464.881c0,3.742-3.029,6.765-6.77,6.765h-94.649c-3.74,0-6.765-3.022-6.765-6.765v-28.563
			c0-3.735,3.024-6.765,6.765-6.765H550.2c3.74,0,6.77,3.029,6.77,6.765V464.881z"/>
		<path fill="#AD3D24" d="M668.336,464.881c0,3.742-3.029,6.765-6.77,6.765h-94.65c-3.74,0-6.77-3.022-6.77-6.765v-28.563
			c0-3.735,3.029-6.765,6.77-6.765h94.65c3.74,0,6.77,3.029,6.77,6.765V464.881z"/>
		<path fill="#AD3D24" d="M779.702,464.881c0,3.742-3.029,6.765-6.77,6.765h-94.65c-3.74,0-6.765-3.022-6.765-6.765v-28.563
			c0-3.735,3.024-6.765,6.765-6.765h94.65c3.74,0,6.77,3.029,6.77,6.765V464.881z"/>
		<path fill="#AD3D24" d="M168.781,509.427c0,3.742-3.029,6.765-6.765,6.765H67.362c-3.741,0-6.766-3.022-6.766-6.765v-28.562
			c0-3.736,3.024-6.765,6.766-6.765h94.654c3.735,0,6.765,3.028,6.765,6.765V509.427z"/>
		<path fill="#AD3D24" d="M280.147,509.427c0,3.742-3.029,6.765-6.765,6.765h-94.655c-3.74,0-6.765-3.022-6.765-6.765v-28.562
			c0-3.736,3.024-6.765,6.765-6.765h94.655c3.735,0,6.765,3.028,6.765,6.765V509.427z"/>
		<path fill="#AD3D24" d="M391.512,509.427c0,3.742-3.029,6.765-6.765,6.765h-94.654c-3.74,0-6.765-3.022-6.765-6.765v-28.562
			c0-3.736,3.024-6.765,6.765-6.765h94.654c3.735,0,6.765,3.028,6.765,6.765V509.427z"/>
		<path fill="#AD3D24" d="M502.878,509.427c0,3.742-3.029,6.765-6.765,6.765h-94.654c-3.741,0-6.766-3.022-6.766-6.765v-28.562
			c0-3.736,3.024-6.765,6.766-6.765h94.654c3.735,0,6.765,3.028,6.765,6.765V509.427z"/>
		<path fill="#AD3D24" d="M614.244,509.427c0,3.742-3.029,6.765-6.77,6.765h-94.65c-3.74,0-6.77-3.022-6.77-6.765v-28.562
			c0-3.736,3.029-6.765,6.77-6.765h94.65c3.74,0,6.77,3.028,6.77,6.765V509.427z"/>
		<path fill="#AD3D24" d="M725.61,509.427c0,3.742-3.028,6.765-6.77,6.765h-94.649c-3.74,0-6.77-3.022-6.77-6.765v-28.562
			c0-3.736,3.029-6.765,6.77-6.765h94.649c3.741,0,6.77,3.028,6.77,6.765V509.427z"/>
		<path fill="#AD3D24" d="M222.872,553.974c0,3.742-3.029,6.765-6.765,6.765h-94.654c-3.74,0-6.765-3.022-6.765-6.765v-28.563
			c0-3.735,3.024-6.765,6.765-6.765h94.654c3.735,0,6.765,3.029,6.765,6.765V553.974z"/>
		<path fill="#AD3D24" d="M334.239,553.974c0,3.742-3.029,6.765-6.765,6.765h-94.655c-3.74,0-6.765-3.022-6.765-6.765v-28.563
			c0-3.735,3.024-6.765,6.765-6.765h94.655c3.735,0,6.765,3.029,6.765,6.765V553.974z"/>
		<path fill="#AD3D24" d="M445.604,553.974c0,3.742-3.028,6.765-6.765,6.765h-94.654c-3.74,0-6.765-3.022-6.765-6.765v-28.563
			c0-3.735,3.024-6.765,6.765-6.765h94.654c3.735,0,6.765,3.029,6.765,6.765V553.974z"/>
		<path fill="#84271A" d="M556.97,553.974c0,3.742-3.029,6.765-6.77,6.765h-94.649c-3.74,0-6.765-3.022-6.765-6.765v-28.563
			c0-3.735,3.024-6.765,6.765-6.765H550.2c3.74,0,6.77,3.029,6.77,6.765V553.974z"/>
		<path fill="#AD3D24" d="M668.336,553.974c0,3.742-3.029,6.765-6.77,6.765h-94.65c-3.74,0-6.77-3.022-6.77-6.765v-28.563
			c0-3.735,3.029-6.765,6.77-6.765h94.65c3.74,0,6.77,3.029,6.77,6.765V553.974z"/>
		<path fill="#AD3D24" d="M779.702,553.974c0,3.742-3.029,6.765-6.77,6.765h-94.65c-3.74,0-6.765-3.022-6.765-6.765v-28.563
			c0-3.735,3.024-6.765,6.765-6.765h94.65c3.74,0,6.77,3.029,6.77,6.765V553.974z"/>
		<path fill="#AD3D24" d="M168.781,598.52c0,3.742-3.029,6.765-6.765,6.765H67.362c-3.741,0-6.766-3.022-6.766-6.765v-28.562
			c0-3.735,3.024-6.765,6.766-6.765h94.654c3.735,0,6.765,3.028,6.765,6.765V598.52z"/>
		<path fill="#AD3D24" d="M280.147,598.52c0,3.742-3.029,6.765-6.765,6.765h-94.655c-3.74,0-6.765-3.022-6.765-6.765v-28.562
			c0-3.735,3.024-6.765,6.765-6.765h94.655c3.735,0,6.765,3.028,6.765,6.765V598.52z"/>
		<path fill="#AD3D24" d="M391.512,598.52c0,3.742-3.029,6.765-6.765,6.765h-94.654c-3.74,0-6.765-3.022-6.765-6.765v-28.562
			c0-3.735,3.024-6.765,6.765-6.765h94.654c3.735,0,6.765,3.028,6.765,6.765V598.52z"/>
		<path fill="#AD3D24" d="M502.878,598.52c0,3.742-3.029,6.765-6.765,6.765h-94.654c-3.741,0-6.766-3.022-6.766-6.765v-28.562
			c0-3.735,3.024-6.765,6.766-6.765h94.654c3.735,0,6.765,3.028,6.765,6.765V598.52z"/>
		<path fill="#AD3D24" d="M614.244,598.52c0,3.742-3.029,6.765-6.77,6.765h-94.65c-3.74,0-6.77-3.022-6.77-6.765v-28.562
			c0-3.735,3.029-6.765,6.77-6.765h94.65c3.74,0,6.77,3.028,6.77,6.765V598.52z"/>
		<path fill="#AD3D24" d="M725.61,598.52c0,3.742-3.028,6.765-6.77,6.765h-94.649c-3.74,0-6.77-3.022-6.77-6.765v-28.562
			c0-3.735,3.029-6.765,6.77-6.765h94.649c3.741,0,6.77,3.028,6.77,6.765V598.52z"/>
		<path fill="#AD3D24" d="M222.872,643.067c0,3.742-3.029,6.765-6.765,6.765h-94.654c-3.74,0-6.765-3.022-6.765-6.765v-28.563
			c0-3.735,3.024-6.765,6.765-6.765h94.654c3.735,0,6.765,3.029,6.765,6.765V643.067z"/>
		<path fill="#AD3D24" d="M334.239,643.067c0,3.742-3.029,6.765-6.765,6.765h-94.655c-3.74,0-6.765-3.022-6.765-6.765v-28.563
			c0-3.735,3.024-6.765,6.765-6.765h94.655c3.735,0,6.765,3.029,6.765,6.765V643.067z"/>
		<path fill="#AD3D24" d="M445.604,643.067c0,3.742-3.028,6.765-6.765,6.765h-94.654c-3.74,0-6.765-3.022-6.765-6.765v-28.563
			c0-3.735,3.024-6.765,6.765-6.765h94.654c3.735,0,6.765,3.029,6.765,6.765V643.067z"/>
		<path fill="#AD3D24" d="M556.97,643.067c0,3.742-3.029,6.765-6.77,6.765h-94.649c-3.74,0-6.765-3.022-6.765-6.765v-28.563
			c0-3.735,3.024-6.765,6.765-6.765H550.2c3.74,0,6.77,3.029,6.77,6.765V643.067z"/>
		<path fill="#84271A" d="M668.336,643.067c0,3.742-3.029,6.765-6.77,6.765h-94.65c-3.74,0-6.77-3.022-6.77-6.765v-28.563
			c0-3.735,3.029-6.765,6.77-6.765h94.65c3.74,0,6.77,3.029,6.77,6.765V643.067z"/>
		<path fill="#AD3D24" d="M779.702,643.067c0,3.742-3.029,6.765-6.77,6.765h-94.65c-3.74,0-6.765-3.022-6.765-6.765v-28.563
			c0-3.735,3.024-6.765,6.765-6.765h94.65c3.74,0,6.77,3.029,6.77,6.765V643.067z"/>
		<path fill="#AD3D24" d="M168.781,687.613c0,3.742-3.029,6.767-6.765,6.767H67.362c-3.741,0-6.766-3.024-6.766-6.767v-28.562
			c0-3.736,3.024-6.765,6.766-6.765h94.654c3.735,0,6.765,3.028,6.765,6.765V687.613z"/>
		<path fill="#84271A" d="M280.147,687.613c0,3.742-3.029,6.767-6.765,6.767h-94.655c-3.74,0-6.765-3.024-6.765-6.767v-28.562
			c0-3.736,3.024-6.765,6.765-6.765h94.655c3.735,0,6.765,3.028,6.765,6.765V687.613z"/>
		<path fill="#AD3D24" d="M391.512,687.613c0,3.742-3.029,6.767-6.765,6.767h-94.654c-3.74,0-6.765-3.024-6.765-6.767v-28.562
			c0-3.736,3.024-6.765,6.765-6.765h94.654c3.735,0,6.765,3.028,6.765,6.765V687.613z"/>
		<path fill="#AD3D24" d="M502.878,687.613c0,3.742-3.029,6.767-6.765,6.767h-94.654c-3.741,0-6.766-3.024-6.766-6.767v-28.562
			c0-3.736,3.024-6.765,6.766-6.765h94.654c3.735,0,6.765,3.028,6.765,6.765V687.613z"/>
		<path fill="#AD3D24" d="M614.244,687.613c0,3.742-3.029,6.767-6.77,6.767h-94.65c-3.74,0-6.77-3.024-6.77-6.767v-28.562
			c0-3.736,3.029-6.765,6.77-6.765h94.65c3.74,0,6.77,3.028,6.77,6.765V687.613z"/>
		<path fill="#AD3D24" d="M725.61,687.613c0,3.742-3.028,6.767-6.77,6.767h-94.649c-3.74,0-6.77-3.024-6.77-6.767v-28.562
			c0-3.736,3.029-6.765,6.77-6.765h94.649c3.741,0,6.77,3.028,6.77,6.765V687.613z"/>
		<path fill="#AD3D24" d="M222.872,732.159c0,3.741-3.029,6.767-6.765,6.767h-94.654c-3.74,0-6.765-3.025-6.765-6.767v-28.558
			c0-3.74,3.024-6.768,6.765-6.768h94.654c3.735,0,6.765,3.027,6.765,6.768V732.159z"/>
		<path fill="#AD3D24" d="M334.239,732.159c0,3.741-3.029,6.767-6.765,6.767h-94.655c-3.74,0-6.765-3.025-6.765-6.767v-28.558
			c0-3.74,3.024-6.768,6.765-6.768h94.655c3.735,0,6.765,3.027,6.765,6.768V732.159z"/>
		<path fill="#AD3D24" d="M445.604,732.159c0,3.741-3.028,6.767-6.765,6.767h-94.654c-3.74,0-6.765-3.025-6.765-6.767v-28.558
			c0-3.74,3.024-6.768,6.765-6.768h94.654c3.735,0,6.765,3.027,6.765,6.768V732.159z"/>
		<path fill="#AD3D24" d="M556.97,732.159c0,3.741-3.029,6.767-6.77,6.767h-94.649c-3.74,0-6.765-3.025-6.765-6.767v-28.558
			c0-3.74,3.024-6.768,6.765-6.768H550.2c3.74,0,6.77,3.027,6.77,6.768V732.159z"/>
		<path fill="#AD3D24" d="M668.336,732.159c0,3.741-3.029,6.767-6.77,6.767h-94.65c-3.74,0-6.77-3.025-6.77-6.767v-28.558
			c0-3.74,3.029-6.768,6.77-6.768h94.65c3.74,0,6.77,3.027,6.77,6.768V732.159z"/>
		<path fill="#AD3D24" d="M779.702,732.159c0,3.741-3.029,6.767-6.77,6.767h-94.65c-3.74,0-6.765-3.025-6.765-6.767v-28.558
			c0-3.74,3.024-6.768,6.765-6.768h94.65c3.74,0,6.77,3.027,6.77,6.768V732.159z"/>
		<path fill="#84271A" d="M168.781,776.705c0,3.742-3.029,6.767-6.765,6.767H67.362c-3.741,0-6.766-3.024-6.766-6.767v-28.557
			c0-3.741,3.024-6.769,6.766-6.769h94.654c3.735,0,6.765,3.028,6.765,6.769V776.705z"/>
		<path fill="#AD3D24" d="M280.147,776.705c0,3.742-3.029,6.767-6.765,6.767h-94.655c-3.74,0-6.765-3.024-6.765-6.767v-28.557
			c0-3.741,3.024-6.769,6.765-6.769h94.655c3.735,0,6.765,3.028,6.765,6.769V776.705z"/>
		<path fill="#AD3D24" d="M391.512,776.705c0,3.742-3.029,6.767-6.765,6.767h-94.654c-3.74,0-6.765-3.024-6.765-6.767v-28.557
			c0-3.741,3.024-6.769,6.765-6.769h94.654c3.735,0,6.765,3.028,6.765,6.769V776.705z"/>
		<path fill="#84271A" d="M502.878,776.705c0,3.742-3.029,6.767-6.765,6.767h-94.654c-3.741,0-6.766-3.024-6.766-6.767v-28.557
			c0-3.741,3.024-6.769,6.766-6.769h94.654c3.735,0,6.765,3.028,6.765,6.769V776.705z"/>
		<path fill="#AD3D24" d="M614.244,776.705c0,3.742-3.029,6.767-6.77,6.767h-94.65c-3.74,0-6.77-3.024-6.77-6.767v-28.557
			c0-3.741,3.029-6.769,6.77-6.769h94.65c3.74,0,6.77,3.028,6.77,6.769V776.705z"/>
		<path fill="#AD3D24" d="M725.61,776.705c0,3.742-3.028,6.767-6.77,6.767h-94.649c-3.74,0-6.77-3.024-6.77-6.767v-28.557
			c0-3.741,3.029-6.769,6.77-6.769h94.649c3.741,0,6.77,3.028,6.77,6.769V776.705z"/>
		<path fill="#AD3D24" d="M222.872,821.252c0,3.742-3.029,6.766-6.765,6.766h-94.654c-3.74,0-6.765-3.023-6.765-6.766v-28.558
			c0-3.74,3.024-6.767,6.765-6.767h94.654c3.735,0,6.765,3.026,6.765,6.767V821.252z"/>
		<path fill="#AD3D24" d="M334.239,821.252c0,3.742-3.029,6.766-6.765,6.766h-94.655c-3.74,0-6.765-3.023-6.765-6.766v-28.558
			c0-3.74,3.024-6.767,6.765-6.767h94.655c3.735,0,6.765,3.026,6.765,6.767V821.252z"/>
		<path fill="#AD3D24" d="M445.604,821.252c0,3.742-3.028,6.766-6.765,6.766h-94.654c-3.74,0-6.765-3.023-6.765-6.766v-28.558
			c0-3.74,3.024-6.767,6.765-6.767h94.654c3.735,0,6.765,3.026,6.765,6.767V821.252z"/>
		<path fill="#AD3D24" d="M556.97,821.252c0,3.742-3.029,6.766-6.77,6.766h-94.649c-3.74,0-6.765-3.023-6.765-6.766v-28.558
			c0-3.74,3.024-6.767,6.765-6.767H550.2c3.74,0,6.77,3.026,6.77,6.767V821.252z"/>
		<path fill="#AD3D24" d="M668.336,821.252c0,3.742-3.029,6.766-6.77,6.766h-94.65c-3.74,0-6.77-3.023-6.77-6.766v-28.558
			c0-3.74,3.029-6.767,6.77-6.767h94.65c3.74,0,6.77,3.026,6.77,6.767V821.252z"/>
		<path fill="#84271A" d="M779.702,821.252c0,3.742-3.029,6.766-6.77,6.766h-94.65c-3.74,0-6.765-3.023-6.765-6.766v-28.558
			c0-3.74,3.024-6.767,6.765-6.767h94.65c3.74,0,6.77,3.026,6.77,6.767V821.252z"/>
		<path fill="#AD3D24" d="M222.872,910.345c0,3.742-3.029,6.767-6.765,6.767h-94.654c-3.74,0-6.765-3.024-6.765-6.767v-28.558
			c0-3.74,3.024-6.767,6.765-6.767h94.654c3.735,0,6.765,3.026,6.765,6.767V910.345z"/>
		<path fill="#AD3D24" d="M334.239,910.345c0,3.742-3.029,6.767-6.765,6.767h-94.655c-3.74,0-6.765-3.024-6.765-6.767v-28.558
			c0-3.74,3.024-6.767,6.765-6.767h94.655c3.735,0,6.765,3.026,6.765,6.767V910.345z"/>
		<path fill="#AD3D24" d="M445.604,910.345c0,3.742-3.028,6.767-6.765,6.767h-94.654c-3.74,0-6.765-3.024-6.765-6.767v-28.558
			c0-3.74,3.024-6.767,6.765-6.767h94.654c3.735,0,6.765,3.026,6.765,6.767V910.345z"/>
		<path fill="#AD3D24" d="M556.97,910.345c0,3.742-3.029,6.767-6.77,6.767h-94.649c-3.74,0-6.765-3.024-6.765-6.767v-28.558
			c0-3.74,3.024-6.767,6.765-6.767H550.2c3.74,0,6.77,3.026,6.77,6.767V910.345z"/>
		<path fill="#AD3D24" d="M668.336,910.345c0,3.742-3.029,6.767-6.77,6.767h-94.65c-3.74,0-6.77-3.024-6.77-6.767v-28.558
			c0-3.74,3.029-6.767,6.77-6.767h94.65c3.74,0,6.77,3.026,6.77,6.767V910.345z"/>
		<path fill="#84271A" d="M779.702,910.345c0,3.742-3.029,6.767-6.77,6.767h-94.65c-3.74,0-6.765-3.024-6.765-6.767v-28.558
			c0-3.74,3.024-6.767,6.765-6.767h94.65c3.74,0,6.77,3.026,6.77,6.767V910.345z"/>
		<path fill="#AD3D24" d="M168.781,865.798c0,3.742-3.029,6.767-6.765,6.767H67.362c-3.741,0-6.766-3.024-6.766-6.767v-28.557
			c0-3.741,3.024-6.767,6.766-6.767h94.654c3.735,0,6.765,3.025,6.765,6.767V865.798z"/>
		<path fill="#AD3D24" d="M280.147,865.798c0,3.742-3.029,6.767-6.765,6.767h-94.655c-3.74,0-6.765-3.024-6.765-6.767v-28.557
			c0-3.741,3.024-6.767,6.765-6.767h94.655c3.735,0,6.765,3.025,6.765,6.767V865.798z"/>
		<path fill="#AD3D24" d="M391.512,865.798c0,3.742-3.029,6.767-6.765,6.767h-94.654c-3.74,0-6.765-3.024-6.765-6.767v-28.557
			c0-3.741,3.024-6.767,6.765-6.767h94.654c3.735,0,6.765,3.025,6.765,6.767V865.798z"/>
		<path fill="#AD3D24" d="M502.878,865.798c0,3.742-3.029,6.767-6.765,6.767h-94.654c-3.741,0-6.766-3.024-6.766-6.767v-28.557
			c0-3.741,3.024-6.767,6.766-6.767h94.654c3.735,0,6.765,3.025,6.765,6.767V865.798z"/>
		<path fill="#AD3D24" d="M614.244,865.798c0,3.742-3.029,6.767-6.77,6.767h-94.65c-3.74,0-6.77-3.024-6.77-6.767v-28.557
			c0-3.741,3.029-6.767,6.77-6.767h94.65c3.74,0,6.77,3.025,6.77,6.767V865.798z"/>
		<path fill="#AD3D24" d="M725.61,865.798c0,3.742-3.028,6.767-6.77,6.767h-94.649c-3.74,0-6.77-3.024-6.77-6.767v-28.557
			c0-3.741,3.029-6.767,6.77-6.767h94.649c3.741,0,6.77,3.025,6.77,6.767V865.798z"/>
	</g>
</g>
<g id="lab-background">
	<polygon id="table" fill="#6D6E71" points="779.702,523.916 60.596,523.916 60.596,563.989 111.506,563.989 111.506,916.505 
		149.689,916.505 149.689,563.989 690.61,563.989 690.61,916.505 728.792,916.505 728.792,563.989 779.702,563.989 	"/>
	<g id="monitor-group">
		<path id="monitor-body" fill="#58595B" d="M318.065,354.437H100.019c-2.538,0-4.602,2.06-4.602,4.607v128.875
			c0,2.539,2.063,4.602,4.602,4.602h78.72v20.372h-29.44c-2.313,0-4.19,1.363-4.19,3.05v7.944h127.87v-7.944
			c0-1.687-1.882-3.05-4.195-3.05h-29.438v-20.372h78.718c2.54,0,4.603-2.063,4.603-4.602V359.044
			C322.667,356.496,320.606,354.437,318.065,354.437z"/>
		<rect id="monitor-screen-off" x="108.474" y="366.905" fill="#231F20" width="201.138" height="113.14"/>
		<rect id="monitor-screen-on" x="108.474" y="366.905" fill="#FFFFFF" width="201.138" height="113.14"/>
		<circle id="monitor-led" fill="#39B54A" cx="313.083" cy="486.54" r="1.75"/>
	</g>
	<g id="mouse">
		<path id="mouse-wheel" fill="#6D6E71" d="M327.449,513.946c0,0.622-0.498,1.118-1.118,1.118h-1.391
			c-0.617,0-1.112-0.497-1.112-1.118v-4.772c0-0.617,0.498-1.112,1.112-1.112h1.391c0.622,0,1.118,0.498,1.118,1.112V513.946z"/>
		<path id="mouse-body" fill="#58595B" d="M325.638,510.294c-9.004,0-14.866,2.594-16.303,6.765
			c-0.733,2.137-1.314,5.739-1.314,5.739c0,0.617,0.5,1.116,1.119,1.116h32.999c0.617,0,1.117-0.499,1.117-1.116
			c0,0-0.621-3.598-1.314-5.739C340.404,512.35,334.641,510.294,325.638,510.294z"/>
	</g>
	<g id="test-tubes">
		<g id="test-tube-1">
			<path opacity="0.5" fill="#FFFFFF" stroke="#FFFFFF" stroke-width="0.5" stroke-miterlimit="10" enable-background="new    " d="
				M600.222,446.83h-12.388c-0.6,0-1.088,0.486-1.088,1.088v0.417c0,0.6,0.488,1.09,1.088,1.09h0.552v59.21
				c0,3.115,2.533,5.642,5.646,5.642c3.117,0,5.64-2.526,5.64-5.642v-59.21h0.554c0.601,0,1.087-0.49,1.087-1.09v-0.417
				C601.303,447.317,600.822,446.83,600.222,446.83z"/>
			<path fill="#00AEEF" d="M599.105,466.8v41.781c0,2.806-2.272,5.075-5.072,5.075c-2.806,0-5.078-2.272-5.078-5.075V466.8"/>
		</g>
		<g id="test-tube-2">
			<path opacity="0.5" fill="#FFFFFF" stroke="#FFFFFF" stroke-width="0.5" stroke-miterlimit="10" enable-background="new    " d="
				M628.811,446.83h-12.387c-0.602,0-1.089,0.486-1.089,1.088v0.417c0,0.6,0.487,1.09,1.089,1.09h0.558v59.21
				c0,3.115,2.525,5.642,5.641,5.642c3.114,0,5.64-2.526,5.64-5.642v-59.21h0.554c0.598,0,1.091-0.49,1.091-1.09v-0.417
				C629.901,447.317,629.407,446.83,628.811,446.83z"/>
			<path fill="#A02B33" d="M627.693,460.029v48.553c0,2.806-2.272,5.075-5.072,5.075s-5.075-2.272-5.075-5.075v-48.553"/>
		</g>
		<g id="test-tube-3">
			<path opacity="0.5" fill="#FFFFFF" stroke="#FFFFFF" stroke-width="0.5" stroke-miterlimit="10" enable-background="new    " d="
				M657.405,446.83h-12.389c-0.6,0-1.093,0.486-1.093,1.088v0.417c0,0.6,0.493,1.09,1.093,1.09h0.554v59.21
				c0,3.115,2.526,5.642,5.64,5.642c3.117,0,5.641-2.526,5.641-5.642v-59.21h0.56c0.599,0,1.087-0.49,1.087-1.09v-0.417
				C658.491,447.317,658.003,446.83,657.405,446.83z"/>
			<path fill="#7F3F98" d="M656.284,485.761v22.82c0,2.806-2.273,5.075-5.075,5.075s-5.071-2.272-5.071-5.075v-22.82"/>
		</g>
		<g id="test-tube-4">
			<path opacity="0.5" fill="#FFFFFF" stroke="#FFFFFF" stroke-width="0.5" stroke-miterlimit="10" enable-background="new    " d="
				M685.997,446.83h-12.389c-0.602,0-1.088,0.486-1.088,1.088v0.417c0,0.6,0.486,1.09,1.088,1.09h0.554v59.21
				c0,3.115,2.524,5.642,5.642,5.642c3.116,0,5.643-2.526,5.643-5.642v-59.21h0.556c0.597,0,1.085-0.49,1.085-1.09v-0.417
				C687.079,447.317,686.594,446.83,685.997,446.83z"/>
			<path fill="#F9ED32" d="M684.879,467.367v41.21c0,2.807-2.271,5.075-5.075,5.075c-2.806,0-5.074-2.271-5.074-5.075v-41.21"/>
		</g>
		<path id="rack" fill="#A7A9AC" d="M700.95,476.155v-4.65H572.879v4.65h3.2v38.428h-3.2v9.301H700.95v-9.301h-3.204v-38.428H700.95
			z M693.809,514.582H580.022v-38.428h113.787V514.582z"/>
	</g>
</g>
<g id="jack-caricature">
	<g id="neck">
		<path id="Coat_Back" fill="#FFFFFF" d="M402.085,301.12c0,0,4.319-2.023,18.396-2.023c14.467,0,18.521,2.023,18.521,2.023
			l5.412,20.25l-47.894,2.983L402.085,301.12z"/>
		<path id="throat" fill="#F4D9C3" d="M403.314,256.143h34.336c0,0-3.454,17.635-3.168,35.433
			c0.126,7.835,0.978,15.705,3.168,22.107c0,0-10.295,21.478-17.168,21.478c-6.871,0-17.168-21.478-17.168-21.478
			C409.666,290.347,403.314,256.142,403.314,256.143z"/>
		<path id="throat-shadow" fill="#DDB690" d="M405.899,279.516c-0.682-13.114-2.585-23.374-2.585-23.374h34.334
			c0,0-4.393,22.436-2.86,42.22"/>
	</g>
	<g id="head">
		<g id="ears">
			<path id="right-ear" fill="#F4D9C3" d="M379.74,203.442c0,0-0.081-0.345-0.232-0.933c-0.918-3.501-4.393-15.636-8.124-14.782
				c-4.363,0.994-5.454,7.159-5.454,9.943s4.54,15.113,5.091,19.887c0.546,4.772,1.631,11.137,3.631,12.728
				c2.003,1.591,4.851,1.793,6.216-0.199C384.823,224.326,379.74,203.442,379.74,203.442z"/>
			<path id="left-ear" fill="#F4D9C3" d="M463.573,203.442c0,0,0.082-0.345,0.232-0.933c0.922-3.501,4.396-15.636,8.126-14.782
				c4.362,0.994,5.455,7.159,5.455,9.943s-4.54,15.113-5.089,19.887c-0.547,4.772-1.633,11.137-3.632,12.728
				c-2.005,1.591-4.852,1.793-6.215-0.199C458.49,224.326,463.573,203.442,463.573,203.442z"/>
		</g>
		<path id="face" fill="#F4D9C3" d="M424.812,118.77c-1.116-0.039-2.241,0.047-3.374,0.263c-1.133-0.216-2.256-0.302-3.374-0.263
			c-21.456,0.619-39.777,46.869-40.337,71.264c-0.042,1.841,0.013,3.561,0.175,5.123c1.298,12.204,2.17,38.525,6.785,48.789
			c0.829,1.856,1.973,3.852,3.325,5.909c5.306,8.318,15.324,18.795,17.375,21.6c2.909,3.978,7.817,6.433,15.997,6.433
			c0.022,0,0.034-0.004,0.052-0.004s0.035,0.004,0.053,0.004c8.181,0,13.089-2.455,15.999-6.433
			c2.049-2.803,12.059-13.271,17.366-21.584c1.359-2.061,2.498-4.063,3.338-5.925c4.607-10.257,5.477-36.585,6.78-48.789
			c0.166-1.558,0.224-3.282,0.181-5.123C464.592,165.641,446.276,119.389,424.812,118.77z"/>
		<g id="eyebrows">
			<g id="right-eyebrow">
				<path fill="#A97C50" d="M412.693,185.406c-0.382-0.45-0.78-0.83-1.072-1.065c-1.138-0.896-2.579-1.343-3.998-1.469
					c-2.916-0.256-5.859,0.161-8.752,0.508c-3.168,0.375-6.633,0.21-9.702,1.207c-1.101,0.359-5.108,2.773-4.82,4.238
					c0.3,1.545,5.91-0.445,6.974-0.663c3.061-0.63,6.191-0.643,9.283-1.014c1.918-0.232,3.849-0.37,5.778-0.413
					c1.305-0.025,7.477,3.311,7.537,1.068C413.94,187.109,413.338,186.165,412.693,185.406z"/>
			</g>
			<path id="left-eyebrow" fill="#A97C50" d="M429.656,185.406c0.38-0.45,0.778-0.83,1.07-1.065
				c1.138-0.896,2.581-1.343,4.003-1.469c2.917-0.256,5.856,0.161,8.752,0.508c3.163,0.375,6.635,0.21,9.697,1.207
				c1.104,0.359,5.108,2.773,4.823,4.238c-0.299,1.545-5.91-0.445-6.972-0.663c-3.068-0.63-6.198-0.643-9.282-1.014
				c-1.919-0.232-3.854-0.37-5.783-0.413c-1.299-0.025-7.473,3.311-7.533,1.068C428.409,187.109,429.012,186.165,429.656,185.406z"
				/>
		</g>
		<path id="hair" fill="#A97C50" d="M378.624,215.585c-1.127-35.809-10.021-26.173-8.458-69.889c0.124-3.467,2.896-4.5,2.686-8.876
			c-0.431-9.069,6.269-11.725,13.31-18.06c10.531-9.473,14.785-11.108,14.785-11.108s12.004-6.132,21.398-4.772
			c10.086,1.46,29.75,3.313,34.504,12.675c2.962,5.827,5.217,5.121,9.517,13.575c2.831,5.568,5.285,10.047,5.582,12.462
			c5.434,44.512-7.823,41.609-7.823,74.436c0,0.617-1.353,0.165-1.446-0.443c-1.559-10.099,5.283-40.979-4.286-48.537
			c-4.959-3.913-5.989-14.523-10.725-15.585c-5.188-1.159-9.97-3.261-17.998-2.711c-8.717,0.597-13.815-0.397-19.265-0.397
			c-4.206,0-11.82,3.108-11.82,3.108s-12.694,4.848-13.392,12.138c-0.807,8.492-6.963,16.439-6.787,19.887
			c0.179,3.447,2.352,25.556,2.116,32.129C380.465,217.246,378.635,216.025,378.624,215.585z"/>
		<g id="Eyes">
			<path id="Left_Pupil" fill="#FFFFFF" d="M411.573,197.563c0.848,1.438-0.29,1.975-1.504,2.288
				c-2.355,0.599-3.016,0.966-8.014,1.113c-6.659,0.198-12.926-0.537-12.926-2.494c0-1.368,6.276-6.066,13.021-6.066
				C407.875,192.406,409.428,193.915,411.573,197.563z"/>
			<path id="Right_Pupil" fill="#FFFFFF" d="M431.591,197.563c-0.845,1.438,0.294,1.975,1.509,2.288
				c2.357,0.599,3.016,0.966,8.013,1.113c6.655,0.198,12.927-0.537,12.927-2.494c0-1.368-6.279-6.066-13.021-6.066
				C435.288,192.406,433.738,193.915,431.591,197.563z"/>
			<g id="Pupils">
				<ellipse cx="401.202" cy="197.032" rx="2.452" ry="2.682"/>
				<ellipse cx="441.962" cy="197.032" rx="2.452" ry="2.682"/>
			</g>
		</g>
		<g id="Glasses">
			<path d="M417.035,192.932c-2.276-2.417-6.429-2.417-10.836-2.417h-21.444c-2.489,0-4.421,0.692-5.741,2.042
				c-0.557,0.569-0.986,1.253-1.312,2.037l-2.287,0.05c-0.578,0.04-0.969,0.961-0.874,2.038l0.571,6.515
				c0.101,1.082,0.643,1.925,1.226,1.881l1.346-0.033l0.211,1.682c1.62,6.688,6.162,6.688,11.435,6.688h15.975
				c8.598,0,11.24-4.009,11.956-7.417l1.171-7.443C418.747,196.108,418.294,194.267,417.035,192.932z M415.898,198.237l-1.159,7.364
				c-0.763,3.657-3.854,5.436-9.447,5.436h-15.975c-5.185,0-7.784,0-8.924-4.705l-0.76-6.102c-0.283-2.885,0.145-4.918,1.255-6.063
				c0.829-0.848,2.091-1.267,3.866-1.267h21.444c3.643,0,7.41,0,8.923,1.61C415.876,195.304,416.127,196.529,415.898,198.237z"/>
			<path d="M424.073,198.558l1.169,7.443c0.708,3.414,3.35,7.417,11.958,7.417h15.975c5.266,0,9.814,0,11.429-6.688l0.217-1.68
				l1.346,0.033c0.578,0.045,1.122-0.799,1.221-1.88l0.575-6.516c0.098-1.083-0.299-1.998-0.873-2.038l-2.293-0.049
				c-0.322-0.784-0.754-1.469-1.309-2.038c-1.32-1.354-3.254-2.041-5.737-2.041h-21.452c-4.402,0-8.56,0-10.833,2.417
				C424.198,194.267,423.744,196.108,424.073,198.558z M427.364,194.51c1.509-1.61,5.274-1.61,8.918-1.61h21.449
				c1.764,0,3.03,0.419,3.865,1.267c1.111,1.145,1.534,3.178,1.257,6.063l-0.762,6.102c-1.146,4.705-3.745,4.705-8.919,4.705
				h-15.975c-5.594,0-8.684-1.778-9.447-5.436l-1.158-7.364C426.366,196.529,426.616,195.304,427.364,194.51z"/>
			<path fill="none" stroke="#000000" stroke-width="1.25" stroke-miterlimit="10" d="M416.873,199.906c0,0,1.469-2.797,4.506-2.817
				c2.982-0.021,4.504,2.817,4.504,2.817"/>
		</g>
		<g id="Mouth">
			<path id="Teeth" fill="#FFFFFF" d="M403.359,243.397c0.2-0.435,1.131,0.13,1.459,0.151c0.425,0.033,0.841-0.133,1.26-0.151
				c2.353-0.101,4.817,0.443,7.144,0.743c0.696,0.094,1.363,0.193,2.044,0.299c1.029,0.159,2.083,0.268,3.116,0.41
				c2.454,0.339,5.014,0.017,7.502-0.151c1.017-0.068,2.004-0.322,2.999-0.436c0.679-0.076,1.416-0.108,2.085-0.268
				c1.262-0.302,2.487-0.661,3.706-1.094c0.996-0.363,2.223-0.318,3.282-0.432c1.005-0.104,2.016-0.21,3.016-0.316
				c0.255-0.027,1.049,0.036,1.256-0.132c0,0-9.668,7.816-13.756,9.339c-2.934,1.094-8.874,0.905-11.833-0.093
				c-2.504-0.843-5.005-1.3-7.248-2.888c-1.324-0.937-2.95-1.406-4.205-2.383c-0.6-0.47-1.881-1.497-1.864-2.359
				C403.316,243.533,403.331,243.455,403.359,243.397z"/>
			<path id="Bottom_Lip" fill="#BC7362" d="M403.432,245.418c0.896,0.96,2.054,1.579,3.075,2.387
				c1.012,0.796,2.046,1.303,3.116,2.022c0.726,0.485,1.426,1.044,2.178,1.498c1.018,0.619,1.977,1.359,3.148,1.646
				c0.648,0.162,1.305,0.313,1.956,0.452c3.331,0.711,6.577-0.107,9.926-0.101c2.214,0.005,3.655-0.767,5.412-2.071
				c1.247-0.925,2.66-1.596,3.89-2.549c1.415-1.093,2.735-2.307,3.972-3.606c0.623-0.655,1.427-1.226,1.92-1.994
				c0.165-0.264,1.13-1.185,0.883-1.346c-0.213-0.135-0.735,0.177-0.941,0.25c-0.398,0.142-0.837,0.131-1.23,0.263
				c-0.362,0.121-0.623,0.385-0.937,0.63c-0.737,0.564-1.488,1.125-2.221,1.691c-1.38,1.06-2.875,1.955-4.275,2.984
				c-1.179,0.865-2.58,1.624-3.915,2.205c-1.518,0.66-3.469,0.795-5.098,0.845c-2.069,0.061-4.146,0.152-6.203-0.146
				c-2.665-0.388-5.271-1.217-7.711-2.364c-1.152-0.539-1.944-1.138-2.943-1.854c-0.741-0.53-1.595-0.854-2.362-1.334
				c-0.396-0.248-0.691-0.582-1.054-0.86c-0.298-0.229-0.647-0.332-0.994-0.498c-0.328-0.165-0.563-0.506-0.915-0.602
				C401.926,243.865,402.884,244.835,403.432,245.418z"/>
			<path id="Top_Lip_1_" fill="#CE9975" d="M442.998,241.685c-0.647-0.185-1.462,0.036-2.109,0.17
				c-0.642,0.132-1.251,0.344-1.912,0.359c-1.924,0.047-3.818,0.166-5.734,0.398c-0.829,0.1-1.667,0.138-2.484,0.331
				c-1.302,0.305-2.573,0.544-3.898,0.76c-0.845,0.132-1.692,0.234-2.542,0.346c-2.999,0.367-5.656,0.2-8.6-0.247
				c-2.57-0.393-5.165-0.614-7.764-0.686c-1.516-0.041-3.009-0.078-4.515-0.061c-0.457,0.005-0.907-0.24-1.355-0.035
				c-0.232,0.108,1.438,0.791,1.503,0.821c0.077,0.032,0.148,0.059,0.218,0.088c0.614,0.241,1.038,0.359,1.765,0.377
				c1.02,0.025,2.011,0.322,3.009,0.365c0.652,0.034,1.275,0.15,1.918,0.177c0.892,0.033,1.84,0.189,2.751,0.261
				c0.857,0.067,1.625,0.355,2.487,0.434c1.917,0.186,3.844,0.044,5.764,0.047c2.83,0.004,5.7-0.013,8.469-0.684
				c1.082-0.263,2.135-0.63,3.212-0.903c1.074-0.275,2.051-0.313,3.148-0.331c0.726-0.013,1.426-0.189,2.154-0.261
				c0.934-0.091,1.841-0.43,2.686-0.839c0.404-0.199,0.703-0.342,1.138-0.432C442.621,242.074,442.918,242.113,442.998,241.685z"/>
		</g>
		<path id="nose_1_" fill="#DDB690" d="M412.865,220.538c-2.177,2.304-3.446,7.132-1.211,9.881c1.095,1.353,2.221,1.691,3.892,1.975
			c2.396,0.415,3.879,2.566,6.518,2.878c1.691,0.199,3.358-0.589,4.547-1.734c1.828-1.756,4.088-1.869,5.611-3.907
			c1.279-1.707,1.206-3.978,0.492-5.912c-0.51-1.387-1.402-3.783-3.092-3.925c-0.117,0.818,0.811,2.129,1.028,3.037
			c0.253,1.031,0.388,2.118,0.431,3.184c0.073,1.938-1.444,2.898-3.067,3.479c-1.75,0.63-2.526,2.531-4.213,3.295
			c-1.823,0.824-3.683,0.173-5.187-1.039c-1.482-1.191-3.05-2.022-4.813-2.817c-2.544-1.147-1.952-3.581-0.862-5.624
			C413.267,222.689,414.491,218.817,412.865,220.538z"/>
	</g>
	<g id="Trousers">
		<path id="Crotch" fill="#2F4550" d="M374.807,528.989c-0.552,0,91.745,0,91.745,0v30.228c0,0-24.069,21.478-45.442,21.478
			c-26.574,0-46.303-21.478-46.303-21.478v-9.544V528.989L374.807,528.989z"/>
		<g id="Left_Leg">
			<g id="Upper_Leg">
				<circle fill="#2F4550" cx="397.515" cy="568.752" r="18.294"/>
				<path fill="#2F4550" d="M413.71,717.632c-0.316,9.072-7.929,16.171-17.004,15.854c-9.073-0.313-16.172-7.925-15.855-17.003
					c0.231-6.615-1.624-148.376-1.624-148.376c2.091-14.991,15.827,0.559,18.283,0.638c2.35,0.083,16.269-13.373,18.285,0.639
					C415.798,569.392,413.946,710.905,413.71,717.632z"/>
			</g>
			<g id="Lower_Leg">
				<path id="left-shin" fill="#2F4550" d="M381.306,715.809c0.317-9.071,7.925-16.172,17.005-15.855
					c9.071,0.313,16.17,7.925,15.854,17.003c-0.231,6.615,2.709,165.226,2.709,165.226c-2.089,14.993-8.386,2.663-19.358,3.181
					c-11.028,0.515-11.14,7.649-13.159-6.364C384.353,878.996,381.073,722.537,381.306,715.809z"/>
				<path id="left-shoe" d="M367.91,916.505c-5.462-13.733,0.622-19.063,3.73-26.076c2.64-5.945,1.703-3.291,8.278-8.737
					c12.826-5.568,16.336-4.279,32.2,0.597c5.053,3.183,4.795,5.057,6.729,13.294c0.664,2.817,4.192,8.836,0,20.918L367.91,916.505
					L367.91,916.505z"/>
			</g>
		</g>
		<g id="Right_Leg">
			<g id="Upper_Leg_1_">
				<circle fill="#2F4550" cx="443.484" cy="568.752" r="18.296"/>
				<path fill="#2F4550" d="M427.286,717.632c0.316,9.072,7.929,16.171,17.004,15.854c9.071-0.313,16.17-7.925,15.854-17.003
					c-0.23-6.615,1.624-148.376,1.624-148.376c-2.09-14.991-15.826,0.559-18.283,0.638c-2.35,0.083-16.269-13.373-18.284,0.639
					C425.198,569.392,427.051,710.905,427.286,717.632z"/>
			</g>
			<g id="Lower_Leg_1_">
				<path id="Lower_Right_Leg" fill="#2F4550" d="M459.691,715.809c-0.317-9.071-7.925-16.172-17.004-15.855
					c-9.07,0.313-16.171,7.925-15.854,17.003c0.232,6.615-0.056,164.431-0.056,164.431c2.089,14.992,5.734,3.458,16.705,3.976
					c11.03,0.515,12.828,8.444,14.849-5.568C458.331,879.792,459.926,722.537,459.691,715.809z"/>
				<path id="right-shoe" d="M425.159,916.505c-3.51-12.087-0.662-18.105,0-20.918c1.942-8.241,1.685-10.112,6.732-13.294
					c15.866-4.876,19.376-6.165,32.2-0.597c6.576,5.446,5.637,2.792,8.278,8.737c3.104,7.009,9.185,12.343,3.729,26.076
					L425.159,916.505L425.159,916.505z"/>
			</g>
		</g>
	</g>
	<g id="Shirt">
		<path id="shirt" fill="#A02B33" d="M405.681,303.074c0,0,2.6,12.592,14.804,12.596c12.793,0.003,15.167-12.596,15.167-12.596
			s25.289,12.728,33.51,33.41v200.719c0,0-15.125,6.369-47.786,6.369c-27.742,0-47.229-6.369-47.229-6.369
			s-6.555-197.377-5.255-199.668C382.373,313.814,405.681,303.074,405.681,303.074z"/>
	</g>
	<g id="Coat">
		<path fill="#FFFFFF" d="M402.085,301.12c0.7-0.3,8.656,81.767,8.656,81.767l-4.911,322.212
			c-24.992,1.448-37.169-10.308-37.169-10.308s1.479-189.281,0.063-233.021c-0.988-30.46-6.645-121.839-6.645-121.839
			S360.489,318.984,402.085,301.12z"/>
		<path fill="#FFFFFF" d="M439.002,301.12c-0.697-0.3-8.652,81.767-8.652,81.767l4.654,322.336
			c24.717,1.438,37.304-10.438,37.304-10.438s-1.358-189.28,0.056-233.021c0.986-30.46,6.648-121.839,6.648-121.839
			S480.597,318.984,439.002,301.12z"/>
	</g>
	<g id="Right_Arm">
		<g id="Lower_Arm">
			<path id="Right_Lower_Sleeve" fill="#FFFFFF" d="M477.146,581.882c0.015-3.578,1.415-116.594,1.415-116.594
				c3.017-5.796,16.579-0.868,19.268-1.011c0,0,1.985,110.142,2.002,116.416c0.006,3.645-8.377,4.276-11.437,4.479
				C485.473,585.371,477.13,585.88,477.146,581.882z"/>
			<circle id="Right_Lower_Elbow" fill="#FFFFFF" cx="488.394" cy="464.784" r="9.647"/>
		</g>
		<g id="Right_Upper_Arm">
			<path id="Right_Upper_Sleeve" fill="#FFFFFF" d="M479.079,336.467c0.744,3.5,18.574,126.314,18.574,126.314
				c-2.076,6.196-16.239,3.45-18.874,4.01c0,0-20.613-119.468-21.913-125.603c-1.303-6.132,2.612-12.164,8.742-13.471
				C471.745,326.413,477.777,330.33,479.079,336.467z"/>
			<circle id="Right_Upper_Elbow" fill="#FFFFFF" cx="488.016" cy="464.787" r="9.647"/>
		</g>
	</g>
	<g id="Left_Arm">
		<path fill="#FFFFFF" d="M386.093,337.638c-1.12,3.399-40.796,120.979-40.796,120.979c-4.668,4.579-16.035-4.297-18.643-4.999
			c0,0,35.563-115.895,37.492-121.865c1.119-3.469,9.281-1.476,12.26-0.728C379.252,331.744,387.342,333.842,386.093,337.638z"/>
		<circle fill="#FFFFFF" cx="335.787" cy="456.058" r="9.647"/>
		<path fill="#FFFFFF" d="M301.243,345.793c1.115,3.399,43.407,106.666,43.407,106.666c-0.514,6.515-14.92,7.278-17.34,8.452
			c0,0-45.012-99.067-46.483-105.166c-0.842-3.488,1.637-8.295,7.273-11.046C293.74,341.957,300.033,342.099,301.243,345.793z"/>
		<circle fill="#FFFFFF" cx="335.787" cy="456.735" r="9.649"/>
		<path id="left-wrist" fill="#F4D9C3" d="M288.362,323.946c1.429,4.372,3.437,8.623,5.165,12.889
			c1.029,2.547,5.059,9.043,4.231,11.541c-0.872,2.647-6.443,4.186-8.766,4.682c-5.156,1.114-5.61-0.764-7.554-5.179
			c-2.394-5.442-5.77-11.238-7.171-17.061c-0.581-2.412,1.13-5.729,5.021-7.624C283.184,321.3,287.526,321.398,288.362,323.946z"/>
		<g id="left-palm-open">
			<path fill="#F4D9C3" d="M268.929,287.029c0.025,0.474,0.056,0.896,0.061,1.18c0.034,1.694,0.896,3.373,1.151,4.983
				c0.667,4.322,2.307,8.513,3.646,12.652c0.417,1.294,0.83,2.577,1.284,3.856c0.23,0.647,1.518,3.214,0.038,3.219
				c-1.093,0.007-2.594-5.285-2.966-6.13c-0.797-1.791-1.3-3.7-2.278-5.412c-0.517-0.907-0.848-1.858-1.15-2.854
				c-0.574-1.945-1.659-3.72-2.143-5.698c-0.316-1.3-0.563-3.578-2.448-3.229c-3.009,0.559-2.296,4.314-1.601,6.397
				c0.62,1.864,1.063,3.745,1.642,5.616c0.516,1.672,1.133,3.312,1.712,4.963c0.683,1.944,0.972,4.003,1.742,5.92
				c0.794,1.989,1.761,2.557,1.214,4.708c-2.008-0.629-3.083-4.812-3.756-6.578c-0.54-1.421-0.88-2.913-1.472-4.313
				c-0.758-1.79-1.193-3.773-2.022-5.449c-0.688-1.374-2.708-1.591-3.285-0.019c-0.678,1.828,0.961,3.654,1.32,5.389
				c0.204,0.979,0.432,1.948,0.738,2.879c0.361,1.057,0.452,2.122,0.898,3.143c0.518,1.168,1.147,2.314,1.48,3.553
				c0.898,3.358,2.011,6.704,2.793,10.108c0.527,2.288,1.434,4.458,2.447,6.569c1.752,3.64,3.49,7.188,6.569,9.91
				c0.661,0.587,1.338,0.696,2.145,0.959c0.626,0.2,1.189,0.521,1.832,0.744c1.515,0.528,3.198,0.46,4.778,0.518
				c1.166,0.038,2.153-0.673,3.266-0.893c1.358-0.265,2.255-0.733,3.538-1.328c2.151-0.995,4.827-1.149,6.221-3.307
				c0.942-1.459,1.335-2.42,1.766-4.028c0.543-1.99,1.79-3.849,2.089-5.891c0.523-3.623-0.146-6.88,1.398-10.355
				c0.685-1.545,1.142-3.125,1.235-4.807c0.13-2.321,0.469-4.541,0.951-6.815c0.281-1.325,1.171-3.608,0.641-4.94
				c-0.65-1.645-2.817-0.817-3.943-0.006c-1.742,1.239-1.912,3.687-2.453,5.616c-0.816,2.905-1.782,5.86-3.107,8.578
				c-1.648,3.378-2.287-0.329-3.12-2.134c-0.458-0.994-1.07-1.92-1.657-2.84c-1.341-2.1-2.529-4.489-3.285-6.873
				c-0.763-2.388-1.079-5.019-2.101-7.254c-1.515-3.295-1.331-7.237-2.673-10.653c-0.464-1.184-1.495-3.707-3.154-3.416
				c-2.339,0.414-1.222,4.146-0.973,5.545c0.257,1.441,0.85,2.986,1.036,4.497c0.247,2.01,0.971,3.745,1.419,5.694
				c0.511,2.218,0.652,4.524,1.494,6.66c0.733,1.861,0.946,3.377,0.759,5.354c-1.553-0.976-2.073-3.68-2.765-5.232
				c-0.888-1.973-1.835-3.917-2.595-5.942c-0.697-1.854-1.014-3.812-1.622-5.698c-0.563-1.754-0.871-3.411-1.328-5.178
				c-0.486-1.89-2.099-7.625-4.97-4.876C268.861,284.559,268.871,285.927,268.929,287.029z"/>
		</g>
	</g>
</g>
<g id="comedy-club-foreground">
	<circle id="spotlight" opacity="0.3" fill="#F5CC56" enable-background="new    " cx="422.006" cy="365.917" r="278.002"/>
	<g id="microphone-stand">
		<circle fill="#A7A9AC" cx="327.235" cy="280.58" r="14.84"/>
		<path fill="#414042" d="M346.014,908.982c0-9.528-30.2-17.256-67.458-17.256c-37.261,0-67.466,7.723-67.466,17.256v8.128h134.929
			L346.014,908.982L346.014,908.982z"/>
		<rect id="Cord" x="274.567" y="335.159" fill="#414042" width="7.965" height="565.48"/>
		<path fill="#414042" d="M286.244,342.931c0,0.686-0.562,1.236-1.241,1.236h-12.908c-0.686,0-1.236-0.558-1.236-1.236v-24.727
			c0-0.69,0.555-1.241,1.236-1.241h12.908c0.687,0,1.241,0.557,1.241,1.241V342.931z"/>
		<path fill="#414042" d="M286.244,540.207c0,0.686-0.562,1.236-1.241,1.236h-12.908c-0.686,0-1.236-0.557-1.236-1.236v-24.727
			c0-0.69,0.555-1.24,1.236-1.24h12.908c0.687,0,1.241,0.557,1.241,1.24V540.207z"/>
		<polygon fill="#414042" points="299.723,311.71 255.246,336.901 246.1,322.668 287.49,292.676 		"/>
		<path fill="#414042" d="M255.678,326.57c3.379,5.258,2.332,8.556-0.432,10.331c-2.762,1.771-6.198,1.355-9.575-3.9
			c-3.38-5.262-2.339-8.555,0.429-10.33C248.864,320.893,252.298,321.313,255.678,326.57z"/>
		
			<ellipse transform="matrix(0.8412 -0.5407 0.5407 0.8412 -116.7842 206.7146)" fill="#414042" cx="293.527" cy="302.175" rx="5.945" ry="11.312"/>
		<polygon fill="#414042" points="234.712,336.085 313.25,276.429 325.201,295.028 238.313,341.688 		"/>
		<path fill="none" stroke="#414042" stroke-miterlimit="10" d="M236.381,338.681c-20.932,34.126,33.884,69.125,27.326,113.873
			c-10.381,70.832,26.264,115.743,29.898,169.504c1.89,27.935-53.265,90.784-22.752,151.67
			c27.714,140.059,95.073,142.777-203.894,142.777"/>
	</g>
	<g id="stool">
		<rect x="544.002" y="691.619" fill="#552E11" width="178.797" height="17.905"/>
		<rect x="625.971" y="704.689" fill="#552E11" width="14.849" height="212.423"/>
		<polygon fill="#552E11" points="577.182,917.11 562.333,917.11 594.152,708.545 609,708.545 		"/>
		<polygon fill="#552E11" points="704.461,917.11 689.609,917.11 657.789,708.545 672.643,708.545 		"/>
	</g>
	<g id="glass-water">
		<path id="glass" opacity="0.5" fill="#FFFFFF" enable-background="new    " d="M636.223,618.943h-38.639
			c-2.091,0-3.8,1.704-3.792,3.967l5.76,64.917c0,2.089,1.704,3.797,3.797,3.797h27.106c2.093,0,3.798-1.703,3.792-3.629
			l5.773-65.251C640.016,620.647,638.315,618.943,636.223,618.943z"/>
		<path id="water" fill="#52CAF5" d="M635.214,655.281l-2.884,32.545c0,1.029-0.837,1.875-1.876,1.875h-27.106
			c-1.029,0-1.876-0.841-1.876-1.875l-2.884-32.545"/>
	</g>
</g>
</svg>
