<?xml version="1.0" encoding="utf-8"?>
<!-- Generator: Adobe Illustrator 16.0.0, SVG Export Plug-In . SVG Version: 6.00 Build 0)  -->
<!DOCTYPE svg PUBLIC "-//W3C//DTD SVG 1.1//EN" "http://www.w3.org/Graphics/SVG/1.1/DTD/svg11.dtd">
<svg version="1.1" id="jack-caricature-and-scenery"
	 xmlns="http://www.w3.org/2000/svg" xmlns:xlink="http://www.w3.org/1999/xlink" x="0px" y="0px"
	 viewBox="0 0 841.889 1190.549" enable-background="new 0 0 841.889 1190.549" xml:space="preserve">
<g id="contact-background">
	<g id="phone-booth">
		<rect x="75.707" y="241.687" fill="#72181D" width="365.896" height="774.341"/>
		<path fill="#BC353E" d="M469.533,122.441C443.198,70.398,360.282,32.4,262.082,32.4S80.969,70.399,54.633,122.436v12.187h414.9
			V122.441L469.533,122.441z"/>
		<rect x="59.987" y="125.888" fill="#BC353E" width="404.188" height="105.456"/>
		<path fill="#FFFFFF" d="M404.471,206.059c0,0.153-1.391,0.277-3.104,0.277H122.677c-1.713,0-3.101-0.123-3.101-0.277v-54.888
			c0-0.152,1.391-0.275,3.101-0.275h278.692c1.713,0,3.104,0.123,3.104,0.275L404.471,206.059L404.471,206.059z"/>
		<path fill="#BC353E" d="M464.84,224.679H59.083c-2.492,0-4.519,2.022-4.519,4.52v893.983c0,2.494,2.022,4.521,4.519,4.521H464.84
			c2.486,0,4.521-2.021,4.521-4.521V229.194C469.355,226.701,467.326,224.679,464.84,224.679z M318.518,287.805h78.374v120.917
			h-78.374V287.805L318.518,287.805z M318.518,428.337h78.374v120.907h-78.374V428.337L318.518,428.337z M222.821,287.805h78.376
			v120.917h-78.376V287.805L222.821,287.805z M222.821,428.337h78.376v120.907h-78.376V428.337L222.821,428.337z M127.121,287.805
			h78.374v120.917h-78.374V287.805z M127.121,428.337h78.374v120.907h-78.374V428.337z M127.092,709.397h78.372v120.908h-78.372
			V709.397L127.092,709.397z M205.525,970.84h-78.372V849.924h78.372V970.84z M205.555,689.78H127.18V568.864h78.375V689.78
			L205.555,689.78z M222.792,709.397h78.374v120.908h-78.374V709.397z M301.224,970.84H222.85V849.924h78.374V970.84z
			 M301.253,689.78H222.88V568.864h78.373V689.78z M318.489,709.397h78.374v120.908h-78.374V709.397z M396.924,970.84h-78.377
			V849.924h78.377V970.84z M396.948,689.78h-78.374V568.864h78.374V689.78z"/>
		<rect x="49.464" y="1119.683" width="425.118" height="44.896"/>
	</g>
	<g id="post-box">
		<rect x="588.684" y="514.7" fill="#BC353E" width="181.712" height="514.938"/>
		<path d="M584.58,1164.113v-132.177c0-2.822,1.437-5.108,3.202-5.108h183.515c1.77,0,3.195,2.287,3.195,5.108v132.178"/>
		<path fill="#BC353E" d="M791.74,501.722c-14.248-19.336-59.087-33.453-112.198-33.453c-53.114,0-97.953,14.116-112.202,33.452
			v16.257l112.202,39.995l112.198-39.995V501.722L791.74,501.722z"/>
		<rect x="619.612" y="576.879" width="119.861" height="22.791"/>
		<rect x="643.444" y="628.295" fill="#FFFFFF" width="72.199" height="102.887"/>
		<path fill="#BC353E" d="M774.303,544.562c0,2.217-1.8,4.01-4.014,4.01H587.906c-2.215,0-4.007-1.797-4.007-4.01v-0.051
			c0-2.216,1.798-4.016,4.007-4.016h182.378c2.222,0,4.019,1.806,4.019,4.016V544.562L774.303,544.562z"/>
	</g>
</g>
<g id="comedy-club-background">
	<g id="brick-wall">
		<path fill="#AD3D24" d="M200.272,367.281c0,4.147-3.356,7.507-7.503,7.507H87.793c-4.148,0-7.504-3.354-7.504-7.507V335.6
			c0-4.141,3.354-7.502,7.504-7.502h104.976c4.146,0,7.503,3.36,7.503,7.502V367.281z"/>
		<path fill="#84271A" d="M323.781,367.281c0,4.147-3.355,7.507-7.503,7.507H211.304c-4.146,0-7.502-3.354-7.502-7.507V335.6
			c0-4.141,3.354-7.502,7.502-7.502h104.977c4.146,0,7.503,3.36,7.503,7.502L323.781,367.281L323.781,367.281z"/>
		<path fill="#AD3D24" d="M447.291,367.281c0,4.147-3.357,7.507-7.505,7.507H334.814c-4.146,0-7.502-3.354-7.502-7.507V335.6
			c0-4.141,3.353-7.502,7.502-7.502h104.976c4.145,0,7.506,3.36,7.506,7.502L447.291,367.281L447.291,367.281z"/>
		<path fill="#AD3D24" d="M570.804,367.281c0,4.147-3.36,7.507-7.508,7.507H458.323c-4.146,0-7.502-3.354-7.502-7.507V335.6
			c0-4.141,3.354-7.502,7.502-7.502h104.977c4.146,0,7.508,3.36,7.508,7.502L570.804,367.281L570.804,367.281z"/>
		<path fill="#AD3D24" d="M694.314,367.281c0,4.147-3.358,7.507-7.509,7.507H581.832c-4.146,0-7.511-3.354-7.511-7.507V335.6
			c0-4.141,3.359-7.502,7.511-7.502h104.973c4.146,0,7.509,3.36,7.509,7.502V367.281L694.314,367.281z"/>
		<path fill="#AD3D24" d="M817.823,367.281c0,4.147-3.354,7.507-7.508,7.507H705.344c-4.148,0-7.504-3.354-7.504-7.507V335.6
			c0-4.141,3.354-7.502,7.504-7.502h104.972c4.146,0,7.508,3.36,7.508,7.502L817.823,367.281L817.823,367.281z"/>
		<path fill="#AD3D24" d="M140.281,416.687c0,4.148-3.359,7.503-7.506,7.503H27.803c-4.149,0-7.503-3.354-7.503-7.503v-31.678
			c0-4.142,3.353-7.502,7.503-7.502H132.78c4.146,0,7.506,3.355,7.506,7.502L140.281,416.687L140.281,416.687z"/>
		<path fill="#AD3D24" d="M263.793,416.687c0,4.148-3.36,7.503-7.502,7.503H151.314c-4.146,0-7.502-3.354-7.502-7.503v-31.678
			c0-4.142,3.354-7.502,7.502-7.502h104.979c4.141,0,7.502,3.355,7.502,7.502L263.793,416.687L263.793,416.687z"/>
		<path fill="#AD3D24" d="M387.301,416.687c0,4.148-3.358,7.503-7.502,7.503H274.823c-4.147,0-7.506-3.354-7.506-7.503v-31.678
			c0-4.142,3.354-7.502,7.506-7.502H379.8c4.143,0,7.502,3.355,7.502,7.502L387.301,416.687L387.301,416.687z"/>
		<path fill="#AD3D24" d="M510.812,416.687c0,4.148-3.359,7.503-7.502,7.503H398.332c-4.148,0-7.508-3.354-7.508-7.503v-31.678
			c0-4.142,3.354-7.502,7.508-7.502H503.31c4.141,0,7.502,3.355,7.502,7.502V416.687z"/>
		<path fill="#AD3D24" d="M634.323,416.687c0,4.148-3.356,7.503-7.51,7.503H521.842c-4.146,0-7.508-3.354-7.508-7.503v-31.678
			c0-4.142,3.356-7.502,7.508-7.502h104.972c4.148,0,7.51,3.355,7.51,7.502L634.323,416.687L634.323,416.687z"/>
		<path fill="#AD3D24" d="M757.832,416.687c0,4.148-3.357,7.503-7.512,7.503h-104.97c-4.146,0-7.508-3.354-7.508-7.503v-31.678
			c0-4.142,3.354-7.502,7.508-7.502h104.971c4.149,0,7.509,3.355,7.509,7.502L757.832,416.687L757.832,416.687z"/>
		<path fill="#AD3D24" d="M200.272,268.475c0,4.147-3.356,7.503-7.503,7.503H87.793c-4.148,0-7.504-3.354-7.504-7.503v-31.679
			c0-4.146,3.356-7.503,7.504-7.503h104.976c4.146,0,7.503,3.355,7.503,7.503V268.475z"/>
		<path fill="#AD3D24" d="M323.781,268.475c0,4.147-3.355,7.503-7.503,7.503H211.304c-4.146,0-7.502-3.354-7.502-7.503v-31.679
			c0-4.146,3.354-7.503,7.502-7.503h104.977c4.146,0,7.503,3.355,7.503,7.503L323.781,268.475L323.781,268.475z"/>
		<path fill="#AD3D24" d="M447.291,268.475c0,4.147-3.357,7.503-7.505,7.503H334.814c-4.146,0-7.502-3.354-7.502-7.503v-31.679
			c0-4.146,3.353-7.503,7.502-7.503h104.976c4.145,0,7.506,3.355,7.506,7.503L447.291,268.475L447.291,268.475z"/>
		<path fill="#AD3D24" d="M570.804,268.475c0,4.147-3.36,7.503-7.508,7.503H458.323c-4.146,0-7.502-3.354-7.502-7.503v-31.679
			c0-4.146,3.354-7.503,7.502-7.503h104.977c4.146,0,7.508,3.355,7.508,7.503L570.804,268.475L570.804,268.475z"/>
		<path fill="#AD3D24" d="M694.314,268.475c0,4.147-3.358,7.503-7.509,7.503H581.832c-4.146,0-7.511-3.354-7.511-7.503v-31.679
			c0-4.146,3.359-7.503,7.511-7.503h104.973c4.146,0,7.509,3.355,7.509,7.503V268.475L694.314,268.475z"/>
		<path fill="#AD3D24" d="M817.823,268.475c0,4.147-3.354,7.503-7.508,7.503H705.344c-4.148,0-7.504-3.354-7.504-7.503v-31.679
			c0-4.146,3.354-7.503,7.504-7.503h104.972c4.146,0,7.508,3.355,7.508,7.503L817.823,268.475L817.823,268.475z"/>
		<path fill="#AD3D24" d="M140.281,317.878c0,4.146-3.359,7.503-7.506,7.503H27.803c-4.149,0-7.503-3.354-7.503-7.503V286.2
			c0-4.146,3.358-7.506,7.503-7.506H132.78c4.146,0,7.506,3.359,7.506,7.506L140.281,317.878L140.281,317.878z"/>
		<path fill="#AD3D24" d="M263.793,317.878c0,4.146-3.36,7.503-7.502,7.503H151.314c-4.146,0-7.502-3.354-7.502-7.503V286.2
			c0-4.146,3.359-7.506,7.502-7.506h104.979c4.141,0,7.502,3.359,7.502,7.506L263.793,317.878L263.793,317.878z"/>
		<path fill="#AD3D24" d="M387.301,317.878c0,4.146-3.358,7.503-7.502,7.503H274.823c-4.147,0-7.506-3.354-7.506-7.503V286.2
			c0-4.146,3.354-7.506,7.506-7.506H379.8c4.143,0,7.502,3.359,7.502,7.506L387.301,317.878L387.301,317.878z"/>
		<path fill="#AD3D24" d="M510.812,317.878c0,4.146-3.359,7.503-7.502,7.503H398.332c-4.148,0-7.508-3.354-7.508-7.503V286.2
			c0-4.146,3.354-7.506,7.508-7.506H503.31c4.141,0,7.502,3.359,7.502,7.506V317.878z"/>
		<path fill="#84271A" d="M634.323,317.878c0,4.146-3.356,7.503-7.51,7.503H521.842c-4.146,0-7.508-3.354-7.508-7.503V286.2
			c0-4.146,3.356-7.506,7.508-7.506h104.972c4.148,0,7.51,3.359,7.51,7.506L634.323,317.878L634.323,317.878z"/>
		<path fill="#AD3D24" d="M757.832,317.878c0,4.146-3.357,7.503-7.512,7.503h-104.97c-4.146,0-7.508-3.354-7.508-7.503V286.2
			c0-4.146,3.354-7.506,7.508-7.506h104.971c4.149,0,7.509,3.359,7.509,7.506L757.832,317.878L757.832,317.878z"/>
		<path fill="#AD3D24" d="M200.272,466.093c0,4.146-3.356,7.502-7.503,7.502H87.793c-4.148,0-7.504-3.354-7.504-7.502v-31.684
			c0-4.142,3.354-7.503,7.504-7.503h104.976c4.146,0,7.503,3.36,7.503,7.503V466.093z"/>
		<path fill="#AD3D24" d="M323.781,466.093c0,4.146-3.355,7.502-7.503,7.502H211.304c-4.146,0-7.502-3.354-7.502-7.502v-31.684
			c0-4.142,3.354-7.503,7.502-7.503h104.977c4.146,0,7.503,3.36,7.503,7.503L323.781,466.093L323.781,466.093z"/>
		<path fill="#AD3D24" d="M447.291,466.093c0,4.146-3.357,7.502-7.505,7.502H334.814c-4.146,0-7.502-3.354-7.502-7.502v-31.684
			c0-4.142,3.353-7.503,7.502-7.503h104.976c4.145,0,7.506,3.36,7.506,7.503L447.291,466.093L447.291,466.093z"/>
		<path fill="#AD3D24" d="M570.804,466.093c0,4.146-3.36,7.502-7.508,7.502H458.323c-4.146,0-7.502-3.354-7.502-7.502v-31.684
			c0-4.142,3.354-7.503,7.502-7.503h104.977c4.146,0,7.508,3.36,7.508,7.503L570.804,466.093L570.804,466.093z"/>
		<path fill="#AD3D24" d="M694.314,466.093c0,4.146-3.358,7.502-7.509,7.502H581.832c-4.146,0-7.511-3.354-7.511-7.502v-31.684
			c0-4.142,3.359-7.503,7.511-7.503h104.973c4.146,0,7.509,3.36,7.509,7.503V466.093L694.314,466.093z"/>
		<path fill="#84271A" d="M817.823,466.093c0,4.146-3.354,7.502-7.508,7.502H705.344c-4.148,0-7.504-3.354-7.504-7.502v-31.684
			c0-4.142,3.354-7.503,7.504-7.503h104.972c4.146,0,7.508,3.36,7.508,7.503L817.823,466.093L817.823,466.093z"/>
		<path fill="#AD3D24" d="M140.281,515.491c0,4.147-3.359,7.502-7.506,7.502H27.803c-4.149,0-7.503-3.354-7.503-7.502v-31.679
			c0-4.142,3.353-7.502,7.503-7.502H132.78c4.146,0,7.506,3.359,7.506,7.502L140.281,515.491L140.281,515.491z"/>
		<path fill="#AD3D24" d="M263.793,515.491c0,4.147-3.36,7.502-7.502,7.502H151.314c-4.146,0-7.502-3.354-7.502-7.502v-31.679
			c0-4.142,3.354-7.502,7.502-7.502h104.979c4.141,0,7.502,3.359,7.502,7.502L263.793,515.491L263.793,515.491z"/>
		<path fill="#AD3D24" d="M387.301,515.491c0,4.147-3.358,7.502-7.502,7.502H274.823c-4.147,0-7.506-3.354-7.506-7.502v-31.679
			c0-4.142,3.354-7.502,7.506-7.502H379.8c4.143,0,7.502,3.359,7.502,7.502L387.301,515.491L387.301,515.491z"/>
		<path fill="#AD3D24" d="M510.812,515.491c0,4.147-3.359,7.502-7.502,7.502H398.332c-4.148,0-7.508-3.354-7.508-7.502v-31.679
			c0-4.142,3.354-7.502,7.508-7.502H503.31c4.141,0,7.502,3.359,7.502,7.502V515.491z"/>
		<path fill="#AD3D24" d="M634.323,515.491c0,4.147-3.356,7.502-7.51,7.502H521.842c-4.146,0-7.508-3.354-7.508-7.502v-31.679
			c0-4.142,3.356-7.502,7.508-7.502h104.972c4.148,0,7.51,3.359,7.51,7.502L634.323,515.491L634.323,515.491z"/>
		<path fill="#AD3D24" d="M757.832,515.491c0,4.147-3.357,7.502-7.512,7.502h-104.97c-4.146,0-7.508-3.354-7.508-7.502v-31.679
			c0-4.142,3.354-7.502,7.508-7.502h104.971c4.149,0,7.509,3.359,7.509,7.502L757.832,515.491L757.832,515.491z"/>
		<path fill="#AD3D24" d="M200.272,564.898c0,4.149-3.356,7.502-7.503,7.502H87.793c-4.148,0-7.504-3.352-7.504-7.502v-31.679
			c0-4.146,3.354-7.502,7.504-7.502h104.976c4.146,0,7.503,3.355,7.503,7.502V564.898z"/>
		<path fill="#AD3D24" d="M323.781,564.898c0,4.149-3.355,7.502-7.503,7.502H211.304c-4.146,0-7.502-3.352-7.502-7.502v-31.679
			c0-4.146,3.354-7.502,7.502-7.502h104.977c4.146,0,7.503,3.355,7.503,7.502L323.781,564.898L323.781,564.898z"/>
		<path fill="#84271A" d="M447.291,564.898c0,4.149-3.357,7.502-7.505,7.502H334.814c-4.146,0-7.502-3.352-7.502-7.502v-31.679
			c0-4.146,3.353-7.502,7.502-7.502h104.976c4.145,0,7.506,3.355,7.506,7.502L447.291,564.898L447.291,564.898z"/>
		<path fill="#AD3D24" d="M570.804,564.898c0,4.149-3.36,7.502-7.508,7.502H458.323c-4.146,0-7.502-3.352-7.502-7.502v-31.679
			c0-4.146,3.354-7.502,7.502-7.502h104.977c4.146,0,7.508,3.355,7.508,7.502L570.804,564.898L570.804,564.898z"/>
		<path fill="#AD3D24" d="M694.314,564.898c0,4.149-3.358,7.502-7.509,7.502H581.832c-4.146,0-7.511-3.352-7.511-7.502v-31.679
			c0-4.146,3.359-7.502,7.511-7.502h104.973c4.146,0,7.509,3.355,7.509,7.502V564.898L694.314,564.898z"/>
		<path fill="#AD3D24" d="M817.823,564.898c0,4.149-3.354,7.502-7.508,7.502H705.344c-4.148,0-7.504-3.352-7.504-7.502v-31.679
			c0-4.146,3.354-7.502,7.504-7.502h104.972c4.146,0,7.508,3.355,7.508,7.502L817.823,564.898L817.823,564.898z"/>
		<path fill="#AD3D24" d="M140.281,614.303c0,4.146-3.359,7.501-7.506,7.501H27.803c-4.149,0-7.503-3.354-7.503-7.501V582.62
			c0-4.142,3.353-7.503,7.503-7.503H132.78c4.146,0,7.506,3.36,7.506,7.503L140.281,614.303L140.281,614.303z"/>
		<path fill="#AD3D24" d="M263.793,614.303c0,4.146-3.36,7.501-7.502,7.501H151.314c-4.146,0-7.502-3.354-7.502-7.501V582.62
			c0-4.142,3.354-7.503,7.502-7.503h104.979c4.141,0,7.502,3.36,7.502,7.503L263.793,614.303L263.793,614.303z"/>
		<path fill="#AD3D24" d="M387.301,614.303c0,4.146-3.358,7.501-7.502,7.501H274.823c-4.147,0-7.506-3.354-7.506-7.501V582.62
			c0-4.142,3.354-7.503,7.506-7.503H379.8c4.143,0,7.502,3.36,7.502,7.503L387.301,614.303L387.301,614.303z"/>
		<path fill="#AD3D24" d="M510.812,614.303c0,4.146-3.359,7.501-7.502,7.501H398.332c-4.148,0-7.508-3.354-7.508-7.501V582.62
			c0-4.142,3.354-7.503,7.508-7.503H503.31c4.141,0,7.502,3.36,7.502,7.503V614.303z"/>
		<path fill="#AD3D24" d="M634.323,614.303c0,4.146-3.356,7.501-7.51,7.501H521.842c-4.146,0-7.508-3.354-7.508-7.501V582.62
			c0-4.142,3.356-7.503,7.508-7.503h104.972c4.148,0,7.51,3.36,7.51,7.503L634.323,614.303L634.323,614.303z"/>
		<path fill="#84271A" d="M757.832,614.303c0,4.146-3.357,7.501-7.512,7.501h-104.97c-4.146,0-7.508-3.354-7.508-7.501V582.62
			c0-4.142,3.354-7.503,7.508-7.503h104.971c4.149,0,7.509,3.36,7.509,7.503L757.832,614.303L757.832,614.303z"/>
		<path fill="#84271A" d="M200.272,663.702c0,4.149-3.356,7.503-7.503,7.503H87.793c-4.148,0-7.504-3.353-7.504-7.503v-31.679
			c0-4.142,3.354-7.502,7.504-7.502h104.976c4.146,0,7.503,3.359,7.503,7.502V663.702z"/>
		<path fill="#AD3D24" d="M323.781,663.702c0,4.149-3.355,7.503-7.503,7.503H211.304c-4.146,0-7.502-3.353-7.502-7.503v-31.679
			c0-4.142,3.354-7.502,7.502-7.502h104.977c4.146,0,7.503,3.359,7.503,7.502L323.781,663.702L323.781,663.702z"/>
		<path fill="#AD3D24" d="M447.291,663.702c0,4.149-3.357,7.503-7.505,7.503H334.814c-4.146,0-7.502-3.353-7.502-7.503v-31.679
			c0-4.142,3.353-7.502,7.502-7.502h104.976c4.145,0,7.506,3.359,7.506,7.502L447.291,663.702L447.291,663.702z"/>
		<path fill="#AD3D24" d="M570.804,663.702c0,4.149-3.36,7.503-7.508,7.503H458.323c-4.146,0-7.502-3.353-7.502-7.503v-31.679
			c0-4.142,3.354-7.502,7.502-7.502h104.977c4.146,0,7.508,3.359,7.508,7.502L570.804,663.702L570.804,663.702z"/>
		<path fill="#AD3D24" d="M694.314,663.702c0,4.149-3.358,7.503-7.509,7.503H581.832c-4.146,0-7.511-3.353-7.511-7.503v-31.679
			c0-4.142,3.359-7.502,7.511-7.502h104.973c4.146,0,7.509,3.359,7.509,7.502V663.702L694.314,663.702z"/>
		<path fill="#AD3D24" d="M817.823,663.702c0,4.149-3.354,7.503-7.508,7.503H705.344c-4.148,0-7.504-3.353-7.504-7.503v-31.679
			c0-4.142,3.354-7.502,7.504-7.502h104.972c4.146,0,7.508,3.359,7.508,7.502L817.823,663.702L817.823,663.702z"/>
		<path fill="#AD3D24" d="M140.281,713.11c0,4.149-3.359,7.503-7.506,7.503H27.803c-4.149,0-7.503-3.353-7.503-7.503v-31.677
			c0-4.146,3.353-7.503,7.503-7.503H132.78c4.146,0,7.506,3.355,7.506,7.503L140.281,713.11L140.281,713.11z"/>
		<path fill="#AD3D24" d="M263.793,713.11c0,4.149-3.36,7.503-7.502,7.503H151.314c-4.146,0-7.502-3.353-7.502-7.503v-31.677
			c0-4.146,3.354-7.503,7.502-7.503h104.979c4.141,0,7.502,3.355,7.502,7.503L263.793,713.11L263.793,713.11z"/>
		<path fill="#AD3D24" d="M387.301,713.11c0,4.149-3.358,7.503-7.502,7.503H274.823c-4.147,0-7.506-3.353-7.506-7.503v-31.677
			c0-4.146,3.354-7.503,7.506-7.503H379.8c4.143,0,7.502,3.355,7.502,7.503L387.301,713.11L387.301,713.11z"/>
		<path fill="#AD3D24" d="M510.812,713.11c0,4.149-3.359,7.503-7.502,7.503H398.332c-4.148,0-7.508-3.353-7.508-7.503v-31.677
			c0-4.146,3.354-7.503,7.508-7.503H503.31c4.141,0,7.502,3.355,7.502,7.503V713.11z"/>
		<path fill="#AD3D24" d="M634.323,713.11c0,4.149-3.356,7.503-7.51,7.503H521.842c-4.146,0-7.508-3.353-7.508-7.503v-31.677
			c0-4.146,3.356-7.503,7.508-7.503h104.972c4.148,0,7.51,3.355,7.51,7.503L634.323,713.11L634.323,713.11z"/>
		<path fill="#AD3D24" d="M757.832,713.11c0,4.149-3.357,7.503-7.512,7.503h-104.97c-4.146,0-7.508-3.353-7.508-7.503v-31.677
			c0-4.146,3.354-7.503,7.508-7.503h104.971c4.149,0,7.509,3.355,7.509,7.503L757.832,713.11L757.832,713.11z"/>
		<path fill="#AD3D24" d="M200.272,762.515c0,4.146-3.356,7.502-7.503,7.502H87.793c-4.148,0-7.504-3.354-7.504-7.502v-31.679
			c0-4.146,3.354-7.502,7.504-7.502h104.976c4.146,0,7.503,3.355,7.503,7.502V762.515z"/>
		<path fill="#AD3D24" d="M323.781,762.515c0,4.146-3.355,7.502-7.503,7.502H211.304c-4.146,0-7.502-3.354-7.502-7.502v-31.679
			c0-4.146,3.354-7.502,7.502-7.502h104.977c4.146,0,7.503,3.355,7.503,7.502L323.781,762.515L323.781,762.515z"/>
		<path fill="#AD3D24" d="M447.291,762.515c0,4.146-3.357,7.502-7.505,7.502H334.814c-4.146,0-7.502-3.354-7.502-7.502v-31.679
			c0-4.146,3.353-7.502,7.502-7.502h104.976c4.145,0,7.506,3.355,7.506,7.502L447.291,762.515L447.291,762.515z"/>
		<path fill="#84271A" d="M570.804,762.515c0,4.146-3.36,7.502-7.508,7.502H458.323c-4.146,0-7.502-3.354-7.502-7.502v-31.679
			c0-4.146,3.354-7.502,7.502-7.502h104.977c4.146,0,7.508,3.355,7.508,7.502L570.804,762.515L570.804,762.515z"/>
		<path fill="#AD3D24" d="M694.314,762.515c0,4.146-3.358,7.502-7.509,7.502H581.832c-4.146,0-7.511-3.354-7.511-7.502v-31.679
			c0-4.146,3.359-7.502,7.511-7.502h104.973c4.146,0,7.509,3.355,7.509,7.502V762.515L694.314,762.515z"/>
		<path fill="#AD3D24" d="M817.823,762.515c0,4.146-3.354,7.502-7.508,7.502H705.344c-4.148,0-7.504-3.354-7.504-7.502v-31.679
			c0-4.146,3.354-7.502,7.504-7.502h104.972c4.146,0,7.508,3.355,7.508,7.502L817.823,762.515L817.823,762.515z"/>
		<path fill="#AD3D24" d="M140.281,811.918c0,4.146-3.359,7.503-7.506,7.503H27.803c-4.149,0-7.503-3.354-7.503-7.503V780.24
			c0-4.143,3.353-7.504,7.503-7.504H132.78c4.146,0,7.506,3.359,7.506,7.504L140.281,811.918L140.281,811.918z"/>
		<path fill="#AD3D24" d="M263.793,811.918c0,4.146-3.36,7.503-7.502,7.503H151.314c-4.146,0-7.502-3.354-7.502-7.503V780.24
			c0-4.143,3.354-7.504,7.502-7.504h104.979c4.141,0,7.502,3.359,7.502,7.504L263.793,811.918L263.793,811.918z"/>
		<path fill="#AD3D24" d="M387.301,811.918c0,4.146-3.358,7.503-7.502,7.503H274.823c-4.147,0-7.506-3.354-7.506-7.503V780.24
			c0-4.143,3.354-7.504,7.506-7.504H379.8c4.143,0,7.502,3.359,7.502,7.504L387.301,811.918L387.301,811.918z"/>
		<path fill="#AD3D24" d="M510.812,811.918c0,4.146-3.359,7.503-7.502,7.503H398.332c-4.148,0-7.508-3.354-7.508-7.503V780.24
			c0-4.143,3.354-7.504,7.508-7.504H503.31c4.141,0,7.502,3.359,7.502,7.504V811.918z"/>
		<path fill="#AD3D24" d="M634.323,811.918c0,4.146-3.356,7.503-7.51,7.503H521.842c-4.146,0-7.508-3.354-7.508-7.503V780.24
			c0-4.143,3.356-7.504,7.508-7.504h104.972c4.148,0,7.51,3.359,7.51,7.504L634.323,811.918L634.323,811.918z"/>
		<path fill="#AD3D24" d="M757.832,811.918c0,4.146-3.357,7.503-7.512,7.503h-104.97c-4.146,0-7.508-3.354-7.508-7.503V780.24
			c0-4.143,3.354-7.504,7.508-7.504h104.971c4.149,0,7.509,3.359,7.509,7.504L757.832,811.918L757.832,811.918z"/>
		<path fill="#AD3D24" d="M200.272,861.323c0,4.149-3.356,7.502-7.503,7.502H87.793c-4.148,0-7.504-3.352-7.504-7.502v-31.678
			c0-4.143,3.354-7.503,7.504-7.503h104.976c4.146,0,7.503,3.359,7.503,7.503V861.323z"/>
		<path fill="#AD3D24" d="M323.781,861.323c0,4.149-3.355,7.502-7.503,7.502H211.304c-4.146,0-7.502-3.352-7.502-7.502v-31.678
			c0-4.143,3.354-7.503,7.502-7.503h104.977c4.146,0,7.503,3.359,7.503,7.503L323.781,861.323L323.781,861.323z"/>
		<path fill="#AD3D24" d="M447.291,861.323c0,4.149-3.357,7.502-7.505,7.502H334.814c-4.146,0-7.502-3.352-7.502-7.502v-31.678
			c0-4.143,3.353-7.503,7.502-7.503h104.976c4.145,0,7.506,3.359,7.506,7.503L447.291,861.323L447.291,861.323z"/>
		<path fill="#AD3D24" d="M570.804,861.323c0,4.149-3.36,7.502-7.508,7.502H458.323c-4.146,0-7.502-3.352-7.502-7.502v-31.678
			c0-4.143,3.354-7.503,7.502-7.503h104.977c4.146,0,7.508,3.359,7.508,7.503L570.804,861.323L570.804,861.323z"/>
		<path fill="#84271A" d="M694.314,861.323c0,4.149-3.358,7.502-7.509,7.502H581.832c-4.146,0-7.511-3.352-7.511-7.502v-31.678
			c0-4.143,3.359-7.503,7.511-7.503h104.973c4.146,0,7.509,3.359,7.509,7.503V861.323L694.314,861.323z"/>
		<path fill="#AD3D24" d="M817.823,861.323c0,4.149-3.354,7.502-7.508,7.502H705.344c-4.148,0-7.504-3.352-7.504-7.502v-31.678
			c0-4.143,3.354-7.503,7.504-7.503h104.972c4.146,0,7.508,3.359,7.508,7.503L817.823,861.323L817.823,861.323z"/>
		<path fill="#AD3D24" d="M140.281,910.727c0,4.148-3.359,7.505-7.506,7.505H27.803c-4.149,0-7.503-3.354-7.503-7.505v-31.676
			c0-4.146,3.353-7.504,7.503-7.504H132.78c4.146,0,7.506,3.355,7.506,7.504L140.281,910.727L140.281,910.727z"/>
		<path fill="#84271A" d="M263.793,910.727c0,4.148-3.36,7.505-7.502,7.505H151.314c-4.146,0-7.502-3.354-7.502-7.505v-31.676
			c0-4.146,3.354-7.504,7.502-7.504h104.979c4.141,0,7.502,3.355,7.502,7.504L263.793,910.727L263.793,910.727z"/>
		<path fill="#AD3D24" d="M387.301,910.727c0,4.148-3.358,7.505-7.502,7.505H274.823c-4.147,0-7.506-3.354-7.506-7.505v-31.676
			c0-4.146,3.354-7.504,7.506-7.504H379.8c4.143,0,7.502,3.355,7.502,7.504L387.301,910.727L387.301,910.727z"/>
		<path fill="#AD3D24" d="M510.812,910.727c0,4.148-3.359,7.505-7.502,7.505H398.332c-4.148,0-7.508-3.354-7.508-7.505v-31.676
			c0-4.146,3.354-7.504,7.508-7.504H503.31c4.141,0,7.502,3.355,7.502,7.504V910.727z"/>
		<path fill="#AD3D24" d="M634.323,910.727c0,4.148-3.356,7.505-7.51,7.505H521.842c-4.146,0-7.508-3.354-7.508-7.505v-31.676
			c0-4.146,3.356-7.504,7.508-7.504h104.972c4.148,0,7.51,3.355,7.51,7.504L634.323,910.727L634.323,910.727z"/>
		<path fill="#AD3D24" d="M757.832,910.727c0,4.148-3.357,7.505-7.512,7.505h-104.97c-4.146,0-7.508-3.354-7.508-7.505v-31.676
			c0-4.146,3.354-7.504,7.508-7.504h104.971c4.149,0,7.509,3.355,7.509,7.504L757.832,910.727L757.832,910.727z"/>
		<path fill="#AD3D24" d="M200.272,960.131c0,4.146-3.356,7.504-7.503,7.504H87.793c-4.148,0-7.504-3.354-7.504-7.504v-31.672
			c0-4.148,3.354-7.51,7.504-7.51h104.976c4.146,0,7.503,3.356,7.503,7.51V960.131z"/>
		<path fill="#AD3D24" d="M323.781,960.131c0,4.146-3.355,7.504-7.503,7.504H211.304c-4.146,0-7.502-3.354-7.502-7.504v-31.672
			c0-4.148,3.354-7.51,7.502-7.51h104.977c4.146,0,7.503,3.356,7.503,7.51L323.781,960.131L323.781,960.131z"/>
		<path fill="#AD3D24" d="M447.291,960.131c0,4.146-3.357,7.504-7.505,7.504H334.814c-4.146,0-7.502-3.354-7.502-7.504v-31.672
			c0-4.148,3.353-7.51,7.502-7.51h104.976c4.145,0,7.506,3.356,7.506,7.51L447.291,960.131L447.291,960.131z"/>
		<path fill="#AD3D24" d="M570.804,960.131c0,4.146-3.36,7.504-7.508,7.504H458.323c-4.146,0-7.502-3.354-7.502-7.504v-31.672
			c0-4.148,3.354-7.51,7.502-7.51h104.977c4.146,0,7.508,3.356,7.508,7.51L570.804,960.131L570.804,960.131z"/>
		<path fill="#AD3D24" d="M694.314,960.131c0,4.146-3.358,7.504-7.509,7.504H581.832c-4.146,0-7.511-3.354-7.511-7.504v-31.672
			c0-4.148,3.359-7.51,7.511-7.51h104.973c4.146,0,7.509,3.356,7.509,7.51V960.131L694.314,960.131z"/>
		<path fill="#AD3D24" d="M817.823,960.131c0,4.146-3.354,7.504-7.508,7.504H705.344c-4.148,0-7.504-3.354-7.504-7.504v-31.672
			c0-4.148,3.354-7.51,7.504-7.51h104.972c4.146,0,7.508,3.356,7.508,7.51L817.823,960.131L817.823,960.131z"/>
		<path fill="#84271A" d="M140.281,1009.531c0,4.15-3.359,7.505-7.506,7.505H27.803c-4.149,0-7.503-3.354-7.503-7.505V977.86
			c0-4.146,3.353-7.507,7.503-7.507H132.78c4.146,0,7.506,3.356,7.506,7.507L140.281,1009.531L140.281,1009.531z"/>
		<path fill="#AD3D24" d="M263.793,1009.531c0,4.15-3.36,7.505-7.502,7.505H151.314c-4.146,0-7.502-3.354-7.502-7.505V977.86
			c0-4.146,3.354-7.507,7.502-7.507h104.979c4.141,0,7.502,3.356,7.502,7.507L263.793,1009.531L263.793,1009.531z"/>
		<path fill="#AD3D24" d="M387.301,1009.531c0,4.15-3.358,7.505-7.502,7.505H274.823c-4.147,0-7.506-3.354-7.506-7.505V977.86
			c0-4.146,3.354-7.507,7.506-7.507H379.8c4.143,0,7.502,3.356,7.502,7.507L387.301,1009.531L387.301,1009.531z"/>
		<path fill="#84271A" d="M510.812,1009.531c0,4.15-3.359,7.505-7.502,7.505H398.332c-4.148,0-7.508-3.354-7.508-7.505V977.86
			c0-4.146,3.354-7.507,7.508-7.507H503.31c4.141,0,7.502,3.356,7.502,7.507V1009.531z"/>
		<path fill="#AD3D24" d="M634.323,1009.531c0,4.15-3.356,7.505-7.51,7.505H521.842c-4.146,0-7.508-3.354-7.508-7.505V977.86
			c0-4.146,3.356-7.507,7.508-7.507h104.972c4.148,0,7.51,3.356,7.51,7.507L634.323,1009.531L634.323,1009.531z"/>
		<path fill="#AD3D24" d="M757.832,1009.531c0,4.15-3.357,7.505-7.512,7.505h-104.97c-4.146,0-7.508-3.354-7.508-7.505V977.86
			c0-4.146,3.354-7.507,7.508-7.507h104.971c4.149,0,7.509,3.356,7.509,7.507L757.832,1009.531L757.832,1009.531z"/>
		<path fill="#AD3D24" d="M200.272,1058.94c0,4.15-3.356,7.503-7.503,7.503H87.793c-4.148,0-7.504-3.352-7.504-7.503v-31.672
			c0-4.148,3.354-7.505,7.504-7.505h104.976c4.146,0,7.503,3.354,7.503,7.505V1058.94z"/>
		<path fill="#AD3D24" d="M323.781,1058.94c0,4.15-3.355,7.503-7.503,7.503H211.304c-4.146,0-7.502-3.352-7.502-7.503v-31.672
			c0-4.148,3.354-7.505,7.502-7.505h104.977c4.146,0,7.503,3.354,7.503,7.505L323.781,1058.94L323.781,1058.94z"/>
		<path fill="#AD3D24" d="M447.291,1058.94c0,4.15-3.357,7.503-7.505,7.503H334.814c-4.146,0-7.502-3.352-7.502-7.503v-31.672
			c0-4.148,3.353-7.505,7.502-7.505h104.976c4.145,0,7.506,3.354,7.506,7.505L447.291,1058.94L447.291,1058.94z"/>
		<path fill="#AD3D24" d="M570.804,1058.94c0,4.15-3.36,7.503-7.508,7.503H458.323c-4.146,0-7.502-3.352-7.502-7.503v-31.672
			c0-4.148,3.354-7.505,7.502-7.505h104.977c4.146,0,7.508,3.354,7.508,7.505L570.804,1058.94L570.804,1058.94z"/>
		<path fill="#AD3D24" d="M694.314,1058.94c0,4.15-3.358,7.503-7.509,7.503H581.832c-4.146,0-7.511-3.352-7.511-7.503v-31.672
			c0-4.148,3.359-7.505,7.511-7.505h104.973c4.146,0,7.509,3.354,7.509,7.505V1058.94L694.314,1058.94z"/>
		<path fill="#84271A" d="M817.823,1058.94c0,4.15-3.354,7.503-7.508,7.503H705.344c-4.148,0-7.504-3.352-7.504-7.503v-31.672
			c0-4.148,3.354-7.505,7.504-7.505h104.972c4.146,0,7.508,3.354,7.508,7.505L817.823,1058.94L817.823,1058.94z"/>
		<path fill="#84271A" d="M140.281,119.531c0,4.15-3.359,7.507-7.506,7.507H27.803c-4.149,0-7.503-3.354-7.503-7.507v-31.67
			c0-4.146,3.353-7.507,7.503-7.507H132.78c4.146,0,7.506,3.357,7.506,7.507L140.281,119.531L140.281,119.531z"/>
		<path fill="#AD3D24" d="M263.793,119.531c0,4.15-3.36,7.507-7.502,7.507H151.314c-4.146,0-7.502-3.354-7.502-7.507v-31.67
			c0-4.146,3.354-7.507,7.502-7.507h104.979c4.141,0,7.502,3.357,7.502,7.507L263.793,119.531L263.793,119.531z"/>
		<path fill="#AD3D24" d="M387.301,119.531c0,4.15-3.358,7.507-7.502,7.507H274.823c-4.147,0-7.506-3.354-7.506-7.507v-31.67
			c0-4.146,3.354-7.507,7.506-7.507H379.8c4.143,0,7.502,3.357,7.502,7.507L387.301,119.531L387.301,119.531z"/>
		<path fill="#84271A" d="M510.812,119.531c0,4.15-3.359,7.507-7.502,7.507H398.332c-4.148,0-7.508-3.354-7.508-7.507v-31.67
			c0-4.146,3.354-7.507,7.508-7.507H503.31c4.141,0,7.502,3.357,7.502,7.507V119.531z"/>
		<path fill="#AD3D24" d="M634.323,119.531c0,4.15-3.356,7.507-7.51,7.507H521.842c-4.146,0-7.508-3.354-7.508-7.507v-31.67
			c0-4.146,3.356-7.507,7.508-7.507h104.972c4.148,0,7.51,3.357,7.51,7.507L634.323,119.531L634.323,119.531z"/>
		<path fill="#AD3D24" d="M757.832,119.531c0,4.15-3.357,7.507-7.512,7.507h-104.97c-4.146,0-7.508-3.354-7.508-7.507v-31.67
			c0-4.146,3.354-7.507,7.508-7.507h104.971c4.149,0,7.509,3.357,7.509,7.507L757.832,119.531L757.832,119.531z"/>
		<path fill="#AD3D24" d="M200.272,168.94c0,4.15-3.356,7.503-7.503,7.503H87.793c-4.148,0-7.504-3.352-7.504-7.503v-31.672
			c0-4.146,3.354-7.505,7.504-7.505h104.976c4.146,0,7.503,3.354,7.503,7.505V168.94z"/>
		<path fill="#AD3D24" d="M323.781,168.94c0,4.15-3.355,7.503-7.503,7.503H211.304c-4.146,0-7.502-3.352-7.502-7.503v-31.672
			c0-4.146,3.354-7.505,7.502-7.505h104.977c4.146,0,7.503,3.354,7.503,7.505L323.781,168.94L323.781,168.94z"/>
		<path fill="#AD3D24" d="M447.291,168.94c0,4.15-3.357,7.503-7.505,7.503H334.814c-4.146,0-7.502-3.352-7.502-7.503v-31.672
			c0-4.146,3.353-7.505,7.502-7.505h104.976c4.145,0,7.506,3.354,7.506,7.505L447.291,168.94L447.291,168.94z"/>
		<path fill="#AD3D24" d="M570.804,168.94c0,4.15-3.36,7.503-7.508,7.503H458.323c-4.146,0-7.502-3.352-7.502-7.503v-31.672
			c0-4.146,3.354-7.505,7.502-7.505h104.977c4.146,0,7.508,3.354,7.508,7.505L570.804,168.94L570.804,168.94z"/>
		<path fill="#AD3D24" d="M694.314,168.94c0,4.15-3.358,7.503-7.509,7.503H581.832c-4.146,0-7.511-3.352-7.511-7.503v-31.672
			c0-4.146,3.359-7.505,7.511-7.505h104.973c4.146,0,7.509,3.354,7.509,7.505V168.94L694.314,168.94z"/>
		<path fill="#84271A" d="M817.823,168.94c0,4.15-3.354,7.503-7.508,7.503H705.344c-4.148,0-7.504-3.352-7.504-7.503v-31.672
			c0-4.146,3.354-7.505,7.504-7.505h104.972c4.146,0,7.508,3.354,7.508,7.505L817.823,168.94L817.823,168.94z"/>
		<path fill="#AD3D24" d="M200.272,1157.748c0,4.146-3.356,7.505-7.503,7.505H87.793c-4.148,0-7.504-3.354-7.504-7.505v-31.676
			c0-4.146,3.354-7.505,7.504-7.505h104.976c4.146,0,7.503,3.356,7.503,7.505V1157.748z"/>
		<path fill="#AD3D24" d="M323.781,1157.748c0,4.146-3.355,7.505-7.503,7.505H211.304c-4.146,0-7.502-3.354-7.502-7.505v-31.676
			c0-4.146,3.354-7.505,7.502-7.505h104.977c4.146,0,7.503,3.356,7.503,7.505L323.781,1157.748L323.781,1157.748z"/>
		<path fill="#AD3D24" d="M447.291,1157.748c0,4.146-3.357,7.505-7.505,7.505H334.814c-4.146,0-7.502-3.354-7.502-7.505v-31.676
			c0-4.146,3.353-7.505,7.502-7.505h104.976c4.145,0,7.506,3.356,7.506,7.505L447.291,1157.748L447.291,1157.748z"/>
		<path fill="#AD3D24" d="M570.804,1157.748c0,4.146-3.36,7.505-7.508,7.505H458.323c-4.146,0-7.502-3.354-7.502-7.505v-31.676
			c0-4.146,3.354-7.505,7.502-7.505h104.977c4.146,0,7.508,3.356,7.508,7.505L570.804,1157.748L570.804,1157.748z"/>
		<path fill="#AD3D24" d="M694.314,1157.748c0,4.146-3.358,7.505-7.509,7.505H581.832c-4.146,0-7.511-3.354-7.511-7.505v-31.676
			c0-4.146,3.359-7.505,7.511-7.505h104.973c4.146,0,7.509,3.356,7.509,7.505V1157.748L694.314,1157.748z"/>
		<path fill="#84271A" d="M817.823,1157.748c0,4.146-3.354,7.505-7.508,7.505H705.344c-4.148,0-7.504-3.354-7.504-7.505v-31.676
			c0-4.146,3.354-7.505,7.504-7.505h104.972c4.146,0,7.508,3.356,7.508,7.505L817.823,1157.748L817.823,1157.748z"/>
		<path fill="#AD3D24" d="M140.281,1108.343c0,4.146-3.359,7.506-7.506,7.506H27.803c-4.149,0-7.503-3.354-7.503-7.506v-31.671
			c0-4.149,3.353-7.504,7.503-7.504H132.78c4.146,0,7.506,3.354,7.506,7.504L140.281,1108.343L140.281,1108.343z"/>
		<path fill="#AD3D24" d="M263.793,1108.343c0,4.146-3.36,7.506-7.502,7.506H151.314c-4.146,0-7.502-3.354-7.502-7.506v-31.671
			c0-4.149,3.354-7.504,7.502-7.504h104.979c4.141,0,7.502,3.354,7.502,7.504L263.793,1108.343L263.793,1108.343z"/>
		<path fill="#AD3D24" d="M387.301,1108.343c0,4.146-3.358,7.506-7.502,7.506H274.823c-4.147,0-7.506-3.354-7.506-7.506v-31.671
			c0-4.149,3.354-7.504,7.506-7.504H379.8c4.143,0,7.502,3.354,7.502,7.504L387.301,1108.343L387.301,1108.343z"/>
		<path fill="#AD3D24" d="M510.812,1108.343c0,4.146-3.359,7.506-7.502,7.506H398.332c-4.148,0-7.508-3.354-7.508-7.506v-31.671
			c0-4.149,3.354-7.504,7.508-7.504H503.31c4.141,0,7.502,3.354,7.502,7.504V1108.343z"/>
		<path fill="#AD3D24" d="M634.323,1108.343c0,4.146-3.356,7.506-7.51,7.506H521.842c-4.146,0-7.508-3.354-7.508-7.506v-31.671
			c0-4.149,3.356-7.504,7.508-7.504h104.972c4.148,0,7.51,3.354,7.51,7.504L634.323,1108.343L634.323,1108.343z"/>
		<path fill="#AD3D24" d="M757.832,1108.343c0,4.146-3.357,7.506-7.512,7.506h-104.97c-4.146,0-7.508-3.354-7.508-7.506v-31.671
			c0-4.149,3.354-7.504,7.508-7.504h104.971c4.149,0,7.509,3.354,7.509,7.504L757.832,1108.343L757.832,1108.343z"/>
		<path fill="#AD3D24" d="M140.281,218.343c0,4.146-3.359,7.506-7.506,7.506H27.803c-4.149,0-7.503-3.354-7.503-7.506v-31.671
			c0-4.149,3.353-7.504,7.503-7.504H132.78c4.146,0,7.506,3.354,7.506,7.504L140.281,218.343L140.281,218.343z"/>
		<path fill="#AD3D24" d="M263.793,218.343c0,4.146-3.36,7.506-7.502,7.506H151.314c-4.146,0-7.502-3.354-7.502-7.506v-31.671
			c0-4.149,3.354-7.504,7.502-7.504h104.979c4.141,0,7.502,3.354,7.502,7.504L263.793,218.343L263.793,218.343z"/>
		<path fill="#AD3D24" d="M387.301,218.343c0,4.146-3.358,7.506-7.502,7.506H274.823c-4.147,0-7.506-3.354-7.506-7.506v-31.671
			c0-4.149,3.354-7.504,7.506-7.504H379.8c4.143,0,7.502,3.354,7.502,7.504L387.301,218.343L387.301,218.343z"/>
		<path fill="#AD3D24" d="M510.812,218.343c0,4.146-3.359,7.506-7.502,7.506H398.332c-4.148,0-7.508-3.354-7.508-7.506v-31.671
			c0-4.149,3.354-7.504,7.508-7.504H503.31c4.141,0,7.502,3.354,7.502,7.504V218.343z"/>
		<path fill="#AD3D24" d="M634.323,218.343c0,4.146-3.356,7.506-7.51,7.506H521.842c-4.146,0-7.508-3.354-7.508-7.506v-31.671
			c0-4.149,3.356-7.504,7.508-7.504h104.972c4.148,0,7.51,3.354,7.51,7.504L634.323,218.343L634.323,218.343z"/>
		<path fill="#AD3D24" d="M757.832,218.343c0,4.146-3.357,7.506-7.512,7.506h-104.97c-4.146,0-7.508-3.354-7.508-7.506v-31.671
			c0-4.149,3.354-7.504,7.508-7.504h104.971c4.149,0,7.509,3.354,7.509,7.504L757.832,218.343L757.832,218.343z"/>
	</g>
</g>
<g id="media-background">
	<g id="media-tv">
		<path id="media-body" fill="#333333" d="M608.455,569.099c4.267,0,7.728-3.463,7.728-7.729V340.431
			c0-4.271-3.463-7.729-7.728-7.729H242.382c-4.26,0-7.725,3.458-7.725,7.729v220.944c0,4.264,3.464,7.725,7.725,7.725
			L608.455,569.099L608.455,569.099z"/>
		<rect id="media-screen-off" x="244.942" y="342.836" width="360.95" height="203.031"/>
		<path id="media-television-led" fill="#8AA24C" d="M597.207,566.293c-0.846,0-1.527-0.688-1.527-1.527s0.686-1.524,1.527-1.524
			h5.491c0.848,0,1.526,0.686,1.526,1.524c0,0.844-0.684,1.527-1.526,1.527H597.207z"/>
		
			<line id="media-television-decoration" fill="none" stroke="#8D9092" stroke-width="8" stroke-miterlimit="10" x1="234.658" y1="557.479" x2="616.183" y2="557.479"/>
	</g>
	<g id="photo-frame-1">
		<polygon id="photo-frame-1-stand" fill="#6E7172" points="151.791,834.767 176.378,834.767 197.585,904.175 174.138,904.168 		"/>
		<polygon id="photo-frame-1-photo" fill="#FFFFFF" points="171.004,901.709 101.516,901.709 117.893,798.309 187.381,798.309 		"/>
		<path id="photo-frame-1-frame" fill="#0D0C17" d="M179.782,904.546H98.195l17.276-109.074h75.232l4.396,6.056L179.782,904.546z
			 M104.837,898.868h63.744l15.479-97.727h-63.744L104.837,898.868z"/>
	</g>
	<g id="photo-frame-2">
		<polygon id="photo-frame-1-stand_5_" fill="#6E7172" points="312.921,819.633 343.24,819.633 369.392,905.222 340.477,905.215 		
			"/>
		<polygon id="photo-frame-1-photo_5_" fill="#FFFFFF" points="336.613,902.182 250.926,902.182 271.12,774.677 356.808,774.677 		
			"/>
		<path id="photo-frame-1-frame_5_" fill="#0D0C17" d="M347.437,905.68H246.83l21.303-134.501h92.771l5.421,7.467L347.437,905.68z
			 M255.021,898.686h78.604l19.088-120.511h-78.605L255.021,898.686z"/>
	</g>
	<g id="photo-frame-3">
		<polygon id="photo-frame-1-stand_2_" fill="#6E7172" points="530.832,843.528 552.33,843.528 570.877,904.221 550.368,904.215 		
			"/>
		<polygon id="photo-frame-1-photo_2_" fill="#FFFFFF" points="547.633,902.065 486.867,902.065 501.191,811.65 561.949,811.65 		
			"/>
		<path id="photo-frame-1-frame_2_" fill="#0D0C17" d="M555.308,904.546h-71.343l15.104-95.378h65.784l3.846,5.295L555.308,904.546z
			 M489.775,899.585h55.738l13.536-85.455h-55.741L489.775,899.585z"/>
	</g>
	<g id="photo-frame-4">
		<polygon id="photo-frame-1-stand_1_" fill="#6E7172" points="687.281,827.446 714.448,827.446 737.883,904.135 711.973,904.128 		
			"/>
		<polygon id="photo-frame-1-photo_1_" fill="#FFFFFF" points="708.511,901.406 631.734,901.406 649.825,787.159 726.607,787.159 		
			"/>
		<path id="photo-frame-1-frame_1_" fill="#0D0C17" d="M718.211,904.546h-90.149l19.09-120.521h83.124l4.858,6.69L718.211,904.546z
			 M635.404,898.277h70.431l17.104-107.979h-70.434L635.404,898.277z"/>
	</g>
	<g id="shelf">
		<rect x="72.371" y="904.175" fill="#563007" width="694.897" height="32.899"/>
		<rect x="146.647" y="930.391" fill="#563007" width="40.734" height="234.188"/>
		<rect x="654.803" y="930.391" fill="#563007" width="40.73" height="234.188"/>
	</g>
	<g id="left-speaker">
		<path id="left-base" fill="#0D1111" d="M179.223,227.745c0,2.153-1.75,3.902-3.906,3.902H63.923c-2.158,0-3.907-1.75-3.907-3.902
			V53.445c0-2.153,1.75-3.902,3.907-3.902h111.394c2.157,0,3.906,1.749,3.906,3.902V227.745z"/>
		<circle id="left-ring" fill="#545858" cx="119.62" cy="164.951" r="47.249"/>
		<g id="left-cone">
			<circle fill="#333333" stroke="#231F20" stroke-width="5" stroke-miterlimit="10" cx="119.62" cy="164.951" r="38.766"/>
			<circle fill="#0D1111" cx="119.62" cy="164.951" r="17.009"/>
		</g>
		<g id="left-top">
			<ellipse id="left-ring_5_" fill="#545858" cx="119.62" cy="82.048" rx="24.612" ry="19.883"/>
			
				<ellipse fill="#333333" stroke="#231F20" stroke-width="5" stroke-miterlimit="10" cx="119.62" cy="82.048" rx="20.193" ry="15.536"/>
			<circle fill="#0D1111" cx="119.62" cy="82.048" r="9.885"/>
		</g>
	</g>
	<g id="right-speaker">
		<path id="right-base_1_" fill="#0D1111" d="M779.625,227.745c0,2.153-1.75,3.902-3.904,3.902H664.323
			c-2.153,0-3.903-1.75-3.903-3.902V53.445c0-2.153,1.75-3.902,3.903-3.902H775.72c2.155,0,3.905,1.749,3.905,3.902V227.745
			L779.625,227.745z"/>
		<circle id="right-ring_1_" fill="#545858" cx="720.024" cy="164.951" r="47.249"/>
		<g id="right-cone">
			<circle fill="#333333" stroke="#231F20" stroke-width="5" stroke-miterlimit="10" cx="720.024" cy="164.951" r="38.766"/>
			<circle fill="#0D1111" cx="720.024" cy="164.951" r="17.009"/>
		</g>
		<g id="right-top">
			<ellipse id="left-ring_1_" fill="#545858" cx="720.024" cy="82.048" rx="24.616" ry="19.883"/>
			
				<ellipse fill="#333333" stroke="#231F20" stroke-width="5" stroke-miterlimit="10" cx="720.024" cy="82.048" rx="20.197" ry="15.536"/>
			<circle fill="#0D1111" cx="720.024" cy="82.048" r="9.885"/>
		</g>
	</g>
</g>
<g id="lab-background">
	<polygon id="table" fill="#6D6E71" points="817.823,729.179 20.3,729.179 20.3,773.617 76.761,773.617 76.761,1164.575 
		119.109,1164.575 119.109,773.617 719.016,773.617 719.016,1164.575 761.363,1164.575 761.363,773.617 817.823,773.617 	"/>
	<g id="monitor-group">
		<path id="monitor-body" fill="#58595B" d="M305.845,541.218H64.022c-2.813,0-5.104,2.285-5.104,5.105v142.934
			c0,2.813,2.288,5.104,5.104,5.104h87.307v22.594h-32.649c-2.564,0-4.646,1.515-4.646,3.386v8.811h141.813v-8.811
			c0-1.871-2.086-3.386-4.652-3.386h-32.646v-22.594h87.302c2.813,0,5.104-2.289,5.104-5.104V546.323
			C310.948,543.502,308.658,541.218,305.845,541.218z"/>
		<rect id="monitor-screen-off" x="73.399" y="555.046" fill="#231F20" width="223.071" height="125.479"/>
		<rect id="monitor-screen-on" x="73.399" y="555.046" fill="#FFFFFF" width="223.071" height="125.479"/>
		<circle id="monitor-led" fill="#39B54A" cx="300.32" cy="687.726" r="1.94"/>
	</g>
	<g id="mouse">
		<path id="mouse-wheel" fill="#6D6E71" d="M316.252,718.117c0,0.689-0.556,1.24-1.24,1.24h-1.542c-0.688,0-1.233-0.551-1.233-1.24
			v-5.293c0-0.684,0.556-1.229,1.233-1.229h1.542c0.688,0,1.24,0.553,1.24,1.229V718.117z"/>
		<path id="mouse-body" fill="#58595B" d="M314.24,714.071c-9.983,0-16.483,2.878-18.078,7.504c-0.813,2.37-1.458,6.364-1.458,6.364
			c0,0.685,0.555,1.237,1.237,1.237h36.603c0.685,0,1.235-0.553,1.235-1.237c0,0-0.688-3.991-1.457-6.364
			C330.616,716.352,324.229,714.071,314.24,714.071z"/>
	</g>
	<g id="test-tubes">
		<g id="test-tube-1">
			<path opacity="0.5" fill="#FFFFFF" stroke="#FFFFFF" stroke-width="0.5" stroke-miterlimit="10" enable-background="new    " d="
				M618.772,643.687h-13.739c-0.664,0-1.206,0.539-1.206,1.206v0.462c0,0.666,0.543,1.209,1.206,1.209h0.613v65.667
				c0,3.455,2.809,6.258,6.262,6.258c3.457,0,6.255-2.802,6.255-6.258v-65.666h0.615c0.666,0,1.206-0.544,1.206-1.209v-0.462
				C619.971,644.226,619.437,643.687,618.772,643.687z"/>
			<path fill="#00AEEF" d="M617.531,665.834v46.338c0,3.106-2.521,5.629-5.626,5.629c-3.108,0-5.632-2.521-5.632-5.629v-46.338"/>
		</g>
		<g id="test-tube-2">
			<path opacity="0.5" fill="#FFFFFF" stroke="#FFFFFF" stroke-width="0.5" stroke-miterlimit="10" enable-background="new    " d="
				M650.478,643.687h-13.736c-0.669,0-1.208,0.539-1.208,1.206v0.462c0,0.666,0.54,1.209,1.208,1.209h0.618v65.667
				c0,3.455,2.8,6.258,6.256,6.258c3.454,0,6.258-2.802,6.258-6.258v-65.666h0.612c0.664,0,1.21-0.544,1.21-1.209v-0.462
				C651.688,644.226,651.139,643.687,650.478,643.687z"/>
			<path fill="#A02B33" d="M649.238,658.323v53.853c0,3.108-2.52,5.629-5.625,5.629c-3.104,0-5.628-2.521-5.628-5.629v-53.853"/>
		</g>
		<g id="test-tube-3">
			<path opacity="0.5" fill="#FFFFFF" stroke="#FFFFFF" stroke-width="0.5" stroke-miterlimit="10" enable-background="new    " d="
				M682.191,643.687h-13.74c-0.665,0-1.212,0.539-1.212,1.206v0.462c0,0.666,0.547,1.209,1.212,1.209h0.615v65.667
				c0,3.455,2.801,6.258,6.255,6.258c3.457,0,6.256-2.802,6.256-6.258v-65.666h0.622c0.664,0,1.206-0.544,1.206-1.209v-0.462
				C683.395,644.226,682.853,643.687,682.191,643.687z"/>
			<path fill="#7F3F98" d="M680.948,686.863v25.313c0,3.106-2.521,5.629-5.629,5.629c-3.105,0-5.625-2.521-5.625-5.629v-25.313"/>
		</g>
		<g id="test-tube-4">
			<path opacity="0.5" fill="#FFFFFF" stroke="#FFFFFF" stroke-width="0.5" stroke-miterlimit="10" enable-background="new    " d="
				M713.901,643.687h-13.739c-0.668,0-1.206,0.539-1.206,1.206v0.462c0,0.666,0.539,1.209,1.206,1.209h0.614v65.667
				c0,3.455,2.799,6.258,6.258,6.258c3.456,0,6.264-2.802,6.264-6.258v-65.666h0.612c0.662,0,1.203-0.544,1.203-1.209v-0.462
				C715.1,644.226,714.564,643.687,713.901,643.687z"/>
			<path fill="#F9ED32" d="M712.656,666.463v45.703c0,3.11-2.519,5.63-5.628,5.63c-3.107,0-5.628-2.521-5.628-5.63v-45.703"/>
		</g>
		<path id="rack" fill="#A7A9AC" d="M730.485,676.21v-5.157H588.447v5.157h3.55v42.614h-3.55v10.316h142.038v-10.316h-3.554V676.21
			H730.485z M722.564,718.823H596.365v-42.619h126.196L722.564,718.823L722.564,718.823z"/>
	</g>
</g>
<g id="jack-caricature">
	<g id="neck">
		<path id="Coat_Back" fill="#FFFFFF" d="M399.028,482.087c0,0,4.79-2.244,20.401-2.244c16.045,0,20.541,2.244,20.541,2.244
			l6.002,22.459l-53.115,3.308L399.028,482.087z"/>
		<path id="throat-skin" fill="#F4D9C3" d="M400.39,432.201h38.082c0,0-3.831,19.563-3.515,39.301
			c0.14,8.688,1.084,17.418,3.515,24.518c0,0-11.418,23.82-19.041,23.82c-7.62,0-19.04-23.82-19.04-23.82
			C407.435,470.14,400.39,432.199,400.39,432.201z"/>
		<path id="throat-skin-shadow" fill="#DDB690" d="M403.258,458.128c-0.757-14.544-2.867-25.929-2.867-25.929h38.079
			c0,0-4.872,24.888-3.172,46.825"/>
	</g>
	<g id="head">
		<g id="ears">
			<path id="right-ear-skin" fill="#F4D9C3" d="M374.242,373.757c0,0-0.091-0.384-0.259-1.035
				c-1.018-3.882-4.872-17.34-9.009-16.394c-4.839,1.103-6.049,7.938-6.049,11.023c0,3.088,5.035,16.761,5.646,22.06
				c0.606,5.292,1.813,12.352,4.028,14.112c2.222,1.768,5.379,1.987,6.894-0.222C379.883,396.918,374.242,373.757,374.242,373.757z"
				/>
			<path id="left-ear-skin" fill="#F4D9C3" d="M467.222,373.757c0,0,0.091-0.384,0.257-1.035c1.021-3.882,4.876-17.34,9.012-16.394
				c4.838,1.103,6.051,7.938,6.051,11.023c0,3.088-5.032,16.761-5.645,22.06c-0.607,5.292-1.813,12.352-4.028,14.112
				c-2.224,1.768-5.381,1.987-6.893-0.222C461.582,396.918,467.222,373.757,467.222,373.757z"/>
		</g>
		<path id="face-skin" fill="#F4D9C3" d="M423.94,279.69c-7.396-0.306-14.778,0.778-20.551,2.992
			c-12.578,4.823-22.969,14.748-29.426,26.46c-8.871,16.091-4.889,35.349-1.979,52.472c1.039,6.12,1.047,12.606,1.542,18.792
			c0.99,12.368,1.053,26.76,6.207,38.274c0.921,2.058,2.189,4.271,3.688,6.551c5.886,9.225,16.995,20.844,19.27,23.954
			c3.229,4.412,8.67,7.135,17.742,7.135c0.021,0,0.037-0.005,0.058-0.005c0.021,0,0.039,0.005,0.063,0.005
			c9.073,0,14.516-2.723,17.744-7.135c2.271-3.107,13.374-14.719,19.26-23.938c1.507-2.282,2.77-4.507,3.702-6.567
			c5.105-11.374,6.072-40.571,7.52-54.106c0.577-5.405,3.146-10.631,2.607-16.126c-1.173-12.003,1.824-22.928-1.786-34.646
			c-3.429-11.128-9.231-19.174-19.136-25.647C442.546,282.978,433.382,280.081,423.94,279.69z"/>
		<g id="eyebrows">
			<path id="right-eyebrow-hair" fill="#A97C50" d="M410.791,353.754c-0.426-0.498-0.864-0.922-1.188-1.186
				c-1.262-0.99-2.86-1.485-4.434-1.629c-3.233-0.28-6.498,0.182-9.707,0.563c-3.518,0.416-7.355,0.229-10.764,1.339
				c-1.221,0.396-5.664,3.076-5.345,4.701c0.332,1.714,6.554-0.494,7.733-0.734c3.395-0.699,6.864-0.714,10.296-1.125
				c2.127-0.257,4.269-0.41,6.406-0.458c1.443-0.027,8.293,3.672,8.355,1.188C412.175,355.643,411.508,354.597,410.791,353.754z"/>
			<path id="left-eyebrow-hair" fill="#A97C50" d="M429.606,353.754c0.421-0.498,0.862-0.922,1.188-1.186
				c1.262-0.99,2.857-1.485,4.438-1.629c3.236-0.28,6.496,0.182,9.707,0.563c3.508,0.416,7.357,0.229,10.755,1.339
				c1.229,0.396,5.665,3.076,5.354,4.701c-0.332,1.714-6.559-0.494-7.732-0.734c-3.402-0.699-6.873-0.714-10.293-1.125
				c-2.129-0.257-4.275-0.41-6.414-0.458c-1.439-0.027-8.288,3.672-8.354,1.188C428.221,355.643,428.891,354.597,429.606,353.754z"
				/>
		</g>
		<path id="hair" fill="#A97C50" d="M373.008,387.224c-1.251-39.714-11.114-29.027-9.381-77.51c0.138-3.846,3.211-4.991,2.979-9.845
			c-0.478-10.062,6.953-13.007,14.762-20.028c11.684-10.507,16.397-12.319,16.397-12.319s13.313-6.8,23.729-5.292
			c11.188,1.619,32.993,3.674,38.271,14.062c3.284,6.462,5.785,5.679,10.554,15.056c3.145,6.175,5.861,11.143,6.192,13.821
			c6.021,49.367-8.679,46.146-8.679,82.554c0,0.686-1.5,0.184-1.604-0.492c-1.729-11.199,5.859-45.447-4.753-53.829
			c-5.5-4.339-6.645-16.104-11.896-17.283c-5.754-1.282-11.058-3.614-19.962-3.008c-9.667,0.663-15.316-0.438-21.361-0.438
			c-4.664,0-13.109,3.446-13.109,3.446s-14.078,5.377-14.852,13.462c-0.896,9.419-7.728,18.229-7.528,22.055
			c0.198,3.824,2.604,28.344,2.346,35.633C375.049,389.067,373.021,387.712,373.008,387.224z"/>
		<circle id="eye-center-point" fill-opacity="0" cx="420.226" cy="366.14" r="2.719"/>
		<g id="closed-eyes">
			<path id="left-closed-eye-skin-shadow" fill="#DDB690" d="M384.656,368.243c0,0,1.563-0.401,3.916-0.74
				c0.588-0.087,1.229-0.185,1.9-0.253c0.742-0.078,1.41-0.113,2.162-0.143c0.739-0.021,1.502-0.071,2.274-0.072
				c0.775-0.01,1.563-0.018,2.354-0.022c0.787,0.015,1.574,0.03,2.349,0.045c0.775,0,1.537,0.053,2.275,0.076
				c1.476,0.063,2.852,0.165,4.03,0.288c2.357,0.227,3.93,0.557,3.93,0.557s-1.58,0.343-3.945,0.592
				c-1.183,0.137-2.562,0.248-4.04,0.325c-0.738,0.028-1.502,0.092-2.276,0.096c-0.773,0.008-1.563,0.016-2.351,0.021
				c-0.787-0.016-1.575-0.032-2.35-0.047c-0.775-0.008-1.537-0.068-2.275-0.098c-0.723-0.021-1.483-0.109-2.094-0.132
				c-0.677-0.014-1.318-0.054-1.91-0.091C386.24,368.51,384.656,368.243,384.656,368.243z"/>
			<path id="right-closed-eye-skin-shadow" fill="#DDB690" d="M456.634,368.243c0,0-1.563-0.401-3.916-0.74
				c-0.589-0.087-1.229-0.185-1.9-0.253c-0.741-0.078-1.409-0.113-2.162-0.143c-0.736-0.021-1.503-0.071-2.274-0.072
				c-0.775-0.01-1.563-0.018-2.354-0.022c-0.787,0.015-1.574,0.03-2.35,0.045c-0.774,0-1.537,0.053-2.274,0.076
				c-1.476,0.063-2.853,0.165-4.028,0.288c-2.358,0.227-3.932,0.557-3.932,0.557s1.579,0.343,3.944,0.592
				c1.183,0.137,2.562,0.248,4.04,0.325c0.738,0.028,1.502,0.092,2.277,0.096c0.771,0.008,1.563,0.016,2.35,0.021
				c0.787-0.016,1.574-0.032,2.35-0.047c0.775-0.008,1.537-0.068,2.275-0.098c0.723-0.021,1.482-0.109,2.094-0.132
				c0.677-0.014,1.318-0.054,1.91-0.091C455.051,368.51,456.634,368.243,456.634,368.243z"/>
		</g>
		<g id="open-eyes">
			<g id="eye-mask">
				<path id="left-eyeball-mask" fill="#FFFFFF" d="M409.55,367.237c0.938,1.6-0.321,2.19-1.668,2.537
					c-2.613,0.665-3.349,1.071-8.893,1.235c-7.386,0.219-14.336-0.596-14.336-2.766c0-1.521,6.961-6.729,14.441-6.729
					C405.448,361.518,407.172,363.192,409.55,367.237z"/>
				<path id="right-eyeball-mask" fill="#FFFFFF" d="M431.751,367.237c-0.938,1.6,0.322,2.19,1.675,2.537
					c2.613,0.665,3.344,1.071,8.886,1.235c7.381,0.219,14.338-0.596,14.338-2.766c0-1.521-6.965-6.729-14.438-6.729
					C435.852,361.518,434.131,363.192,431.751,367.237z"/>
			</g>
			<g id="eyeballs">
				<path id="left-eyeball" fill="#FFFFFF" d="M409.55,367.237c0.938,1.6-0.321,2.19-1.668,2.537
					c-2.613,0.665-3.349,1.071-8.893,1.235c-7.386,0.219-14.336-0.596-14.336-2.766c0-1.521,6.961-6.729,14.441-6.729
					C405.448,361.518,407.172,363.192,409.55,367.237z"/>
				<path id="right-eyeball" fill="#FFFFFF" d="M431.751,367.237c-0.938,1.6,0.322,2.19,1.675,2.537
					c2.613,0.665,3.344,1.071,8.886,1.235c7.381,0.219,14.338-0.596,14.338-2.766c0-1.521-6.965-6.729-14.438-6.729
					C435.852,361.518,434.131,363.192,431.751,367.237z"/>
				<g id="pupils">
					<ellipse id="left-pupil" cx="398.048" cy="370.648" rx="2.72" ry="2.975"/>
					<ellipse id="right-pupil" cx="443.254" cy="370.648" rx="2.718" ry="2.975"/>
				</g>
			</g>
		</g>
		<g id="glasses">
			<path d="M415.608,362.101c-2.521-2.68-7.13-2.68-12.018-2.68h-23.783c-2.761,0-4.902,0.769-6.366,2.265
				c-0.618,0.631-1.094,1.394-1.455,2.259L369.448,364c-0.642,0.045-1.071,1.063-0.97,2.261l0.634,7.225
				c0.112,1.201,0.714,2.139,1.359,2.086l1.493-0.032l0.229,1.862c1.796,7.417,6.834,7.417,12.686,7.417h17.717
				c9.536,0,12.467-4.442,13.261-8.226l1.299-8.255C417.507,365.623,417.004,363.582,415.608,362.101z M414.347,367.985
				l-1.285,8.167c-0.847,4.059-4.275,6.028-10.478,6.028h-17.721c-5.749,0-8.632,0-9.896-5.22l-0.843-6.771
				c-0.313-3.196,0.158-5.455,1.394-6.726c0.919-0.94,2.318-1.404,4.286-1.404h23.783c4.04,0,8.218,0,9.896,1.786
				C414.323,364.732,414.601,366.089,414.347,367.985z"/>
			<path d="M423.408,368.34l1.301,8.255c0.781,3.786,3.716,8.226,13.263,8.226h17.717c5.84,0,10.884,0,12.676-7.417l0.24-1.86
				l1.492,0.037c0.641,0.05,1.244-0.89,1.354-2.085l0.643-7.229c0.105-1.201-0.331-2.216-0.972-2.26l-2.544-0.055
				c-0.354-0.87-0.836-1.634-1.447-2.264c-1.468-1.501-3.609-2.264-6.361-2.264h-23.792c-4.883,0-9.493,0-12.015,2.68
				C423.552,363.582,423.048,365.623,423.408,368.34z M427.063,363.852c1.675-1.786,5.849-1.786,9.892-1.786h23.787
				c1.957,0,3.361,0.465,4.287,1.405c1.232,1.27,1.7,3.523,1.396,6.725l-0.849,6.771c-1.271,5.22-4.149,5.22-9.893,5.22h-17.718
				c-6.204,0-9.632-1.972-10.479-6.028l-1.282-8.167C425.952,366.089,426.235,364.732,427.063,363.852z"/>
			<path fill="none" stroke="#000000" stroke-width="1.25" stroke-miterlimit="10" d="M415.428,369.836c0,0,1.63-3.104,4.997-3.125
				c3.308-0.023,4.995,3.125,4.995,3.125"/>
		</g>
		<g id="mouth">
			<path id="teeth" fill="#FFFFFF" d="M400.44,418.07c0.223-0.479,1.254,0.146,1.619,0.167c0.472,0.036,0.932-0.146,1.396-0.167
				c2.609-0.108,5.346,0.491,7.926,0.824c0.771,0.104,1.512,0.213,2.267,0.332c1.142,0.176,2.311,0.298,3.456,0.454
				c2.721,0.375,5.561,0.021,8.32-0.167c1.128-0.075,2.223-0.354,3.322-0.484c0.757-0.084,1.57-0.115,2.313-0.297
				c1.398-0.335,2.759-0.729,4.109-1.213c1.104-0.398,2.466-0.354,3.641-0.479c1.114-0.115,2.236-0.232,3.345-0.354
				c0.282-0.025,1.163,0.04,1.396-0.146c0,0-10.727,8.67-15.257,10.354c-3.257,1.213-9.846,1.004-13.122-0.104
				c-2.777-0.938-5.555-1.441-8.038-3.202c-1.473-1.039-3.272-1.563-4.663-2.646c-0.665-0.521-2.087-1.657-2.067-2.613
				C400.393,418.221,400.406,418.135,400.44,418.07z"/>
			<path id="bottom-lip" fill="#BC7362" d="M400.521,420.311c0.994,1.064,2.278,1.752,3.41,2.648c1.122,0.881,2.27,1.44,3.456,2.239
				c0.806,0.537,1.582,1.158,2.416,1.661c1.129,0.688,2.189,1.507,3.491,1.824c0.72,0.181,1.442,0.349,2.169,0.501
				c3.69,0.789,7.295-0.117,11.009-0.112c2.455,0.01,4.053-0.851,6.002-2.296c1.383-1.021,2.95-1.771,4.313-2.826
				c1.569-1.213,3.033-2.56,4.405-3.996c0.69-0.729,1.584-1.359,2.13-2.211c0.187-0.293,1.252-1.314,0.979-1.492
				c-0.235-0.15-0.815,0.195-1.044,0.272c-0.442,0.158-0.932,0.146-1.363,0.293c-0.401,0.138-0.691,0.431-1.039,0.698
				c-0.818,0.626-1.651,1.248-2.464,1.875c-1.53,1.176-3.189,2.168-4.741,3.309c-1.308,0.96-2.858,1.806-4.343,2.445
				c-1.684,0.732-3.847,0.882-5.652,0.938c-2.294,0.064-4.599,0.169-6.879-0.162c-2.956-0.434-5.846-1.353-8.552-2.622
				c-1.277-0.602-2.156-1.266-3.265-2.061c-0.822-0.588-1.771-0.943-2.619-1.479c-0.439-0.273-0.771-0.646-1.169-0.954
				c-0.33-0.254-0.723-0.368-1.104-0.552c-0.363-0.186-0.626-0.563-1.016-0.668C398.852,418.588,399.909,419.664,400.521,420.311z"
				/>
			<path id="top-lip" fill="#CE9975" d="M444.402,416.17c-0.718-0.205-1.621,0.04-2.339,0.188c-0.713,0.146-1.388,0.383-2.121,0.399
				c-2.134,0.053-4.229,0.184-6.354,0.438c-0.923,0.111-1.854,0.153-2.76,0.366c-1.439,0.339-2.854,0.604-4.319,0.844
				c-0.938,0.146-1.876,0.264-2.818,0.387c-3.326,0.403-6.271,0.222-9.537-0.273c-2.852-0.436-5.729-0.682-8.607-0.761
				c-1.685-0.046-3.338-0.087-5.012-0.068c-0.506,0.006-1.006-0.266-1.502-0.038c-0.258,0.119,1.598,0.877,1.667,0.911
				c0.086,0.035,0.165,0.065,0.242,0.101c0.681,0.267,1.152,0.396,1.957,0.418c1.132,0.023,2.231,0.354,3.337,0.401
				c0.729,0.037,1.414,0.165,2.128,0.196c0.989,0.036,2.04,0.21,3.05,0.289c0.951,0.074,1.807,0.394,2.764,0.479
				c2.125,0.206,4.263,0.053,6.392,0.056c3.14,0.005,6.321-0.019,9.396-0.759c1.197-0.292,2.364-0.699,3.563-1.006
				c1.189-0.305,2.273-0.347,3.491-0.362c0.804-0.019,1.581-0.21,2.388-0.289c1.035-0.104,2.041-0.479,2.979-0.935
				c0.444-0.221,0.776-0.379,1.262-0.479C443.985,416.602,444.314,416.645,444.402,416.17z"/>
		</g>
		<path id="nose-skin-shadow" fill="#DDB690" d="M410.983,392.718c-2.414,2.555-3.821,7.909-1.343,10.958
			c1.214,1.5,2.463,1.874,4.315,2.188c2.655,0.465,4.303,2.851,7.229,3.192c1.874,0.22,3.724-0.652,5.042-1.922
			c2.026-1.948,4.533-2.073,6.223-4.334c1.418-1.896,1.337-4.412,0.544-6.56c-0.563-1.534-1.554-4.191-3.429-4.354
			c-0.129,0.908,0.9,2.361,1.146,3.369c0.276,1.144,0.43,2.349,0.478,3.53c0.081,2.146-1.601,3.214-3.401,3.854
			c-1.938,0.697-2.802,2.809-4.673,3.654c-2.021,0.914-4.084,0.188-5.752-1.152c-1.644-1.32-3.382-2.243-5.338-3.125
			c-2.82-1.271-2.164-3.972-0.956-6.236C411.429,395.104,412.783,390.81,410.983,392.718z"/>
	</g>
	<g id="Trousers">
		<path id="Crotch" fill="#2F4550" d="M368.775,734.805c-0.612,0,101.751,0,101.751,0v33.521c0,0-26.693,23.819-50.396,23.819
			c-29.477,0-51.354-23.819-51.354-23.819v-10.584L368.775,734.805L368.775,734.805z"/>
		<g id="Left_Leg">
			<g id="Upper_Leg">
				<circle fill="#2F4550" cx="393.959" cy="778.905" r="20.288"/>
				<path fill="#2F4550" d="M411.92,944.021c-0.354,10.061-8.793,17.935-18.858,17.582c-10.063-0.348-17.937-8.789-17.583-18.856
					c0.256-7.337-1.802-164.557-1.802-164.557c2.314-16.626,17.554,0.619,20.272,0.707c2.606,0.092,18.043-14.831,20.279,0.709
					C414.236,779.614,412.182,936.559,411.92,944.021z"/>
			</g>
			<g id="Lower_Leg">
				<path id="left-shin" fill="#2F4550" d="M375.982,941.994c0.354-10.06,8.789-17.936,18.86-17.584
					c10.06,0.353,17.934,8.79,17.582,18.857c-0.258,7.336,3.004,183.243,3.004,183.243c-2.316,16.628-9.3,2.955-21.469,3.524
					c-12.23,0.571-12.355,8.483-14.598-7.059C379.363,1122.98,375.725,949.46,375.982,941.994z"/>
				<path id="left-shoe" d="M361.126,1164.575c-6.062-15.229,0.688-21.143,4.137-28.919c2.929-6.594,1.89-3.646,9.182-9.688
					c14.228-6.175,18.118-4.746,35.711,0.661c5.604,3.528,5.319,5.604,7.464,14.744c0.735,3.124,4.649,9.8,0,23.195
					L361.126,1164.575L361.126,1164.575z"/>
			</g>
		</g>
		<g id="Right_Leg">
			<g id="Upper_Leg_1_">
				<circle fill="#2F4550" cx="444.941" cy="778.904" r="20.291"/>
				<path fill="#2F4550" d="M426.977,944.021c0.352,10.061,8.794,17.935,18.858,17.582c10.06-0.348,17.934-8.789,17.583-18.856
					c-0.26-7.337,1.801-164.557,1.801-164.557c-2.318-16.626-17.553,0.619-20.276,0.707c-2.604,0.092-18.043-14.831-20.276,0.709
					C424.656,779.614,426.716,936.559,426.977,944.021z"/>
			</g>
			<g id="Lower_Leg_1_">
				<path id="Lower_Right_Leg" fill="#2F4550" d="M462.914,941.994c-0.354-10.06-8.787-17.936-18.856-17.584
					c-10.06,0.353-17.935,8.79-17.583,18.857c0.258,7.336-0.063,182.363-0.063,182.363c2.317,16.625,6.358,3.835,18.526,4.408
					c12.233,0.568,14.227,9.362,16.469-6.178C461.406,1123.864,463.175,949.46,462.914,941.994z"/>
				<path id="right-shoe" d="M424.615,1164.575c-3.893-13.4-0.729-20.075,0-23.194c2.153-9.145,1.869-11.219,7.471-14.744
					c17.596-5.408,21.485-6.836,35.712-0.662c7.293,6.04,6.252,3.097,9.181,9.688c3.442,7.772,10.188,13.688,4.136,28.92
					L424.615,1164.575L424.615,1164.575z"/>
			</g>
		</g>
	</g>
	<g id="Shirt">
		<path id="shirt" fill="#A02B33" d="M403.016,484.255c0,0,2.884,13.965,16.419,13.969c14.188,0.004,16.82-13.969,16.82-13.969
			s28.047,14.11,37.165,37.052v222.604c0,0-16.774,7.063-52.997,7.063c-30.771,0-52.38-7.063-52.38-7.063
			s-7.271-218.896-5.829-221.438C377.161,496.166,403.016,484.255,403.016,484.255z"/>
	</g>
	<g id="Coat">
		<path fill="#FFFFFF" d="M399.028,482.087c0.777-0.332,9.604,90.684,9.604,90.684l-5.446,357.35
			c-27.717,1.605-41.223-11.432-41.223-11.432s1.641-209.923,0.066-258.433c-1.096-33.781-7.369-135.126-7.369-135.126
			S352.896,501.899,399.028,482.087z"/>
		<path fill="#FFFFFF" d="M439.97,482.087c-0.772-0.332-9.597,90.684-9.597,90.684l5.16,357.486
			c27.411,1.596,41.372-11.575,41.372-11.575s-1.506-209.922,0.063-258.437c1.094-33.777,7.372-135.126,7.372-135.126
			S486.101,501.899,439.97,482.087z"/>
	</g>
	<g id="Right_Arm">
		<g id="Lower_Arm">
			<path id="right-hand-relaxed-skin" fill="#F4D9C3" d="M491.198,850.03c2.082-0.685,4.063-1.7,5.848-3.061
				c3.237-2.479,7.938-3.196,9.061-7.232c1.173-4.224,0.91-8.724,0.91-13.058c0-5.05,0.417-10.021,0.417-15.092
				c0-2.672-0.489-5.313-0.771-7.962c-0.142-1.345-0.271-2.691-0.254-4.041c0.028-2.182,0.901-9.055-1.938-9.86
				c-2.656-0.757-5.439-1.56-8.363-1.421c-3.399,0.16-7.573-0.182-10.578,1.386c-4.188,2.188-0.473,8.756-2.767,12.072
				c-1.036,1.498-2.771,2.337-3.88,3.833c-1.639,2.199-4.117,5.389-4.583,8.146c-0.513,3.03-0.823,6.438-1.859,9.479
				c-0.494,1.451-1.353,2.678-1.843,4.104c-0.593,1.729-0.456,3.625-0.979,5.375c-0.628,2.117-2.524,6.497-0.044,8.084
				c1.063,0.681,2.681,0.263,3.727-0.231c2.274-1.078,2.889-5.063,3.138-7.313c0.291-2.645,1.076-5.486,2.519-7.87
				c0.479-0.794,1.699-3.146,2.793-2.844c0.953,0.27,0.868,3.354,1.035,4.13c0.279,1.313,0.764,2.58,1.218,3.839
				c1.256,3.479,4.279,11.521-1.819,12.092c-2.354,0.218-4.281-0.793-6.512-1.043c-1.846-0.206-3.858-0.312-5.12,0.841
				c-2.616,2.384-1.008,3.517,1.254,4.995C477.503,851.105,484.838,852.115,491.198,850.03z"/>
			<path id="right-lower_Sleeve" fill="#FFFFFF" d="M482.274,793.465c0.018-3.972,1.57-129.313,1.57-129.313
				c3.345-6.428,18.387-0.963,21.368-1.121c0,0,2.197,122.153,2.221,129.111c0.007,4.043-9.291,4.742-12.685,4.969
				C491.509,797.336,482.256,797.901,482.274,793.465z"/>
			<circle id="Right_Lower_Elbow" fill="#FFFFFF" cx="494.748" cy="663.599" r="10.698"/>
		</g>
		<g id="right-upper-arm">
			<path id="Right_Upper_Sleeve" fill="#FFFFFF" d="M484.418,521.284c0.822,3.887,20.599,140.094,20.599,140.094
				c-2.302,6.867-18.01,3.822-20.932,4.442c0,0-22.86-132.495-24.306-139.298c-1.442-6.802,2.896-13.491,9.695-14.939
				C476.281,510.138,482.974,514.484,484.418,521.284z"/>
			<circle id="Right_Upper_Elbow" fill="#FFFFFF" cx="494.325" cy="663.602" r="10.698"/>
		</g>
	</g>
	<g id="left-arm">
		<path fill="#FFFFFF" d="M381.291,522.588c-1.243,3.769-45.244,134.171-45.244,134.171c-5.182,5.078-17.784-4.77-20.681-5.545
			c0,0,39.44-128.532,41.58-135.153c1.241-3.848,10.293-1.637,13.6-0.809C373.701,516.05,382.678,518.377,381.291,522.588z"/>
		<circle id="left-shoulder" fill="#FFFFFF" cx="370.495" cy="516.921" r="10.698"/>
		<circle fill="#FFFFFF" cx="325.495" cy="653.921" r="10.698"/>
		<g id="left-lower-arm">
			<path fill="#FFFFFF" d="M287.189,531.632c1.237,3.769,48.141,118.298,48.141,118.298c-0.565,7.225-16.547,8.07-19.229,9.374
				c0,0-49.92-109.87-51.552-116.635c-0.938-3.867,1.813-9.198,8.063-12.25C278.867,527.377,285.847,527.531,287.189,531.632z"/>
			<circle id="left-lower-elbow" fill="#FFFFFF" cx="325.495" cy="654.672" r="10.702"/>
			<circle id="left-wrist" fill="#F4D9C3" cx="271.209" cy="525.717" r="3.889"/>
			<path id="left-forearm-skin" fill="#F4D9C3" d="M272.904,507.402c1.584,4.853,3.813,9.564,5.729,14.296
				c1.142,2.824,5.611,10.028,4.693,12.798c-0.972,2.938-7.146,4.646-9.726,5.193c-5.719,1.235-6.221-0.848-8.378-5.744
				c-2.655-6.035-6.396-12.463-7.952-18.923c-0.645-2.674,1.252-6.354,5.567-8.455C267.16,504.467,271.976,504.573,272.904,507.402z
				"/>
			<path id="left-palm-open-skin" fill="#F4D9C3" d="M251.352,466.459c0.027,0.521,0.063,0.99,0.068,1.309
				c0.037,1.877,0.992,3.74,1.272,5.526c0.738,4.793,2.563,9.438,4.042,14.026c0.466,1.438,0.926,2.859,1.429,4.278
				c0.255,0.717,1.684,3.563,0.042,3.569c-1.212,0.008-2.877-5.861-3.288-6.803c-0.885-1.982-1.442-4.103-2.528-6.002
				c-0.573-1.007-0.938-2.061-1.275-3.166c-0.637-2.151-1.839-4.125-2.377-6.314c-0.351-1.442-0.624-3.969-2.715-3.581
				c-3.337,0.621-2.546,4.785-1.771,7.095c0.687,2.067,1.179,4.154,1.815,6.229c0.573,1.854,1.26,3.673,1.899,5.506
				c0.757,2.151,1.078,4.438,1.932,6.563c0.88,2.206,1.953,2.837,1.351,5.227c-2.229-0.697-3.419-5.338-4.166-7.297
				c-0.603-1.575-0.979-3.229-1.631-4.782c-0.845-1.985-1.323-4.188-2.243-6.043c-0.768-1.524-3.003-1.77-3.646-0.021
				c-0.752,2.026,1.065,4.052,1.464,5.979c0.229,1.085,0.479,2.157,0.819,3.188c0.4,1.172,0.5,2.354,0.995,3.485
				c0.575,1.296,1.271,2.563,1.642,3.938c0.996,3.729,2.23,7.438,3.101,11.214c0.585,2.535,1.59,4.941,2.715,7.283
				c1.938,4.037,3.87,7.975,7.285,10.991c0.729,0.65,1.48,0.772,2.379,1.064c0.689,0.221,1.315,0.575,2.028,0.82
				c1.684,0.589,3.55,0.515,5.303,0.575c1.294,0.042,2.388-0.746,3.622-0.989c1.506-0.295,2.501-0.813,3.924-1.474
				c2.386-1.104,5.353-1.271,6.896-3.667c1.045-1.618,1.48-2.685,1.958-4.469c0.604-2.206,1.985-4.271,2.317-6.532
				c0.581-4.021-0.163-7.632,1.55-11.482c0.76-1.716,1.27-3.469,1.37-5.33c0.146-2.573,0.521-5.034,1.055-7.562
				c0.313-1.47,1.303-4.001,0.711-5.479c-0.722-1.823-3.125-0.905-4.372-0.008c-1.932,1.372-2.116,4.09-2.721,6.229
				c-0.904,3.222-1.977,6.499-3.442,9.514c-1.826,3.746-2.535-0.36-3.462-2.365c-0.509-1.104-1.188-2.132-1.839-3.147
				c-1.483-2.329-2.805-4.979-3.644-7.622c-0.846-2.646-1.196-5.567-2.33-8.046c-1.68-3.655-1.477-8.025-2.964-11.813
				c-0.519-1.313-1.658-4.11-3.498-3.79c-2.594,0.461-1.354,4.601-1.079,6.147c0.285,1.6,0.943,3.313,1.149,4.988
				c0.271,2.229,1.073,4.148,1.57,6.313c0.567,2.46,0.728,5.021,1.656,7.39c0.813,2.063,1.05,3.743,0.842,5.938
				c-1.723-1.082-2.299-4.081-3.063-5.803c-0.985-2.188-2.036-4.344-2.879-6.591c-0.772-2.06-1.124-4.229-1.801-6.318
				c-0.627-1.945-0.968-3.783-1.476-5.742c-0.538-2.097-2.327-8.457-5.511-5.409C251.276,463.72,251.287,465.238,251.352,466.459z"
				/>
		</g>
	</g>
</g>
<g id="comedy-club-foreground">
	<circle id="spotlight" opacity="0.3" fill="#F5CC56" enable-background="new    " cx="421.118" cy="553.95" r="308.319"/>
	<g id="microphone-stand">
		<circle fill="#A7A9AC" cx="316.015" cy="459.308" r="16.459"/>
		<path fill="#414042" d="M336.841,1156.237c0-10.563-33.493-19.138-74.814-19.138c-41.32,0-74.818,8.565-74.818,19.138v9.019
			H336.85L336.841,1156.237L336.841,1156.237z"/>
		<rect id="Cord" x="257.604" y="519.837" fill="#414042" width="8.833" height="627.146"/>
		<path fill="#414042" d="M270.555,528.453c0,0.766-0.624,1.372-1.377,1.372h-14.315c-0.762,0-1.368-0.616-1.368-1.372v-27.423
			c0-0.766,0.612-1.377,1.368-1.377h14.314c0.762,0,1.377,0.618,1.377,1.377L270.555,528.453L270.555,528.453z"/>
		<path fill="#414042" d="M270.555,747.242c0,0.766-0.624,1.37-1.377,1.37h-14.315c-0.762,0-1.368-0.617-1.368-1.37V719.82
			c0-0.765,0.612-1.375,1.368-1.375h14.314c0.762,0,1.377,0.618,1.377,1.375L270.555,747.242L270.555,747.242z"/>
		<polygon fill="#414042" points="285.503,493.832 236.176,521.77 226.032,505.985 271.936,472.722 		"/>
		<path fill="#414042" d="M236.656,510.313c3.743,5.832,2.586,9.488-0.479,11.458c-3.063,1.963-6.874,1.502-10.618-4.326
			c-3.749-5.837-2.594-9.487,0.479-11.456C229.098,504.016,232.906,504.482,236.656,510.313z"/>
		
			<ellipse transform="matrix(-0.8412 0.5407 -0.5407 -0.8412 774.3121 739.2238)" fill="#414042" cx="278.616" cy="483.303" rx="6.592" ry="12.545"/>
		<polygon fill="#414042" points="213.403,520.865 300.505,454.699 313.759,475.327 217.396,527.074 		"/>
		<path fill="none" stroke="#414042" stroke-miterlimit="10" d="M215.254,523.74c-23.216,37.851,37.578,76.662,30.306,126.291
			c-11.513,78.561,29.128,128.365,33.158,187.989c2.097,30.981-59.073,100.687-25.233,168.209
			c30.737,155.333,105.441,158.353-226.129,158.353"/>
	</g>
	<g id="stool">
		<rect x="556.421" y="915.17" fill="#552E11" width="198.296" height="19.854"/>
		<rect x="647.324" y="929.661" fill="#552E11" width="16.473" height="235.591"/>
		<polygon fill="#552E11" points="593.219,1165.25 576.75,1165.25 612.039,933.942 628.507,933.942 		"/>
		<polygon fill="#552E11" points="734.378,1165.25 717.906,1165.25 682.615,933.942 699.091,933.942 		"/>
	</g>
	<g id="glass-water">
		<path id="glass" opacity="0.5" fill="#FFFFFF" enable-background="new    " d="M658.698,834.569h-42.854
			c-2.319,0-4.214,1.891-4.205,4.399l6.388,71.996c0,2.313,1.895,4.212,4.212,4.212h30.063c2.317,0,4.212-1.894,4.205-4.025
			l6.399-72.366C662.905,836.454,661.019,834.569,658.698,834.569z"/>
		<path id="water" fill="#52CAF5" d="M657.575,874.865l-3.194,36.099c0,1.142-0.931,2.08-2.08,2.08H622.24
			c-1.142,0-2.081-0.937-2.081-2.08l-3.194-36.099"/>
	</g>
</g>
</svg>
