<?xml version="1.0" encoding="utf-8"?>
<!-- Generator: Adobe Illustrator 16.0.0, SVG Export Plug-In . SVG Version: 6.00 Build 0)  -->
<!DOCTYPE svg PUBLIC "-//W3C//DTD SVG 1.1//EN" "http://www.w3.org/Graphics/SVG/1.1/DTD/svg11.dtd">
<svg version="1.1" id="jack-caricature-and-scenery"
	 xmlns="http://www.w3.org/2000/svg" xmlns:xlink="http://www.w3.org/1999/xlink" x="0px" y="0px"
	 viewBox="49.445 -124.225 742 1030" enable-background="new 49.445 -124.225 742 1030" xml:space="preserve">
	 
		<defs>
	 	<!-- The drop shadow filter for all SVGs on the page -->
        <filter id="dropshadow" height="130%">
            <feGaussianBlur in="SourceAlpha" stdDeviation="0"/> <!-- stdDeviation is how much to blur -->
            <feOffset dx="5" dy="5"/> <!-- how much to offset -->
                    <feComponentTransfer>
                        <feFuncA type="linear" slope="0.25"/>
                    </feComponentTransfer>
            <feMerge> 
                <feMergeNode/> <!-- this contains the offset blurred image -->
                <feMergeNode in="SourceGraphic"/> <!-- this contains the element that the filter is applied to -->
            </feMerge>
        </filter>
		</defs>
	 
	 
	 
<g id="contact-background">
	<g id="phone-booth">
		<rect x="117.551" y="78.891" fill="#72181D" width="322.484" height="682.466"/>
		<path fill="#BC353E" d="M464.654-26.207c-23.215-45.868-96.288-79.358-182.841-79.358c-86.549,0-159.624,33.491-182.835,79.354
			v10.737h365.676V-26.207L464.654-26.207z"/>
		<rect x="103.696" y="-23.169" fill="#BC353E" width="356.231" height="92.944"/>
		<path fill="#FFFFFF" d="M407.308,47.49c0,0.135-1.226,0.244-2.734,0.244H158.947c-1.509,0-2.732-0.108-2.732-0.244V-0.885
			c0-0.135,1.225-0.243,2.732-0.243h245.63c1.508,0,2.734,0.108,2.734,0.243L407.308,47.49L407.308,47.49z"/>
		<path fill="#BC353E" d="M460.514,63.901H102.9c-2.197,0-3.979,1.782-3.979,3.983v787.913c0,2.198,1.782,3.984,3.979,3.984h357.614
			c2.195,0,3.984-1.781,3.984-3.984V67.88C464.493,65.683,462.709,63.901,460.514,63.901z M331.553,119.537h69.075v106.57h-69.075
			V119.537z M331.553,243.395h69.075V349.96h-69.075V243.395z M247.21,119.537h69.077v106.57H247.21V119.537z M247.21,243.395
			h69.077V349.96H247.21V243.395z M162.865,119.537h69.075v106.57h-69.075V119.537z M162.865,243.395h69.075V349.96h-69.075V243.395
			z M162.839,491.107h69.074v106.563h-69.074V491.107z M231.966,721.531h-69.073V614.961h69.073V721.531z M231.993,473.818h-69.076
			V367.248h69.076V473.818L231.993,473.818z M247.185,491.107h69.075v106.563h-69.075V491.107z M316.311,721.531h-69.075V614.961
			h69.075V721.531z M316.337,473.818h-69.075V367.248h69.075V473.818z M331.527,491.107h69.075v106.563h-69.075V491.107z
			 M400.656,721.531h-69.077V614.961h69.077V721.531z M400.68,473.818h-69.075V367.248h69.075V473.818z"/>
		<rect x="94.422" y="852.713" width="374.679" height="39.57"/>
	</g>
	<g id="post-box">
		<rect x="569.664" y="319.515" fill="#BC353E" width="160.152" height="453.841"/>
		<path d="M566.048,891.871V775.377c0-2.487,1.265-4.502,2.825-4.502h161.737c1.56,0,2.82,2.016,2.82,4.502v116.495"/>
		<path fill="#BC353E" d="M748.63,308.073c-12.558-17.042-52.077-29.484-98.888-29.484c-46.814,0-86.333,12.441-98.891,29.483V322.4
			l98.891,35.25l98.888-35.25V308.073L748.63,308.073z"/>
		<rect x="596.922" y="374.313" width="105.64" height="20.087"/>
		<rect x="617.926" y="419.628" fill="#FFFFFF" width="63.633" height="90.68"/>
		<path fill="#BC353E" d="M733.259,345.83c0,1.954-1.586,3.534-3.536,3.534H568.982c-1.952,0-3.531-1.584-3.531-3.534v-0.045
			c0-1.953,1.584-3.536,3.531-3.536h160.739c1.955,0,3.538,1.588,3.538,3.536V345.83L733.259,345.83z"/>
	</g>
</g>
<g id="comedy-club-background">
	<g id="brick-wall">
		<path fill="#AD3D24" d="M227.336,189.585c0,3.656-2.961,6.613-6.612,6.613h-92.521c-3.656,0-6.613-2.956-6.613-6.613v-27.921
			c0-3.65,2.956-6.612,6.613-6.612h92.521c3.65,0,6.612,2.961,6.612,6.612V189.585z"/>
		<path fill="#84271A" d="M336.194,189.585c0,3.656-2.961,6.613-6.613,6.613h-92.521c-3.655,0-6.612-2.956-6.612-6.613v-27.921
			c0-3.65,2.956-6.612,6.612-6.612h92.521c3.651,0,6.613,2.961,6.613,6.612V189.585z"/>
		<path fill="#AD3D24" d="M445.048,189.585c0,3.656-2.96,6.613-6.612,6.613h-92.521c-3.656,0-6.612-2.956-6.612-6.613v-27.921
			c0-3.65,2.955-6.612,6.612-6.612h92.521c3.65,0,6.612,2.961,6.612,6.612V189.585z"/>
		<path fill="#AD3D24" d="M553.905,189.585c0,3.656-2.961,6.613-6.617,6.613h-92.517c-3.655,0-6.612-2.956-6.612-6.613v-27.921
			c0-3.65,2.956-6.612,6.612-6.612h92.517c3.655,0,6.617,2.961,6.617,6.612V189.585L553.905,189.585z"/>
		<path fill="#AD3D24" d="M662.761,189.585c0,3.656-2.961,6.613-6.618,6.613h-92.517c-3.655,0-6.617-2.956-6.617-6.613v-27.921
			c0-3.65,2.961-6.612,6.617-6.612h92.517c3.656,0,6.618,2.961,6.618,6.612V189.585z"/>
		<path fill="#AD3D24" d="M771.616,189.585c0,3.656-2.96,6.613-6.617,6.613h-92.517c-3.656,0-6.613-2.956-6.613-6.613v-27.921
			c0-3.65,2.956-6.612,6.613-6.612h92.517c3.655,0,6.617,2.961,6.617,6.612V189.585z"/>
		<path fill="#AD3D24" d="M174.464,233.127c0,3.656-2.961,6.613-6.612,6.613H75.331c-3.657,0-6.613-2.956-6.613-6.613v-27.919
			c0-3.65,2.955-6.612,6.613-6.612h92.521c3.65,0,6.612,2.961,6.612,6.612V233.127L174.464,233.127z"/>
		<path fill="#AD3D24" d="M283.321,233.127c0,3.656-2.961,6.613-6.612,6.613h-92.522c-3.655,0-6.612-2.956-6.612-6.613v-27.919
			c0-3.65,2.956-6.612,6.612-6.612h92.522c3.65,0,6.612,2.961,6.612,6.612V233.127z"/>
		<path fill="#AD3D24" d="M392.175,233.127c0,3.656-2.96,6.613-6.612,6.613h-92.521c-3.655,0-6.612-2.956-6.612-6.613v-27.919
			c0-3.65,2.956-6.612,6.612-6.612h92.521c3.651,0,6.612,2.961,6.612,6.612V233.127z"/>
		<path fill="#AD3D24" d="M501.031,233.127c0,3.656-2.961,6.613-6.612,6.613h-92.521c-3.657,0-6.614-2.956-6.614-6.613v-27.919
			c0-3.65,2.956-6.612,6.614-6.612h92.521c3.65,0,6.612,2.961,6.612,6.612V233.127z"/>
		<path fill="#AD3D24" d="M609.888,233.127c0,3.656-2.961,6.613-6.618,6.613h-92.517c-3.655,0-6.617-2.956-6.617-6.613v-27.919
			c0-3.65,2.961-6.612,6.617-6.612h92.517c3.656,0,6.618,2.961,6.618,6.612V233.127z"/>
		<path fill="#AD3D24" d="M718.743,233.127c0,3.656-2.959,6.613-6.617,6.613h-92.516c-3.655,0-6.617-2.956-6.617-6.613v-27.919
			c0-3.65,2.96-6.612,6.617-6.612h92.516c3.657,0,6.617,2.961,6.617,6.612V233.127z"/>
		<path fill="#AD3D24" d="M227.336,102.5c0,3.656-2.961,6.613-6.612,6.613h-92.521c-3.656,0-6.613-2.956-6.613-6.613V74.58
			c0-3.651,2.961-6.612,6.613-6.612h92.521c3.65,0,6.612,2.96,6.612,6.612V102.5z"/>
		<path fill="#AD3D24" d="M336.194,102.5c0,3.656-2.961,6.613-6.613,6.613h-92.521c-3.655,0-6.612-2.956-6.612-6.613V74.58
			c0-3.651,2.956-6.612,6.612-6.612h92.521c3.651,0,6.613,2.96,6.613,6.612V102.5z"/>
		<path fill="#AD3D24" d="M445.048,102.5c0,3.656-2.96,6.613-6.612,6.613h-92.521c-3.656,0-6.612-2.956-6.612-6.613V74.58
			c0-3.651,2.955-6.612,6.612-6.612h92.521c3.65,0,6.612,2.96,6.612,6.612V102.5z"/>
		<path fill="#AD3D24" d="M553.905,102.5c0,3.656-2.961,6.613-6.617,6.613h-92.517c-3.655,0-6.612-2.956-6.612-6.613V74.58
			c0-3.651,2.956-6.612,6.612-6.612h92.517c3.655,0,6.617,2.96,6.617,6.612V102.5L553.905,102.5z"/>
		<path fill="#AD3D24" d="M662.761,102.5c0,3.656-2.961,6.613-6.618,6.613h-92.517c-3.655,0-6.617-2.956-6.617-6.613V74.58
			c0-3.651,2.961-6.612,6.617-6.612h92.517c3.656,0,6.618,2.96,6.618,6.612V102.5z"/>
		<path fill="#AD3D24" d="M771.616,102.5c0,3.656-2.96,6.613-6.617,6.613h-92.517c-3.656,0-6.613-2.956-6.613-6.613V74.58
			c0-3.651,2.956-6.612,6.613-6.612h92.517c3.655,0,6.617,2.96,6.617,6.612V102.5z"/>
		<path fill="#AD3D24" d="M174.464,146.042c0,3.656-2.961,6.613-6.612,6.613H75.331c-3.657,0-6.613-2.956-6.613-6.613v-27.919
			c0-3.65,2.96-6.612,6.613-6.612h92.521c3.65,0,6.612,2.961,6.612,6.612V146.042L174.464,146.042z"/>
		<path fill="#AD3D24" d="M283.321,146.042c0,3.656-2.961,6.613-6.612,6.613h-92.522c-3.655,0-6.612-2.956-6.612-6.613v-27.919
			c0-3.65,2.961-6.612,6.612-6.612h92.522c3.65,0,6.612,2.961,6.612,6.612V146.042z"/>
		<path fill="#AD3D24" d="M392.175,146.042c0,3.656-2.96,6.613-6.612,6.613h-92.521c-3.655,0-6.612-2.956-6.612-6.613v-27.919
			c0-3.65,2.956-6.612,6.612-6.612h92.521c3.651,0,6.612,2.961,6.612,6.612V146.042z"/>
		<path fill="#AD3D24" d="M501.031,146.042c0,3.656-2.961,6.613-6.612,6.613h-92.521c-3.657,0-6.614-2.956-6.614-6.613v-27.919
			c0-3.65,2.956-6.612,6.614-6.612h92.521c3.65,0,6.612,2.961,6.612,6.612V146.042z"/>
		<path fill="#84271A" d="M609.888,146.042c0,3.656-2.961,6.613-6.618,6.613h-92.517c-3.655,0-6.617-2.956-6.617-6.613v-27.919
			c0-3.65,2.961-6.612,6.617-6.612h92.517c3.656,0,6.618,2.961,6.618,6.612V146.042z"/>
		<path fill="#AD3D24" d="M718.743,146.042c0,3.656-2.959,6.613-6.617,6.613h-92.516c-3.655,0-6.617-2.956-6.617-6.613v-27.919
			c0-3.65,2.96-6.612,6.617-6.612h92.516c3.657,0,6.617,2.961,6.617,6.612V146.042z"/>
		<path fill="#AD3D24" d="M227.336,276.671c0,3.655-2.961,6.612-6.612,6.612h-92.521c-3.656,0-6.613-2.956-6.613-6.612V248.75
			c0-3.65,2.956-6.612,6.613-6.612h92.521c3.65,0,6.612,2.961,6.612,6.612V276.671z"/>
		<path fill="#AD3D24" d="M336.194,276.671c0,3.655-2.961,6.612-6.613,6.612h-92.521c-3.655,0-6.612-2.956-6.612-6.612V248.75
			c0-3.65,2.956-6.612,6.612-6.612h92.521c3.651,0,6.613,2.961,6.613,6.612V276.671z"/>
		<path fill="#AD3D24" d="M445.048,276.671c0,3.655-2.96,6.612-6.612,6.612h-92.521c-3.656,0-6.612-2.956-6.612-6.612V248.75
			c0-3.65,2.955-6.612,6.612-6.612h92.521c3.65,0,6.612,2.961,6.612,6.612V276.671z"/>
		<path fill="#AD3D24" d="M553.905,276.671c0,3.655-2.961,6.612-6.617,6.612h-92.517c-3.655,0-6.612-2.956-6.612-6.612V248.75
			c0-3.65,2.956-6.612,6.612-6.612h92.517c3.655,0,6.617,2.961,6.617,6.612V276.671L553.905,276.671z"/>
		<path fill="#AD3D24" d="M662.761,276.671c0,3.655-2.961,6.612-6.618,6.612h-92.517c-3.655,0-6.617-2.956-6.617-6.612V248.75
			c0-3.65,2.961-6.612,6.617-6.612h92.517c3.656,0,6.618,2.961,6.618,6.612V276.671z"/>
		<path fill="#84271A" d="M771.616,276.671c0,3.655-2.96,6.612-6.617,6.612h-92.517c-3.656,0-6.613-2.956-6.613-6.612V248.75
			c0-3.65,2.956-6.612,6.613-6.612h92.517c3.655,0,6.617,2.961,6.617,6.612V276.671z"/>
		<path fill="#AD3D24" d="M174.464,320.212c0,3.655-2.961,6.612-6.612,6.612H75.331c-3.657,0-6.613-2.956-6.613-6.612v-27.92
			c0-3.65,2.955-6.612,6.613-6.612h92.521c3.65,0,6.612,2.961,6.612,6.612V320.212L174.464,320.212z"/>
		<path fill="#AD3D24" d="M283.321,320.212c0,3.655-2.961,6.612-6.612,6.612h-92.522c-3.655,0-6.612-2.956-6.612-6.612v-27.92
			c0-3.65,2.956-6.612,6.612-6.612h92.522c3.65,0,6.612,2.961,6.612,6.612V320.212z"/>
		<path fill="#AD3D24" d="M392.175,320.212c0,3.655-2.96,6.612-6.612,6.612h-92.521c-3.655,0-6.612-2.956-6.612-6.612v-27.92
			c0-3.65,2.956-6.612,6.612-6.612h92.521c3.651,0,6.612,2.961,6.612,6.612V320.212z"/>
		<path fill="#AD3D24" d="M501.031,320.212c0,3.655-2.961,6.612-6.612,6.612h-92.521c-3.657,0-6.614-2.956-6.614-6.612v-27.92
			c0-3.65,2.956-6.612,6.614-6.612h92.521c3.65,0,6.612,2.961,6.612,6.612V320.212z"/>
		<path fill="#AD3D24" d="M609.888,320.212c0,3.655-2.961,6.612-6.618,6.612h-92.517c-3.655,0-6.617-2.956-6.617-6.612v-27.92
			c0-3.65,2.961-6.612,6.617-6.612h92.517c3.656,0,6.618,2.961,6.618,6.612V320.212z"/>
		<path fill="#AD3D24" d="M718.743,320.212c0,3.655-2.959,6.612-6.617,6.612h-92.516c-3.655,0-6.617-2.956-6.617-6.612v-27.92
			c0-3.65,2.96-6.612,6.617-6.612h92.516c3.657,0,6.617,2.961,6.617,6.612V320.212z"/>
		<path fill="#AD3D24" d="M227.336,363.753c0,3.657-2.961,6.612-6.612,6.612h-92.521c-3.656,0-6.613-2.954-6.613-6.612v-27.92
			c0-3.65,2.956-6.612,6.613-6.612h92.521c3.65,0,6.612,2.961,6.612,6.612V363.753z"/>
		<path fill="#AD3D24" d="M336.194,363.753c0,3.657-2.961,6.612-6.613,6.612h-92.521c-3.655,0-6.612-2.954-6.612-6.612v-27.92
			c0-3.65,2.956-6.612,6.612-6.612h92.521c3.651,0,6.613,2.961,6.613,6.612V363.753z"/>
		<path fill="#84271A" d="M445.048,363.753c0,3.657-2.96,6.612-6.612,6.612h-92.521c-3.656,0-6.612-2.954-6.612-6.612v-27.92
			c0-3.65,2.955-6.612,6.612-6.612h92.521c3.65,0,6.612,2.961,6.612,6.612V363.753z"/>
		<path fill="#AD3D24" d="M553.905,363.753c0,3.657-2.961,6.612-6.617,6.612h-92.517c-3.655,0-6.612-2.954-6.612-6.612v-27.92
			c0-3.65,2.956-6.612,6.612-6.612h92.517c3.655,0,6.617,2.961,6.617,6.612V363.753L553.905,363.753z"/>
		<path fill="#AD3D24" d="M662.761,363.753c0,3.657-2.961,6.612-6.618,6.612h-92.517c-3.655,0-6.617-2.954-6.617-6.612v-27.92
			c0-3.65,2.961-6.612,6.617-6.612h92.517c3.656,0,6.618,2.961,6.618,6.612V363.753z"/>
		<path fill="#AD3D24" d="M771.616,363.753c0,3.657-2.96,6.612-6.617,6.612h-92.517c-3.656,0-6.613-2.954-6.613-6.612v-27.92
			c0-3.65,2.956-6.612,6.613-6.612h92.517c3.655,0,6.617,2.961,6.617,6.612V363.753z"/>
		<path fill="#AD3D24" d="M174.464,407.296c0,3.656-2.961,6.611-6.612,6.611H75.331c-3.657,0-6.613-2.954-6.613-6.611v-27.92
			c0-3.65,2.955-6.612,6.613-6.612h92.521c3.65,0,6.612,2.961,6.612,6.612V407.296L174.464,407.296z"/>
		<path fill="#AD3D24" d="M283.321,407.296c0,3.656-2.961,6.611-6.612,6.611h-92.522c-3.655,0-6.612-2.954-6.612-6.611v-27.92
			c0-3.65,2.956-6.612,6.612-6.612h92.522c3.65,0,6.612,2.961,6.612,6.612V407.296z"/>
		<path fill="#AD3D24" d="M392.175,407.296c0,3.656-2.96,6.611-6.612,6.611h-92.521c-3.655,0-6.612-2.954-6.612-6.611v-27.92
			c0-3.65,2.956-6.612,6.612-6.612h92.521c3.651,0,6.612,2.961,6.612,6.612V407.296z"/>
		<path fill="#AD3D24" d="M501.031,407.296c0,3.656-2.961,6.611-6.612,6.611h-92.521c-3.657,0-6.614-2.954-6.614-6.611v-27.92
			c0-3.65,2.956-6.612,6.614-6.612h92.521c3.65,0,6.612,2.961,6.612,6.612V407.296z"/>
		<path fill="#AD3D24" d="M609.888,407.296c0,3.656-2.961,6.611-6.618,6.611h-92.517c-3.655,0-6.617-2.954-6.617-6.611v-27.92
			c0-3.65,2.961-6.612,6.617-6.612h92.517c3.656,0,6.618,2.961,6.618,6.612V407.296z"/>
		<path fill="#84271A" d="M718.743,407.296c0,3.656-2.959,6.611-6.617,6.611h-92.516c-3.655,0-6.617-2.954-6.617-6.611v-27.92
			c0-3.65,2.96-6.612,6.617-6.612h92.516c3.657,0,6.617,2.961,6.617,6.612V407.296z"/>
		<path fill="#84271A" d="M227.336,450.838c0,3.657-2.961,6.612-6.612,6.612h-92.521c-3.656,0-6.613-2.954-6.613-6.612v-27.92
			c0-3.65,2.956-6.612,6.613-6.612h92.521c3.65,0,6.612,2.961,6.612,6.612V450.838z"/>
		<path fill="#AD3D24" d="M336.194,450.838c0,3.657-2.961,6.612-6.613,6.612h-92.521c-3.655,0-6.612-2.954-6.612-6.612v-27.92
			c0-3.65,2.956-6.612,6.612-6.612h92.521c3.651,0,6.613,2.961,6.613,6.612V450.838z"/>
		<path fill="#AD3D24" d="M445.048,450.838c0,3.657-2.96,6.612-6.612,6.612h-92.521c-3.656,0-6.612-2.954-6.612-6.612v-27.92
			c0-3.65,2.955-6.612,6.612-6.612h92.521c3.65,0,6.612,2.961,6.612,6.612V450.838z"/>
		<path fill="#AD3D24" d="M553.905,450.838c0,3.657-2.961,6.612-6.617,6.612h-92.517c-3.655,0-6.612-2.954-6.612-6.612v-27.92
			c0-3.65,2.956-6.612,6.612-6.612h92.517c3.655,0,6.617,2.961,6.617,6.612V450.838L553.905,450.838z"/>
		<path fill="#AD3D24" d="M662.761,450.838c0,3.657-2.961,6.612-6.618,6.612h-92.517c-3.655,0-6.617-2.954-6.617-6.612v-27.92
			c0-3.65,2.961-6.612,6.617-6.612h92.517c3.656,0,6.618,2.961,6.618,6.612V450.838z"/>
		<path fill="#AD3D24" d="M771.616,450.838c0,3.657-2.96,6.612-6.617,6.612h-92.517c-3.656,0-6.613-2.954-6.613-6.612v-27.92
			c0-3.65,2.956-6.612,6.613-6.612h92.517c3.655,0,6.617,2.961,6.617,6.612V450.838z"/>
		<path fill="#AD3D24" d="M174.464,494.38c0,3.657-2.961,6.612-6.612,6.612H75.331c-3.657,0-6.613-2.954-6.613-6.612v-27.919
			c0-3.651,2.955-6.612,6.613-6.612h92.521c3.65,0,6.612,2.96,6.612,6.612V494.38L174.464,494.38z"/>
		<path fill="#AD3D24" d="M283.321,494.38c0,3.657-2.961,6.612-6.612,6.612h-92.522c-3.655,0-6.612-2.954-6.612-6.612v-27.919
			c0-3.651,2.956-6.612,6.612-6.612h92.522c3.65,0,6.612,2.96,6.612,6.612V494.38z"/>
		<path fill="#AD3D24" d="M392.175,494.38c0,3.657-2.96,6.612-6.612,6.612h-92.521c-3.655,0-6.612-2.954-6.612-6.612v-27.919
			c0-3.651,2.956-6.612,6.612-6.612h92.521c3.651,0,6.612,2.96,6.612,6.612V494.38z"/>
		<path fill="#AD3D24" d="M501.031,494.38c0,3.657-2.961,6.612-6.612,6.612h-92.521c-3.657,0-6.614-2.954-6.614-6.612v-27.919
			c0-3.651,2.956-6.612,6.614-6.612h92.521c3.65,0,6.612,2.96,6.612,6.612V494.38z"/>
		<path fill="#AD3D24" d="M609.888,494.38c0,3.657-2.961,6.612-6.618,6.612h-92.517c-3.655,0-6.617-2.954-6.617-6.612v-27.919
			c0-3.651,2.961-6.612,6.617-6.612h92.517c3.656,0,6.618,2.96,6.618,6.612V494.38z"/>
		<path fill="#AD3D24" d="M718.743,494.38c0,3.657-2.959,6.612-6.617,6.612h-92.516c-3.655,0-6.617-2.954-6.617-6.612v-27.919
			c0-3.651,2.96-6.612,6.617-6.612h92.516c3.657,0,6.617,2.96,6.617,6.612V494.38z"/>
		<path fill="#AD3D24" d="M227.336,537.923c0,3.657-2.961,6.612-6.612,6.612h-92.521c-3.656,0-6.613-2.954-6.613-6.612v-27.92
			c0-3.65,2.956-6.612,6.613-6.612h92.521c3.65,0,6.612,2.961,6.612,6.612V537.923z"/>
		<path fill="#AD3D24" d="M336.194,537.923c0,3.657-2.961,6.612-6.613,6.612h-92.521c-3.655,0-6.612-2.954-6.612-6.612v-27.92
			c0-3.65,2.956-6.612,6.612-6.612h92.521c3.651,0,6.613,2.961,6.613,6.612V537.923z"/>
		<path fill="#AD3D24" d="M445.048,537.923c0,3.657-2.96,6.612-6.612,6.612h-92.521c-3.656,0-6.612-2.954-6.612-6.612v-27.92
			c0-3.65,2.955-6.612,6.612-6.612h92.521c3.65,0,6.612,2.961,6.612,6.612V537.923z"/>
		<path fill="#84271A" d="M553.905,537.923c0,3.657-2.961,6.612-6.617,6.612h-92.517c-3.655,0-6.612-2.954-6.612-6.612v-27.92
			c0-3.65,2.956-6.612,6.612-6.612h92.517c3.655,0,6.617,2.961,6.617,6.612V537.923L553.905,537.923z"/>
		<path fill="#AD3D24" d="M662.761,537.923c0,3.657-2.961,6.612-6.618,6.612h-92.517c-3.655,0-6.617-2.954-6.617-6.612v-27.92
			c0-3.65,2.961-6.612,6.617-6.612h92.517c3.656,0,6.618,2.961,6.618,6.612V537.923z"/>
		<path fill="#AD3D24" d="M771.616,537.923c0,3.657-2.96,6.612-6.617,6.612h-92.517c-3.656,0-6.613-2.954-6.613-6.612v-27.92
			c0-3.65,2.956-6.612,6.613-6.612h92.517c3.655,0,6.617,2.961,6.617,6.612V537.923z"/>
		<path fill="#AD3D24" d="M174.464,581.465c0,3.657-2.961,6.612-6.612,6.612H75.331c-3.657,0-6.613-2.954-6.613-6.612v-27.918
			c0-3.651,2.955-6.613,6.613-6.613h92.521c3.65,0,6.612,2.96,6.612,6.613V581.465L174.464,581.465z"/>
		<path fill="#AD3D24" d="M283.321,581.465c0,3.657-2.961,6.612-6.612,6.612h-92.522c-3.655,0-6.612-2.954-6.612-6.612v-27.918
			c0-3.651,2.956-6.613,6.612-6.613h92.522c3.65,0,6.612,2.96,6.612,6.613V581.465z"/>
		<path fill="#AD3D24" d="M392.175,581.465c0,3.657-2.96,6.612-6.612,6.612h-92.521c-3.655,0-6.612-2.954-6.612-6.612v-27.918
			c0-3.651,2.956-6.613,6.612-6.613h92.521c3.651,0,6.612,2.96,6.612,6.613V581.465z"/>
		<path fill="#AD3D24" d="M501.031,581.465c0,3.657-2.961,6.612-6.612,6.612h-92.521c-3.657,0-6.614-2.954-6.614-6.612v-27.918
			c0-3.651,2.956-6.613,6.614-6.613h92.521c3.65,0,6.612,2.96,6.612,6.613V581.465z"/>
		<path fill="#AD3D24" d="M609.888,581.465c0,3.657-2.961,6.612-6.618,6.612h-92.517c-3.655,0-6.617-2.954-6.617-6.612v-27.918
			c0-3.651,2.961-6.613,6.617-6.613h92.517c3.656,0,6.618,2.96,6.618,6.613V581.465z"/>
		<path fill="#AD3D24" d="M718.743,581.465c0,3.657-2.959,6.612-6.617,6.612h-92.516c-3.655,0-6.617-2.954-6.617-6.612v-27.918
			c0-3.651,2.96-6.613,6.617-6.613h92.516c3.657,0,6.617,2.96,6.617,6.613V581.465z"/>
		<path fill="#AD3D24" d="M227.336,625.008c0,3.657-2.961,6.612-6.612,6.612h-92.521c-3.656,0-6.613-2.954-6.613-6.612v-27.919
			c0-3.651,2.956-6.613,6.613-6.613h92.521c3.65,0,6.612,2.961,6.612,6.613V625.008z"/>
		<path fill="#AD3D24" d="M336.194,625.008c0,3.657-2.961,6.612-6.613,6.612h-92.521c-3.655,0-6.612-2.954-6.612-6.612v-27.919
			c0-3.651,2.956-6.613,6.612-6.613h92.521c3.651,0,6.613,2.961,6.613,6.613V625.008z"/>
		<path fill="#AD3D24" d="M445.048,625.008c0,3.657-2.96,6.612-6.612,6.612h-92.521c-3.656,0-6.612-2.954-6.612-6.612v-27.919
			c0-3.651,2.955-6.613,6.612-6.613h92.521c3.65,0,6.612,2.961,6.612,6.613V625.008z"/>
		<path fill="#AD3D24" d="M553.905,625.008c0,3.657-2.961,6.612-6.617,6.612h-92.517c-3.655,0-6.612-2.954-6.612-6.612v-27.919
			c0-3.651,2.956-6.613,6.612-6.613h92.517c3.655,0,6.617,2.961,6.617,6.613V625.008L553.905,625.008z"/>
		<path fill="#84271A" d="M662.761,625.008c0,3.657-2.961,6.612-6.618,6.612h-92.517c-3.655,0-6.617-2.954-6.617-6.612v-27.919
			c0-3.651,2.961-6.613,6.617-6.613h92.517c3.656,0,6.618,2.961,6.618,6.613V625.008z"/>
		<path fill="#AD3D24" d="M771.616,625.008c0,3.657-2.96,6.612-6.617,6.612h-92.517c-3.656,0-6.613-2.954-6.613-6.612v-27.919
			c0-3.651,2.956-6.613,6.613-6.613h92.517c3.655,0,6.617,2.961,6.617,6.613V625.008z"/>
		<path fill="#AD3D24" d="M174.464,668.55c0,3.657-2.961,6.614-6.612,6.614H75.331c-3.657,0-6.613-2.956-6.613-6.614v-27.918
			c0-3.652,2.955-6.613,6.613-6.613h92.521c3.65,0,6.612,2.96,6.612,6.613V668.55L174.464,668.55z"/>
		<path fill="#84271A" d="M283.321,668.55c0,3.657-2.961,6.614-6.612,6.614h-92.522c-3.655,0-6.612-2.956-6.612-6.614v-27.918
			c0-3.652,2.956-6.613,6.612-6.613h92.522c3.65,0,6.612,2.96,6.612,6.613V668.55z"/>
		<path fill="#AD3D24" d="M392.175,668.55c0,3.657-2.96,6.614-6.612,6.614h-92.521c-3.655,0-6.612-2.956-6.612-6.614v-27.918
			c0-3.652,2.956-6.613,6.612-6.613h92.521c3.651,0,6.612,2.96,6.612,6.613V668.55z"/>
		<path fill="#AD3D24" d="M501.031,668.55c0,3.657-2.961,6.614-6.612,6.614h-92.521c-3.657,0-6.614-2.956-6.614-6.614v-27.918
			c0-3.652,2.956-6.613,6.614-6.613h92.521c3.65,0,6.612,2.96,6.612,6.613V668.55z"/>
		<path fill="#AD3D24" d="M609.888,668.55c0,3.657-2.961,6.614-6.618,6.614h-92.517c-3.655,0-6.617-2.956-6.617-6.614v-27.918
			c0-3.652,2.961-6.613,6.617-6.613h92.517c3.656,0,6.618,2.96,6.618,6.613V668.55z"/>
		<path fill="#AD3D24" d="M718.743,668.55c0,3.657-2.959,6.614-6.617,6.614h-92.516c-3.655,0-6.617-2.956-6.617-6.614v-27.918
			c0-3.652,2.96-6.613,6.617-6.613h92.516c3.657,0,6.617,2.96,6.617,6.613V668.55z"/>
		<path fill="#AD3D24" d="M227.336,712.092c0,3.656-2.961,6.614-6.612,6.614h-92.521c-3.656,0-6.613-2.956-6.613-6.614v-27.914
			c0-3.656,2.956-6.615,6.613-6.615h92.521c3.65,0,6.612,2.958,6.612,6.615V712.092z"/>
		<path fill="#AD3D24" d="M336.194,712.092c0,3.656-2.961,6.614-6.613,6.614h-92.521c-3.655,0-6.612-2.956-6.612-6.614v-27.914
			c0-3.656,2.956-6.615,6.612-6.615h92.521c3.651,0,6.613,2.958,6.613,6.615V712.092z"/>
		<path fill="#AD3D24" d="M445.048,712.092c0,3.656-2.96,6.614-6.612,6.614h-92.521c-3.656,0-6.612-2.956-6.612-6.614v-27.914
			c0-3.656,2.955-6.615,6.612-6.615h92.521c3.65,0,6.612,2.958,6.612,6.615V712.092z"/>
		<path fill="#AD3D24" d="M553.905,712.092c0,3.656-2.961,6.614-6.617,6.614h-92.517c-3.655,0-6.612-2.956-6.612-6.614v-27.914
			c0-3.656,2.956-6.615,6.612-6.615h92.517c3.655,0,6.617,2.958,6.617,6.615V712.092L553.905,712.092z"/>
		<path fill="#AD3D24" d="M662.761,712.092c0,3.656-2.961,6.614-6.618,6.614h-92.517c-3.655,0-6.617-2.956-6.617-6.614v-27.914
			c0-3.656,2.961-6.615,6.617-6.615h92.517c3.656,0,6.618,2.958,6.618,6.615V712.092z"/>
		<path fill="#AD3D24" d="M771.616,712.092c0,3.656-2.96,6.614-6.617,6.614h-92.517c-3.656,0-6.613-2.956-6.613-6.614v-27.914
			c0-3.656,2.956-6.615,6.613-6.615h92.517c3.655,0,6.617,2.958,6.617,6.615V712.092z"/>
		<path fill="#84271A" d="M174.464,755.634c0,3.658-2.961,6.614-6.612,6.614H75.331c-3.657,0-6.613-2.955-6.613-6.614v-27.913
			c0-3.657,2.955-6.616,6.613-6.616h92.521c3.65,0,6.612,2.959,6.612,6.616V755.634L174.464,755.634z"/>
		<path fill="#AD3D24" d="M283.321,755.634c0,3.658-2.961,6.614-6.612,6.614h-92.522c-3.655,0-6.612-2.955-6.612-6.614v-27.913
			c0-3.657,2.956-6.616,6.612-6.616h92.522c3.65,0,6.612,2.959,6.612,6.616V755.634z"/>
		<path fill="#AD3D24" d="M392.175,755.634c0,3.658-2.96,6.614-6.612,6.614h-92.521c-3.655,0-6.612-2.955-6.612-6.614v-27.913
			c0-3.657,2.956-6.616,6.612-6.616h92.521c3.651,0,6.612,2.959,6.612,6.616V755.634z"/>
		<path fill="#84271A" d="M501.031,755.634c0,3.658-2.961,6.614-6.612,6.614h-92.521c-3.657,0-6.614-2.955-6.614-6.614v-27.913
			c0-3.657,2.956-6.616,6.614-6.616h92.521c3.65,0,6.612,2.959,6.612,6.616V755.634z"/>
		<path fill="#AD3D24" d="M609.888,755.634c0,3.658-2.961,6.614-6.618,6.614h-92.517c-3.655,0-6.617-2.955-6.617-6.614v-27.913
			c0-3.657,2.961-6.616,6.617-6.616h92.517c3.656,0,6.618,2.959,6.618,6.616V755.634z"/>
		<path fill="#AD3D24" d="M718.743,755.634c0,3.658-2.959,6.614-6.617,6.614h-92.516c-3.655,0-6.617-2.955-6.617-6.614v-27.913
			c0-3.657,2.96-6.616,6.617-6.616h92.516c3.657,0,6.617,2.959,6.617,6.616V755.634z"/>
		<path fill="#AD3D24" d="M227.336,799.177c0,3.658-2.961,6.613-6.612,6.613h-92.521c-3.656,0-6.613-2.954-6.613-6.613v-27.914
			c0-3.656,2.956-6.614,6.613-6.614h92.521c3.65,0,6.612,2.957,6.612,6.614V799.177z"/>
		<path fill="#AD3D24" d="M336.194,799.177c0,3.658-2.961,6.613-6.613,6.613h-92.521c-3.655,0-6.612-2.954-6.612-6.613v-27.914
			c0-3.656,2.956-6.614,6.612-6.614h92.521c3.651,0,6.613,2.957,6.613,6.614V799.177z"/>
		<path fill="#AD3D24" d="M445.048,799.177c0,3.658-2.96,6.613-6.612,6.613h-92.521c-3.656,0-6.612-2.954-6.612-6.613v-27.914
			c0-3.656,2.955-6.614,6.612-6.614h92.521c3.65,0,6.612,2.957,6.612,6.614V799.177z"/>
		<path fill="#AD3D24" d="M553.905,799.177c0,3.658-2.961,6.613-6.617,6.613h-92.517c-3.655,0-6.612-2.954-6.612-6.613v-27.914
			c0-3.656,2.956-6.614,6.612-6.614h92.517c3.655,0,6.617,2.957,6.617,6.614V799.177L553.905,799.177z"/>
		<path fill="#AD3D24" d="M662.761,799.177c0,3.658-2.961,6.613-6.618,6.613h-92.517c-3.655,0-6.617-2.954-6.617-6.613v-27.914
			c0-3.656,2.961-6.614,6.617-6.614h92.517c3.656,0,6.618,2.957,6.618,6.614V799.177z"/>
		<path fill="#84271A" d="M771.616,799.177c0,3.658-2.96,6.613-6.617,6.613h-92.517c-3.656,0-6.613-2.954-6.613-6.613v-27.914
			c0-3.656,2.956-6.614,6.613-6.614h92.517c3.655,0,6.617,2.957,6.617,6.614V799.177z"/>
		<path fill="#AD3D24" d="M227.336,886.262c0,3.658-2.961,6.615-6.612,6.615h-92.521c-3.656,0-6.613-2.956-6.613-6.615v-27.914
			c0-3.655,2.956-6.614,6.613-6.614h92.521c3.65,0,6.612,2.958,6.612,6.614V886.262z"/>
		<path fill="#AD3D24" d="M336.194,886.262c0,3.658-2.961,6.615-6.613,6.615h-92.521c-3.655,0-6.612-2.956-6.612-6.615v-27.914
			c0-3.655,2.956-6.614,6.612-6.614h92.521c3.651,0,6.613,2.958,6.613,6.614V886.262z"/>
		<path fill="#AD3D24" d="M445.048,886.262c0,3.658-2.96,6.615-6.612,6.615h-92.521c-3.656,0-6.612-2.956-6.612-6.615v-27.914
			c0-3.655,2.955-6.614,6.612-6.614h92.521c3.65,0,6.612,2.958,6.612,6.614V886.262z"/>
		<path fill="#AD3D24" d="M553.905,886.262c0,3.658-2.961,6.615-6.617,6.615h-92.517c-3.655,0-6.612-2.956-6.612-6.615v-27.914
			c0-3.655,2.956-6.614,6.612-6.614h92.517c3.655,0,6.617,2.958,6.617,6.614V886.262L553.905,886.262z"/>
		<path fill="#AD3D24" d="M662.761,886.262c0,3.658-2.961,6.615-6.618,6.615h-92.517c-3.655,0-6.617-2.956-6.617-6.615v-27.914
			c0-3.655,2.961-6.614,6.617-6.614h92.517c3.656,0,6.618,2.958,6.618,6.614V886.262z"/>
		<path fill="#84271A" d="M771.616,886.262c0,3.658-2.96,6.615-6.617,6.615h-92.517c-3.656,0-6.613-2.956-6.613-6.615v-27.914
			c0-3.655,2.956-6.614,6.613-6.614h92.517c3.655,0,6.617,2.958,6.617,6.614V886.262z"/>
		<path fill="#AD3D24" d="M174.464,842.719c0,3.658-2.961,6.615-6.612,6.615H75.331c-3.657,0-6.613-2.956-6.613-6.615v-27.913
			c0-3.657,2.955-6.614,6.613-6.614h92.521c3.65,0,6.612,2.956,6.612,6.614V842.719L174.464,842.719z"/>
		<path fill="#AD3D24" d="M283.321,842.719c0,3.658-2.961,6.615-6.612,6.615h-92.522c-3.655,0-6.612-2.956-6.612-6.615v-27.913
			c0-3.657,2.956-6.614,6.612-6.614h92.522c3.65,0,6.612,2.956,6.612,6.614V842.719z"/>
		<path fill="#AD3D24" d="M392.175,842.719c0,3.658-2.96,6.615-6.612,6.615h-92.521c-3.655,0-6.612-2.956-6.612-6.615v-27.913
			c0-3.657,2.956-6.614,6.612-6.614h92.521c3.651,0,6.612,2.956,6.612,6.614V842.719z"/>
		<path fill="#AD3D24" d="M501.031,842.719c0,3.658-2.961,6.615-6.612,6.615h-92.521c-3.657,0-6.614-2.956-6.614-6.615v-27.913
			c0-3.657,2.956-6.614,6.614-6.614h92.521c3.65,0,6.612,2.956,6.612,6.614V842.719z"/>
		<path fill="#AD3D24" d="M609.888,842.719c0,3.658-2.961,6.615-6.618,6.615h-92.517c-3.655,0-6.617-2.956-6.617-6.615v-27.913
			c0-3.657,2.961-6.614,6.617-6.614h92.517c3.656,0,6.618,2.956,6.618,6.614V842.719z"/>
		<path fill="#AD3D24" d="M718.743,842.719c0,3.658-2.959,6.615-6.617,6.615h-92.516c-3.655,0-6.617-2.956-6.617-6.615v-27.913
			c0-3.657,2.96-6.614,6.617-6.614h92.516c3.657,0,6.617,2.956,6.617,6.614V842.719z"/>
	</g>
</g>
<g id="media-background">
	<g id="media-tv">
		<path id="media-body" fill="#333333" d="M587.09,367.456c3.76,0,6.81-3.052,6.81-6.808V165.919c0-3.764-3.052-6.812-6.81-6.812
			H264.45c-3.754,0-6.808,3.048-6.808,6.812v194.73c0,3.757,3.053,6.808,6.808,6.808H587.09L587.09,367.456z"/>
		<rect id="media-screen-off" x="266.706" y="168.039" width="318.124" height="178.945"/>
		<path id="media-television-led" fill="#8AA24C" d="M577.177,364.983c-0.743,0-1.347-0.603-1.347-1.346
			c0-0.744,0.604-1.344,1.347-1.344h4.842c0.744,0,1.345,0.601,1.345,1.344c0,0.743-0.601,1.346-1.345,1.346H577.177z"/>
		
			<line id="media-television-decoration" fill="none" stroke="#8D9092" stroke-width="8" stroke-miterlimit="10" x1="257.643" y1="357.214" x2="593.9" y2="357.214"/>
	</g>
	<g id="photo-frame-1">
		<polygon id="photo-frame-1-stand" fill="#6E7172" points="184.608,601.602 206.278,601.602 224.969,662.775 204.303,662.769 		"/>
		<polygon id="photo-frame-1-photo" fill="#FFFFFF" points="201.541,660.602 140.298,660.602 154.732,569.47 215.975,569.47 		"/>
		<path id="photo-frame-1-frame" fill="#0D0C17" d="M209.278,663.102h-71.907l15.226-96.132h66.306l3.875,5.337L209.278,663.102z
			 M143.225,658.102h56.181l13.642-86.132h-56.181L143.225,658.102z"/>
	</g>
	<g id="photo-frame-2">
		<polygon id="photo-frame-1-stand_5_" fill="#6E7172" points="326.62,588.264 353.342,588.264 376.391,663.698 350.906,663.692 		
			"/>
		<polygon id="photo-frame-1-photo_5_" fill="#FFFFFF" points="347.501,661.019 271.981,661.019 289.779,548.642 365.3,548.642 		
			"/>
		<path id="photo-frame-1-frame_5_" fill="#0D0C17" d="M357.041,664.102h-88.67l18.775-118.543h81.764l4.778,6.581L357.041,664.102z
			 M275.59,657.937h69.278l16.823-106.212h-69.279L275.59,657.937z"/>
	</g>
	<g id="photo-frame-3">
		<polygon id="photo-frame-1-stand_2_" fill="#6E7172" points="518.677,609.324 537.624,609.324 553.97,662.816 535.898,662.811 		
			"/>
		<polygon id="photo-frame-1-photo_2_" fill="#FFFFFF" points="533.484,660.915 479.931,660.915 492.552,581.228 546.105,581.228 		
			"/>
		<path id="photo-frame-1-frame_2_" fill="#0D0C17" d="M540.248,663.102H477.37l13.314-84.061h57.979l3.389,4.667L540.248,663.102z
			 M482.49,658.73h49.125l11.93-75.316h-49.127L482.49,658.73z"/>
	</g>
	<g id="photo-frame-4">
		<polygon id="photo-frame-1-stand_1_" fill="#6E7172" points="656.565,595.15 680.507,595.15 701.161,662.74 678.325,662.734 		"/>
		<polygon id="photo-frame-1-photo_1_" fill="#FFFFFF" points="675.274,660.339 607.606,660.339 623.554,559.647 691.222,559.647 		
			"/>
		<path id="photo-frame-1-frame_1_" fill="#0D0C17" d="M683.823,663.102H604.37l16.824-106.218h73.262l4.282,5.897L683.823,663.102z
			 M610.84,657.577h62.074l15.074-95.168h-62.077L610.84,657.577z"/>
	</g>
	<g id="shelf">
		<rect x="114.611" y="662.775" fill="#563007" width="612.452" height="29"/>
		<rect x="180.074" y="685.881" fill="#563007" width="35.901" height="206.402"/>
		<rect x="627.938" y="685.881" fill="#563007" width="35.901" height="206.402"/>
	</g>
	<g id="left-speaker">
		<path id="left-base" fill="#0D1111" d="M208.785,66.603c0,1.902-1.542,3.443-3.443,3.443h-98.177
			c-1.902,0-3.443-1.542-3.443-3.443V-87.016c0-1.901,1.542-3.443,3.443-3.443h98.177c1.901,0,3.443,1.542,3.443,3.443V66.603z"/>
		<circle id="left-ring" fill="#545858" cx="156.254" cy="11.26" r="41.643"/>
		<g id="left-cone">
			<circle fill="#333333" stroke="#231F20" stroke-width="5" stroke-miterlimit="10" cx="156.254" cy="11.26" r="34.166"/>
			<circle fill="#0D1111" cx="156.254" cy="11.26" r="14.991"/>
		</g>
		<g id="left-top">
			<ellipse id="left-ring_5_" fill="#545858" cx="156.254" cy="-61.807" rx="21.696" ry="17.524"/>
			
				<ellipse fill="#333333" stroke="#231F20" stroke-width="5" stroke-miterlimit="10" cx="156.254" cy="-61.807" rx="17.801" ry="13.693"/>
			<circle fill="#0D1111" cx="156.254" cy="-61.807" r="8.712"/>
		</g>
	</g>
	<g id="right-speaker">
		<path id="right-base_1_" fill="#0D1111" d="M737.951,66.603c0,1.902-1.542,3.443-3.442,3.443h-98.178
			c-1.901,0-3.443-1.542-3.443-3.443V-87.016c0-1.901,1.542-3.443,3.443-3.443h98.178c1.9,0,3.442,1.542,3.442,3.443V66.603z"/>
		<circle id="right-ring_1_" fill="#545858" cx="685.42" cy="11.26" r="41.643"/>
		<g id="right-cone">
			<circle fill="#333333" stroke="#231F20" stroke-width="5" stroke-miterlimit="10" cx="685.42" cy="11.26" r="34.166"/>
			<circle fill="#0D1111" cx="685.42" cy="11.26" r="14.991"/>
		</g>
		<g id="right-top">
			<ellipse id="left-ring_1_" fill="#545858" cx="685.42" cy="-61.807" rx="21.696" ry="17.524"/>
			
				<ellipse fill="#333333" stroke="#231F20" stroke-width="5" stroke-miterlimit="10" cx="685.42" cy="-61.807" rx="17.801" ry="13.693"/>
			<circle fill="#0D1111" cx="685.42" cy="-61.807" r="8.712"/>
		</g>
	</g>
</g>
<g id="lab-background">
	<polygon id="table" fill="#6D6E71" points="771.616,508.542 68.718,508.542 68.718,547.712 118.48,547.712 118.48,892.283 
		155.803,892.283 155.803,547.712 684.532,547.712 684.532,892.283 721.854,892.283 721.854,547.712 771.616,547.712 	"/>
	<g id="monitor-group">
		<path id="monitor-body" fill="#58595B" d="M320.384,342.883H107.252c-2.48,0-4.498,2.014-4.498,4.503v125.971
			c0,2.481,2.017,4.498,4.498,4.498h76.945v19.913h-28.776c-2.261,0-4.096,1.332-4.096,2.981v7.765h124.988v-7.765
			c0-1.649-1.839-2.981-4.101-2.981h-28.774v-19.913h76.944c2.482,0,4.499-2.017,4.499-4.498V347.386
			C324.882,344.896,322.867,342.883,320.384,342.883z"/>
		<rect id="monitor-screen-off" x="115.517" y="355.07" fill="#231F20" width="196.604" height="110.591"/>
		<rect id="monitor-screen-on" x="115.517" y="355.07" fill="#FFFFFF" width="196.604" height="110.591"/>
		<circle id="monitor-led" fill="#39B54A" cx="315.514" cy="472.009" r="1.71"/>
	</g>
	<g id="mouse">
		<path id="mouse-wheel" fill="#6D6E71" d="M329.556,498.797c0,0.607-0.486,1.093-1.093,1.093h-1.359
			c-0.604,0-1.087-0.486-1.087-1.093v-4.665c0-0.603,0.486-1.087,1.087-1.087h1.359c0.608,0,1.093,0.487,1.093,1.087V498.797z"/>
		<path id="mouse-body" fill="#58595B" d="M327.786,495.227c-8.802,0-14.531,2.536-15.936,6.613
			c-0.717,2.089-1.285,5.609-1.285,5.609c0,0.604,0.489,1.091,1.094,1.091h32.256c0.603,0,1.092-0.487,1.092-1.091
			c0,0-0.607-3.517-1.284-5.609C342.219,497.237,336.586,495.227,327.786,495.227z"/>
	</g>
	<g id="test-tubes">
		<g id="test-tube-1">
			<path opacity="0.5" fill="#FFFFFF" stroke="#FFFFFF" stroke-width="0.5" stroke-miterlimit="10" enable-background="new    " d="
				M596.182,433.194h-12.109c-0.586,0-1.063,0.475-1.063,1.063v0.407c0,0.587,0.478,1.065,1.063,1.065h0.54v57.876
				c0,3.045,2.476,5.515,5.519,5.515c3.047,0,5.513-2.469,5.513-5.515V435.73h0.542c0.587,0,1.063-0.479,1.063-1.065v-0.407
				C597.239,433.669,596.768,433.194,596.182,433.194z"/>
			<path fill="#00AEEF" d="M595.09,452.713v40.84c0,2.742-2.221,4.961-4.958,4.961c-2.743,0-4.964-2.221-4.964-4.961v-40.84"/>
		</g>
		<g id="test-tube-2">
			<path opacity="0.5" fill="#FFFFFF" stroke="#FFFFFF" stroke-width="0.5" stroke-miterlimit="10" enable-background="new    " d="
				M624.126,433.194h-12.107c-0.589,0-1.064,0.475-1.064,1.063v0.407c0,0.587,0.476,1.065,1.064,1.065h0.545v57.876
				c0,3.045,2.468,5.515,5.514,5.515c3.044,0,5.514-2.469,5.514-5.515V435.73h0.541c0.585,0,1.066-0.479,1.066-1.065v-0.407
				C625.192,433.669,624.709,433.194,624.126,433.194z"/>
			<path fill="#A02B33" d="M623.033,446.095v47.459c0,2.743-2.221,4.961-4.958,4.961c-2.736,0-4.96-2.222-4.96-4.961v-47.459"/>
		</g>
		<g id="test-tube-3">
			<path opacity="0.5" fill="#FFFFFF" stroke="#FFFFFF" stroke-width="0.5" stroke-miterlimit="10" enable-background="new    " d="
				M652.076,433.194h-12.11c-0.586,0-1.068,0.475-1.068,1.063v0.407c0,0.587,0.482,1.065,1.068,1.065h0.542v57.876
				c0,3.045,2.469,5.515,5.513,5.515c3.047,0,5.514-2.469,5.514-5.515V435.73h0.548c0.585,0,1.063-0.479,1.063-1.065v-0.407
				C653.137,433.669,652.66,433.194,652.076,433.194z"/>
			<path fill="#7F3F98" d="M650.981,471.247v22.306c0,2.742-2.223,4.961-4.961,4.961c-2.739,0-4.957-2.221-4.957-4.961v-22.306"/>
		</g>
		<g id="test-tube-4">
			<path opacity="0.5" fill="#FFFFFF" stroke="#FFFFFF" stroke-width="0.5" stroke-miterlimit="10" enable-background="new    " d="
				M680.024,433.194h-12.109c-0.589,0-1.064,0.475-1.064,1.063v0.407c0,0.587,0.476,1.065,1.064,1.065h0.541v57.876
				c0,3.045,2.467,5.515,5.515,5.515c3.046,0,5.517-2.469,5.517-5.515V435.73h0.543c0.584,0,1.061-0.479,1.061-1.065v-0.407
				C681.081,433.669,680.608,433.194,680.024,433.194z"/>
			<path fill="#F9ED32" d="M678.931,453.268v40.281c0,2.744-2.22,4.961-4.961,4.961c-2.742,0-4.96-2.221-4.96-4.961v-40.281"/>
		</g>
		<path id="rack" fill="#A7A9AC" d="M694.64,461.858v-4.545H569.455v4.545h3.128v37.562h-3.128v9.092H694.64v-9.092h-3.132v-37.562
			H694.64z M687.659,499.418H576.437v-37.562h111.223V499.418L687.659,499.418z"/>
	</g>
</g>
<g id="jack-caricature">
	<g id="neck">
		<path id="Coat_Back" fill="#FFFFFF" d="M402.51,290.768c0,0,4.222-1.978,17.981-1.978c14.141,0,18.104,1.978,18.104,1.978
			l5.29,19.794l-46.814,2.915L402.51,290.768z"/>
		<path id="throat" fill="#F4D9C3" d="M403.711,246.804h33.563c0,0-3.376,17.238-3.097,34.635
			c0.123,7.658,0.956,15.351,3.097,21.608c0,0-10.063,20.994-16.781,20.994c-6.716,0-16.781-20.994-16.781-20.994
			C409.92,280.238,403.711,246.803,403.711,246.804z"/>
		<path id="throat-shadow" fill="#DDB690" d="M406.239,269.651c-0.667-12.818-2.527-22.848-2.527-22.848h33.561
			c0,0-4.294,21.931-2.796,41.269"/>
	</g>
	<g id="head">
		<g id="ears">
			<path id="right-ear" fill="#F4D9C3" d="M380.669,195.291c0,0-0.08-0.338-0.228-0.912c-0.897-3.422-4.294-15.283-7.94-14.449
				c-4.265,0.972-5.331,6.998-5.331,9.719c0,2.722,4.438,14.772,4.976,19.439c0.534,4.664,1.595,10.886,3.55,12.441
				c1.958,1.555,4.741,1.752,6.076-0.195C385.637,215.704,380.669,195.291,380.669,195.291z"/>
			<path id="left-ear" fill="#F4D9C3" d="M462.613,195.291c0,0,0.08-0.338,0.227-0.912c0.901-3.422,4.297-15.283,7.942-14.449
				c4.264,0.972,5.332,6.998,5.332,9.719c0,2.722-4.438,14.772-4.974,19.439c-0.535,4.664-1.597,10.886-3.55,12.441
				c-1.96,1.555-4.743,1.752-6.075-0.195C457.644,215.704,462.613,195.291,462.613,195.291z"/>
		</g>
		<path id="face" fill="#F4D9C3" d="M424.725,112.528c-1.091-0.038-2.19,0.046-3.298,0.257c-1.107-0.211-2.205-0.295-3.298-0.257
			c-20.973,0.604-38.881,45.813-39.428,69.657c-0.041,1.8,0.013,3.481,0.171,5.008c1.269,11.929,2.121,37.657,6.632,47.689
			c0.811,1.814,1.929,3.766,3.25,5.776c5.187,8.13,14.979,18.371,16.983,21.112c2.844,3.889,7.641,6.288,15.637,6.288
			c0.021,0,0.033-0.004,0.051-0.004s0.034,0.004,0.052,0.004c7.997,0,12.794-2.399,15.639-6.288
			c2.003-2.739,11.787-12.972,16.975-21.097c1.328-2.015,2.441-3.972,3.263-5.792c4.503-10.025,5.354-35.761,6.627-47.689
			c0.162-1.522,0.219-3.208,0.177-5.008C463.609,158.342,445.705,113.132,424.725,112.528z"/>
		<g id="eyebrows">
			<g id="right-eyebrow">
				<path fill="#A97C50" d="M412.879,177.661c-0.373-0.439-0.763-0.812-1.048-1.041c-1.112-0.876-2.521-1.313-3.908-1.436
					c-2.85-0.25-5.727,0.157-8.555,0.496c-3.097,0.367-6.483,0.205-9.483,1.18c-1.076,0.352-4.992,2.711-4.711,4.143
					c0.293,1.511,5.776-0.435,6.816-0.647c2.992-0.616,6.052-0.629,9.074-0.991c1.875-0.227,3.762-0.362,5.647-0.404
					c1.275-0.024,7.309,3.236,7.367,1.044C414.098,179.326,413.51,178.404,412.879,177.661z"/>
			</g>
			<path id="left-eyebrow" fill="#A97C50" d="M429.46,177.661c0.371-0.439,0.76-0.812,1.046-1.041
				c1.112-0.876,2.522-1.313,3.912-1.436c2.852-0.25,5.725,0.157,8.555,0.496c3.092,0.367,6.485,0.205,9.479,1.18
				c1.079,0.352,4.993,2.711,4.715,4.143c-0.293,1.511-5.777-0.435-6.815-0.647c-2.999-0.616-6.058-0.629-9.072-0.991
				c-1.876-0.227-3.768-0.362-5.653-0.404c-1.27-0.024-7.305,3.236-7.363,1.044C428.24,179.326,428.83,178.404,429.46,177.661z"/>
		</g>
		<path id="hair" fill="#A97C50" d="M379.578,207.16c-1.103-35.002-9.796-25.583-8.268-68.313c0.121-3.39,2.83-4.399,2.625-8.677
			c-0.421-8.864,6.128-11.46,13.01-17.652c10.294-9.26,14.452-10.858,14.452-10.858s11.733-5.993,20.916-4.664
			c9.858,1.427,29.079,3.238,33.727,12.39c2.895,5.695,5.099,5.005,9.302,13.269c2.768,5.442,5.166,9.821,5.457,12.182
			c5.311,43.509-7.647,40.671-7.647,72.758c0,0.604-1.322,0.162-1.413-0.433c-1.523-9.871,5.164-40.056-4.189-47.443
			c-4.848-3.824-5.854-14.195-10.483-15.233c-5.071-1.133-9.745-3.188-17.593-2.65c-8.52,0.584-13.503-0.388-18.83-0.388
			c-4.111,0-11.554,3.038-11.554,3.038s-12.408,4.738-13.09,11.864c-0.789,8.301-6.807,16.068-6.635,19.438
			c0.175,3.37,2.299,24.98,2.068,31.405C381.377,208.784,379.589,207.59,379.578,207.16z"/>
		<g id="Eyes">
			<path id="Left_Pupil" fill="#FFFFFF" d="M411.784,189.544c0.829,1.406-0.283,1.931-1.47,2.236
				c-2.303,0.586-2.948,0.944-7.834,1.089c-6.509,0.193-12.635-0.525-12.635-2.438c0-1.337,6.135-5.929,12.728-5.929
				C408.17,184.504,409.688,185.979,411.784,189.544z"/>
			<path id="Right_Pupil" fill="#FFFFFF" d="M431.351,189.544c-0.825,1.406,0.288,1.931,1.476,2.236
				c2.304,0.586,2.947,0.944,7.832,1.089c6.505,0.193,12.636-0.525,12.636-2.438c0-1.337-6.138-5.929-12.728-5.929
				C434.965,184.504,433.449,185.979,431.351,189.544z"/>
			<g id="Pupils">
				<ellipse cx="401.647" cy="189.025" rx="2.397" ry="2.622"/>
				<ellipse cx="441.489" cy="189.025" rx="2.396" ry="2.622"/>
			</g>
		</g>
		<g id="Glasses">
			<path d="M417.123,185.018c-2.225-2.362-6.284-2.362-10.592-2.362h-20.961c-2.433,0-4.321,0.677-5.611,1.996
				c-0.545,0.556-0.964,1.225-1.282,1.991l-2.235,0.049c-0.565,0.039-0.947,0.939-0.854,1.992l0.558,6.368
				c0.099,1.058,0.629,1.881,1.198,1.838l1.316-0.032l0.206,1.645c1.583,6.537,6.023,6.537,11.177,6.537h15.615
				c8.404,0,10.987-3.919,11.687-7.25l1.145-7.275C418.797,188.122,418.354,186.323,417.123,185.018z M416.012,190.203l-1.133,7.198
				c-0.746,3.574-3.768,5.313-9.234,5.313H390.03c-5.067,0-7.608,0-8.723-4.6l-0.743-5.964c-0.276-2.82,0.143-4.808,1.228-5.927
				c0.81-0.829,2.044-1.238,3.778-1.238h20.961c3.561,0,7.243,0,8.722,1.574C415.99,187.336,416.236,188.533,416.012,190.203z"/>
			<path d="M424.002,190.517l1.143,7.275c0.692,3.337,3.275,7.25,11.689,7.25h15.614c5.147,0,9.593,0,11.172-6.537l0.212-1.643
				l1.315,0.032c0.565,0.044,1.097-0.78,1.193-1.837l0.563-6.369c0.096-1.059-0.292-1.953-0.854-1.992l-2.241-0.048
				c-0.314-0.767-0.737-1.437-1.279-1.992c-1.29-1.323-3.181-1.995-5.607-1.995h-20.969c-4.303,0-8.367,0-10.589,2.362
				C424.125,186.323,423.681,188.122,424.002,190.517z M427.219,186.561c1.476-1.574,5.155-1.574,8.718-1.574h20.965
				c1.725,0,2.962,0.409,3.778,1.238c1.086,1.119,1.499,3.106,1.229,5.927l-0.744,5.964c-1.121,4.6-3.661,4.6-8.719,4.6H436.83
				c-5.468,0-8.488-1.738-9.233-5.313l-1.132-7.198C426.244,188.533,426.489,187.336,427.219,186.561z"/>
			<path fill="none" stroke="#000000" stroke-width="1.25" stroke-miterlimit="10" d="M416.965,191.835c0,0,1.436-2.734,4.404-2.754
				c2.915-0.021,4.402,2.754,4.402,2.754"/>
		</g>
		<g id="Mouth">
			<path id="Teeth" fill="#FFFFFF" d="M403.755,234.346c0.196-0.426,1.105,0.127,1.427,0.147c0.415,0.032,0.821-0.13,1.231-0.147
				c2.3-0.099,4.708,0.433,6.982,0.726c0.681,0.092,1.333,0.188,1.998,0.293c1.006,0.155,2.036,0.262,3.046,0.4
				c2.398,0.331,4.901,0.017,7.333-0.147c0.994-0.066,1.959-0.314,2.932-0.427c0.663-0.074,1.384-0.105,2.038-0.262
				c1.233-0.295,2.431-0.646,3.622-1.069c0.974-0.354,2.173-0.311,3.208-0.422c0.982-0.102,1.971-0.205,2.948-0.31
				c0.249-0.026,1.025,0.035,1.228-0.129c0,0-9.45,7.641-13.445,9.129c-2.868,1.069-8.675,0.885-11.566-0.091
				c-2.448-0.824-4.893-1.271-7.085-2.823c-1.294-0.916-2.884-1.374-4.11-2.329c-0.586-0.459-1.839-1.463-1.822-2.306
				C403.713,234.479,403.728,234.403,403.755,234.346z"/>
			<path id="Bottom_Lip" fill="#BC7362" d="M403.826,236.321c0.876,0.938,2.008,1.544,3.006,2.334c0.989,0.777,2,1.273,3.046,1.977
				c0.71,0.474,1.394,1.021,2.129,1.464c0.995,0.605,1.933,1.328,3.077,1.608c0.634,0.159,1.275,0.307,1.912,0.442
				c3.256,0.695,6.429-0.104,9.702-0.099c2.164,0.005,3.572-0.75,5.29-2.024c1.219-0.904,2.6-1.561,3.803-2.491
				c1.383-1.069,2.673-2.256,3.882-3.525c0.609-0.64,1.396-1.198,1.877-1.949c0.161-0.258,1.104-1.158,0.863-1.315
				c-0.208-0.132-0.719,0.173-0.92,0.244c-0.39,0.139-0.818,0.128-1.202,0.258c-0.354,0.118-0.609,0.376-0.916,0.615
				c-0.721,0.552-1.455,1.1-2.171,1.653c-1.349,1.036-2.811,1.911-4.179,2.916c-1.152,0.846-2.521,1.588-3.827,2.155
				c-1.483,0.646-3.391,0.777-4.982,0.826c-2.022,0.06-4.053,0.148-6.063-0.143c-2.605-0.379-5.152-1.189-7.537-2.311
				c-1.126-0.527-1.9-1.112-2.877-1.813c-0.725-0.518-1.559-0.835-2.309-1.304c-0.387-0.242-0.676-0.569-1.03-0.841
				c-0.291-0.224-0.633-0.324-0.972-0.486c-0.32-0.161-0.551-0.495-0.895-0.589C402.355,234.803,403.291,235.751,403.826,236.321z"
				/>
			<path id="Top_Lip_1_" fill="#CE9975" d="M442.501,232.672c-0.633-0.181-1.429,0.035-2.062,0.166
				c-0.628,0.129-1.223,0.337-1.869,0.352c-1.881,0.046-3.731,0.162-5.604,0.389c-0.811,0.098-1.63,0.135-2.429,0.323
				c-1.272,0.298-2.515,0.532-3.81,0.743c-0.826,0.129-1.654,0.229-2.484,0.338c-2.932,0.359-5.529,0.195-8.406-0.241
				c-2.513-0.384-5.049-0.601-7.589-0.671c-1.482-0.04-2.941-0.076-4.414-0.06c-0.446,0.005-0.887-0.234-1.324-0.034
				c-0.227,0.105,1.405,0.773,1.469,0.803c0.076,0.031,0.146,0.058,0.214,0.086c0.6,0.235,1.015,0.351,1.725,0.368
				c0.997,0.024,1.966,0.315,2.941,0.357c0.638,0.033,1.246,0.146,1.875,0.173c0.872,0.032,1.798,0.185,2.688,0.255
				c0.838,0.065,1.589,0.347,2.432,0.425c1.873,0.182,3.757,0.043,5.634,0.046c2.767,0.004,5.571-0.013,8.278-0.669
				c1.058-0.257,2.087-0.616,3.14-0.883c1.05-0.269,2.005-0.306,3.077-0.323c0.709-0.013,1.394-0.185,2.105-0.255
				c0.912-0.089,1.799-0.421,2.625-0.82c0.395-0.194,0.688-0.334,1.112-0.423C442.133,233.052,442.423,233.09,442.501,232.672z"/>
		</g>
		<path id="nose_1_" fill="#DDB690" d="M413.047,212.002c-2.128,2.252-3.368,6.971-1.184,9.658c1.07,1.322,2.171,1.652,3.805,1.93
			c2.342,0.406,3.791,2.509,6.371,2.813c1.652,0.194,3.282-0.575,4.444-1.694c1.786-1.717,3.995-1.827,5.484-3.819
			c1.25-1.669,1.179-3.889,0.48-5.779c-0.498-1.355-1.37-3.697-3.022-3.836c-0.114,0.8,0.793,2.081,1.006,2.969
			c0.247,1.008,0.379,2.07,0.421,3.112c0.071,1.894-1.411,2.832-2.998,3.4c-1.711,0.615-2.469,2.474-4.118,3.221
			c-1.781,0.806-3.6,0.169-5.07-1.016c-1.448-1.164-2.98-1.977-4.704-2.754c-2.486-1.121-1.908-3.5-0.843-5.497
			C413.44,214.105,414.637,210.32,413.047,212.002z"/>
	</g>
	<g id="Trousers">
		<path id="Crotch" fill="#2F4550" d="M375.847,513.501c-0.54,0,89.678,0,89.678,0v29.547c0,0-23.527,20.993-44.418,20.993
			c-25.976,0-45.26-20.993-45.26-20.993v-9.329V513.501L375.847,513.501z"/>
		<g id="Left_Leg">
			<g id="Upper_Leg">
				<circle fill="#2F4550" cx="398.043" cy="552.368" r="17.881"/>
				<path fill="#2F4550" d="M413.873,697.893c-0.309,8.867-7.75,15.807-16.621,15.496c-8.868-0.306-15.808-7.746-15.497-16.619
					c0.226-6.466-1.588-145.032-1.588-145.032c2.044-14.653,15.471,0.546,17.871,0.623c2.297,0.081,15.902-13.071,17.873,0.625
					C415.914,552.993,414.104,691.317,413.873,697.893z"/>
			</g>
			<g id="Lower_Leg">
				<path id="left-shin" fill="#2F4550" d="M382.199,696.111c0.31-8.866,7.746-15.808,16.622-15.498
					c8.866,0.307,15.806,7.747,15.496,16.62c-0.226,6.466,2.648,161.502,2.648,161.502c-2.042,14.655-8.197,2.604-18.922,3.109
					c-10.779,0.504-10.889,7.477-12.862-6.221C385.178,855.619,381.972,702.687,382.199,696.111z"/>
				<path id="left-shoe" d="M369.106,892.283c-5.339-13.424,0.607-18.634,3.646-25.488c2.581-5.811,1.665-3.217,8.092-8.54
					c12.536-5.442,15.968-4.183,31.474,0.583c4.939,3.111,4.688,4.943,6.578,12.995c0.648,2.753,4.098,8.637,0,20.446
					L369.106,892.283L369.106,892.283z"/>
			</g>
		</g>
		<g id="Right_Leg">
			<g id="Upper_Leg_1_">
				<circle fill="#2F4550" cx="442.976" cy="552.368" r="17.883"/>
				<path fill="#2F4550" d="M427.143,697.893c0.31,8.867,7.751,15.807,16.621,15.496c8.866-0.306,15.806-7.746,15.497-16.619
					c-0.226-6.466,1.587-145.032,1.587-145.032c-2.043-14.653-15.469,0.546-17.871,0.623c-2.297,0.081-15.902-13.071-17.871,0.625
					C425.102,552.993,426.913,691.317,427.143,697.893z"/>
			</g>
			<g id="Lower_Leg_1_">
				<path id="Lower_Right_Leg" fill="#2F4550" d="M458.818,696.111c-0.31-8.866-7.746-15.808-16.62-15.498
					c-8.866,0.307-15.807,7.747-15.497,16.62c0.227,6.466-0.055,160.726-0.055,160.726c2.042,14.653,5.604,3.38,16.328,3.886
					c10.782,0.504,12.539,8.254,14.515-5.442C457.489,856.398,459.047,702.687,458.818,696.111z"/>
				<path id="right-shoe" d="M425.064,892.283c-3.431-11.814-0.646-17.697,0-20.446c1.898-8.056,1.647-9.885,6.581-12.995
					c15.508-4.766,18.939-6.025,31.474-0.583c6.428,5.323,5.511,2.729,8.092,8.54c3.034,6.851,8.978,12.064,3.645,25.488
					L425.064,892.283L425.064,892.283z"/>
			</g>
		</g>
	</g>
	<g id="Shirt">
		<path id="shirt" fill="#A02B33" d="M406.025,292.678c0,0,2.542,12.308,14.471,12.312c12.505,0.003,14.825-12.312,14.825-12.312
			s24.719,12.44,32.755,32.656V521.53c0,0-14.784,6.226-46.709,6.226c-27.117,0-46.165-6.226-46.165-6.226
			s-6.407-192.928-5.137-195.168C383.242,303.176,406.025,292.678,406.025,292.678z"/>
	</g>
	<g id="Coat">
		<path fill="#FFFFFF" d="M402.51,290.768c0.685-0.293,8.461,79.924,8.461,79.924l-4.8,314.95
			c-24.429,1.415-36.332-10.075-36.332-10.075s1.446-185.016,0.062-227.77c-0.966-29.773-6.495-119.093-6.495-119.093
			S361.852,308.229,402.51,290.768z"/>
		<path fill="#FFFFFF" d="M438.595,290.768c-0.681-0.293-8.457,79.924-8.457,79.924l4.55,315.071
			c24.159,1.406,36.463-10.202,36.463-10.202s-1.327-185.015,0.055-227.77c0.964-29.773,6.498-119.093,6.498-119.093
			S479.252,308.229,438.595,290.768z"/>
	</g>
	<g id="Right_Arm">
		<g id="Lower_Arm">
			<g id="right-hand-relaxed">
				<path fill="#F4D9C3" d="M483.747,615.054c1.835-0.603,3.579-1.498,5.15-2.697c2.857-2.182,6.999-2.817,7.986-6.375
					c1.033-3.722,0.802-7.688,0.802-11.508c0-4.451,0.367-8.83,0.367-13.301c0-2.355-0.431-4.681-0.678-7.017
					c-0.125-1.182-0.24-2.372-0.224-3.562c0.025-1.919,0.795-7.977-1.707-8.69c-2.341-0.667-4.794-1.375-7.371-1.253
					c-2.999,0.142-6.675-0.159-9.323,1.222c-3.691,1.925-0.417,7.717-2.439,10.64c-0.913,1.32-2.438,2.059-3.419,3.378
					c-1.441,1.938-3.629,4.749-4.039,7.182c-0.449,2.671-0.726,5.675-1.639,8.353c-0.436,1.279-1.192,2.36-1.624,3.62
					c-0.523,1.521-0.402,3.194-0.859,4.736c-0.554,1.867-2.229,5.727-0.039,7.125c0.935,0.597,2.359,0.229,3.281-0.207
					c2.008-0.95,2.546-4.459,2.765-6.442c0.257-2.331,0.949-4.839,2.218-6.938c0.423-0.698,1.5-2.771,2.461-2.505
					c0.843,0.234,0.768,2.955,0.915,3.64c0.246,1.155,0.67,2.274,1.071,3.382c1.106,3.066,3.774,10.155-1.605,10.655
					c-2.073,0.192-3.773-0.699-5.739-0.919c-1.623-0.182-3.4-0.271-4.512,0.741c-2.306,2.101-0.888,3.099,1.105,4.402
					C471.675,616.002,478.139,616.894,483.747,615.054z"/>
			</g>
			<path id="Right_Lower_Sleeve" fill="#FFFFFF" d="M475.879,565.201c0.015-3.497,1.384-113.966,1.384-113.966
				c2.948-5.665,16.205-0.849,18.833-0.988c0,0,1.94,107.66,1.957,113.792c0.006,3.563-8.188,4.18-11.179,4.379
				C484.019,568.613,475.864,569.11,475.879,565.201z"/>
			<circle id="Right_Lower_Elbow" fill="#FFFFFF" cx="486.874" cy="450.743" r="9.429"/>
		</g>
		<g id="Right_Upper_Arm">
			<path id="Right_Upper_Sleeve" fill="#FFFFFF" d="M477.769,325.318c0.728,3.422,18.155,123.468,18.155,123.468
				c-2.029,6.056-15.873,3.372-18.448,3.919c0,0-20.148-116.775-21.419-122.771c-1.274-5.994,2.553-11.89,8.545-13.168
				C470.6,315.49,476.496,319.32,477.769,325.318z"/>
			<circle id="Right_Upper_Elbow" fill="#FFFFFF" cx="486.504" cy="450.746" r="9.429"/>
		</g>
	</g>
	<g id="Left_Arm">
		<path fill="#FFFFFF" d="M386.878,326.463c-1.095,3.322-39.876,118.252-39.876,118.252c-4.563,4.476-15.674-4.2-18.223-4.887
			c0,0,34.761-113.282,36.646-119.118c1.094-3.391,9.072-1.442,11.983-0.712C380.192,320.701,388.1,322.752,386.878,326.463z"/>
		<circle fill="#FFFFFF" cx="337.706" cy="442.214" r="9.429"/>
		<path fill="#FFFFFF" d="M303.941,334.434c1.09,3.322,42.429,104.262,42.429,104.262c-0.502,6.368-14.584,7.114-16.949,8.262
			c0,0-43.997-96.834-45.435-102.796c-0.823-3.409,1.6-8.107,7.108-10.797C296.607,330.684,302.758,330.823,303.941,334.434z"/>
		<circle fill="#FFFFFF" cx="337.706" cy="442.875" r="9.432"/>
		<path id="left-wrist" fill="#F4D9C3" d="M291.351,313.079c1.396,4.273,3.359,8.429,5.048,12.599
			c1.006,2.489,4.945,8.839,4.136,11.28c-0.853,2.588-6.298,4.092-8.568,4.577c-5.04,1.089-5.483-0.747-7.384-5.063
			c-2.34-5.319-5.64-10.984-7.009-16.677c-0.568-2.357,1.104-5.6,4.907-7.452C286.289,310.492,290.533,310.589,291.351,313.079z"/>
		<g id="left-palm-open">
			<path fill="#F4D9C3" d="M272.356,276.994c0.024,0.463,0.055,0.876,0.06,1.153c0.033,1.655,0.875,3.297,1.125,4.871
				c0.651,4.224,2.255,8.32,3.563,12.366c0.407,1.265,0.812,2.52,1.255,3.77c0.225,0.632,1.484,3.142,0.037,3.146
				c-1.068,0.007-2.535-5.166-2.898-5.992c-0.779-1.751-1.271-3.616-2.228-5.29c-0.505-0.887-0.828-1.816-1.124-2.79
				c-0.561-1.9-1.621-3.636-2.095-5.569c-0.309-1.271-0.55-3.497-2.393-3.156c-2.941,0.547-2.244,4.217-1.564,6.253
				c0.605,1.822,1.039,3.661,1.604,5.489c0.505,1.635,1.107,3.237,1.674,4.852c0.667,1.9,0.95,3.913,1.702,5.786
				c0.776,1.944,1.722,2.5,1.187,4.603c-1.962-0.615-3.013-4.704-3.671-6.43c-0.528-1.39-0.86-2.848-1.438-4.216
				c-0.741-1.75-1.166-3.688-1.977-5.326c-0.673-1.344-2.647-1.556-3.211-0.019c-0.663,1.786,0.939,3.571,1.29,5.268
				c0.199,0.956,0.422,1.903,0.722,2.813c0.353,1.033,0.441,2.074,0.877,3.072c0.507,1.142,1.122,2.262,1.447,3.473
				c0.878,3.282,1.966,6.554,2.729,9.881c0.516,2.236,1.402,4.357,2.393,6.421c1.712,3.558,3.411,7.025,6.421,9.687
				c0.646,0.573,1.308,0.681,2.097,0.938c0.611,0.195,1.162,0.509,1.79,0.727c1.481,0.517,3.126,0.45,4.671,0.507
				c1.14,0.037,2.104-0.658,3.192-0.873c1.327-0.259,2.204-0.717,3.458-1.298c2.103-0.973,4.718-1.123,6.081-3.232
				c0.92-1.426,1.305-2.365,1.726-3.938c0.531-1.945,1.75-3.762,2.042-5.758c0.512-3.542-0.143-6.726,1.366-10.122
				c0.67-1.51,1.116-3.055,1.208-4.698c0.127-2.269,0.458-4.438,0.929-6.662c0.275-1.295,1.145-3.526,0.627-4.828
				c-0.636-1.608-2.754-0.799-3.854-0.006c-1.702,1.211-1.868,3.604-2.397,5.489c-0.798,2.84-1.742,5.728-3.037,8.385
				c-1.61,3.302-2.235-0.321-3.049-2.086c-0.448-0.972-1.046-1.877-1.62-2.776c-1.311-2.053-2.472-4.388-3.211-6.718
				c-0.746-2.334-1.055-4.906-2.054-7.091c-1.48-3.221-1.301-7.073-2.612-10.412c-0.454-1.158-1.462-3.624-3.083-3.34
				c-2.286,0.405-1.194,4.053-0.951,5.42c0.251,1.409,0.831,2.919,1.013,4.396c0.241,1.965,0.949,3.66,1.387,5.565
				c0.5,2.168,0.638,4.422,1.46,6.51c0.717,1.819,0.925,3.301,0.742,5.233c-1.518-0.954-2.026-3.597-2.702-5.114
				c-0.868-1.929-1.794-3.828-2.537-5.808c-0.681-1.813-0.991-3.727-1.585-5.57c-0.551-1.714-0.852-3.334-1.299-5.061
				c-0.475-1.848-2.051-7.453-4.857-4.767C272.289,274.58,272.299,275.917,272.356,276.994z"/>
		</g>
	</g>
</g>
<g id="comedy-club-foreground">
	<circle id="spotlight" opacity="0.3" fill="#F5CC56" enable-background="new    " cx="421.983" cy="354.104" r="271.737"/>
	<g id="microphone-stand">
		<circle fill="#A7A9AC" cx="329.347" cy="270.691" r="14.506"/>
		<path fill="#414042" d="M347.702,884.93c0-9.313-29.519-16.867-65.938-16.867c-36.421,0-65.945,7.549-65.945,16.867v7.945h131.888
			L347.702,884.93L347.702,884.93z"/>
		<rect id="Cord" x="277.866" y="324.039" fill="#414042" width="7.785" height="552.735"/>
		<path fill="#414042" d="M289.281,331.636c0,0.671-0.55,1.209-1.214,1.209H275.45c-0.671,0-1.209-0.546-1.209-1.209v-24.169
			c0-0.675,0.543-1.214,1.209-1.214h12.616c0.672,0,1.214,0.545,1.214,1.214V331.636z"/>
		<path fill="#414042" d="M289.281,524.466c0,0.671-0.55,1.208-1.214,1.208H275.45c-0.671,0-1.209-0.544-1.209-1.208v-24.17
			c0-0.674,0.543-1.212,1.209-1.212h12.616c0.672,0,1.214,0.545,1.214,1.212V524.466z"/>
		<polygon fill="#414042" points="302.455,301.119 258.981,325.742 250.041,311.83 290.498,282.514 		"/>
		<path fill="#414042" d="M259.403,315.644c3.303,5.14,2.279,8.363-0.422,10.099c-2.7,1.73-6.059,1.324-9.359-3.813
			c-3.304-5.144-2.286-8.362,0.42-10.097C252.742,310.095,256.099,310.505,259.403,315.644z"/>
		
			<ellipse transform="matrix(-0.5407 -0.8412 0.8412 -0.5407 211.1755 698.9326)" fill="#414042" cx="296.389" cy="291.818" rx="11.057" ry="5.81"/>
		<polygon fill="#414042" points="238.909,324.945 315.677,266.633 327.359,284.813 242.429,330.421 		"/>
		<path fill="none" stroke="#414042" stroke-miterlimit="10" d="M240.541,327.482c-20.461,33.357,33.12,67.567,26.71,111.307
			c-10.147,69.236,25.672,113.135,29.224,165.685c1.848,27.305-52.064,88.737-22.239,148.251
			c27.09,136.903,92.931,139.56-199.299,139.56"/>
	</g>
	<g id="stool">
		<rect x="541.229" y="672.466" fill="#552E11" width="174.768" height="17.501"/>
		<rect x="621.35" y="685.241" fill="#552E11" width="14.515" height="207.636"/>
		<polygon fill="#552E11" points="573.661,892.875 559.147,892.875 590.248,689.01 604.762,689.01 		"/>
		<polygon fill="#552E11" points="698.072,892.875 683.554,892.875 652.451,689.01 666.971,689.01 		"/>
	</g>
	<g id="glass-water">
		<path id="glass" opacity="0.5" fill="#FFFFFF" enable-background="new    " d="M631.371,601.428h-37.769
			c-2.044,0-3.714,1.665-3.706,3.877l5.63,63.454c0,2.042,1.666,3.712,3.712,3.712h26.495c2.046,0,3.712-1.665,3.706-3.548
			l5.644-63.78C635.078,603.093,633.416,601.428,631.371,601.428z"/>
		<path id="water" fill="#52CAF5" d="M630.385,636.947l-2.819,31.812c0,1.006-0.817,1.833-1.833,1.833h-26.495
			c-1.006,0-1.834-0.822-1.834-1.833l-2.819-31.812"/>
	</g>
</g>
</svg>
