<?xml version="1.0" encoding="utf-8"?>
<!-- Generator: Adobe Illustrator 16.0.0, SVG Export Plug-In . SVG Version: 6.00 Build 0)  -->
<!DOCTYPE svg PUBLIC "-//W3C//DTD SVG 1.1//EN" "http://www.w3.org/Graphics/SVG/1.1/DTD/svg11.dtd">
<svg version="1.1" id="tv-remote" class="svg-class" xmlns="http://www.w3.org/2000/svg" xmlns:xlink="http://www.w3.org/1999/xlink" x="0px" y="0px"
	 viewBox="245.445 0 354 1190.549" enable-background="new 245.445 0 354 1190.549"
	 xml:space="preserve">
<path id="remote-base" fill="#333333" d="M586.421,1162.082c0,8.764-7.104,15.868-15.869,15.868H274.81
	c-8.765,0-15.868-7.104-15.868-15.868V31.313c0-8.765,7.104-15.869,15.868-15.869h295.74c8.765,0,15.869,7.104,15.869,15.869
	v1130.77H586.421L586.421,1162.082z"/>
<g id="remote-power-button">
	<circle id="remote-power-button-base" fill="#A02B33" cx="527" cy="75.889" r="24.88"/>
	<path fill="#FFFFFF" d="M531.393,59.768c6.929,1.926,12.028,8.291,12.028,15.824c0,9.055-7.365,16.42-16.42,16.42
		s-16.419-7.365-16.419-16.42c0-7.535,5.1-13.899,12.029-15.824v3.516c-5.053,1.806-8.679,6.643-8.679,12.31
		c0,7.207,5.861,13.068,13.068,13.068c7.206,0,13.066-5.861,13.066-13.068c0-5.667-3.626-10.504-8.679-12.31L531.393,59.768z"/>
	<path fill="#FFFFFF" d="M528.709,74.18c0,0.944-0.767,1.709-1.709,1.709l0,0c-0.944,0-1.711-0.765-1.711-1.709V59.009
		c0-0.942,0.767-1.708,1.711-1.708l0,0c0.942,0,1.709,0.766,1.709,1.708V74.18z"/>
</g>
<g id="remote-mute-button">
	<path fill="#58595B" d="M462.987,533.718c0,2.523-2.046,4.568-4.57,4.568h-71.471c-2.523,0-4.568-2.047-4.568-4.568V492.7
		c0-2.523,2.045-4.569,4.568-4.569h71.469c2.524,0,4.57,2.046,4.57,4.569v41.018H462.987z"/>
	<g id="mute-icon">
		<path fill="#FFFFFF" d="M432.819,492.89c-0.864-0.5-2.027-0.427-3.116,0.197c-1.064,0.61-2.132,1.217-3.194,1.822
			c-3.281,1.865-6.674,3.793-9.941,5.83l-0.297,0.183c-0.721,0.439-1.678,1.024-2.273,1.862H407c-1.788,0-3.243,1.455-3.243,3.243
			v14.364c0,1.788,1.455,3.243,3.243,3.243h6.994c0.597,0.837,1.553,1.423,2.273,1.862l0.297,0.183
			c3.268,2.037,6.66,3.965,9.941,5.83c1.063,0.605,2.13,1.211,3.194,1.822c0.609,0.35,1.241,0.526,1.833,0.526
			c0.465,0,0.903-0.108,1.283-0.33c0.738-0.427,1.146-1.198,1.146-2.17v-11.882v-12.533V495.06
			C433.963,494.089,433.557,493.318,432.819,492.89z M405.496,520.391v-14.364c0-0.829,0.676-1.503,1.504-1.503h6.438v2.419v12.533
			v2.419H407C406.172,521.895,405.496,521.22,405.496,520.391z M432.223,506.943v12.533v11.882c0,0.335-0.092,0.56-0.276,0.665
			c-0.254,0.148-0.78,0.144-1.379-0.201c-1.065-0.611-2.135-1.219-3.201-1.826c-3.267-1.855-6.643-3.775-9.881-5.794
			c-0.1-0.062-0.204-0.125-0.312-0.19c-0.89-0.542-1.996-1.217-1.996-2.046v-2.49v-12.533v-2.49c0-0.828,1.106-1.503,1.996-2.046
			c0.107-0.064,0.212-0.129,0.312-0.19c3.238-2.019,6.614-3.938,9.881-5.794c1.066-0.606,2.136-1.214,3.201-1.826
			c0.599-0.343,1.125-0.349,1.379-0.2c0.186,0.106,0.276,0.33,0.276,0.665V506.943z"/>
		<polygon fill="#58595B" points="445.125,527.373 430.96,513.209 445.125,499.044 442.664,496.584 428.5,510.748 414.335,496.584 
			411.875,499.044 426.039,513.209 411.875,527.373 414.335,529.834 428.5,515.67 442.664,529.834 		"/>
		<polygon fill="#FFFFFF" points="444.51,527.99 429.73,513.209 444.51,498.429 443.28,497.198 428.5,511.979 413.72,497.198 
			412.49,498.429 427.271,513.209 412.49,527.99 413.72,529.219 428.5,514.439 443.28,529.219 		"/>
	</g>
</g>
<g id="volume-up-down-buttons">
	<path id="volume-button-base" fill="#58595B" d="M367.688,589.698c0,2.525-2.047,4.57-4.57,4.57h-71.47
		c-2.523,0-4.569-2.047-4.569-4.57V436.719c0-2.524,2.046-4.569,4.569-4.569h71.469c2.524,0,4.569,2.045,4.569,4.569v152.979
		H367.688z"/>
	<g id="remote-volume-down-button">
		<path fill="#58595B" d="M367.688,589.698c0,2.525-2.047,4.57-4.57,4.57h-71.47c-2.523,0-4.569-2.047-4.569-4.57v-69.007
			c0-2.523,2.046-4.57,4.569-4.57h71.469c2.524,0,4.569,2.047,4.569,4.57v69.007H367.688z"/>
		
			<line fill="none" stroke="#FFFFFF" stroke-width="5" stroke-miterlimit="10" x1="306.856" y1="562.308" x2="347.908" y2="562.308"/>
	</g>
	<g id="remote-volume-up-button">
		<path fill="#58595B" d="M367.688,509.459c0,2.523-2.047,4.568-4.57,4.568h-71.47c-2.523,0-4.569-2.047-4.569-4.568v-72.74
			c0-2.524,2.046-4.569,4.569-4.569h71.469c2.524,0,4.569,2.045,4.569,4.569v72.74H367.688z"/>
		
			<line fill="none" stroke="#FFFFFF" stroke-width="5" stroke-miterlimit="10" x1="306.856" y1="465.584" x2="347.908" y2="465.584"/>
		
			<line fill="none" stroke="#FFFFFF" stroke-width="5" stroke-miterlimit="10" x1="327.383" y1="486.111" x2="327.383" y2="445.055"/>
	</g>
	<polygon id="volume-icon_1_" fill="#FFFFFF" points="305.221,525.659 346.301,525.659 346.301,505.453 	"/>
</g>
<g id="selection-buttons">
	<g id="remote-up-button">
		<path fill="#58595B" d="M462.987,676.939c0,2.524-2.046,4.569-4.57,4.569h-71.471c-2.523,0-4.568-2.047-4.568-4.569v-41.017
			c0-2.524,2.045-4.57,4.568-4.57h71.469c2.524,0,4.57,2.046,4.57,4.57v41.017H462.987L462.987,676.939z"/>
		<polygon fill="#FFFFFF" points="422.681,637.573 404.461,671.195 440.849,671.195 		"/>
	</g>
	<g id="remote-left-button">
		<path fill="#58595B" d="M367.688,742.25c0,2.524-2.047,4.569-4.57,4.569h-71.47c-2.523,0-4.569-2.047-4.569-4.569v-41.017
			c0-2.523,2.046-4.57,4.569-4.57h71.469c2.524,0,4.569,2.048,4.569,4.57v41.017H367.688z"/>
		<polygon fill="#FFFFFF" points="307.425,721.771 341.048,703.549 341.048,739.937 		"/>
	</g>
	<g id="remote-down-button">
		<path fill="#58595B" d="M462.987,807.563c0,2.525-2.046,4.57-4.57,4.57h-71.471c-2.523,0-4.568-2.047-4.568-4.57v-41.016
			c0-2.525,2.045-4.57,4.568-4.57h71.469c2.524,0,4.57,2.047,4.57,4.57v41.016H462.987z"/>
		<polyline fill="#FFFFFF" points="440.849,770.242 422.681,803.865 404.461,770.242 		"/>
	</g>
	<g id="remote-right-button">
		<path fill="#58595B" d="M558.283,742.25c0,2.524-2.045,4.569-4.569,4.569h-71.469c-2.524,0-4.569-2.047-4.569-4.569v-41.017
			c0-2.523,2.045-4.57,4.569-4.57h71.469c2.526,0,4.569,2.048,4.569,4.57V742.25z"/>
		<polygon fill="#FFFFFF" points="538.506,721.715 504.883,739.937 504.883,703.549 		"/>
	</g>
	<g id="remote-enter-button">
		<path fill="#58595B" d="M462.987,742.25c0,2.524-2.046,4.569-4.57,4.569h-71.471c-2.523,0-4.568-2.047-4.568-4.569v-41.017
			c0-2.523,2.045-4.57,4.568-4.57h71.469c2.524,0,4.57,2.048,4.57,4.57v41.017H462.987z"/>
		<path fill="none" d="M448.009,739.2c0,1.093-1.286,1.98-2.872,1.98h-44.912c-1.586,0-2.872-0.89-2.872-1.98v-31.501
			c0-1.094,1.286-1.979,2.872-1.979h44.912c1.586,0,2.872,0.886,2.872,1.979V739.2L448.009,739.2z"/>
		<text transform="matrix(1 0 0 1 397.3538 736.8206)" fill="#FFFFFF" font-family="Passion One" font-size="48.5178">OK</text>
	</g>
</g>
<g id="channel-up-down-buttoms">
	<path id="channel-up-down-button-base" fill="#58595B" d="M558.283,589.698c0,2.525-2.047,4.57-4.569,4.57h-71.469
		c-2.524,0-4.569-2.047-4.569-4.57V436.719c0-2.524,2.045-4.569,4.569-4.569h71.469c2.524,0,4.569,2.045,4.569,4.569V589.698z"/>
	<g id="remote-channel-up-button">
		<path fill="#58595B" d="M558.281,509.459c0,2.523-2.047,4.568-4.569,4.568h-71.469c-2.524,0-4.569-2.047-4.569-4.568v-72.74
			c0-2.524,2.045-4.569,4.569-4.569h71.469c2.524,0,4.569,2.045,4.569,4.569V509.459z"/>
		
			<line fill="none" stroke="#FFFFFF" stroke-width="5" stroke-miterlimit="10" x1="497.451" y1="465.584" x2="538.506" y2="465.584"/>
		
			<line fill="none" stroke="#FFFFFF" stroke-width="5" stroke-miterlimit="10" x1="517.979" y1="486.111" x2="517.979" y2="445.055"/>
	</g>
	<g id="remote-channel-down-button">
		<path fill="#58595B" d="M558.283,589.698c0,2.525-2.047,4.57-4.569,4.57h-71.469c-2.524,0-4.569-2.047-4.569-4.57v-69.007
			c0-2.523,2.045-4.57,4.569-4.57h71.469c2.524,0,4.569,2.047,4.569,4.57V589.698z"/>
		
			<line fill="none" stroke="#FFFFFF" stroke-width="5" stroke-miterlimit="10" x1="497.451" y1="562.308" x2="538.506" y2="562.308"/>
	</g>
	<path fill="none" d="M541.266,532.906c0,1.036-1.182,1.876-2.641,1.876h-41.293c-1.459,0-2.641-0.84-2.641-1.876v-29.834
		c0-1.036,1.182-1.874,2.641-1.874h41.293c1.459,0,2.641,0.84,2.641,1.874V532.906z"/>
	<text transform="matrix(1 0 0 1 494.6926 532.2952)" fill="#FFFFFF" font-family="Passion One" font-size="48.5178">CH</text>
</g>
<g id="play-control-buttons">
	<g id="remote-skip-forward-button">
		<path fill="#58595B" d="M556.135,947.392c0,2.515-2.038,4.551-4.553,4.551h-50.741c-2.515,0-4.552-2.038-4.552-4.551v-27.846
			c0-2.515,2.037-4.553,4.552-4.553h50.741c2.515,0,4.553,2.04,4.553,4.553V947.392z"/>
		<polygon fill="#FFFFFF" points="545.823,924.232 545.823,932.706 524.628,924.232 524.628,932.933 502.868,924.232 
			502.868,942.704 524.628,933.977 524.628,942.704 545.823,934.201 545.823,942.704 549.555,942.704 549.555,924.232 		"/>
	</g>
	<g id="remote-skip-back-button">
		<path fill="#58595B" d="M486.74,947.392c0,2.515-2.038,4.551-4.552,4.551h-50.742c-2.514,0-4.551-2.038-4.551-4.551v-27.846
			c0-2.515,2.037-4.553,4.551-4.553h50.742c2.514,0,4.552,2.04,4.552,4.553V947.392z"/>
		<polygon fill="#FFFFFF" points="436.623,924.232 436.623,932.706 457.819,924.232 457.819,932.933 479.576,924.232 
			479.576,942.704 457.819,933.977 457.819,942.704 436.623,934.201 436.623,942.704 432.892,942.704 432.892,924.232 		"/>
	</g>
	<g id="remote-fast-forward-button">
		<path fill="#58595B" d="M416.318,947.392c0,2.515-2.038,4.551-4.552,4.551h-50.741c-2.514,0-4.552-2.038-4.552-4.551v-27.846
			c0-2.515,2.038-4.553,4.552-4.553h50.741c2.514,0,4.552,2.04,4.552,4.553V947.392z"/>
		<polygon fill="#FFFFFF" points="409.455,933.452 386.395,924.232 386.395,932.933 364.637,924.232 364.637,942.704 
			386.395,933.977 386.395,942.704 		"/>
	</g>
	<g id="remote-rewind-button">
		<path fill="#58595B" d="M346.924,947.392c0,2.515-2.038,4.551-4.551,4.551h-50.742c-2.514,0-4.552-2.038-4.552-4.551v-27.846
			c0-2.515,2.038-4.553,4.552-4.553h50.742c2.513,0,4.551,2.04,4.551,4.553V947.392z"/>
		<polygon fill="#FFFFFF" points="338.531,924.232 316.773,932.933 316.773,924.232 293.711,933.452 316.773,942.704 
			316.773,933.977 338.531,942.704 		"/>
	</g>
	<g id="remote-play-button">
		<path fill="#58595B" d="M367.688,897.135c0,2.523-2.047,4.568-4.57,4.568h-71.47c-2.523,0-4.569-2.047-4.569-4.568v-41.018
			c0-2.523,2.046-4.569,4.569-4.569h71.469c2.524,0,4.569,2.047,4.569,4.569v41.018H367.688z"/>
		<polygon fill="#FFFFFF" points="346.662,876.602 313.039,892.489 313.039,860.765 		"/>
	</g>
	<g id="remote-pause-button">
		<path fill="#58595B" d="M462.987,897.135c0,2.523-2.046,4.568-4.57,4.568h-71.471c-2.523,0-4.568-2.047-4.568-4.568v-41.018
			c0-2.523,2.045-4.569,4.568-4.569h71.469c2.524,0,4.57,2.047,4.57,4.569v41.018H462.987z"/>
		
			<line fill="none" stroke="#FFFFFF" stroke-width="6" stroke-miterlimit="10" x1="413.196" y1="860.765" x2="413.196" y2="892.489"/>
		
			<line fill="none" stroke="#FFFFFF" stroke-width="6" stroke-miterlimit="10" x1="432.166" y1="860.765" x2="432.166" y2="892.489"/>
	</g>
	<g id="remote-stop-button">
		<path fill="#58595B" d="M558.283,897.135c0,2.523-2.045,4.568-4.569,4.568h-71.469c-2.524,0-4.569-2.047-4.569-4.568v-41.018
			c0-2.523,2.045-4.569,4.569-4.569h71.469c2.526,0,4.569,2.047,4.569,4.569V897.135z"/>
		<rect x="502.116" y="860.765" fill="#FFFFFF" width="31.725" height="31.724"/>
	</g>
</g>
<g id="channel-number-buttons">
	<g id="remote-button-0">
		<path fill="#58595B" d="M462.987,378.367c0,2.524-2.046,4.569-4.57,4.569h-71.471c-2.523,0-4.568-2.047-4.568-4.569v-41.017
			c0-2.524,2.045-4.57,4.568-4.57h71.469c2.524,0,4.57,2.046,4.57,4.57v41.017H462.987z"/>
		<text transform="matrix(1 0 0 1 411.9436 372.6233)" fill="#FFFFFF" font-family="Passion One" font-size="48.5178">0</text>
	</g>
	<g id="remote-button-9">
		<path fill="#58595B" d="M558.283,313.055c0,2.525-2.045,4.57-4.569,4.57h-71.469c-2.524,0-4.569-2.047-4.569-4.57v-41.016
			c0-2.525,2.045-4.57,4.569-4.57h71.469c2.526,0,4.569,2.045,4.569,4.57V313.055z"/>
		<text transform="matrix(1 0 0 1 506.801 307.3108)" fill="#FFFFFF" font-family="Passion One" font-size="48.5178">9</text>
	</g>
	<g id="remote-button-8">
		<path fill="#58595B" d="M462.987,313.055c0,2.525-2.046,4.57-4.57,4.57h-71.471c-2.523,0-4.568-2.047-4.568-4.57v-41.016
			c0-2.525,2.045-4.57,4.568-4.57h71.469c2.524,0,4.57,2.045,4.57,4.57v41.016H462.987z"/>
		<text transform="matrix(1 0 0 1 411.9436 307.3108)" fill="#FFFFFF" font-family="Passion One" font-size="48.5178">8</text>
	</g>
	<g id="remote-button-7">
		<path fill="#58595B" d="M367.688,313.055c0,2.525-2.047,4.57-4.57,4.57h-71.47c-2.523,0-4.569-2.047-4.569-4.57v-41.016
			c0-2.525,2.046-4.57,4.569-4.57h71.469c2.524,0,4.569,2.045,4.569,4.57v41.016H367.688z"/>
		<text transform="matrix(1 0 0 1 316.7737 307.3108)" fill="#FFFFFF" font-family="Passion One" font-size="48.5178">7</text>
	</g>
	<g id="remote-button-6">
		<path fill="#58595B" d="M558.283,247.742c0,2.524-2.045,4.569-4.569,4.569h-71.469c-2.524,0-4.569-2.047-4.569-4.569v-41.017
			c0-2.523,2.045-4.57,4.569-4.57h71.469c2.526,0,4.569,2.047,4.569,4.57V247.742z"/>
		<text transform="matrix(1 0 0 1 506.801 241.9983)" fill="#FFFFFF" font-family="Passion One" font-size="48.5178">6</text>
	</g>
	<g id="remote-button-5">
		<path fill="#58595B" d="M462.987,247.742c0,2.524-2.046,4.569-4.57,4.569h-71.471c-2.523,0-4.568-2.047-4.568-4.569v-41.017
			c0-2.523,2.045-4.57,4.568-4.57h71.469c2.524,0,4.57,2.047,4.57,4.57v41.017H462.987z"/>
		<text transform="matrix(1 0 0 1 411.9436 241.9983)" fill="#FFFFFF" font-family="Passion One" font-size="48.5178">5</text>
	</g>
	<g id="remote-button-4">
		<path fill="#58595B" d="M367.688,247.742c0,2.524-2.047,4.569-4.57,4.569h-71.47c-2.523,0-4.569-2.047-4.569-4.569v-41.017
			c0-2.523,2.046-4.57,4.569-4.57h71.469c2.524,0,4.569,2.047,4.569,4.57v41.017H367.688z"/>
		<text transform="matrix(1 0 0 1 313.0408 241.9983)" fill="#FFFFFF" font-family="Passion One" font-size="48.5178">4</text>
	</g>
	<g id="remote-button-3">
		<path fill="#58595B" d="M558.283,182.431c0,2.524-2.045,4.569-4.569,4.569h-71.469c-2.524,0-4.569-2.047-4.569-4.569v-41.017
			c0-2.524,2.045-4.57,4.569-4.57h71.469c2.524,0,4.569,2.046,4.569,4.57V182.431z"/>
		<text transform="matrix(1 0 0 1 506.801 176.6858)" fill="#FFFFFF" font-family="Passion One" font-size="48.5178">3</text>
	</g>
	<g id="remote-button-2">
		<path fill="#58595B" d="M462.987,182.431c0,2.524-2.046,4.569-4.57,4.569h-71.471c-2.523,0-4.568-2.047-4.568-4.569v-41.017
			c0-2.524,2.045-4.57,4.568-4.57h71.469c2.524,0,4.57,2.046,4.57,4.57v41.017H462.987z"/>
		<text transform="matrix(1 0 0 1 411.9436 176.6858)" fill="#FFFFFF" font-family="Passion One" font-size="48.5178">2</text>
	</g>
	<g id="remote-button-1">
		<path fill="#58595B" d="M367.688,182.431c0,2.524-2.047,4.569-4.57,4.569h-71.47c-2.523,0-4.569-2.047-4.569-4.569v-41.017
			c0-2.524,2.046-4.57,4.569-4.57h71.469c2.524,0,4.569,2.046,4.569,4.57v41.017H367.688z"/>
		<text transform="matrix(1 0 0 1 318.6389 176.6858)" fill="#FFFFFF" font-family="Passion One" font-size="48.5178">1</text>
	</g>
</g>
</svg>
