<?xml version="1.0" encoding="utf-8"?>
<!-- Generator: Adobe Illustrator 16.0.0, SVG Export Plug-In . SVG Version: 6.00 Build 0)  -->
<!DOCTYPE svg PUBLIC "-//W3C//DTD SVG 1.1//EN" "http://www.w3.org/Graphics/SVG/1.1/DTD/svg11.dtd">
<svg version="1.1" id="tv-remote" xmlns="http://www.w3.org/2000/svg" xmlns:xlink="http://www.w3.org/1999/xlink" x="0px" y="0px"
	 viewBox="0 0 358.617 1190.549" enable-background="new 0 0 358.617 1190.549"
	 xml:space="preserve">
<path id="remote-base" fill="#333333" d="M345.048,1164.082c0,8.764-7.104,15.866-15.869,15.866H33.438
	c-8.766,0-15.868-7.104-15.868-15.866V33.313c0-8.765,7.104-15.869,15.868-15.869h295.739c8.766,0,15.869,7.104,15.869,15.869
	v1130.77H345.048L345.048,1164.082z"/>
<g id="remote-power-button">
	<circle id="remote-power-button-base" fill="#A02B33" cx="285.628" cy="67.889" r="24.88"/>
	<path fill="#FFFFFF" d="M290.021,51.768c6.929,1.926,12.027,8.291,12.027,15.824c0,9.055-7.364,16.42-16.42,16.42
		s-16.419-7.365-16.419-16.42c0-7.535,5.1-13.899,12.028-15.824v3.518c-5.053,1.806-8.679,6.643-8.679,12.31
		c0,7.207,5.86,13.068,13.067,13.068c7.206,0,13.065-5.861,13.065-13.068c0-5.667-3.626-10.504-8.68-12.31L290.021,51.768z"/>
	<path fill="#FFFFFF" d="M287.337,66.18c0,0.944-0.768,1.709-1.709,1.709l0,0c-0.943,0-1.711-0.765-1.711-1.709V51.009
		c0-0.942,0.768-1.708,1.711-1.708l0,0c0.941,0,1.709,0.766,1.709,1.708V66.18z"/>
</g>
<g id="remote-mute-button">
	<path fill="#58595B" d="M221.615,525.718c0,2.521-2.046,4.566-4.569,4.566h-71.472c-2.522,0-4.567-2.047-4.567-4.566v-41.02
		c0-2.521,2.045-4.567,4.567-4.567h71.47c2.523,0,4.569,2.046,4.569,4.567v41.02H221.615z"/>
	<g id="mute-icon">
		<path fill="#FFFFFF" d="M191.447,484.89c-0.863-0.5-2.026-0.427-3.115,0.197c-1.063,0.608-2.133,1.217-3.194,1.82
			c-3.28,1.865-6.674,3.793-9.94,5.83l-0.297,0.185c-0.722,0.438-1.679,1.022-2.272,1.86h-6.998c-1.788,0-3.242,1.455-3.242,3.243
			v14.364c0,1.788,1.454,3.243,3.242,3.243h6.993c0.599,0.837,1.554,1.423,2.273,1.86l0.297,0.185c3.269,2.037,6.66,3.965,9.94,5.83
			c1.063,0.604,2.131,1.211,3.193,1.82c0.609,0.352,1.241,0.526,1.834,0.526c0.465,0,0.902-0.108,1.282-0.33
			c0.737-0.427,1.146-1.198,1.146-2.17v-11.882V498.94v-11.88C192.59,486.089,192.184,485.318,191.447,484.89z M164.124,512.391
			v-14.364c0-0.829,0.676-1.503,1.504-1.503h6.438v2.419v12.533v2.419h-6.438C164.799,513.895,164.124,513.22,164.124,512.391z
			 M190.85,498.943v12.533v11.882c0,0.335-0.092,0.562-0.275,0.665c-0.254,0.148-0.779,0.144-1.379-0.201
			c-1.064-0.609-2.135-1.219-3.201-1.826c-3.268-1.854-6.643-3.773-9.881-5.794c-0.101-0.062-0.204-0.125-0.313-0.188
			c-0.89-0.542-1.996-1.217-1.996-2.046v-2.49v-12.533v-2.49c0-0.826,1.106-1.503,1.996-2.046c0.106-0.063,0.212-0.129,0.313-0.188
			c3.238-2.021,6.614-3.938,9.881-5.794c1.066-0.606,2.137-1.214,3.201-1.826c0.6-0.343,1.125-0.349,1.379-0.2
			c0.187,0.106,0.275,0.33,0.275,0.665V498.943z"/>
		<polygon fill="#58595B" points="203.753,519.371 189.588,505.209 203.753,491.044 201.292,488.584 187.128,502.746 
			172.963,488.584 170.503,491.044 184.667,505.209 170.503,519.371 172.963,521.834 187.128,507.67 201.292,521.834 		"/>
		<polygon fill="#FFFFFF" points="203.137,519.99 188.358,505.209 203.137,490.429 201.907,489.198 187.128,503.979 
			172.347,489.198 171.117,490.429 185.899,505.209 171.117,519.99 172.347,521.219 187.128,506.439 201.907,521.219 		"/>
	</g>
</g>
<g id="volume-up-down-buttons">
	<path id="volume-button-base" fill="#58595B" d="M126.316,581.698c0,2.525-2.047,4.57-4.569,4.57H50.276
		c-2.522,0-4.568-2.047-4.568-4.57V428.719c0-2.524,2.046-4.569,4.568-4.569h71.469c2.524,0,4.569,2.045,4.569,4.569v152.979
		H126.316z"/>
	<g id="remote-volume-down-button">
		<path fill="#58595B" d="M126.316,581.698c0,2.525-2.047,4.57-4.569,4.57H50.276c-2.522,0-4.568-2.047-4.568-4.57v-69.007
			c0-2.521,2.046-4.57,4.568-4.57h71.469c2.524,0,4.569,2.048,4.569,4.57v69.007H126.316z"/>
		
			<line fill="none" stroke="#FFFFFF" stroke-width="5" stroke-miterlimit="10" x1="65.484" y1="554.308" x2="106.535" y2="554.308"/>
	</g>
	<g id="remote-volume-up-button">
		<path fill="#58595B" d="M126.316,501.459c0,2.521-2.047,4.566-4.569,4.566H50.276c-2.522,0-4.568-2.047-4.568-4.566v-72.74
			c0-2.524,2.046-4.569,4.568-4.569h71.469c2.524,0,4.569,2.045,4.569,4.569v72.74H126.316L126.316,501.459z"/>
		
			<line fill="none" stroke="#FFFFFF" stroke-width="5" stroke-miterlimit="10" x1="65.484" y1="457.584" x2="106.535" y2="457.584"/>
		<line fill="none" stroke="#FFFFFF" stroke-width="5" stroke-miterlimit="10" x1="86.01" y1="478.111" x2="86.01" y2="437.055"/>
	</g>
	<polygon id="volume-icon_1_" fill="#FFFFFF" points="63.848,517.657 104.928,517.657 104.928,497.451 	"/>
</g>
<g id="selection-buttons">
	<g id="remote-up-button">
		<path fill="#58595B" d="M221.615,668.939c0,2.524-2.046,4.569-4.569,4.569h-71.472c-2.522,0-4.567-2.047-4.567-4.569v-41.017
			c0-2.524,2.045-4.57,4.567-4.57h71.47c2.523,0,4.569,2.046,4.569,4.57v41.017H221.615L221.615,668.939z"/>
		<polygon fill="#FFFFFF" points="181.309,629.573 163.089,663.195 199.477,663.195 		"/>
	</g>
	<g id="remote-left-button">
		<path fill="#58595B" d="M126.316,734.25c0,2.522-2.047,4.567-4.569,4.567H50.276c-2.522,0-4.568-2.047-4.568-4.567v-41.019
			c0-2.521,2.046-4.57,4.568-4.57h71.469c2.524,0,4.569,2.05,4.569,4.57v41.019H126.316z"/>
		<polygon fill="#FFFFFF" points="66.052,713.771 99.675,695.549 99.675,731.937 		"/>
	</g>
	<g id="remote-down-button">
		<path fill="#58595B" d="M221.615,799.563c0,2.525-2.046,4.57-4.569,4.57h-71.472c-2.522,0-4.567-2.047-4.567-4.57v-41.016
			c0-2.525,2.045-4.57,4.567-4.57h71.47c2.523,0,4.569,2.047,4.569,4.57v41.016H221.615z"/>
		<polyline fill="#FFFFFF" points="199.477,762.24 181.309,795.865 163.089,762.24 		"/>
	</g>
	<g id="remote-right-button">
		<path fill="#58595B" d="M316.91,734.25c0,2.522-2.045,4.567-4.568,4.567h-71.469c-2.523,0-4.569-2.047-4.569-4.567v-41.019
			c0-2.521,2.046-4.57,4.569-4.57h71.469c2.525,0,4.568,2.05,4.568,4.57V734.25z"/>
		<polygon fill="#FFFFFF" points="297.133,713.715 263.51,731.937 263.51,695.549 		"/>
	</g>
	<g id="remote-enter-button">
		<path fill="#58595B" d="M221.615,734.25c0,2.522-2.046,4.567-4.569,4.567h-71.472c-2.522,0-4.567-2.047-4.567-4.567v-41.019
			c0-2.521,2.045-4.57,4.567-4.57h71.47c2.523,0,4.569,2.05,4.569,4.57v41.019H221.615z"/>
		<path fill="none" d="M206.636,731.198c0,1.095-1.286,1.98-2.872,1.98h-44.911c-1.587,0-2.872-0.892-2.872-1.98v-31.501
			c0-1.094,1.285-1.979,2.872-1.979h44.911c1.586,0,2.872,0.886,2.872,1.979V731.198L206.636,731.198z"/>
		<text transform="matrix(1 0 0 1 154 728.8206)" fill="#FFFFFF" font-family="Passion One" font-size="48">OK</text>
	</g>
</g>
<g id="channel-up-down-buttoms">
	<path id="channel-up-down-button-base" fill="#58595B" d="M316.91,581.698c0,2.525-2.047,4.57-4.568,4.57h-71.469
		c-2.523,0-4.569-2.047-4.569-4.57V428.719c0-2.524,2.046-4.569,4.569-4.569h71.469c2.523,0,4.568,2.045,4.568,4.569V581.698z"/>
	<g id="remote-channel-up-button">
		<path fill="#58595B" d="M316.908,501.459c0,2.521-2.047,4.566-4.568,4.566h-71.469c-2.524,0-4.569-2.047-4.569-4.566v-72.74
			c0-2.524,2.045-4.569,4.569-4.569h71.469c2.523,0,4.568,2.045,4.568,4.569V501.459z"/>
		
			<line fill="none" stroke="#FFFFFF" stroke-width="5" stroke-miterlimit="10" x1="256.078" y1="457.584" x2="297.133" y2="457.584"/>
		
			<line fill="none" stroke="#FFFFFF" stroke-width="5" stroke-miterlimit="10" x1="276.607" y1="478.111" x2="276.607" y2="437.055"/>
	</g>
	<g id="remote-channel-down-button">
		<path fill="#58595B" d="M316.91,581.698c0,2.525-2.047,4.57-4.568,4.57h-71.469c-2.523,0-4.569-2.047-4.569-4.57v-69.007
			c0-2.521,2.046-4.57,4.569-4.57h71.469c2.523,0,4.568,2.048,4.568,4.57V581.698z"/>
		
			<line fill="none" stroke="#FFFFFF" stroke-width="5" stroke-miterlimit="10" x1="256.078" y1="554.308" x2="297.133" y2="554.308"/>
	</g>
	<path fill="none" d="M299.894,524.906c0,1.036-1.183,1.876-2.642,1.876h-41.293c-1.459,0-2.642-0.84-2.642-1.876v-29.834
		c0-1.036,1.183-1.874,2.642-1.874h41.293c1.459,0,2.641,0.84,2.641,1.874L299.894,524.906L299.894,524.906z"/>
	<text transform="matrix(1 0 0 1 249.5 524.2952)" fill="#FFFFFF" font-family="Passion One" font-size="48">CH</text>
</g>
<g id="play-control-buttons">
	<g id="remote-skip-forward-button">
		<path fill="#58595B" d="M314.762,939.392c0,2.515-2.038,4.551-4.553,4.551h-50.741c-2.516,0-4.552-2.038-4.552-4.551v-27.846
			c0-2.517,2.036-4.555,4.552-4.555h50.741c2.516,0,4.553,2.04,4.553,4.555V939.392z"/>
		<polygon fill="#FFFFFF" points="304.45,916.232 304.45,924.704 283.256,916.232 283.256,924.933 261.496,916.232 261.496,934.702 
			283.256,925.977 283.256,934.702 304.45,926.199 304.45,934.702 308.182,934.702 308.182,916.232 		"/>
	</g>
	<g id="remote-skip-back-button">
		<path fill="#58595B" d="M245.367,939.392c0,2.515-2.037,4.551-4.552,4.551h-50.742c-2.514,0-4.551-2.038-4.551-4.551v-27.846
			c0-2.517,2.036-4.555,4.551-4.555h50.742c2.515,0,4.552,2.04,4.552,4.555V939.392z"/>
		<polygon fill="#FFFFFF" points="195.251,916.232 195.251,924.704 216.447,916.232 216.447,924.933 238.203,916.232 
			238.203,934.702 216.447,925.977 216.447,934.702 195.251,926.199 195.251,934.702 191.52,934.702 191.52,916.232 		"/>
	</g>
	<g id="remote-fast-forward-button">
		<path fill="#58595B" d="M174.946,939.392c0,2.515-2.038,4.551-4.552,4.551h-50.741c-2.515,0-4.553-2.038-4.553-4.551v-27.846
			c0-2.517,2.038-4.555,4.553-4.555h50.741c2.514,0,4.552,2.04,4.552,4.555V939.392z"/>
		<polygon fill="#FFFFFF" points="168.083,925.45 145.023,916.232 145.023,924.933 123.264,916.232 123.264,934.702 
			145.023,925.977 145.023,934.702 		"/>
	</g>
	<g id="remote-rewind-button">
		<path fill="#58595B" d="M105.551,939.392c0,2.515-2.038,4.551-4.551,4.551H50.258c-2.515,0-4.552-2.038-4.552-4.551v-27.846
			c0-2.517,2.037-4.555,4.552-4.555H101c2.513,0,4.551,2.04,4.551,4.555V939.392z"/>
		<polygon fill="#FFFFFF" points="97.158,916.232 75.401,924.933 75.401,916.232 52.339,925.45 75.401,934.702 75.401,925.977 
			97.158,934.702 		"/>
	</g>
	<g id="remote-play-button">
		<path fill="#58595B" d="M126.316,889.135c0,2.521-2.047,4.566-4.569,4.566H50.276c-2.522,0-4.568-2.047-4.568-4.566v-41.02
			c0-2.521,2.046-4.567,4.568-4.567h71.469c2.524,0,4.569,2.047,4.569,4.567v41.02H126.316z"/>
		<polygon fill="#FFFFFF" points="105.29,868.602 71.667,884.489 71.667,852.765 		"/>
	</g>
	<g id="remote-pause-button">
		<path fill="#58595B" d="M221.615,889.135c0,2.521-2.046,4.566-4.569,4.566h-71.472c-2.522,0-4.567-2.047-4.567-4.566v-41.02
			c0-2.521,2.045-4.567,4.567-4.567h71.47c2.523,0,4.569,2.047,4.569,4.567v41.02H221.615z"/>
		
			<line fill="none" stroke="#FFFFFF" stroke-width="6" stroke-miterlimit="10" x1="171.823" y1="852.765" x2="171.823" y2="884.489"/>
		
			<line fill="none" stroke="#FFFFFF" stroke-width="6" stroke-miterlimit="10" x1="190.794" y1="852.765" x2="190.794" y2="884.489"/>
	</g>
	<g id="remote-stop-button">
		<path fill="#58595B" d="M316.91,889.135c0,2.521-2.045,4.566-4.568,4.566h-71.469c-2.523,0-4.569-2.047-4.569-4.566v-41.02
			c0-2.521,2.046-4.567,4.569-4.567h71.469c2.525,0,4.568,2.047,4.568,4.567V889.135z"/>
		<rect x="260.744" y="852.765" fill="#FFFFFF" width="31.725" height="31.724"/>
	</g>
</g>
<g id="menu_buttons">
	<g id="back-button">
		<path fill="#58595B" d="M124.693,370.365c0,2.525-2.047,4.57-4.569,4.57H48.653c-2.522,0-4.568-2.047-4.568-4.57V329.35
			c0-2.524,2.046-4.57,4.568-4.57h71.469c2.524,0,4.569,2.046,4.569,4.57v41.016L124.693,370.365L124.693,370.365z"/>
		<path fill="#FFFFFF" d="M84.268,350.503c0,0.777-0.006,1.556,0,2.333c0.004,0.329-0.031,0.64-0.361,0.804
			c-0.326,0.162-0.625,0.07-0.914-0.127c-2.827-1.932-5.657-3.859-8.486-5.788c-1.784-1.216-3.566-2.434-5.351-3.65
			c-0.097-0.064-0.192-0.129-0.287-0.196c-0.611-0.438-0.608-0.977,0.024-1.385c1.658-1.07,3.322-2.131,4.985-3.192
			c2.983-1.906,5.967-3.813,8.95-5.717c0.117-0.075,0.234-0.155,0.362-0.208c0.52-0.213,0.993,0.102,1,0.683
			c0.015,1.347,0.011,2.693,0.015,4.04c0.001,0.128,0.008,0.256,0.002,0.383c-0.012,0.287,0.109,0.407,0.409,0.423
			c1.477,0.082,2.938,0.279,4.345,0.746c6.941,2.308,11.196,7.027,12.567,14.229c0.725,3.803,0.077,7.459-1.607,10.936
			c-0.095,0.198-0.196,0.396-0.313,0.582c-0.197,0.314-0.506,0.435-0.838,0.344c-0.299-0.08-0.479-0.343-0.487-0.721
			c-0.022-0.927,0.014-1.859-0.069-2.782c-0.3-3.333-1.541-6.298-3.676-8.866c-2.527-3.041-5.764-4.917-9.636-5.702
			c-0.022-0.005-0.046-0.008-0.068-0.014c-0.554-0.099-0.571-0.086-0.572,0.479c-0.002,0.79,0,1.579,0,2.368
			C84.262,350.503,84.264,350.503,84.268,350.503z"/>
	</g>
	<g id="menu-button">
		<path fill="#58595B" d="M316.911,370.365c0,2.525-2.047,4.57-4.569,4.57h-71.471c-2.521,0-4.568-2.047-4.568-4.57V329.35
			c0-2.524,2.047-4.57,4.568-4.57h71.469c2.524,0,4.569,2.046,4.569,4.57v41.016L316.911,370.365L316.911,370.365z"/>
		<g>
			<text transform="matrix(1 0 0 1 246.4631 357.6233)" fill="#FFFFFF" font-family="Passion One" font-size="25">MENU</text>
		</g>
	</g>
</g>
<g id="channel-number-buttons">
	<g id="remote-button-0">
		<path fill="#58595B" d="M221.615,370.367c0,2.522-2.046,4.567-4.569,4.567h-71.472c-2.522,0-4.567-2.047-4.567-4.567V329.35
			c0-2.522,2.045-4.57,4.567-4.57h71.47c2.523,0,4.569,2.048,4.569,4.57v41.019L221.615,370.367L221.615,370.367z"/>
		<text transform="matrix(1 0 0 1 170.571 364.6233)" fill="#FFFFFF" font-family="Passion One" font-size="48.5178">0</text>
	</g>
	<g id="remote-button-9">
		<path fill="#58595B" d="M316.91,305.055c0,2.525-2.045,4.57-4.568,4.57h-71.469c-2.523,0-4.569-2.047-4.569-4.57v-41.016
			c0-2.525,2.046-4.57,4.569-4.57h71.469c2.525,0,4.568,2.045,4.568,4.57V305.055z"/>
		<text transform="matrix(1 0 0 1 265.429 299.3108)" fill="#FFFFFF" font-family="Passion One" font-size="48.5178">9</text>
	</g>
	<g id="remote-button-8">
		<path fill="#58595B" d="M221.615,305.055c0,2.525-2.046,4.57-4.569,4.57h-71.472c-2.522,0-4.567-2.047-4.567-4.57v-41.016
			c0-2.525,2.045-4.57,4.567-4.57h71.47c2.523,0,4.569,2.045,4.569,4.57v41.016H221.615z"/>
		<text transform="matrix(1 0 0 1 170.571 299.3108)" fill="#FFFFFF" font-family="Passion One" font-size="48.5178">8</text>
	</g>
	<g id="remote-button-7">
		<path fill="#58595B" d="M126.316,305.055c0,2.525-2.047,4.57-4.569,4.57H50.276c-2.522,0-4.568-2.047-4.568-4.57v-41.016
			c0-2.525,2.046-4.57,4.568-4.57h71.469c2.524,0,4.569,2.045,4.569,4.57v41.016H126.316z"/>
		<text transform="matrix(1 0 0 1 75.4016 299.3108)" fill="#FFFFFF" font-family="Passion One" font-size="48.5178">7</text>
	</g>
	<g id="remote-button-6">
		<path fill="#58595B" d="M316.91,239.742c0,2.522-2.045,4.567-4.568,4.567h-71.469c-2.523,0-4.569-2.047-4.569-4.567v-41.019
			c0-2.521,2.046-4.57,4.569-4.57h71.469c2.525,0,4.568,2.049,4.568,4.57V239.742z"/>
		<text transform="matrix(1 0 0 1 265.429 233.9983)" fill="#FFFFFF" font-family="Passion One" font-size="48.5178">6</text>
	</g>
	<g id="remote-button-5">
		<path fill="#58595B" d="M221.615,239.742c0,2.522-2.046,4.567-4.569,4.567h-71.472c-2.522,0-4.567-2.047-4.567-4.567v-41.019
			c0-2.521,2.045-4.57,4.567-4.57h71.47c2.523,0,4.569,2.049,4.569,4.57v41.019H221.615z"/>
		<text transform="matrix(1 0 0 1 170.571 233.9983)" fill="#FFFFFF" font-family="Passion One" font-size="48.5178">5</text>
	</g>
	<g id="remote-button-4">
		<path fill="#58595B" d="M126.316,239.742c0,2.522-2.047,4.567-4.569,4.567H50.276c-2.522,0-4.568-2.047-4.568-4.567v-41.019
			c0-2.521,2.046-4.57,4.568-4.57h71.469c2.524,0,4.569,2.049,4.569,4.57v41.019H126.316z"/>
		<text transform="matrix(1 0 0 1 71.6692 233.9983)" fill="#FFFFFF" font-family="Passion One" font-size="48.5178">4</text>
	</g>
	<g id="remote-button-3">
		<path fill="#58595B" d="M316.91,174.431c0,2.524-2.045,4.569-4.568,4.569h-71.469c-2.523,0-4.569-2.047-4.569-4.569v-41.017
			c0-2.524,2.046-4.57,4.569-4.57h71.469c2.523,0,4.568,2.046,4.568,4.57V174.431z"/>
		<text transform="matrix(1 0 0 1 265.429 168.6858)" fill="#FFFFFF" font-family="Passion One" font-size="48.5178">3</text>
	</g>
	<g id="remote-button-2">
		<path fill="#58595B" d="M221.615,174.431c0,2.524-2.046,4.569-4.569,4.569h-71.472c-2.522,0-4.567-2.047-4.567-4.569v-41.017
			c0-2.524,2.045-4.57,4.567-4.57h71.47c2.523,0,4.569,2.046,4.569,4.57v41.017H221.615z"/>
		<text transform="matrix(1 0 0 1 170.571 168.6858)" fill="#FFFFFF" font-family="Passion One" font-size="48.5178">2</text>
	</g>
	<g id="remote-button-1">
		<path fill="#58595B" d="M126.316,174.431c0,2.524-2.047,4.569-4.569,4.569H50.276c-2.522,0-4.568-2.047-4.568-4.569v-41.017
			c0-2.524,2.046-4.57,4.568-4.57h71.469c2.524,0,4.569,2.046,4.569,4.57v41.017H126.316z"/>
		<text transform="matrix(1 0 0 1 77.2668 168.6858)" fill="#FFFFFF" font-family="Passion One" font-size="48.5178">1</text>
	</g>
</g>
</svg>
