<?xml version="1.0" encoding="utf-8"?>
<!-- Generator: Adobe Illustrator 16.0.0, SVG Export Plug-In . SVG Version: 6.00 Build 0)  -->
<!DOCTYPE svg PUBLIC "-//W3C//DTD SVG 1.1//EN" "http://www.w3.org/Graphics/SVG/1.1/DTD/svg11.dtd">
<svg version="1.1" id="television-youtube" xmlns="http://www.w3.org/2000/svg" xmlns:xlink="http://www.w3.org/1999/xlink" x="0px"
	 y="0px" width="841.889px" height="524px" viewBox="0 343.108 841.889 524" enable-background="new 0 343.108 841.889 524"
	 xml:space="preserve">
<path id="television-icon-body_1_" fill="#333333" d="M820.677,863.402c9.313,0,16.873-7.561,16.873-16.867V364.022
	c0-9.325-7.562-16.879-16.873-16.879H21.219c-9.302,0-16.867,7.553-16.867,16.878v482.514c0,9.309,7.565,16.867,16.867,16.867
	H820.677z"/>
<rect id="youtube-screen-off" x="26.81" y="369.275" width="788.27" height="443.4"/>
<path id="youtube-television-led" fill="#6ABD45" d="M796.112,857.275c-1.841,0-3.333-1.492-3.333-3.334
	c0-1.841,1.492-3.332,3.333-3.332h11.999c1.841,0,3.333,1.491,3.333,3.332c0,1.842-1.492,3.334-3.333,3.334H796.112z"/>
<line id="youtube-television-decoration" fill="none" stroke="#8D9092" stroke-width="8" stroke-miterlimit="10" x1="4.352" y1="838.025" x2="837.55" y2="838.025"/>
<g id="youtube-smart-menu">
	<rect id="youtube-screen-menu" x="26.81" y="369.275" fill="#2F4550" width="788.27" height="443.4"/>
	<g id="video-row-2-col-1">
		
			<text id="text-2-1_1_" transform="matrix(1 0 0 1 67.3098 793.8557)" fill="#FFFFFF" font-family="'PassionOne-Regular'" font-size="22.4042">3. Cube Cinema Standup for Comedy Set</text>
		<rect id="thumbnail-2-1_1_" x="100.199" y="615.336" fill="#FFFFFF" width="256.656" height="139.584"/>
		<path id="border-2-1_1_" fill="#008890" d="M367.789,765.856H89.265V604.404h278.524V765.856z M100.199,754.92h256.656V615.336
			H100.199V754.92z"/>
	</g>
	<g id="video-col-2-row-2">
		
			<text id="text-2-2_1_" transform="matrix(1 0 0 1 436.7161 793.8557)" fill="#FFFFFF" font-family="'PassionOne-Regular'" font-size="22.4042">4. Do Scientists Dream of Synthetic Sheep?</text>
		<rect id="thumbnail-2-2_1_" x="483.585" y="615.336" fill="#FFFFFF" width="256.655" height="139.584"/>
		<path id="border-2-2_1_" fill="#008890" d="M751.174,765.856H472.651V604.404h278.523V765.856z M483.585,754.92H740.24V615.336
			H483.585V754.92z"/>
	</g>
	<g id="video-row-1-col-2">
		
			<text id="text-1-2_1_" transform="matrix(1 0 0 1 477.9465 577.7278)" fill="#FFFFFF" font-family="'PassionOne-Regular'" font-size="22.4042">2. Jack Heal’s Murderthon Trailer</text>
		<rect id="thumbnail-1-2_1_" x="483.584" y="399.209" fill="#FFFFFF" width="256.656" height="139.584"/>
		<path id="border-1-2_1_" fill="#008890" d="M751.174,549.727H472.651V388.275h278.523V549.727z M483.584,538.793H740.24V399.209
			H483.584V538.793z"/>
	</g>
	<g id="video-row-1-col-1">
		
			<text id="text-1-1" transform="matrix(1 0 0 1 81.9841 577.7278)" fill="#FFFFFF" font-family="'PassionOne-Regular'" font-size="22.4042">1. Chortle Student Comedy Final Set</text>
		<rect id="thumbnail-1-1" x="100.2" y="399.209" fill="#FFFFFF" width="256.655" height="139.584"/>
		<path id="border-1-1_1_" fill="#008890" d="M367.789,549.727H89.266V388.275h278.523V549.727z M100.2,538.793h256.655V399.209
			H100.2V538.793z"/>
	</g>
</g>
</svg>
