<?xml version="1.0" encoding="utf-8"?>
<!-- Generator: Adobe Illustrator 16.0.0, SVG Export Plug-In . SVG Version: 6.00 Build 0)  -->
<!DOCTYPE svg PUBLIC "-//W3C//DTD SVG 1.1//EN" "http://www.w3.org/Graphics/SVG/1.1/DTD/svg11.dtd">
<svg version="1.1" xmlns="http://www.w3.org/2000/svg" xmlns:xlink="http://www.w3.org/1999/xlink" x="0px"
		y="0px" viewBox="0 343.108 841.889 524" enable-background="new 0 343.108 841.889 524"
		xml:space="preserve">
	<path id="television-icon-body_1_" fill="#333333" d="M820.677,863.402c9.313,0,16.873-7.561,16.873-16.867V364.022
		c0-9.325-7.562-16.879-16.873-16.879H21.219c-9.302,0-16.867,7.553-16.867,16.878v482.514c0,9.309,7.565,16.867,16.867,16.867
		H820.677z"/>
	<rect id="youtube-screen-off" x="26.81" y="369.275" width="788.27" height="443.4"/>
	<path id="youtube-television-led" fill="#6ABD45" d="M796.112,857.275c-1.841,0-3.333-1.492-3.333-3.334
		c0-1.841,1.492-3.332,3.333-3.332h11.999c1.841,0,3.333,1.491,3.333,3.332c0,1.842-1.492,3.334-3.333,3.334H796.112z"/>
	<line id="youtube-television-decoration" fill="none" stroke="#8D9092" stroke-width="8" stroke-miterlimit="10" x1="4.352" y1="838.025" x2="837.55" y2="838.025"/>
	<g id="youtube-screen-menu">   
		<rect id="youtube-screen-menu-back" x="26.81" y="369.275" fill="#2F4550" width="788.27" height="443.4"/>
		<g id="video-row-1-col-1" class="menu-selection">
			
			<text id="text-1-1" transform="matrix(1 0 0 1 80.3098 570.0188)" fill="#FFFFFF" font-family="Passion One" font-size="21.3744">1. Chortle Student Comedy Final Set</text>
			<rect id="thumbnail-1-1" x="97.688" y="399.706" fill="#FFFFFF" width="244.858" height="133.168"/>
			<path id="border-1-1_1_" fill="#008890" d="M352.977,543.306H87.257V389.275h265.721V543.306z M97.688,532.874h244.858V399.706
				H97.688V532.874z"/>
		</g>
		<g id="video-row-2-col-1">
			
			<text id="text-2-1" transform="matrix(1 0 0 1 66.3098 794.0168)" fill="#FFFFFF" font-family="Passion One" font-size="21.3744">3. Cube Cinema Standup for Comedy Set</text>
			<rect id="thumbnail-2-1" x="97.687" y="623.704" fill="#FFFFFF" width="244.858" height="133.168"/>
			<path id="border-2-1" fill="#008890" d="M352.977,767.304H87.256V613.273h265.721V767.304z M97.687,756.872h244.858V623.704H97.687
				V756.872z"/>
		</g>
		<g id="video-row-1-col-2">
			
			<text id="text-1-2" transform="matrix(1 0 0 1 472.3098 570.0188)" fill="#FFFFFF" font-family="Passion One" font-size="21.3744">2. Jack Heal’s Murderthon Trailer</text>
			<rect id="thumbnail-1-2" x="477.688" y="399.706" fill="#FFFFFF" width="244.858" height="133.168"/>
			<path id="border-1-2" fill="#008890" d="M732.978,543.306H467.257V389.275h265.721V543.306z M477.688,532.874h244.858V399.706
				H477.688V532.874z"/>
		</g>
		<g id="video-row-2-col-2">
			
			<text id="text-2-2" transform="matrix(1 0 0 1 432.9758 794.0168)" fill="#FFFFFF" font-family="Passion One" font-size="21.3744">4. Do Scientists Dream of Synthetic Sheep?</text>
			<rect id="thumbnail-2-2" x="477.689" y="623.704" fill="#FFFFFF" width="244.857" height="133.168"/>
			<path id="border-2-2" fill="#008890" d="M732.978,767.304H467.257V613.273h265.721V767.304z M477.689,756.872h244.857V623.704
				H477.689V756.872z"/>
		</g>
	</g>
	</svg>
