<?xml version="1.0" encoding="utf-8"?>
<!-- Generator: Adobe Illustrator 16.0.0, SVG Export Plug-In . SVG Version: 6.00 Build 0)  -->
<!DOCTYPE svg PUBLIC "-//W3C//DTD SVG 1.1//EN" "http://www.w3.org/Graphics/SVG/1.1/DTD/svg11.dtd">
<svg version="1.1" id="television-youtube" xmlns="http://www.w3.org/2000/svg" xmlns:xlink="http://www.w3.org/1999/xlink" x="0px"
	 y="0px" width="841.889px" height="631.5px" viewBox="0 8.5 841.889 631.5" enable-background="new 0 8.5 841.889 631.5"
	 xml:space="preserve">
<path id="television-icon-body" fill="#333333" d="M820.677,14.368H21.219c-9.302,0-16.867,7.553-16.867,16.878V503.76
	c0,9.309,7.565,16.867,16.867,16.867h288.624v74.689h-107.94c-8.481,0-15.362,5.002-15.362,11.186v29.131h468.828v-29.131
	c0-6.184-6.887-11.186-15.369-11.186H532.065v-74.689h288.612c9.313,0,16.873-7.559,16.873-16.867V31.247
	C837.55,21.922,829.99,14.368,820.677,14.368z"/>
<rect id="youtube-screen-off" x="26.81" y="36.5" width="788.27" height="443.402"/>
<path id="youtube-television-led" fill="#6ABD45" d="M796.112,514.5c-1.841,0-3.333-1.492-3.333-3.333s1.492-3.333,3.333-3.333
	h11.999c1.841,0,3.333,1.492,3.333,3.333s-1.492,3.333-3.333,3.333H796.112z"/>
<polygon id="channel-up" points="747.779,507.834 732.445,507.834 740.112,492.5 740.112,492.5 "/>
<polygon id="channel-down" points="752.445,492.5 767.779,492.5 760.112,507.834 760.112,507.834 "/>
</svg>
