<?xml version="1.0" encoding="utf-8"?>
<!-- Generator: Adobe Illustrator 16.0.0, SVG Export Plug-In . SVG Version: 6.00 Build 0)  -->
<!DOCTYPE svg PUBLIC "-//W3C//DTD SVG 1.1//EN" "http://www.w3.org/Graphics/SVG/1.1/DTD/svg11.dtd">
<svg version="1.1" id="television-youtube" class="svg-class" xmlns="http://www.w3.org/2000/svg" xmlns:xlink="http://www.w3.org/1999/xlink" x="0px"
	y="0px" viewBox="0 10.25 841.889 525" enable-background="new 0 10.25 841.889 525"
	xml:space="preserve">
	<path id="television-icon-body_1_" fill="#333333" d="M820.677,530.627c9.313,0,16.873-7.56,16.873-16.867V31.247
		c0-9.325-7.561-16.879-16.873-16.879H21.219c-9.302,0-16.867,7.553-16.867,16.878V513.76c0,9.309,7.565,16.867,16.867,16.867
		H820.677z"/>
	<rect id="youtube-screen-off" x="26.81" y="36.5" width="788.27" height="443.401"/>
	<rect id="youtube-screen-menu" fill="#2F4550" x="26.81" y="36.5" width="788.27" height="443.401"/>
	<path id="youtube-television-led" fill="#6ABD45" d="M796.112,524.5c-1.841,0-3.333-1.492-3.333-3.334
		c0-1.841,1.492-3.332,3.333-3.332h11.999c1.841,0,3.333,1.491,3.333,3.332c0,1.842-1.492,3.334-3.333,3.334H796.112z"/>
	<line fill="none" stroke="#8D9092" stroke-width="8" stroke-miterlimit="10" x1="4.352" y1="505.25" x2="837.55" y2="505.25"/>
</svg>